<svg id="Calque_1" data-name="Calque 1" xmlns="http://www.w3.org/2000/svg" viewBox="0 0 85.04 55.72"><title>picto-fruitAndVeg</title><path d="M30.19,10.84a4.32,4.32,0,0,0-7-.27,7.8,7.8,0,0,0-11.69,6.76,7.84,7.84,0,0,0,1,3.79,3.83,3.83,0,0,0,.09,5.69A5.62,5.62,0,1,0,21.26,34a4.91,4.91,0,0,0,4.85-2.95,21.33,21.33,0,0,1,4.76,3.57l2.83,2.84a1.88,1.88,0,0,0,2.65,0l4.41-4.41a1.88,1.88,0,0,0,0-2.64l-1.57-1.58a16.28,16.28,0,0,1-4.52-8.66,5.62,5.62,0,0,0-.26-11.23A5.56,5.56,0,0,0,30.19,10.84ZM22,32.82a5.65,5.65,0,0,0,.53-2.39,6.14,6.14,0,0,0-.08-1l.72.26a19.44,19.44,0,0,1,1.89.8A3.78,3.78,0,0,1,22,32.82ZM33.47,20.1a17.4,17.4,0,0,0,1.77,5.31,1.48,1.48,0,0,0-.72.4l-.71.71a1.46,1.46,0,0,0-.43,1,1.44,1.44,0,0,0,.43,1l1.69,1.7a.6.6,0,0,0,.83,0,.59.59,0,0,0,0-.83l-1.7-1.7a.29.29,0,0,1-.08-.2.31.31,0,0,1,.08-.21l.72-.71a.28.28,0,0,1,.41,0l.42.42.09.07a16.34,16.34,0,0,0,2.09,2.53l1.57,1.57a.71.71,0,0,1,0,1l-3.12,3.12-3-3a.59.59,0,0,0-.83.83l3,3-.47.46a.71.71,0,0,1-1,0L31.7,33.79a22.35,22.35,0,0,0-8.12-5.17l-1.18-.43a5.73,5.73,0,0,0,1.26-1.56L28.26,28a.6.6,0,0,0,.67-.27.61.61,0,0,0,.08-.3.58.58,0,0,0-.17-.41l-4.06-4.06a7.86,7.86,0,0,0,1.15-1.42,6,6,0,0,0,1.27.14,5.57,5.57,0,0,0,1.3-.15l2.86,2.86a.58.58,0,0,0,1-.41V21.07a.59.59,0,1,0-1.17,0v1.44L29.72,21a5.75,5.75,0,0,0,1.93-1.58A5.34,5.34,0,0,0,33.47,20.1Zm-7.06,6.1-2.29-.66a5.94,5.94,0,0,0,.23-1.41ZM38.86,14.65a4.45,4.45,0,0,1-7,3.54.8.8,0,0,0-.25-.11.59.59,0,0,0-.6.27,4.45,4.45,0,0,1-2.47,1.91h0a4.56,4.56,0,0,1-1.28.19,4.49,4.49,0,0,1-1.36-.21.59.59,0,0,0-.7.27,6.7,6.7,0,0,1-1.8,2.09.57.57,0,0,0-.24.46s0,.07,0,.1a4,4,0,0,1,.07.76,4.41,4.41,0,0,1-2.07,3.75.6.6,0,0,0-.21.76,4.41,4.41,0,0,1,.47,2,4.45,4.45,0,1,1-7.51-3.23l.12-.12A4.43,4.43,0,0,1,16.91,26a.6.6,0,0,0,.6-.57.59.59,0,0,0-.59-.6A5.6,5.6,0,0,0,13.46,26a2.65,2.65,0,0,1,.16-4.25.59.59,0,0,0,.16-.8A6.63,6.63,0,0,1,23,11.83l.06.06A6.7,6.7,0,0,1,26,17.21a.61.61,0,0,0,.55.6.58.58,0,0,0,.62-.58h0a7.84,7.84,0,0,0-2.94-6,3.15,3.15,0,0,1,5.36.91.61.61,0,0,0,.5.38.58.58,0,0,0,.55-.28,4.45,4.45,0,0,1,8.26,2.4Z"/><path d="M35,38.13a2,2,0,0,1-1.41-.58l-2.84-2.84a21,21,0,0,0-4.61-3.48,5,5,0,0,1-4.86,2.9,5.74,5.74,0,0,1-8.87-7.3,3.94,3.94,0,0,1-.07-5.73A7.92,7.92,0,0,1,23.2,10.41a4.5,4.5,0,0,1,3.41-1.6,4.44,4.44,0,0,1,3.59,1.83,5.75,5.75,0,1,1,4.62,9.65,16.34,16.34,0,0,0,4.45,8.46l1.57,1.57a2,2,0,0,1,.59,1.41,2,2,0,0,1-.58,1.41l-4.41,4.41A2,2,0,0,1,35,38.13Zm-9-7.25.12.06A21.43,21.43,0,0,1,31,34.53l2.83,2.84a1.74,1.74,0,0,0,1.24.51,1.72,1.72,0,0,0,1.23-.51L40.67,33a1.7,1.7,0,0,0,.51-1.23,1.74,1.74,0,0,0-.51-1.24L39.1,28.92a16.54,16.54,0,0,1-4.55-8.72l0-.14h.15a5.5,5.5,0,1,0-4.39-9.13l-.1.12-.1-.13a4.18,4.18,0,0,0-6.75-.26l-.07.08-.09-.05A7.67,7.67,0,0,0,12.63,21.06l0,.09-.07.06a3.69,3.69,0,0,0,.09,5.51l.09.08-.08.09a5.5,5.5,0,1,0,8.45,7l0-.05h.07A4.77,4.77,0,0,0,26,31ZM35,37a.82.82,0,0,1-.58-.24l-2.84-2.84a22.44,22.44,0,0,0-8.07-5.14l-1.39-.51.17-.14a5.48,5.48,0,0,0,1.23-1.52l.05-.09,4.7,1.35a.45.45,0,0,0,.58-.45.42.42,0,0,0-.13-.32L24.6,22.91l.09-.09a8.11,8.11,0,0,0,1.14-1.4l0-.08.09,0a5.6,5.6,0,0,0,2.51,0l.07,0,.05.05,2.86,2.86a.45.45,0,0,0,.5.1.47.47,0,0,0,.29-.42V21.07a.47.47,0,0,0-.93,0v1.74L29.51,21l.15-.08a5.66,5.66,0,0,0,1.89-1.55l.06-.09.1.06a5.56,5.56,0,0,0,1.78.63h.09l0,.09a17.19,17.19,0,0,0,1.75,5.28l.08.14-.16,0a1.23,1.23,0,0,0-.66.36l-.72.71a1.34,1.34,0,0,0,0,1.89l1.7,1.7a.49.49,0,0,0,.33.13h0a.46.46,0,0,0,.32-.13.47.47,0,0,0,.14-.33.43.43,0,0,0-.14-.32l-1.69-1.7a.4.4,0,0,1-.12-.29.4.4,0,0,1,.12-.3l.71-.71a.42.42,0,0,1,.59,0l.42.42a.19.19,0,0,0,.07.06l0,0a17.42,17.42,0,0,0,2.08,2.52L40,31.15a.82.82,0,0,1,0,1.16l-3.21,3.21-.08-.09-3-3a.47.47,0,0,0-.33-.14h0a.43.43,0,0,0-.32.14.46.46,0,0,0,0,.65l3,3.05-.55.55A.82.82,0,0,1,35,37ZM22.64,28.14l1,.36a22.62,22.62,0,0,1,8.17,5.2l2.83,2.84a.59.59,0,0,0,.82,0l.37-.37L32.94,33.3a.72.72,0,0,1,.5-1.22h0a.71.71,0,0,1,.5.21l2.87,2.87,3-3a.58.58,0,0,0,0-.82l-1.57-1.57a17.57,17.57,0,0,1-2.09-2.53l-.09-.07-.42-.42a.15.15,0,0,0-.23,0l-.72.71a.15.15,0,0,0,0,.12.14.14,0,0,0,0,.11l1.7,1.7a.7.7,0,0,1,0,1,.67.67,0,0,1-.5.21h0a.71.71,0,0,1-.51-.21l-1.69-1.69a1.58,1.58,0,0,1,0-2.25l.71-.71a1.59,1.59,0,0,1,.63-.39,17.63,17.63,0,0,1-1.7-5.12,5.9,5.9,0,0,1-1.68-.59,5.83,5.83,0,0,1-1.75,1.45l1.13,1.14V21.07a.72.72,0,0,1,1.43,0v2.86a.72.72,0,0,1-.44.65.71.71,0,0,1-.78-.15l-2.81-2.81a5.88,5.88,0,0,1-2.47,0,8.49,8.49,0,0,1-1,1.28l4,4a.72.72,0,0,1,.2.5.7.7,0,0,1-.9.69l-4.51-1.29A5.68,5.68,0,0,1,22.64,28.14ZM16.92,35a4.57,4.57,0,0,1-3.15-7.89l0,0a.6.6,0,0,1,.08-.08,4.62,4.62,0,0,1,3-1.15.46.46,0,1,0,0-.92,5.49,5.49,0,0,0-3.39,1.17l-.07.06-.08-.06a2.77,2.77,0,0,1,.17-4.45.46.46,0,0,0,.12-.64,6.76,6.76,0,0,1,5.64-10.43h0a6.71,6.71,0,0,1,3.78,1.16l.07,0a6.89,6.89,0,0,1,2.91,5.43.48.48,0,0,0,.43.48.46.46,0,0,0,.34-.12.45.45,0,0,0,.15-.34,7.72,7.72,0,0,0-2.89-5.89l-.1-.08.08-.1a3.26,3.26,0,0,1,5.57.94.46.46,0,0,0,.39.3.47.47,0,0,0,.44-.22,4.56,4.56,0,0,1,7.17-.82A4.49,4.49,0,0,1,39,14.65h0a4.61,4.61,0,0,1-4.49,4.48h-.08a4.53,4.53,0,0,1-2.64-.84l-.2-.09a.46.46,0,0,0-.48.22,4.53,4.53,0,0,1-2.53,2h0a4.63,4.63,0,0,1-2.71,0,.47.47,0,0,0-.56.21,6.84,6.84,0,0,1-1.84,2.13.45.45,0,0,0-.18.36.22.22,0,0,0,0,.08,5.12,5.12,0,0,1,.06.78,4.56,4.56,0,0,1-2.12,3.86.46.46,0,0,0-.17.59A4.56,4.56,0,0,1,16.92,35Zm0-10.33a.72.72,0,0,1,.51.22.7.7,0,0,1,.2.51.72.72,0,0,1-.72.69,4.35,4.35,0,0,0-2.85,1.09l-.08.07,0,0a4.39,4.39,0,0,0-1.35,3.14,4.33,4.33,0,0,0,8.66,0,4.29,4.29,0,0,0-.46-1.93.72.72,0,0,1,.25-.92,4.31,4.31,0,0,0,2-3.65,4.71,4.71,0,0,0-.06-.74.49.49,0,0,1,0-.12.69.69,0,0,1,.28-.56A6.57,6.57,0,0,0,25,20.46a.71.71,0,0,1,.85-.33,4.41,4.41,0,0,0,2.57,0h0a4.24,4.24,0,0,0,2.4-1.86.72.72,0,0,1,.73-.32.67.67,0,0,1,.3.13,4.31,4.31,0,0,0,2.5.79h.07a4.36,4.36,0,0,0,4.25-4.23,4.32,4.32,0,0,0-8-2.34.71.71,0,0,1-1.27-.12,3,3,0,0,0-5.07-1,8,8,0,0,1,2.89,6,.72.72,0,0,1-.23.53.74.74,0,0,1-.53.19.72.72,0,0,1-.66-.73A6.57,6.57,0,0,0,23,12L23,11.92a6.51,6.51,0,0,0-3.62-1.1h0a6.51,6.51,0,0,0-5.43,10.05.7.7,0,0,1-.19,1,2.52,2.52,0,0,0-.23,4A5.68,5.68,0,0,1,16.92,24.67ZM21.8,33l.09-.2a5.44,5.44,0,0,0,.53-2.34,5,5,0,0,0-.09-.95l0-.22.92.34c.65.24,1.29.51,1.9.8l.11.05-.05.11A3.82,3.82,0,0,1,22,32.94Zm.81-3.32a5,5,0,0,1,.06.78,5.71,5.71,0,0,1-.46,2.23,3.59,3.59,0,0,0,2.69-2.08,18.16,18.16,0,0,0-1.76-.74Zm4.23-3.2L24,25.63l0-.12a5.44,5.44,0,0,0,.22-1.38v-.29Zm-2.57-1,1.71.48-1.53-1.52A6.12,6.12,0,0,1,24.27,25.46Z"/><path d="M35,38.17a2,2,0,0,1-1.44-.59l-2.84-2.84a21.46,21.46,0,0,0-4.56-3.45,5.16,5.16,0,0,1-1.84,2.09,5,5,0,0,1-3,.79,5.79,5.79,0,0,1-8.95-7.34,4,4,0,0,1-1.25-2.9,4,4,0,0,1,1.18-2.84,8.06,8.06,0,0,1-.94-3.76,8,8,0,0,1,11.82-7,4.55,4.55,0,0,1,3.42-1.58,4.47,4.47,0,0,1,3.59,1.8,5.79,5.79,0,1,1,4.67,9.76,16.2,16.2,0,0,0,4.44,8.38l1.57,1.58a2.05,2.05,0,0,1,0,2.88l-4.41,4.41A2,2,0,0,1,35,38.17Zm-9-7.35.16.09A21.19,21.19,0,0,1,31,34.5l2.83,2.84a1.71,1.71,0,0,0,2.41,0l4.41-4.41a1.7,1.7,0,0,0,.5-1.2,1.74,1.74,0,0,0-.5-1.21L39.07,29a16.5,16.5,0,0,1-4.56-8.75l0-.19h.2A5.46,5.46,0,1,0,30.31,11l-.14.16-.12-.18a4.13,4.13,0,0,0-6.68-.25l-.1.11-.12-.07A7.63,7.63,0,0,0,12.67,21l.07.11-.1.09a3.65,3.65,0,0,0-1.17,2.69,3.7,3.7,0,0,0,1.25,2.76l.13.11-.11.12a5.45,5.45,0,1,0,8.39,7l.05-.06h.09a4.8,4.8,0,0,0,2.9-.74A4.75,4.75,0,0,0,26,31ZM35,37a.9.9,0,0,1-.62-.25l-2.83-2.84a22.24,22.24,0,0,0-8.06-5.13l-1.45-.54.22-.18a5.59,5.59,0,0,0,1.22-1.51l.07-.12.13,0,4.6,1.31a.41.41,0,0,0,.47-.18.43.43,0,0,0,.06-.22.4.4,0,0,0-.12-.29l-4.18-4.18.12-.12a7.9,7.9,0,0,0,1.13-1.39l.06-.11.12,0a5.51,5.51,0,0,0,2.49,0l.09,0,.07.06,2.86,2.86a.41.41,0,0,0,.46.09.41.41,0,0,0,.25-.38V21.07a.41.41,0,0,0-.41-.42.42.42,0,0,0-.42.42v1.85L29.43,21l.21-.1a5.27,5.27,0,0,0,1.87-1.54l.09-.11.13.07a5.51,5.51,0,0,0,1.77.63h.12l0,.12a17.13,17.13,0,0,0,1.75,5.27l.1.19-.21,0a1.27,1.27,0,0,0-.64.35l-.71.71a1.28,1.28,0,0,0-.38.92,1.25,1.25,0,0,0,.38.91l1.69,1.7a.42.42,0,0,0,.59,0,.4.4,0,0,0,0-.59l-1.69-1.7a.45.45,0,0,1,0-.65l.71-.71a.46.46,0,0,1,.65,0l.42.43.07,0,0,.05a16.67,16.67,0,0,0,2.07,2.5l1.57,1.57a.89.89,0,0,1,0,1.24l-3.24,3.23-.12-.12-2.95-3a.43.43,0,0,0-.6,0,.41.41,0,0,0,0,.59l3.07,3.08-.58.58A.86.86,0,0,1,35,37ZM22.72,28.12l.92.34a22.69,22.69,0,0,1,8.18,5.21l2.83,2.84a.54.54,0,0,0,.75,0l.35-.34-2.84-2.84A.75.75,0,0,1,34,32.26l2.84,2.84,3-3a.56.56,0,0,0,0-.76l-1.57-1.57a16.54,16.54,0,0,1-2.09-2.53l-.09-.07-.42-.42a.11.11,0,0,0-.17,0l-.72.71a.11.11,0,0,0,0,.09.11.11,0,0,0,0,.08l1.7,1.7a.75.75,0,0,1,0,1.07.77.77,0,0,1-1.07,0l-1.69-1.7a1.63,1.63,0,0,1,0-2.31l.71-.71a1.58,1.58,0,0,1,.6-.38,17.3,17.3,0,0,1-1.67-5.06,5.53,5.53,0,0,1-1.64-.58A5.59,5.59,0,0,1,30,21.08l1,1v-1a.76.76,0,1,1,1.51,0v2.86a.74.74,0,0,1-.47.69.75.75,0,0,1-.82-.16l-2.79-2.79a5.9,5.9,0,0,1-2.44,0,7.92,7.92,0,0,1-1,1.24L29,26.85a.75.75,0,0,1,.22.53.77.77,0,0,1-.11.39.76.76,0,0,1-.86.34l-4.47-1.28A5.58,5.58,0,0,1,22.72,28.12Zm-5.8,6.93a4.62,4.62,0,0,1-3.18-8l0,0,.08-.08a4.67,4.67,0,0,1,3.05-1.16.43.43,0,0,0,.43-.41.41.41,0,0,0-.42-.42,5.45,5.45,0,0,0-3.36,1.15l-.1.09-.11-.09a2.82,2.82,0,0,1,.18-4.52.42.42,0,0,0,.11-.57,6.71,6.71,0,0,1-1.09-4,6.79,6.79,0,0,1,6.76-6.51h0a6.75,6.75,0,0,1,3.8,1.16l.07.06a6.88,6.88,0,0,1,2.93,5.46.44.44,0,0,0,.39.44.56.56,0,0,0,.31-.12.39.39,0,0,0,.14-.3,7.66,7.66,0,0,0-2.88-5.85L24,11.27l.11-.13a3.3,3.3,0,0,1,5.64.95.44.44,0,0,0,.35.27.38.38,0,0,0,.4-.2,4.59,4.59,0,0,1,3.95-2.22A4.63,4.63,0,0,1,39,14.65h0a4.64,4.64,0,0,1-4.53,4.52H34.4a4.62,4.62,0,0,1-2.66-.85.36.36,0,0,0-.18-.08.4.4,0,0,0-.43.19,4.59,4.59,0,0,1-2.56,2l0,0a4.74,4.74,0,0,1-2.74,0,.42.42,0,0,0-.5.19,6.92,6.92,0,0,1-1.85,2.14.43.43,0,0,0-.17.33.15.15,0,0,0,0,.07,5.39,5.39,0,0,1,.07.79,4.61,4.61,0,0,1-2.15,3.9.42.42,0,0,0-.15.54,4.61,4.61,0,0,1-4.13,6.68Zm0-10.42a.73.73,0,0,1,.54.23.7.7,0,0,1,.21.54.76.76,0,0,1-.76.74,4.25,4.25,0,0,0-2.82,1.07.23.23,0,0,0-.07.07l0,0a4.28,4.28,0,1,0,7.23,3.11,4.22,4.22,0,0,0-.45-1.91.76.76,0,0,1,.27-1,4.25,4.25,0,0,0,2-3.61A4.59,4.59,0,0,0,23,23.2a.53.53,0,0,1,0-.13.75.75,0,0,1,.3-.6,6.61,6.61,0,0,0,1.76-2,.74.74,0,0,1,.9-.35,4.36,4.36,0,0,0,2.53,0l.09.15-.05-.16a4.26,4.26,0,0,0,2.37-1.84.76.76,0,0,1,.78-.34.8.8,0,0,1,.32.13,4.17,4.17,0,0,0,2.46.79h.08a4.32,4.32,0,0,0,4.21-4.19,4.28,4.28,0,0,0-7.94-2.32.75.75,0,0,1-.72.36.77.77,0,0,1-.63-.48,3,3,0,0,0-2.79-1.93,2.93,2.93,0,0,0-2.17,1,8,8,0,0,1,2.86,6,.73.73,0,0,1-.24.56.71.71,0,0,1-.56.2.77.77,0,0,1-.71-.76A6.54,6.54,0,0,0,23,12L22.92,12a6.45,6.45,0,0,0-3.59-1.08h0a6.45,6.45,0,0,0-5.39,10,.77.77,0,0,1-.2,1,2.48,2.48,0,0,0-.26,3.89A5.74,5.74,0,0,1,16.92,24.63ZM21.73,33l.13-.27a5.45,5.45,0,0,0,.51-2.32,4.9,4.9,0,0,0-.08-.94l-.05-.29,1,.36c.65.24,1.29.51,1.9.8l.14.07-.06.15A3.9,3.9,0,0,1,22,33Zm.94-3.31a5.79,5.79,0,0,1,0,.72,5.61,5.61,0,0,1-.43,2.18,3.59,3.59,0,0,0,2.57-2,17.5,17.5,0,0,0-1.73-.72ZM27,26.54l-3.08-.88,0-.17a5.24,5.24,0,0,0,.23-1.36v-.39Zm-2.67-1.11,1.51.43-1.34-1.34A5.82,5.82,0,0,1,24.32,25.43Z"/><path d="M35,38.3a2.18,2.18,0,0,1-1.53-.63l-2.84-2.84a20.92,20.92,0,0,0-4.42-3.37,5.18,5.18,0,0,1-4.85,2.84,5.91,5.91,0,0,1-9.17-7.46,4.12,4.12,0,0,1-.06-5.77,8.09,8.09,0,0,1,11-10.87,4.58,4.58,0,0,1,7,.18A5.92,5.92,0,1,1,35,20.44a16.11,16.11,0,0,0,4.37,8.19L41,30.2a2.15,2.15,0,0,1,0,3.06l-4.4,4.4A2.15,2.15,0,0,1,35,38.3Zm-8.9-7.18.12.06a20.92,20.92,0,0,1,4.59,3.47l2.83,2.84a1.94,1.94,0,0,0,1.36.56,1.9,1.9,0,0,0,1.35-.56l4.41-4.41a1.9,1.9,0,0,0,.56-1.35,1.94,1.94,0,0,0-.56-1.36L39.22,28.8a16.3,16.3,0,0,1-4.47-8.45l0-.13.14,0a5.66,5.66,0,1,0-4.57-9.54l-.1.1-.09-.11a4.34,4.34,0,0,0-6.81-.21l-.07.07-.09,0A7.84,7.84,0,0,0,11.5,17.33a7.92,7.92,0,0,0,.92,3.7l.05.08-.07.07a3.88,3.88,0,0,0,.07,5.56l.08.08-.07.09a5.66,5.66,0,0,0,8.76,7.18l0,0h.06a5,5,0,0,0,4.74-2.81ZM35,38a1.81,1.81,0,0,1-1.29-.53L30.9,34.59A21.24,21.24,0,0,0,26.13,31l0,0,0,.05a4.87,4.87,0,0,1-1.83,2.16,5,5,0,0,1-3,.76h0a5.53,5.53,0,0,1-4.3,2,5.58,5.58,0,0,1-4.27-9.17l0,0,0,0a3.77,3.77,0,0,1-1.3-2.85,3.81,3.81,0,0,1,1.21-2.78l0,0,0,0A7.75,7.75,0,0,1,23.21,10.61l0,0,0,0a4.26,4.26,0,0,1,6.88.26l0,.05,0,0a5.58,5.58,0,1,1,4.45,9.26h-.05v.05a16.55,16.55,0,0,0,4.52,8.69l1.57,1.56a1.83,1.83,0,0,1,0,2.59l-4.41,4.41A1.81,1.81,0,0,1,35,38ZM26,30.64l.28.16a21.52,21.52,0,0,1,4.83,3.61l2.83,2.84a1.57,1.57,0,0,0,1.12.46h0a1.51,1.51,0,0,0,1.1-.46l4.41-4.4a1.59,1.59,0,0,0,0-2.24L39,29a16.66,16.66,0,0,1-4.6-8.82l-.05-.32.33,0A5.33,5.33,0,1,0,30.41,11l-.25.29L30,11a4,4,0,0,0-6.49-.25l-.16.2-.22-.13A7.51,7.51,0,0,0,12.78,21l.11.2-.17.16a3.52,3.52,0,0,0,.09,5.25l.21.19-.18.22A5.33,5.33,0,1,0,21,33.81l.1-.11h.15A4.72,4.72,0,0,0,24.1,33a4.56,4.56,0,0,0,1.74-2.05ZM35,37.13a1,1,0,0,1-.7-.29L31.49,34a22.26,22.26,0,0,0-8-5.11l-1.66-.6.39-.33a5.31,5.31,0,0,0,1.19-1.47l.11-.21.23.07,4.6,1.31a.28.28,0,0,0,.33-.12.33.33,0,0,0,0-.16.3.3,0,0,0-.09-.21l-4.27-4.26.21-.21a7.37,7.37,0,0,0,1.12-1.37l.11-.18.2.05a5.25,5.25,0,0,0,2.43,0l.16,0,3,3a.28.28,0,0,0,.31.07.29.29,0,0,0,.19-.27V21.07a.3.3,0,1,0-.59,0v2.15L29.22,21l.37-.18a5.4,5.4,0,0,0,1.83-1.5l.15-.21.22.13a5.33,5.33,0,0,0,1.73.61l.21,0,0,.2a17.42,17.42,0,0,0,1.74,5.23l.18.34-.38.08a1.21,1.21,0,0,0-.57.32l-.72.71a1.17,1.17,0,0,0,0,1.65l1.7,1.7a.3.3,0,0,0,.41,0,.29.29,0,0,0,0-.42L34.43,28a.57.57,0,0,1-.17-.41.59.59,0,0,1,.17-.42l.71-.71a.59.59,0,0,1,.82,0l.43.43,0,0,.07.06a16.91,16.91,0,0,0,2.06,2.51L40.14,31a1,1,0,0,1,.29.7,1,1,0,0,1-.29.7l-3.32,3.32-.21-.2-3-3a.29.29,0,0,0-.42,0,.3.3,0,0,0,0,.41l3.17,3.17-.67.67A1,1,0,0,1,35,37.13ZM22.31,28.2l1.26.46a22.47,22.47,0,0,1,8.1,5.16l2.83,2.84a.77.77,0,0,0,1.06,0l.49-.49-3-3a.54.54,0,1,1,.76-.77l3,3L40,32.26a.75.75,0,0,0,0-1.06l-1.57-1.57a17.53,17.53,0,0,1-2.08-2.52l0,0-.07,0-.42-.42a.33.33,0,0,0-.47,0l-.72.71a.32.32,0,0,0-.09.24.31.31,0,0,0,.09.23l1.7,1.7a.54.54,0,0,1,0,.76.53.53,0,0,1-.76,0l-1.7-1.69a1.41,1.41,0,0,1,0-2l.71-.71a1.42,1.42,0,0,1,.7-.38l.06,0,0-.05a17.24,17.24,0,0,1-1.76-5.3v0h0a5.51,5.51,0,0,1-1.81-.64l0,0,0,0A5.46,5.46,0,0,1,29.7,21l-.05,0,1.58,1.59V21.07a.55.55,0,0,1,.55-.55.55.55,0,0,1,.54.55v2.86a.54.54,0,0,1-.93.38l-2.88-2.88h0a5.49,5.49,0,0,1-2.55,0h0v0a8.31,8.31,0,0,1-1.15,1.42l0,0L28.81,27a.55.55,0,0,1,.16.38.57.57,0,0,1-.08.28.56.56,0,0,1-.62.25l-4.63-1.33,0,0a5.5,5.5,0,0,1-1.25,1.54ZM35,36.78h0a.66.66,0,0,1-.47-.18l-2.83-2.84a22.5,22.5,0,0,0-8.13-5.18l-1.11-.41.14-.14a5.55,5.55,0,0,0,1-1.26l.05-.09.1,0L28.25,28A.64.64,0,0,0,29,27.7a.66.66,0,0,0,.08-.32.62.62,0,0,0-.18-.44l-4-4,.09-.09a7.73,7.73,0,0,0,1-1.21l0-.07H26a5.62,5.62,0,0,0,2.38,0h.07l.05,0,2.79,2.79a.65.65,0,0,0,.69.14.64.64,0,0,0,.38-.58V21.07a.63.63,0,1,0-1.25,0v1.34l-1.36-1.36.15-.08a5.48,5.48,0,0,0,1.65-1.38l.07-.08.09,0a5.35,5.35,0,0,0,1.6.56l.08,0,0,.09a17.33,17.33,0,0,0,1.66,5l.06.13-.13.05a1.4,1.4,0,0,0-.55.35l-.71.71a1.51,1.51,0,0,0,0,2.13l1.69,1.7a.63.63,0,0,0,.89-.9l-1.69-1.69a.25.25,0,0,1-.08-.17.25.25,0,0,1,.08-.18l.71-.71a.23.23,0,0,1,.17-.07h0a.23.23,0,0,1,.17.07l.42.43.07,0,0,0a17.53,17.53,0,0,0,2.08,2.52l1.57,1.56a.68.68,0,0,1,.19.47.64.64,0,0,1-.19.46l-3.09,3.09-2.93-2.93a.64.64,0,0,0-.89,0,.63.63,0,0,0,0,.89l2.92,2.93-.43.43A.63.63,0,0,1,35,36.78ZM23,28.07l.73.27a22.82,22.82,0,0,1,8.23,5.24l2.83,2.84a.42.42,0,0,0,.29.11h0a.44.44,0,0,0,.29-.11l.25-.25-2.75-2.75a.89.89,0,0,1,0-1.25.88.88,0,0,1,1.24,0l2.75,2.75L39.72,32a.41.41,0,0,0,0-.58l-1.57-1.57a16.54,16.54,0,0,1-2.09-2.53L36,27.28l-.43-.44-.71.72,1.7,1.69a.88.88,0,1,1-1.24,1.24L33.6,28.8a1.77,1.77,0,0,1-.51-1.24,1.74,1.74,0,0,1,.51-1.24l.71-.72a1.73,1.73,0,0,1,.52-.36,17.34,17.34,0,0,1-1.61-4.89,5.68,5.68,0,0,1-1.5-.52,5.85,5.85,0,0,1-1.52,1.28l.7.69v-.73a.88.88,0,1,1,1.75,0v2.86a.88.88,0,0,1-.54.81.89.89,0,0,1-1-.19L28.41,21.8a6,6,0,0,1-2.34,0,7.86,7.86,0,0,1-.88,1.1l3.86,3.85a.9.9,0,0,1,.25.62.89.89,0,0,1-.12.45.88.88,0,0,1-1,.4L23.8,27A6,6,0,0,1,23,28.07Zm-6,7.1A4.75,4.75,0,0,1,13.65,27l0,0a.75.75,0,0,0,.09-.09,4.72,4.72,0,0,1,3.13-1.18.3.3,0,0,0,.3-.29.25.25,0,0,0-.08-.21.29.29,0,0,0-.21-.09,5.26,5.26,0,0,0-3.28,1.13l-.19.15-.18-.15a3,3,0,0,1,.18-4.72.29.29,0,0,0,.08-.41A6.91,6.91,0,0,1,19.3,10.41h0a6.83,6.83,0,0,1,3.89,1.18l.08.06a7,7,0,0,1,3,5.56.32.32,0,0,0,.28.31.37.37,0,0,0,.22-.08.27.27,0,0,0,.09-.21A7.56,7.56,0,0,0,24,11.47l-.23-.18.19-.23a3.44,3.44,0,0,1,5.86,1,.28.28,0,0,0,.25.19.25.25,0,0,0,.27-.14,4.75,4.75,0,0,1,8.8,2.57,4.78,4.78,0,0,1-4.66,4.64H34.4a4.69,4.69,0,0,1-2.73-.87l-.13-.06a.3.3,0,0,0-.3.13,4.72,4.72,0,0,1-2.51,2l.19.64-.36-.58a4.77,4.77,0,0,1-2.8,0,.33.33,0,0,0-.36.14,7,7,0,0,1-1.89,2.18.3.3,0,0,0-.11.23v0a4.62,4.62,0,0,1,.07.82,4.72,4.72,0,0,1-2.2,4,.3.3,0,0,0-.11.38,4.59,4.59,0,0,1,.5,2.12A4.74,4.74,0,0,1,16.92,35.17Zm0-10.33a.55.55,0,0,1,.39.16.54.54,0,0,1,.15.4.56.56,0,0,1-.55.53,4.45,4.45,0,0,0-3,1.12l-.07.06-.05.06a4.49,4.49,0,1,0,7.11,1.25.55.55,0,0,1,.19-.7,4.47,4.47,0,0,0,2.09-3.79,5.09,5.09,0,0,0-.06-.77.28.28,0,0,1,0-.09.56.56,0,0,1,.21-.43,6.68,6.68,0,0,0,1.82-2.1.56.56,0,0,1,.65-.25,4.57,4.57,0,0,0,2.59,0l-.05-.07a4.46,4.46,0,0,1-2.51-.06.64.64,0,0,0-.75.3,6.75,6.75,0,0,1-1.8,2.07.66.66,0,0,0-.25.5.41.41,0,0,0,0,.11,5,5,0,0,1,.07.75,4.41,4.41,0,0,1-2.05,3.72.63.63,0,0,0-.23.81,4.36,4.36,0,0,1,.47,2,4.41,4.41,0,1,1-7.44-3.2l0,0a.46.46,0,0,1,.07-.07A4.47,4.47,0,0,1,16.91,26a.64.64,0,0,0,.64-.61.63.63,0,0,0-.18-.45.61.61,0,0,0-.45-.2,5.62,5.62,0,0,0-3.38,1.12l-.08.06-.08-.06a2.68,2.68,0,0,1-.87-1.94,2.6,2.6,0,0,1,1.14-2.15.63.63,0,0,0,.16-.87A6.59,6.59,0,0,1,19.3,10.74,6.49,6.49,0,0,1,23,11.85l.08.07a6.64,6.64,0,0,1,2.85,5.29.63.63,0,0,0,1.06.48.67.67,0,0,0,.2-.47,7.89,7.89,0,0,0-2.83-5.9l-.1-.08.09-.1a3.1,3.1,0,0,1,5.17,1,.66.66,0,0,0,.53.41h0a.64.64,0,0,0,.56-.3,4.39,4.39,0,0,1,6.91-.79,4.31,4.31,0,0,1,1.26,3.17A4.43,4.43,0,0,1,34.48,19H34.4a4.45,4.45,0,0,1-2.54-.8A.56.56,0,0,0,31.6,18a.62.62,0,0,0-.65.29,4.42,4.42,0,0,1-2.32,1.85l0,.08A4.55,4.55,0,0,0,31,18.37a.52.52,0,0,1,.56-.24.43.43,0,0,1,.22.1,4.47,4.47,0,0,0,2.59.82h.08a4.5,4.5,0,0,0,3.14-7.64,4.51,4.51,0,0,0-7,.81.5.5,0,0,1-.53.26.53.53,0,0,1-.44-.35,3.22,3.22,0,0,0-3-2.06,3.18,3.18,0,0,0-2.45,1.15l0,0,0,0a7.79,7.79,0,0,1,2.92,6,.52.52,0,0,1-.17.39.6.6,0,0,1-.39.15.57.57,0,0,1-.53-.56,6.74,6.74,0,0,0-2.87-5.36l-.08-.06A6.67,6.67,0,0,0,13.74,21a.54.54,0,0,1-.14.74,2.7,2.7,0,0,0-1.17,2.23,2.66,2.66,0,0,0,1,2.09l0,0,0,0A5.58,5.58,0,0,1,16.92,24.84Zm0-.34a.89.89,0,0,1,.63.27.85.85,0,0,1,.25.64.88.88,0,0,1-.89.85,4.19,4.19,0,0,0-2.74,1l-.06.06,0,.05a4.21,4.21,0,0,0-1.3,3,4.16,4.16,0,1,0,7.88-1.86A.87.87,0,0,1,21,27.44a4.15,4.15,0,0,0,1.94-3.51,3.49,3.49,0,0,0-.07-.71s0-.09,0-.15a.89.89,0,0,1,.35-.7,6.48,6.48,0,0,0,1.73-2,.87.87,0,0,1,1-.41,4.26,4.26,0,0,0,2.4,0l.11,0a4.16,4.16,0,0,0,2.3-1.78.86.86,0,0,1,.9-.41A1.1,1.1,0,0,1,32,18a4.09,4.09,0,0,0,2.39.76h.08a4.18,4.18,0,0,0,4.08-4.07,4.16,4.16,0,0,0-7.71-2.24.87.87,0,0,1-.78.42h0a.9.9,0,0,1-.75-.57,2.84,2.84,0,0,0-4.66-1,8.13,8.13,0,0,1,2.81,6,.87.87,0,0,1-.28.65.85.85,0,0,1-.67.24.89.89,0,0,1-.81-.89,6.43,6.43,0,0,0-2.74-5.1l-.09-.07A6.25,6.25,0,0,0,19.33,11,6.33,6.33,0,0,0,13,17.06a6.23,6.23,0,0,0,1,3.71A.89.89,0,0,1,13.79,22a2.37,2.37,0,0,0-1,1.95,2.42,2.42,0,0,0,.71,1.68A5.91,5.91,0,0,1,16.92,24.5Zm4.6,8.67.22-.48a5.19,5.19,0,0,0,.51-2.26,5.62,5.62,0,0,0-.08-.92l-.09-.5,1.2.43a20.26,20.26,0,0,1,1.91.81l.25.12-.1.26A4,4,0,0,1,22,33.11Zm.88-3.78v.07a5.31,5.31,0,0,1,.09,1A5.58,5.58,0,0,1,22,32.8l0,.07H22a3.78,3.78,0,0,0,3.1-2.33v0h0a16.74,16.74,0,0,0-1.89-.8Zm-.32,3.38.09-.21a5.53,5.53,0,0,0,.41-2.13,5.37,5.37,0,0,0,0-.7l0-.21.64.24c.6.22,1.19.46,1.74.72l.11.06-.05.11a3.7,3.7,0,0,1-2.65,2.08Zm.73-2.87a4.61,4.61,0,0,1,0,.53,5.88,5.88,0,0,1-.34,2,3.44,3.44,0,0,0,2.19-1.77c-.51-.24-1.05-.46-1.6-.67Zm4.61-3.11-3.67-1.05.08-.28a5,5,0,0,0,.22-1.34l0-.67Zm-3.36-1.22,2.5.72L24.31,24v.1a5.46,5.46,0,0,1-.22,1.4Zm2.2.54-2.09-.6,0-.12a5.36,5.36,0,0,0,.16-.89l0-.26Zm-1.79-.77.93.26-.82-.81A5.35,5.35,0,0,1,24.47,25.34Z"/><path d="M63.08,28.32a.55.55,0,0,0-.42.66.56.56,0,1,0,.42-.66Z"/><path d="M63.2,29.55a.72.72,0,0,1-.37-.11.65.65,0,0,1-.29-.43.68.68,0,0,1,.52-.82.69.69,0,0,1,.29,1.34Zm0-1.12h-.09a.4.4,0,0,0-.27.19.41.41,0,0,0-.06.32.4.4,0,0,0,.19.28.47.47,0,0,0,.33.06.44.44,0,0,0,.33-.52.44.44,0,0,0-.19-.27A.4.4,0,0,0,63.2,28.43Z"/><path d="M63.21,29.58a.72.72,0,0,1-.16-1.42h0a.72.72,0,0,1,.86.55.73.73,0,0,1-.55.86Zm-.09-1.11a.41.41,0,0,0-.31.48.42.42,0,0,0,.48.3.4.4,0,0,0,.3-.47.41.41,0,0,0-.47-.31Z"/><path d="M63.21,29.71a.85.85,0,0,1-.83-.67.82.82,0,0,1,.11-.63A.8.8,0,0,1,63,28a.84.84,0,0,1,1,.64.85.85,0,0,1-.11.64.87.87,0,0,1-.53.37Zm0-1.44h-.13a.6.6,0,0,0-.38.26.63.63,0,0,0-.08.45.61.61,0,0,0,.59.47l.12,0a.57.57,0,0,0,.38-.26.58.58,0,0,0,.07-.45A.58.58,0,0,0,63.21,28.27Zm0,1.11a.54.54,0,0,1-.53-.4.53.53,0,0,1,.4-.63h0a.54.54,0,0,1,.62.4.52.52,0,0,1-.4.62Zm-.08-.79a.3.3,0,0,0-.21.33.29.29,0,0,0,.34.21.28.28,0,0,0,.2-.33A.28.28,0,0,0,63.14,28.59Z"/><path d="M60.17,27.49a.56.56,0,1,0,.67.43A.57.57,0,0,0,60.17,27.49Z"/><path d="M60.29,28.72a.68.68,0,0,1-.67-.53.69.69,0,1,1,1.34-.3.7.7,0,0,1-.52.82Zm0-1.12H60.2a.51.51,0,0,0-.28.19.48.48,0,0,0-.06.33.51.51,0,0,0,.19.28.43.43,0,0,0,.33.05.38.38,0,0,0,.27-.19.37.37,0,0,0,.06-.32.42.42,0,0,0-.19-.28A.48.48,0,0,0,60.29,27.6Z"/><path d="M60.29,28.76a.77.77,0,0,1-.39-.11.74.74,0,0,1-.31-.46.69.69,0,0,1,.09-.54.74.74,0,0,1,.46-.31.7.7,0,0,1,.54.09.72.72,0,0,1-.24,1.31Zm0-1.12H60.2a.39.39,0,0,0-.25.17.45.45,0,0,0-.05.3.35.35,0,0,0,.17.25.4.4,0,0,0,.3.06.42.42,0,0,0,.31-.48.45.45,0,0,0-.18-.25A.37.37,0,0,0,60.29,27.64Z"/><path d="M60.29,28.88a.82.82,0,0,1-.46-.13.84.84,0,0,1-.37-.53.9.9,0,0,1,.12-.64.84.84,0,0,1,.53-.37.85.85,0,0,1,1,.65.81.81,0,0,1-.11.63.77.77,0,0,1-.53.37A.55.55,0,0,1,60.29,28.88Zm0-1.44-.12,0a.53.53,0,0,0-.38.26.55.55,0,0,0-.08.45.57.57,0,0,0,.26.37.59.59,0,0,0,.44.08.6.6,0,0,0,.38-.26.63.63,0,0,0,.08-.45.58.58,0,0,0-.26-.37A.55.55,0,0,0,60.29,27.44Zm0,1.12a.46.46,0,0,1-.28-.08.52.52,0,0,1-.23-.33.48.48,0,0,1,.07-.39.5.5,0,0,1,.32-.23.51.51,0,0,1,.4.07.49.49,0,0,1,.23.33.49.49,0,0,1-.07.39.52.52,0,0,1-.33.23Zm-.09-.79a.37.37,0,0,0-.14.12.27.27,0,0,0,.08.38.27.27,0,0,0,.21,0,.3.3,0,0,0,.17-.12.32.32,0,0,0,0-.21.3.3,0,0,0-.12-.17.33.33,0,0,0-.21,0Z"/><path d="M60.77,30.07a.56.56,0,0,0-.42.67.56.56,0,0,0,1.09-.24A.55.55,0,0,0,60.77,30.07Z"/><path d="M60.89,31.3a.68.68,0,0,1-.66-.54.67.67,0,0,1,.52-.81.65.65,0,0,1,.51.09.66.66,0,0,1,.3.43.69.69,0,0,1-.52.82Zm0-1.12h-.1a.48.48,0,0,0-.27.19.43.43,0,0,0-.06.33.44.44,0,0,0,.19.27A.39.39,0,0,0,61,31a.4.4,0,0,0,.27-.19.47.47,0,0,0,.06-.33.44.44,0,0,0-.19-.27A.39.39,0,0,0,60.9,30.18Z"/><path d="M60.9,31.34a.74.74,0,1,1,.15,0Zm0-1.12h-.09a.4.4,0,0,0-.31.47A.42.42,0,0,0,61,31a.4.4,0,0,0,.3-.48A.38.38,0,0,0,60.9,30.22Z"/><path d="M60.9,31.46a.84.84,0,0,1-.19-1.67.85.85,0,0,1,1,.64.85.85,0,0,1-.64,1A.62.62,0,0,1,60.9,31.46Zm0-1.44a.3.3,0,0,0-.13,0,.57.57,0,0,0-.38.26.62.62,0,0,0-.08.44.6.6,0,0,0,.59.47H61a.6.6,0,0,0,.46-.71.59.59,0,0,0-.27-.38A.56.56,0,0,0,60.9,30Zm0,1.12a.54.54,0,0,1-.53-.41.56.56,0,0,1,.07-.4.59.59,0,0,1,.33-.23h.12a.53.53,0,0,1,.11,1Zm0-.8h-.06a.26.26,0,0,0-.18.12.24.24,0,0,0,0,.2.28.28,0,0,0,.33.21.27.27,0,0,0-.06-.54Z"/><path d="M57.49,28.66a.56.56,0,0,0-.42.67.56.56,0,0,0,1.09-.24A.55.55,0,0,0,57.49,28.66Z"/><path d="M57.61,29.89a.69.69,0,0,1-.67-.54.68.68,0,0,1,.53-.81.65.65,0,0,1,.51.09.66.66,0,0,1,.3.43.65.65,0,0,1-.09.51.66.66,0,0,1-.43.3Zm0-1.12h-.09a.44.44,0,0,0-.33.52.4.4,0,0,0,.19.27.39.39,0,0,0,.33.06.44.44,0,0,0,.27-.19.47.47,0,0,0,.06-.33.44.44,0,0,0-.19-.27A.4.4,0,0,0,57.61,28.77Z"/><path d="M57.61,29.93a.72.72,0,0,1-.7-.57.73.73,0,0,1,.55-.86h0a.72.72,0,0,1,.31,1.41Zm-.08-1.12h0a.4.4,0,0,0,.17.79.4.4,0,0,0-.17-.79Z"/><path d="M57.61,30.05a.85.85,0,1,1,.83-1,.81.81,0,0,1-.12.64.84.84,0,0,1-.53.37Zm0-1.44h-.13a.6.6,0,0,0,.12,1.18h.13a.59.59,0,0,0,.37-.26.56.56,0,0,0,.08-.45A.59.59,0,0,0,57.62,28.61Zm0,1.12a.53.53,0,0,1-.12-1h0a.54.54,0,0,1,.62.4.53.53,0,0,1-.4.63Zm-.07-.79a.28.28,0,0,0-.21.33.28.28,0,0,0,.33.2.27.27,0,1,0-.12-.53Z"/><path d="M73.38,38.78H68.89a11.88,11.88,0,0,0,.38-9.91c.64-2.33.51-3.72-.12-4.14s-2.23-.35-3.83.19A11,11,0,0,0,58,24.39,17.61,17.61,0,0,0,45.66,36.75,11,11,0,0,0,46.2,44c-.24,1.2-.77,3.11-.09,3.89s2.78.47,3.91,0a11.52,11.52,0,0,0,7.75.49,10.64,10.64,0,0,0,16.17-9.08A.56.56,0,0,0,73.38,38.78Zm-2.82,1.11a7.26,7.26,0,0,1-1.73,4.18l-4.17-4.18Zm-2.52,5a7.19,7.19,0,0,1-4.18,1.73v-5.9ZM50.31,46.79c-.24-.14-2.52,1.07-3.25.34s.45-3,.32-3.25c-2.15-4-.63-9.93,3.61-14.16S61.2,24,65.18,26.1c.14.06,2.6-1,3.25-.34s-.33,3-.34,3.25c1.44,2.67,1.27,6.3-.44,9.77H53.23a.56.56,0,0,0-.56.56,10.59,10.59,0,0,0,3.88,8.21A9.41,9.41,0,0,1,50.31,46.79Zm12.43-6.1v5.9a7.19,7.19,0,0,1-4.17-1.73Zm-5,3.38a7.26,7.26,0,0,1-1.73-4.17H62Zm5.52,4.78a9.44,9.44,0,0,1-5.14-1.51h0a9.45,9.45,0,0,1-4.35-7.44h1.12a8.4,8.4,0,0,0,8.37,7.83,8.4,8.4,0,0,0,8.38-7.84H72.8A9.53,9.53,0,0,1,63.3,48.85Z"/><path d="M63.3,50.1a10.73,10.73,0,0,1-5.55-1.55A11.65,11.65,0,0,1,50,48.07c-1.13.45-3.26.66-4,0s-.32-2.29-.05-3.53c0-.16.06-.3.09-.44a11,11,0,0,1-.53-7.33A17.71,17.71,0,0,1,58,24.27a11.21,11.21,0,0,1,7.32.51c1.6-.53,3.23-.59,3.89-.15s.79,2,.19,4.23a12,12,0,0,1-.33,9.79h4.3a.68.68,0,0,1,.68.69A10.77,10.77,0,0,1,63.3,50.1Zm-5.51-1.82,0,0a10.5,10.5,0,0,0,16-9,.44.44,0,0,0-.43-.44H68.69l.08-.17c1.56-3.46,1.71-7,.39-9.8l0,0v-.05c.58-2.1.55-3.59-.07-4s-2.2-.32-3.72.2h0l0,0a10.87,10.87,0,0,0-7.19-.52A17.46,17.46,0,0,0,45.78,36.78a10.9,10.9,0,0,0,.53,7.2l0,0v0c0,.15-.06.31-.1.48-.24,1.13-.57,2.67,0,3.31s2.69.41,3.76,0l.05,0,0,0a11.38,11.38,0,0,0,7.67.48Zm5.51.7a9.64,9.64,0,0,1-9.62-9.07v-.14h1.38v.12a8.27,8.27,0,0,0,16.51,0v-.12h1.38v.13A9.66,9.66,0,0,1,63.3,49Zm-9.36-9a9.29,9.29,0,0,0,4.29,7.22A9.39,9.39,0,0,0,72.67,40H71.8a8.52,8.52,0,0,1-17,0Zm.46,7.86a8.73,8.73,0,0,1-4.14-1,2.36,2.36,0,0,0-.64.18c-.84.27-2.09.69-2.65.14s-.14-1.7.12-2.59a3,3,0,0,0,.17-.7c-2.16-4-.63-10,3.64-14.3S61.19,23.83,65.22,26l.42-.12c1.13-.35,2.38-.69,2.88-.19s.18,1.77-.18,2.9c0,.17-.11.34-.12.42,1.43,2.68,1.26,6.36-.46,9.84l0,.07H53.23a.44.44,0,0,0-.43.44,10.43,10.43,0,0,0,3.83,8.11l.2.17-.26.05A11.71,11.71,0,0,1,54.4,47.88Zm-4.14-1.23a.2.2,0,0,1,.11,0h0a9.08,9.08,0,0,0,5.89.79,10.71,10.71,0,0,1-3.71-8.13.68.68,0,0,1,.68-.69H67.57c1.66-3.4,1.81-7,.41-9.58l0,0v0a3.89,3.89,0,0,1,.14-.51c.23-.71.69-2.19.24-2.64s-1.92,0-2.63.25c-.41.12-.5.15-.57.12-4-2.13-9.86-.62-14.06,3.59s-5.71,10.09-3.59,14c.06.12,0,.35-.16.88-.21.73-.57,1.95-.18,2.34s1.66,0,2.39-.2A3,3,0,0,1,50.26,46.65Zm12.61.08h-.13A7.34,7.34,0,0,1,58.49,45l-.1-.09.09-.1,4.39-4.38Zm-4.11-1.88a7,7,0,0,0,3.86,1.61V41Zm5,1.88V40.39l4.48,4.48-.1.09a7.34,7.34,0,0,1-4.25,1.76ZM64,41v5.47a7,7,0,0,0,3.86-1.61Zm4.84,3.26-4.48-4.48h6.34v.13a7.34,7.34,0,0,1-1.76,4.25ZM65,40l3.86,3.87A7,7,0,0,0,70.42,40Zm-7.18,4.23-.09-.1a7.27,7.27,0,0,1-1.76-4.24v-.14h6.33ZM56.19,40a7,7,0,0,0,1.6,3.87L61.65,40Z"/><path d="M63.3,50.13a10.78,10.78,0,0,1-5.56-1.54A11.63,11.63,0,0,1,50,48.11c-1.16.46-3.26.66-4-.07s-.33-2.31-.06-3.57a3.38,3.38,0,0,0,.09-.41,11.23,11.23,0,0,1-.53-7.35A17.74,17.74,0,0,1,58,24.23a11.24,11.24,0,0,1,7.33.51c1.61-.52,3.25-.59,3.91-.14s.81,2,.21,4.26a12,12,0,0,1-.32,9.76h4.25a.72.72,0,0,1,.72.72A10.8,10.8,0,0,1,63.3,50.13Zm-5.51-1.89.06,0a10.48,10.48,0,0,0,15.93-8.94.4.4,0,0,0-.4-.4H68.64l.1-.23a11.71,11.71,0,0,0,.39-9.77l0-.05,0-.06c.57-2.08.55-3.56-.06-4s-2.17-.31-3.69.2l-.06,0-.06,0a10.83,10.83,0,0,0-7.17-.51A17.38,17.38,0,0,0,45.82,36.79,10.72,10.72,0,0,0,46.35,44l0,.05v0c0,.15-.06.3-.1.47-.24,1.12-.57,2.66,0,3.28s2.54.45,3.72,0l.07,0,.07,0a11.23,11.23,0,0,0,7.64.48ZM63.3,49a9.67,9.67,0,0,1-9.66-9.1v-.17h1.44v.15a8.23,8.23,0,0,0,16.43,0v-.15H73v.17A9.68,9.68,0,0,1,63.3,49ZM54,40.06a9.4,9.4,0,0,0,4.27,7.15,9.36,9.36,0,0,0,14.38-7.16h-.8a8.56,8.56,0,0,1-17,0Zm.42,7.86a8.77,8.77,0,0,1-4.15-1,3.55,3.55,0,0,0-.62.17c-.84.28-2.11.71-2.68.13s-.15-1.72.11-2.61a3.16,3.16,0,0,0,.16-.69c-2.16-4-.63-10,3.66-14.34s10.29-5.81,14.34-3.66c.07,0,.25-.07.41-.12,1.14-.35,2.4-.69,2.92-.17s.18,1.79-.17,2.93a3.13,3.13,0,0,0-.12.4c1.43,2.7,1.26,6.38-.47,9.87l0,.09H53.23a.4.4,0,0,0-.4.4,10.44,10.44,0,0,0,3.82,8.09l.26.21-.33.07A11.82,11.82,0,0,1,54.4,47.92Zm-4.14-1.31a.28.28,0,0,1,.13,0h0a9,9,0,0,0,5.79.81,10.75,10.75,0,0,1-3.67-8.11.72.72,0,0,1,.72-.72H67.55c1.64-3.39,1.79-6.95.4-9.53l0,0V29a2.7,2.7,0,0,1,.14-.52c.22-.7.68-2.17.25-2.61s-1.94.06-2.6.26c-.43.13-.51.16-.6.12-3.94-2.12-9.82-.61-14,3.58s-5.69,10.06-3.58,14c.07.14,0,.34-.15.92s-.57,1.92-.19,2.3,1.63,0,2.35-.21A2.88,2.88,0,0,1,50.26,46.61Zm13.44.16V40.3l4.57,4.57-.13.11a7.31,7.31,0,0,1-4.26,1.77ZM64,41.08v5.34a7,7,0,0,0,3.77-1.57Zm-1.12,5.69-.18,0A7.31,7.31,0,0,1,58.47,45l-.13-.11.12-.12,4.45-4.45Zm-4.1-1.92a7,7,0,0,0,3.77,1.57V41.08Zm10-.54-4.57-4.58h6.46v.18A7.37,7.37,0,0,1,69,44.18ZM65,40.05l3.78,3.78a7,7,0,0,0,1.56-3.78Zm-7.27,4.26-.11-.13a7.37,7.37,0,0,1-1.77-4.27v-.17h6.46Zm-1.54-4.25a7,7,0,0,0,1.56,3.77l3.78-3.77Z"/><path d="M63.3,50.26a10.85,10.85,0,0,1-5.58-1.54A11.69,11.69,0,0,1,50,48.24c-1.19.45-3.3.67-4.09-.11s-.38-2.4-.1-3.68c0-.13.06-.26.08-.38a11.35,11.35,0,0,1-.52-7.39A17.89,17.89,0,0,1,58,24.11a11.27,11.27,0,0,1,7.36.5c1.66-.53,3.29-.58,4-.11s.89,2,.27,4.35a12.07,12.07,0,0,1-.26,9.64h4.06a.85.85,0,0,1,.84.85A10.93,10.93,0,0,1,63.3,50.26Zm-5.54-1.81.05,0A10.66,10.66,0,0,0,74,39.34a.59.59,0,0,0-.59-.6H68.94l.08-.17a11.89,11.89,0,0,0,.31-9.66l0,0v0c.59-2.17.53-3.67-.15-4.13s-2.23-.35-3.8.16l-.05,0,0,0A11.1,11.1,0,0,0,58,24.35,17.64,17.64,0,0,0,45.62,36.74,11.06,11.06,0,0,0,46.15,44v.07l-.09.42c-.27,1.23-.6,2.76,0,3.46s2.75.47,3.87,0L50,48l0,0a11.48,11.48,0,0,0,7.64.48Zm5.54,1.49a10.56,10.56,0,0,1-5.51-1.55h0A11.38,11.38,0,0,1,50,47.9h0c-1.23.51-3.22.63-3.85,0s-.26-2.25,0-3.4c0-.16.07-.32.1-.47h0a11,11,0,0,1-.53-7.26A17.52,17.52,0,0,1,58.05,24.42,10.93,10.93,0,0,1,65.3,25h0c1.58-.53,3.18-.6,3.8-.19s.7,1.94.11,4.1v0h0a11.79,11.79,0,0,1-.39,9.87l0,.06h4.55a.52.52,0,0,1,.52.52A10.61,10.61,0,0,1,63.3,49.94Zm-5.49-1.83.11.06a10.33,10.33,0,0,0,15.73-8.83.27.27,0,0,0-.27-.27H68.45l.17-.41A11.58,11.58,0,0,0,69,29l0-.1,0-.1c.54-2,.54-3.46,0-3.83s-2.12-.27-3.58.22l-.11,0-.1,0a10.68,10.68,0,0,0-7.1-.51A17.29,17.29,0,0,0,45.94,36.82a10.65,10.65,0,0,0,.52,7.09l0,.09,0,.09c0,.15-.06.31-.1.48-.22,1-.56,2.59-.05,3.17s2.44.39,3.58-.07l.12-.05.11.05a11.11,11.11,0,0,0,7.55.47Zm5.49,1a9.8,9.8,0,0,1-9.78-9.23l0-.3h1.7v.27a8.11,8.11,0,0,0,16.19,0v-.26h1.7l0,.3A9.81,9.81,0,0,1,63.3,49.14Zm-9.53-9.28v0a9.59,9.59,0,0,0,4.37,7.47,9.46,9.46,0,0,0,5.16,1.52,9.56,9.56,0,0,0,9.54-9v0H71.65v0A8.39,8.39,0,0,1,63.3,47.7a8.3,8.3,0,0,1-5.9-2.45A8.39,8.39,0,0,1,55,39.9v0Zm9.53,9a9.35,9.35,0,0,1-5.12-1.51,9.55,9.55,0,0,1-4.33-7.24v-.13h1v.11a8.48,8.48,0,0,0,2.45,5.25,8.38,8.38,0,0,0,5.95,2.47A8.47,8.47,0,0,0,71.7,40v-.11h1.06v.13A9.53,9.53,0,0,1,63.3,48.82Zm-9.19-8.63a9.28,9.28,0,0,0,4.2,6.91,9.18,9.18,0,0,0,5,1.47,9.28,9.28,0,0,0,9.2-8.39h-.56A8.73,8.73,0,0,1,63.3,48a8.62,8.62,0,0,1-6.13-2.54,8.77,8.77,0,0,1-2.51-5.29Zm.29,7.86a8.71,8.71,0,0,1-4.17-1l-.54.16c-.9.3-2.2.74-2.83.11s-.19-1.81.07-2.73A5.65,5.65,0,0,0,47.1,44c-2.17-4.07-.63-10.14,3.69-14.46s10.36-5.84,14.45-3.7l.28-.08.07,0c1.17-.36,2.48-.71,3-.14s.25,1.82-.13,3.06c0,.12-.09.26-.11.34,1.42,2.74,1.24,6.45-.48,9.95l-.08.16H53.23a.27.27,0,0,0-.27.27,10.29,10.29,0,0,0,3.77,8l.47.39-.6.11A11.89,11.89,0,0,1,54.4,48.05Zm-4.12-1.24,0,0a8.61,8.61,0,0,0,4.09,1,11.37,11.37,0,0,0,2.15-.22h.08l-.06,0a10.57,10.57,0,0,1-3.86-8.18.52.52,0,0,1,.52-.52H67.67v0c1.7-3.45,1.88-7.1.47-9.76l0,0V29a3.73,3.73,0,0,1,.12-.41c.25-.8.72-2.29.2-2.81s-1.61-.16-2.79.21l-.08,0-.34.09h0l0,0c-4-2.12-10-.59-14.2,3.64S45.19,39.9,47.33,43.88l0,0a2.66,2.66,0,0,1-.17.74c-.25.87-.59,2-.14,2.49s1.73.11,2.54-.15h0a3,3,0,0,1,.64-.18Zm4.13.91a8.45,8.45,0,0,1-4.08-1h-.07a2.92,2.92,0,0,0-.69.19c-.8.26-2,.66-2.48.17s-.14-1.41.16-2.42c.14-.49.2-.73.16-.82-2.14-4-.62-9.89,3.6-14.12s10.2-5.74,14.17-3.6c0,0,.13,0,.5-.13,1.12-.34,2.31-.64,2.73-.23s0,1.95-.22,2.73a5.09,5.09,0,0,0-.14.5h0c1.41,2.62,1.26,6.22-.4,9.64l0,.07H53.23a.6.6,0,0,0-.6.6,10.71,10.71,0,0,0,3.63,8l.2.17-.26,0A11.09,11.09,0,0,1,54.41,47.72Zm-4.15-1.23a.41.41,0,0,1,.19,0,8.79,8.79,0,0,0,5.45.84,10.91,10.91,0,0,1-3.52-8,.85.85,0,0,1,.85-.85H67.47c1.6-3.32,1.73-6.81.37-9.34l0-.07V29a2.92,2.92,0,0,1,.15-.55c.2-.64.66-2.11.28-2.49s-2,.13-2.47.29-.55.17-.68.12c-3.9-2.1-9.73-.61-13.89,3.55s-5.65,10-3.56,13.82c.09.19,0,.43-.14,1s-.55,1.86-.23,2.18,1.58,0,2.23-.24A2.85,2.85,0,0,1,50.26,46.49Zm13.32.41V40l4.88,4.88-.24.2a7.52,7.52,0,0,1-4.33,1.8Zm.25-6.3v6h0a7.21,7.21,0,0,0,4.19-1.74l0,0ZM63,46.9l-.31,0a7.52,7.52,0,0,1-4.33-1.8l-.24-.21.22-.21L63,40Zm-4.51-2,0,0a7.21,7.21,0,0,0,4.19,1.74h0v-6Zm5.38,1.7V40.78L68,44.86l-.1.09A7.17,7.17,0,0,1,64,46.54Zm.25-5.18v4.9a7,7,0,0,0,3.46-1.44Zm-1.44,5.18-.14,0A7.17,7.17,0,0,1,58.73,45l-.1-.09,4.08-4.08ZM59,44.84a7,7,0,0,0,3.46,1.44v-4.9Zm9.84-.35L64,39.61h6.9l0,.31A7.47,7.47,0,0,1,69,44.26Zm-4.27-4.63,4.26,4.26,0,0a7.19,7.19,0,0,0,1.74-4.2v0Zm-6.8,4.63-.2-.23a7.45,7.45,0,0,1-1.8-4.34l0-.31h6.9ZM56,39.86v0a7.24,7.24,0,0,0,1.73,4.2l0,0L62,39.86ZM68.83,44l-.1-.1-4-4h5.78v.14a7.11,7.11,0,0,1-1.6,3.84Zm-3.49-3.84,3.47,3.47a6.93,6.93,0,0,0,1.43-3.47ZM57.78,44l-.08-.11a7.11,7.11,0,0,1-1.6-3.84v-.13h5.78Zm-1.41-3.83a6.93,6.93,0,0,0,1.43,3.46l3.46-3.46Z"/></svg>