<?xml version="1.0" encoding="utf-8"?>
<!-- Generator: Adobe Illustrator 23.1.1, SVG Export Plug-In . SVG Version: 6.00 Build 0)  -->
<svg version="1.1" id="Calque_1" xmlns="http://www.w3.org/2000/svg" xmlns:xlink="http://www.w3.org/1999/xlink" x="0px" y="0px"
	 viewBox="0 0 85 55.7" style="enable-background:new 0 0 85 55.7;" xml:space="preserve">
<style type="text/css">
	.st0{opacity:0.9;clip-path:url(#SVGID_2_);}
	.st1{fill:#08F9D6;}
	.st2{fill:#1FFFC4;}
	.st3{fill:none;stroke:#000000;stroke-width:2.8103;stroke-miterlimit:10;}
	.st4{fill:none;}
	.st5{fill:url(#SVGID_13_);}
	.st6{fill:url(#SVGID_14_);}
	.st7{fill:#C7C7C7;}
	.st8{fill:url(#SVGID_15_);}
	.st9{fill:url(#SVGID_16_);}
	.st10{fill:url(#SVGID_17_);}
	.st11{fill:url(#SVGID_18_);}
	.st12{fill:#3E3E3E;}
	.st13{fill:url(#SVGID_19_);}
	.st14{fill:url(#SVGID_20_);}
	.st15{fill:url(#SVGID_21_);}
	.st16{fill:url(#SVGID_22_);}
	.st17{fill:url(#SVGID_23_);}
	.st18{fill:url(#SVGID_24_);}
	.st19{fill:url(#SVGID_27_);}
	.st20{filter:url(#Adobe_OpacityMaskFilter);}
	.st21{filter:url(#Adobe_OpacityMaskFilter_1_);}
	.st22{mask:url(#SVGID_28_);fill:url(#SVGID_29_);}
	.st23{fill:url(#SVGID_30_);}
	.st24{fill:url(#SVGID_31_);}
	.st25{fill:url(#SVGID_32_);}
	.st26{fill:#3B3B3B;}
	.st27{fill:#666666;}
	.st28{fill:url(#SVGID_33_);}
	.st29{fill:url(#SVGID_34_);}
	.st30{fill:url(#SVGID_35_);}
	.st31{fill:url(#SVGID_36_);}
	.st32{fill:url(#SVGID_37_);}
	.st33{fill:url(#SVGID_38_);}
	.st34{filter:url(#Adobe_OpacityMaskFilter_2_);}
	.st35{filter:url(#Adobe_OpacityMaskFilter_3_);}
	.st36{mask:url(#SVGID_39_);fill:url(#SVGID_40_);}
	.st37{fill:url(#SVGID_41_);}
	.st38{fill:url(#SVGID_42_);}
	.st39{fill:url(#SVGID_43_);}
	.st40{clip-path:url(#SVGID_45_);}
	.st41{fill:#FFFFFF;stroke:#000000;stroke-width:0.4645;stroke-miterlimit:10;}
	.st42{fill:#828282;}
	.st43{fill:none;stroke:#FFFFFF;stroke-width:0.4533;stroke-miterlimit:10;}
	.st44{fill:#FFFFFF;}
	.st45{fill:none;stroke:#FFFFFF;stroke-width:0.3461;stroke-miterlimit:10;}
	.st46{fill:#191919;}
	.st47{fill:none;stroke:#FFFFFF;stroke-width:0.178;stroke-miterlimit:10;}
	.st48{fill:none;stroke:#FFFFFF;stroke-width:0.1701;stroke-miterlimit:10;}
	.st49{filter:url(#Adobe_OpacityMaskFilter_4_);}
	.st50{filter:url(#Adobe_OpacityMaskFilter_5_);}
	.st51{mask:url(#SVGID_48_);fill:url(#SVGID_49_);}
	.st52{opacity:0.2;fill:url(#SVGID_50_);}
	.st53{fill:#FFFFFF;stroke:#686868;stroke-width:0.3461;stroke-miterlimit:10;}
	.st54{fill:none;stroke:#FFFFFF;stroke-width:0.3647;stroke-miterlimit:10;}
	.st55{fill:none;stroke:#FFFFFF;stroke-width:1.0353;stroke-miterlimit:10;}
	.st56{fill:none;stroke:#FFFFFF;stroke-width:0.5291;stroke-miterlimit:10;}
	.st57{fill:none;stroke:#FFFFFF;stroke-width:0.8823;stroke-miterlimit:10;}
	.st58{filter:url(#Adobe_OpacityMaskFilter_6_);}
	.st59{filter:url(#Adobe_OpacityMaskFilter_7_);}
	.st60{mask:url(#SVGID_53_);fill:url(#SVGID_54_);}
	.st61{opacity:0.2;fill:url(#SVGID_55_);}
	.st62{fill:#B43FE0;}
	.st63{fill:#26E186;}
	.st64{fill:none;stroke:#000000;stroke-miterlimit:10;}
	.st65{fill:none;stroke:#000000;stroke-width:0.4033;stroke-miterlimit:10;}
	.st66{clip-path:url(#SVGID_57_);}
	.st67{fill:none;stroke:#FFFFFF;stroke-width:0.8873;stroke-miterlimit:10;}
	.st68{fill:#F184FF;}
	.st69{fill:none;stroke:#FFFFFF;stroke-width:0.4033;stroke-miterlimit:10;}
	.st70{fill:none;stroke:#FFFFFF;stroke-width:0.8067;stroke-miterlimit:10;}
	.st71{fill:none;stroke:#FFFFFF;stroke-width:1.6133;stroke-miterlimit:10;}
	.st72{fill:#FFFFFF;stroke:#686868;stroke-width:0.3983;stroke-miterlimit:10;}
	.st73{fill:none;stroke:#FFFFFF;stroke-width:0.8394;stroke-miterlimit:10;}
	.st74{clip-path:url(#SVGID_59_);}
	.st75{fill:none;stroke:#FFFFFF;stroke-width:1.1915;stroke-miterlimit:10;}
	.st76{fill:none;stroke:#FFFFFF;stroke-width:1.259;stroke-miterlimit:10;}
	.st77{fill:none;stroke:#FFFFFF;stroke-width:1.0152;stroke-miterlimit:10;}
	.st78{fill:#A13DF9;}
	.st79{fill:#2E00EF;}
	.st80{fill:none;stroke:#191919;stroke-width:0.5541;stroke-miterlimit:10;}
	.st81{fill:none;stroke:#191919;stroke-width:1.1082;stroke-miterlimit:10;}
	.st82{fill:none;stroke:#191919;stroke-width:1.212;stroke-miterlimit:10;}
	.st83{fill:#191919;stroke:#191919;stroke-width:0.5833;stroke-miterlimit:10;}
	.st84{fill:none;stroke:#FFFFFF;stroke-width:1.087;stroke-miterlimit:10;}
	.st85{fill:none;stroke:#A13DF9;stroke-width:1.212;stroke-miterlimit:10;}
	.st86{fill:none;stroke:#FFFFFF;stroke-width:1.2676;stroke-miterlimit:10;}
	.st87{clip-path:url(#SVGID_61_);}
	.st88{fill:none;stroke:#FFFFFF;stroke-width:1.2258;stroke-miterlimit:10;}
	.st89{enable-background:new    ;}
	.st90{clip-path:url(#SVGID_63_);enable-background:new    ;}
	.st91{fill:#858585;}
	.st92{fill:#8A8A8A;}
	.st93{fill:#8F8F8F;}
	.st94{fill:#949494;}
	.st95{fill:#999999;}
	.st96{fill:#9E9E9E;}
	.st97{fill:#A3A3A3;}
	.st98{fill:#A8A8A8;}
	.st99{fill:#ADADAD;}
	.st100{clip-path:url(#SVGID_65_);enable-background:new    ;}
	.st101{clip-path:url(#SVGID_67_);enable-background:new    ;}
	.st102{clip-path:url(#SVGID_69_);enable-background:new    ;}
	.st103{clip-path:url(#SVGID_71_);enable-background:new    ;}
	.st104{clip-path:url(#SVGID_73_);enable-background:new    ;}
	.st105{fill:#D6D6D6;}
	.st106{clip-path:url(#SVGID_75_);enable-background:new    ;}
	.st107{clip-path:url(#SVGID_77_);enable-background:new    ;}
	.st108{clip-path:url(#SVGID_79_);enable-background:new    ;}
	.st109{fill:#A5A5A5;}
	.st110{fill:#8E8E8E;}
	.st111{fill:#B0B0B0;}
	.st112{fill:#939393;}
	.st113{fill:#B3B3B3;}
	.st114{fill:#898989;}
	.st115{clip-path:url(#SVGID_81_);enable-background:new    ;}
	.st116{clip-path:url(#SVGID_83_);enable-background:new    ;}
	.st117{clip-path:url(#SVGID_85_);enable-background:new    ;}
	.st118{clip-path:url(#SVGID_87_);enable-background:new    ;}
	.st119{clip-path:url(#SVGID_89_);enable-background:new    ;}
	.st120{clip-path:url(#SVGID_91_);enable-background:new    ;}
	.st121{clip-path:url(#SVGID_93_);enable-background:new    ;}
	.st122{fill:#848484;}
	.st123{clip-path:url(#SVGID_95_);enable-background:new    ;}
	.st124{clip-path:url(#SVGID_97_);enable-background:new    ;}
	.st125{clip-path:url(#SVGID_99_);enable-background:new    ;}
	.st126{clip-path:url(#SVGID_101_);enable-background:new    ;}
	.st127{clip-path:url(#SVGID_103_);enable-background:new    ;}
	.st128{clip-path:url(#SVGID_105_);enable-background:new    ;}
	.st129{clip-path:url(#SVGID_107_);enable-background:new    ;}
	.st130{clip-path:url(#SVGID_109_);enable-background:new    ;}
	.st131{clip-path:url(#SVGID_111_);enable-background:new    ;}
	.st132{clip-path:url(#SVGID_113_);enable-background:new    ;}
	.st133{fill:none;stroke:#FFFFFF;stroke-width:1.4447;stroke-miterlimit:10;}
	.st134{fill:none;stroke:#FFFFFF;stroke-width:2.5207;stroke-miterlimit:10;}
	.st135{fill:#FFFFFF;stroke:#A13DF9;stroke-width:1.5068;stroke-miterlimit:10;}
	.st136{clip-path:url(#SVGID_115_);enable-background:new    ;}
	.st137{clip-path:url(#SVGID_117_);enable-background:new    ;}
	.st138{clip-path:url(#SVGID_119_);enable-background:new    ;}
	.st139{clip-path:url(#SVGID_121_);enable-background:new    ;}
	.st140{clip-path:url(#SVGID_123_);enable-background:new    ;}
	.st141{clip-path:url(#SVGID_125_);enable-background:new    ;}
	.st142{clip-path:url(#SVGID_127_);enable-background:new    ;}
	.st143{clip-path:url(#SVGID_129_);enable-background:new    ;}
	.st144{clip-path:url(#SVGID_131_);enable-background:new    ;}
	.st145{clip-path:url(#SVGID_133_);enable-background:new    ;}
	.st146{clip-path:url(#SVGID_135_);enable-background:new    ;}
	.st147{clip-path:url(#SVGID_137_);enable-background:new    ;}
	.st148{clip-path:url(#SVGID_139_);enable-background:new    ;}
	.st149{clip-path:url(#SVGID_141_);enable-background:new    ;}
	.st150{clip-path:url(#SVGID_143_);enable-background:new    ;}
	.st151{clip-path:url(#SVGID_145_);enable-background:new    ;}
	.st152{clip-path:url(#SVGID_147_);enable-background:new    ;}
	.st153{clip-path:url(#SVGID_149_);enable-background:new    ;}
	.st154{clip-path:url(#SVGID_151_);enable-background:new    ;}
	.st155{fill:#08F9D6;stroke:#191919;stroke-width:0.5357;stroke-miterlimit:10;}
	.st156{fill:#FFFFFF;stroke:#191919;stroke-width:1.1187;stroke-miterlimit:10;}
	.st157{clip-path:url(#SVGID_153_);enable-background:new    ;}
	.st158{clip-path:url(#SVGID_155_);enable-background:new    ;}
	.st159{clip-path:url(#SVGID_157_);enable-background:new    ;}
	.st160{clip-path:url(#SVGID_159_);enable-background:new    ;}
	.st161{clip-path:url(#SVGID_161_);enable-background:new    ;}
	.st162{clip-path:url(#SVGID_163_);enable-background:new    ;}
	.st163{clip-path:url(#SVGID_165_);enable-background:new    ;}
	.st164{clip-path:url(#SVGID_167_);enable-background:new    ;}
	.st165{clip-path:url(#SVGID_169_);enable-background:new    ;}
	.st166{clip-path:url(#SVGID_171_);enable-background:new    ;}
	.st167{clip-path:url(#SVGID_173_);enable-background:new    ;}
	.st168{clip-path:url(#SVGID_175_);enable-background:new    ;}
	.st169{clip-path:url(#SVGID_177_);enable-background:new    ;}
	.st170{clip-path:url(#SVGID_179_);enable-background:new    ;}
	.st171{clip-path:url(#SVGID_181_);enable-background:new    ;}
	.st172{fill:#DADADA;}
	.st173{clip-path:url(#SVGID_183_);enable-background:new    ;}
	.st174{clip-path:url(#SVGID_185_);enable-background:new    ;}
	.st175{clip-path:url(#SVGID_187_);enable-background:new    ;}
	.st176{clip-path:url(#SVGID_189_);enable-background:new    ;}
	.st177{clip-path:url(#SVGID_191_);enable-background:new    ;}
	.st178{clip-path:url(#SVGID_193_);enable-background:new    ;}
	.st179{clip-path:url(#SVGID_195_);enable-background:new    ;}
	.st180{clip-path:url(#SVGID_197_);enable-background:new    ;}
	.st181{clip-path:url(#SVGID_199_);enable-background:new    ;}
	.st182{clip-path:url(#SVGID_201_);enable-background:new    ;}
	.st183{clip-path:url(#SVGID_203_);enable-background:new    ;}
	.st184{fill:#808080;}
	.st185{clip-path:url(#SVGID_205_);enable-background:new    ;}
	.st186{clip-path:url(#SVGID_207_);enable-background:new    ;}
	.st187{clip-path:url(#SVGID_209_);enable-background:new    ;}
	.st188{clip-path:url(#SVGID_211_);enable-background:new    ;}
	.st189{clip-path:url(#SVGID_213_);enable-background:new    ;}
	.st190{clip-path:url(#SVGID_215_);enable-background:new    ;}
	.st191{clip-path:url(#SVGID_217_);enable-background:new    ;}
	.st192{clip-path:url(#SVGID_219_);enable-background:new    ;}
	.st193{clip-path:url(#SVGID_221_);enable-background:new    ;}
	.st194{clip-path:url(#SVGID_223_);enable-background:new    ;}
	.st195{clip-path:url(#SVGID_225_);enable-background:new    ;}
	.st196{clip-path:url(#SVGID_227_);enable-background:new    ;}
	.st197{clip-path:url(#SVGID_229_);enable-background:new    ;}
	.st198{fill:#AAAAAA;}
	.st199{clip-path:url(#SVGID_231_);enable-background:new    ;}
	.st200{clip-path:url(#SVGID_233_);enable-background:new    ;}
	.st201{clip-path:url(#SVGID_235_);enable-background:new    ;}
	.st202{clip-path:url(#SVGID_237_);enable-background:new    ;}
	.st203{clip-path:url(#SVGID_239_);enable-background:new    ;}
	.st204{clip-path:url(#SVGID_241_);enable-background:new    ;}
	.st205{clip-path:url(#SVGID_243_);enable-background:new    ;}
	.st206{clip-path:url(#SVGID_245_);enable-background:new    ;}
	.st207{clip-path:url(#SVGID_247_);enable-background:new    ;}
	.st208{clip-path:url(#SVGID_249_);enable-background:new    ;}
	.st209{clip-path:url(#SVGID_251_);enable-background:new    ;}
	.st210{clip-path:url(#SVGID_253_);enable-background:new    ;}
	.st211{clip-path:url(#SVGID_255_);enable-background:new    ;}
	.st212{clip-path:url(#SVGID_257_);enable-background:new    ;}
	.st213{clip-path:url(#SVGID_259_);enable-background:new    ;}
	.st214{clip-path:url(#SVGID_261_);enable-background:new    ;}
	.st215{clip-path:url(#SVGID_263_);enable-background:new    ;}
	.st216{clip-path:url(#SVGID_265_);enable-background:new    ;}
	.st217{fill:#ABABAB;}
	.st218{clip-path:url(#SVGID_267_);enable-background:new    ;}
	.st219{clip-path:url(#SVGID_269_);enable-background:new    ;}
	.st220{clip-path:url(#SVGID_271_);enable-background:new    ;}
	.st221{clip-path:url(#SVGID_273_);enable-background:new    ;}
	.st222{clip-path:url(#SVGID_275_);enable-background:new    ;}
	.st223{clip-path:url(#SVGID_277_);enable-background:new    ;}
	.st224{clip-path:url(#SVGID_279_);enable-background:new    ;}
	.st225{clip-path:url(#SVGID_281_);enable-background:new    ;}
	.st226{clip-path:url(#SVGID_283_);enable-background:new    ;}
	.st227{clip-path:url(#SVGID_285_);enable-background:new    ;}
	.st228{clip-path:url(#SVGID_287_);enable-background:new    ;}
	.st229{clip-path:url(#SVGID_289_);enable-background:new    ;}
	.st230{clip-path:url(#SVGID_291_);enable-background:new    ;}
	.st231{clip-path:url(#SVGID_293_);enable-background:new    ;}
	.st232{clip-path:url(#SVGID_295_);enable-background:new    ;}
	.st233{clip-path:url(#SVGID_297_);enable-background:new    ;}
	.st234{clip-path:url(#SVGID_299_);enable-background:new    ;}
	.st235{clip-path:url(#SVGID_301_);enable-background:new    ;}
	.st236{clip-path:url(#SVGID_303_);enable-background:new    ;}
	.st237{clip-path:url(#SVGID_305_);enable-background:new    ;}
	.st238{clip-path:url(#SVGID_307_);enable-background:new    ;}
	.st239{clip-path:url(#SVGID_309_);enable-background:new    ;}
	.st240{clip-path:url(#SVGID_311_);enable-background:new    ;}
	.st241{clip-path:url(#SVGID_313_);enable-background:new    ;}
	.st242{clip-path:url(#SVGID_315_);enable-background:new    ;}
	.st243{clip-path:url(#SVGID_317_);enable-background:new    ;}
	.st244{clip-path:url(#SVGID_319_);enable-background:new    ;}
	.st245{clip-path:url(#SVGID_321_);enable-background:new    ;}
	.st246{clip-path:url(#SVGID_323_);enable-background:new    ;}
	.st247{clip-path:url(#SVGID_325_);enable-background:new    ;}
	.st248{clip-path:url(#SVGID_327_);enable-background:new    ;}
	.st249{clip-path:url(#SVGID_329_);enable-background:new    ;}
	.st250{clip-path:url(#SVGID_331_);enable-background:new    ;}
	.st251{clip-path:url(#SVGID_333_);enable-background:new    ;}
	.st252{clip-path:url(#SVGID_335_);enable-background:new    ;}
	.st253{clip-path:url(#SVGID_337_);enable-background:new    ;}
	.st254{clip-path:url(#SVGID_339_);enable-background:new    ;}
	.st255{fill:#FFFFFF;stroke:#000000;stroke-width:1.5255;}
	.st256{fill:#F70B4E;}
	.st257{fill:none;stroke:#000000;stroke-width:2.0339;stroke-miterlimit:10;}
	.st258{fill:none;stroke:#191919;stroke-width:0.8599;stroke-miterlimit:10;}
	.st259{fill:none;stroke:#FFFFFF;stroke-width:0.4649;stroke-miterlimit:10;}
	.st260{fill:none;stroke:#191919;stroke-width:1.0392;stroke-miterlimit:10;}
	.st261{fill:#191919;stroke:#191919;stroke-width:0.5001;stroke-miterlimit:10;}
	.st262{fill:none;stroke:#FFFFFF;stroke-width:0.4944;stroke-miterlimit:10;}
	.st263{fill:#FFFFFF;stroke:#686868;stroke-width:0.4092;stroke-miterlimit:10;}
	.st264{fill:none;stroke:#FFFFFF;stroke-width:0.5767;stroke-miterlimit:10;}
	.st265{fill:#FFFFFF;stroke:#191919;stroke-width:1.0712;stroke-miterlimit:10;}
	.st266{fill:#FFFFFF;stroke:#000000;stroke-miterlimit:10;}
	.st267{stroke:#000000;stroke-width:0.843;}
	.st268{clip-path:url(#SVGID_343_);}
	.st269{fill:none;stroke:#FFFFFF;stroke-width:0.487;stroke-miterlimit:10;}
	.st270{fill:#08F9D6;stroke:#070707;stroke-width:1.5048;stroke-miterlimit:10;}
	.st271{fill:#FFFFFF;stroke:#000000;stroke-width:1.336;stroke-miterlimit:10;}
	.st272{fill:none;stroke:#FFFFFF;stroke-width:0.3186;stroke-miterlimit:10;}
	.st273{clip-path:url(#SVGID_345_);}
	.st274{clip-path:url(#SVGID_347_);}
	.st275{clip-path:url(#SVGID_349_);}
	.st276{fill:#FFFFFF;stroke:#000000;stroke-width:0.7497;stroke-miterlimit:10;}
	.st277{fill:#FFFFFF;stroke:#000000;stroke-width:0.7805;stroke-miterlimit:10;}
	.st278{fill:#FFFFFF;stroke:#000000;stroke-width:0.7629;stroke-miterlimit:10;}
	.st279{fill:#08F9D6;stroke:#070707;stroke-width:1.1759;stroke-miterlimit:10;}
	.st280{fill:#FFFFFF;stroke:#000000;stroke-width:1.1024;stroke-miterlimit:10;}
	.st281{fill:#FFFFFF;stroke:#000000;stroke-width:1.8;stroke-miterlimit:10;}
	.st282{fill:#FFA476;}
	.st283{fill:none;stroke:#000000;stroke-width:1.5068;stroke-miterlimit:10;}
	.st284{fill:#FFFFFF;stroke:#000000;stroke-width:1.7556;stroke-miterlimit:10;}
	.st285{fill:#FFFFFF;stroke:#000000;stroke-width:1.9269;stroke-miterlimit:10;}
	.st286{fill:#364EFF;}
	.st287{fill:none;stroke:#000000;stroke-width:1.3967;stroke-miterlimit:10;}
	.st288{fill:#FF245E;}
	.st289{fill:#08F9D6;stroke:#070707;stroke-width:1.7755;stroke-miterlimit:10;}
	.st290{fill:#FFFFFF;stroke:#000000;stroke-width:1.6646;stroke-miterlimit:10;}
	.st291{fill:#FFFFFF;stroke:#000000;stroke-width:2.664;stroke-miterlimit:10;}
	.st292{fill:#FFFFFF;stroke:#000000;stroke-width:1.37;stroke-miterlimit:10;}
	.st293{fill:#FFFFFF;stroke:#000000;stroke-width:0.4598;stroke-miterlimit:10;}
	.st294{fill:#FFFFFF;stroke:#000000;stroke-width:1.1496;stroke-miterlimit:10;}
	.st295{fill:none;stroke:#FFFFFF;stroke-width:0.6758;stroke-miterlimit:10;}
	.st296{fill:#FFFFFF;stroke:#000000;stroke-width:2.5956;stroke-miterlimit:10;}
	.st297{fill:#A6A6A6;}
	.st298{fill:#FFA476;stroke:#070707;stroke-width:1.8248;stroke-miterlimit:10;}
	.st299{fill:#FFFFFF;stroke:#000000;stroke-width:1.8248;stroke-miterlimit:10;}
	.st300{fill:#A13DF9;stroke:#070707;stroke-width:1.8451;stroke-miterlimit:10;}
	.st301{fill:#FFFFFF;stroke:#000000;stroke-width:2.2261;stroke-miterlimit:10;}
	.st302{fill:#FFFFFF;stroke:#000000;stroke-width:1.7209;stroke-miterlimit:10;}
	.st303{stroke:#000000;stroke-width:0.2658;stroke-miterlimit:10;}
	.st304{stroke:#000000;stroke-width:0.3067;stroke-miterlimit:10;}
	.st305{stroke:#000000;stroke-width:0.2634;stroke-miterlimit:10;}
	.st306{fill:#08F9D6;stroke:#070707;stroke-width:0.813;stroke-miterlimit:10;}
	.st307{fill:#FFFFFF;stroke:#000000;stroke-width:0.486;stroke-miterlimit:10;}
	.st308{fill:#08F9D6;stroke:#070707;stroke-width:0.8004;stroke-miterlimit:10;}
	.st309{stroke:#000000;stroke-width:0.5429;stroke-miterlimit:10;}
	.st310{stroke:#000000;stroke-width:0.5385;stroke-miterlimit:10;}
	.st311{stroke:#000000;stroke-width:0.614;stroke-miterlimit:10;}
	.st312{fill:none;stroke:#191919;stroke-width:1.1534;stroke-miterlimit:10;}
	.st313{stroke:#000000;stroke-miterlimit:10;}
	.st314{fill:none;stroke:#000000;stroke-width:1.2604;stroke-miterlimit:10;}
	.st315{fill:none;stroke:#000000;stroke-width:1.4249;stroke-miterlimit:10;}
	.st316{fill:none;stroke:#191919;stroke-width:1.6462;stroke-miterlimit:10;}
	.st317{opacity:0.92;fill:#2E00EF;}
	.st318{clip-path:url(#SVGID_351_);}
	.st319{stroke:#000000;stroke-width:0.2009;stroke-miterlimit:10;}
	.st320{fill:#FFFFFF;stroke:#686868;stroke-width:0.2882;stroke-miterlimit:10;}
	.st321{stroke:#000000;stroke-width:0.1056;stroke-miterlimit:10;}
	.st322{clip-path:url(#SVGID_353_);}
	.st323{fill:none;stroke:#686868;stroke-width:0.4092;stroke-miterlimit:10;}
	.st324{clip-path:url(#SVGID_355_);}
	.st325{clip-path:url(#SVGID_357_);}
	.st326{fill:#08F9D6;stroke:#191919;stroke-width:0.6035;stroke-miterlimit:10;}
	.st327{fill:#08F9D6;stroke:#070707;stroke-width:1.0383;stroke-miterlimit:10;}
	.st328{fill:#FFFFFF;stroke:#000000;stroke-width:0.9734;stroke-miterlimit:10;}
	.st329{opacity:0.9;}
	.st330{fill:#08F9D6;stroke:#070707;stroke-width:0.9789;stroke-miterlimit:10;}
	.st331{fill:#FFFFFF;stroke:#000000;stroke-width:0.9177;stroke-miterlimit:10;}
	.st332{fill:#08F9D6;stroke:#000000;stroke-width:1.1719;stroke-miterlimit:10;}
	.st333{clip-path:url(#SVGID_359_);}
	.st334{clip-path:url(#SVGID_361_);}
	.st335{fill:none;stroke:#191919;stroke-miterlimit:10;}
	.st336{stroke:#000000;stroke-width:0.7435;stroke-miterlimit:10;}
	.st337{fill:none;stroke:#000000;stroke-width:0.937;stroke-miterlimit:10;}
	.st338{fill:none;stroke:#000000;stroke-width:1.0594;stroke-miterlimit:10;}
	.st339{stroke:#000000;stroke-width:0.15;stroke-miterlimit:10;}
	.st340{stroke:#000000;stroke-width:0.1;stroke-miterlimit:10;}
	.st341{stroke:#000000;stroke-width:0.1641;stroke-miterlimit:10;}
	.st342{fill:none;stroke:#191919;stroke-width:1.2925;stroke-miterlimit:10;}
	.st343{clip-path:url(#SVGID_363_);}
	.st344{clip-path:url(#SVGID_365_);}
	.st345{fill:none;stroke:#191919;stroke-width:1.2817;stroke-miterlimit:10;}
	.st346{fill:none;stroke:#191919;stroke-width:1.1365;stroke-miterlimit:10;}
	.st347{fill:#FFFFFF;stroke:#191919;stroke-width:2.1594;stroke-miterlimit:10;}
	.st348{fill:#08F9D6;stroke:#000000;stroke-width:1.1908;stroke-miterlimit:10;}
	.st349{fill:#FFFFFF;stroke:#070707;stroke-width:0.9789;stroke-miterlimit:10;}
	.st350{fill:#08F9D6;stroke:#070707;stroke-width:0.9855;stroke-miterlimit:10;}
	.st351{fill:#FFFFFF;stroke:#000000;stroke-width:0.8944;stroke-miterlimit:10;}
	.st352{fill:#08F9D6;stroke:#070707;stroke-width:0.9859;stroke-miterlimit:10;}
	.st353{fill:#FFFFFF;stroke:#000000;stroke-width:0.9243;stroke-miterlimit:10;}
	.st354{stroke:#000000;stroke-width:0.25;stroke-miterlimit:10;}
	.st355{stroke:#000000;stroke-width:0.1933;stroke-miterlimit:10;}
	.st356{stroke:#000000;stroke-width:0.4986;stroke-miterlimit:10;}
	.st357{stroke:#A6A6A6;stroke-width:0.15;stroke-miterlimit:10;}
	.st358{stroke:#000000;stroke-width:0.193;stroke-miterlimit:10;}
	.st359{stroke:#000000;stroke-width:0.199;stroke-miterlimit:10;}
	.st360{fill:#FFFFFF;stroke:#191919;stroke-width:1.6145;stroke-miterlimit:10;}
	.st361{fill:#08F9D6;stroke:#070707;stroke-width:1.4576;stroke-miterlimit:10;}
	.st362{fill:#FFFFFF;stroke:#000000;stroke-width:1.3665;stroke-miterlimit:10;}
	.st363{fill:#08F9D6;stroke:#070707;stroke-width:1.3742;stroke-miterlimit:10;}
	.st364{fill:#FFFFFF;stroke:#000000;stroke-width:1.2884;stroke-miterlimit:10;}
	.st365{fill:none;stroke:#000000;stroke-width:1.4039;stroke-miterlimit:10;}
	.st366{fill:#08F9D6;stroke:#000000;stroke-width:1.6717;stroke-miterlimit:10;}
	.st367{fill:#FFFFFF;stroke:#070707;stroke-width:1.3742;stroke-miterlimit:10;}
	.st368{fill:#FFFFFF;stroke:#000000;stroke-width:1.4039;stroke-miterlimit:10;}
	.st369{fill:#08F9D6;stroke:#070707;stroke-width:1.3841;stroke-miterlimit:10;}
	.st370{fill:#FFFFFF;stroke:#000000;stroke-width:1.2976;stroke-miterlimit:10;}
	.st371{fill:#08F9D6;stroke:#070707;stroke-width:1.3835;stroke-miterlimit:10;}
	.st372{fill:#FFFFFF;stroke:#000000;stroke-width:1.2556;stroke-miterlimit:10;}
	.st373{fill:#FFFFFF;stroke:#191919;stroke-width:0.8217;stroke-miterlimit:10;}
	.st374{fill:none;stroke:#191919;stroke-width:0.7444;stroke-miterlimit:10;}
	.st375{clip-path:url(#SVGID_369_);}
	.st376{fill:none;stroke:#FFFFFF;stroke-width:0.4424;stroke-miterlimit:10;}
	.st377{clip-path:url(#SVGID_371_);}
	.st378{fill:none;stroke:#FFFFFF;stroke-width:0.2222;stroke-miterlimit:10;}
	.st379{fill:#FFFFFF;stroke:#191919;stroke-width:0.8204;stroke-miterlimit:10;}
	.st380{stroke:#FFFFFF;stroke-width:0.2155;stroke-miterlimit:10;}
	.st381{stroke:#000000;stroke-width:0.1416;stroke-miterlimit:10;}
	.st382{stroke:#000000;stroke-width:0.1822;stroke-miterlimit:10;}
	.st383{stroke:#000000;stroke-width:0.1879;stroke-miterlimit:10;}
	.st384{fill:#A13DF9;stroke:#070707;stroke-width:0.9855;stroke-miterlimit:10;}
	.st385{fill:#FFA476;stroke:#070707;stroke-width:0.9855;stroke-miterlimit:10;}
	.st386{stroke:#FFFFFF;stroke-width:0.2275;stroke-miterlimit:10;}
	.st387{stroke:#000000;stroke-width:0.1495;stroke-miterlimit:10;}
	.st388{stroke:#000000;stroke-width:0.1923;stroke-miterlimit:10;}
	.st389{stroke:#000000;stroke-width:0.1983;stroke-miterlimit:10;}
	.st390{fill:#364EFF;stroke:#070707;stroke-width:0.9855;stroke-miterlimit:10;}
	.st391{fill:none;stroke:#191919;stroke-width:1.1639;stroke-miterlimit:10;}
	.st392{stroke:#000000;stroke-width:0.1177;stroke-miterlimit:10;}
	.st393{stroke:#000000;stroke-width:7.849640e-02;stroke-miterlimit:10;}
	.st394{stroke:#000000;stroke-width:0.1275;stroke-miterlimit:10;}
	.st395{stroke:#000000;stroke-width:8.498526e-02;stroke-miterlimit:10;}
	.st396{stroke:#000000;stroke-width:8.898332e-02;stroke-miterlimit:10;}
	.st397{clip-path:url(#SVGID_375_);}
	.st398{clip-path:url(#SVGID_377_);}
	.st399{fill:#FFFFFF;stroke:#FFFFFF;stroke-width:7.424556e-02;stroke-miterlimit:10;}
	.st400{fill:#FFFFFF;stroke:#FFFFFF;stroke-width:8.124047e-02;stroke-miterlimit:10;}
	.st401{fill:none;stroke:#FFFFFF;stroke-width:0.6398;stroke-miterlimit:10;}
	.st402{fill:#FFFFFF;stroke:#000000;stroke-width:0.1237;stroke-miterlimit:10;}
	.st403{fill:#FFFFFF;stroke:#FFFFFF;stroke-width:9.552929e-02;stroke-miterlimit:10;}
	.st404{fill:#FFFFFF;stroke:#FFFFFF;stroke-width:9.849911e-02;stroke-miterlimit:10;}
	.st405{fill:none;stroke:#FFFFFF;stroke-width:0.6801;stroke-miterlimit:10;}
	.st406{fill:none;stroke:#FFFFFF;stroke-width:0.724;stroke-miterlimit:10;}
	.st407{stroke:#000000;stroke-width:0.1642;stroke-miterlimit:10;}
	.st408{stroke:#000000;stroke-width:0.1562;stroke-miterlimit:10;}
	.st409{stroke:#000000;stroke-width:0.1042;stroke-miterlimit:10;}
	.st410{fill:none;stroke:#020202;stroke-miterlimit:10;}
	.st411{fill:none;stroke:#000000;stroke-width:0.9474;stroke-miterlimit:10;}
	.st412{fill:none;stroke:#000000;stroke-width:0.8857;stroke-miterlimit:10;}
	.st413{fill:none;stroke:#000000;stroke-width:0.9514;stroke-miterlimit:10;}
	.st414{fill:none;stroke:#000000;stroke-width:0.9917;stroke-miterlimit:10;}
	.st415{fill:none;stroke:#000000;stroke-width:0.9396;stroke-miterlimit:10;}
	.st416{fill:none;stroke:#020202;stroke-width:1.2837;stroke-miterlimit:10;}
	.st417{fill:none;stroke:#000000;stroke-width:0.9982;stroke-miterlimit:10;}
	.st418{fill:none;stroke:#000000;stroke-width:0.9941;stroke-miterlimit:10;}
	.st419{fill:#FFFFFF;stroke:#000000;stroke-width:0.25;stroke-miterlimit:10;}
	.st420{fill:#070707;}
	.st421{fill:#08F9D6;stroke:#070707;stroke-width:2.5951;stroke-miterlimit:10;}
	.st422{fill:#FFFFFF;stroke:#000000;stroke-width:2.3551;stroke-miterlimit:10;}
	.st423{stroke:#FFFFFF;stroke-width:0.6175;stroke-miterlimit:10;}
	.st424{stroke:#FFFFFF;stroke-width:0.6105;stroke-miterlimit:10;}
	.st425{stroke:#FFFFFF;stroke-width:0.6189;stroke-miterlimit:10;}
	.st426{fill:#08F9D6;stroke:#070707;stroke-width:3.3186;stroke-miterlimit:10;}
	.st427{fill:#FFFFFF;stroke:#000000;stroke-width:3.5163;stroke-miterlimit:10;}
	.st428{stroke:#FFFFFF;stroke-width:0.3532;stroke-miterlimit:10;}
	.st429{stroke:#FFFFFF;stroke-width:0.3493;stroke-miterlimit:10;}
	.st430{stroke:#FFFFFF;stroke-width:0.354;stroke-miterlimit:10;}
	.st431{fill:#08F9D6;stroke:#070707;stroke-width:1.8984;stroke-miterlimit:10;}
	.st432{fill:#FFFFFF;stroke:#000000;stroke-width:2.0115;stroke-miterlimit:10;}
	.st433{fill:#FFFFFF;stroke:#000000;stroke-width:1.5068;stroke-miterlimit:10;}
	.st434{fill:#08F9D6;stroke:#070707;stroke-width:2.4301;stroke-miterlimit:10;}
	.st435{fill:#FFFFFF;stroke:#000000;stroke-width:2.5748;stroke-miterlimit:10;}
	.st436{fill:#FFFFFF;stroke:#000000;stroke-width:0.6337;stroke-miterlimit:10;}
	.st437{fill:#A13DF9;stroke:#070707;stroke-width:2.4301;stroke-miterlimit:10;}
	.st438{fill:#364EFF;stroke:#070707;stroke-width:2.4301;stroke-miterlimit:10;}
	.st439{fill:#FFFFFF;stroke:#000000;stroke-width:2.3307;stroke-miterlimit:10;}
	.st440{fill:#FFFFFF;stroke:#000000;stroke-width:2.071;stroke-miterlimit:10;}
	.st441{fill:#FFA476;stroke:#070707;stroke-width:2.4301;stroke-miterlimit:10;}
	.st442{fill:#FFFFFF;stroke:#000000;stroke-width:2.8208;stroke-miterlimit:10;}
	.st443{fill:#FFA476;stroke:#070707;stroke-width:1.9481;stroke-miterlimit:10;}
	.st444{fill:#FFFFFF;stroke:#000000;stroke-width:2.2614;stroke-miterlimit:10;}
	.st445{fill:#A13DF9;stroke:#070707;stroke-width:1.9481;stroke-miterlimit:10;}
	.st446{fill:#FFFFFF;stroke:#000000;stroke-width:0.5402;stroke-miterlimit:10;}
	.st447{fill:#364EFF;stroke:#070707;stroke-width:1.8984;stroke-miterlimit:10;}
	.st448{fill:none;stroke:#FFFFFF;stroke-width:0.7069;stroke-miterlimit:10;}
	.st449{fill:none;stroke:#070707;stroke-width:1.8984;stroke-miterlimit:10;}
	.st450{fill:#FFFFFF;stroke:#FFFFFF;stroke-width:0.6915;stroke-miterlimit:10;}
	.st451{stroke:#000000;stroke-width:0.5168;stroke-miterlimit:10;}
	.st452{fill:none;stroke:#A6A6A6;stroke-width:1.868;stroke-miterlimit:10;}
	.st453{fill:none;stroke:#000000;stroke-width:1.698;stroke-miterlimit:10;}
	.st454{fill:#FFFFFF;stroke:#191919;stroke-width:2.4414;stroke-miterlimit:10;}
	.st455{fill:none;stroke:#191919;stroke-width:1.1335;stroke-miterlimit:10;}
	.st456{opacity:0.9;fill:#FF245E;}
	.st457{opacity:0.9;fill:#364EFF;}
	.st458{opacity:0.9;fill:#A13DF9;}
	.st459{fill:#FFD800;}
	.st460{fill:none;stroke:#000000;stroke-width:1.1782;stroke-miterlimit:10;}
	.st461{stroke:#000000;stroke-width:0.325;stroke-miterlimit:10;}
	.st462{stroke:#000000;stroke-width:0.2255;stroke-miterlimit:10;}
	.st463{fill:none;stroke:#000000;stroke-linecap:round;stroke-linejoin:round;stroke-miterlimit:10;}
	.st464{stroke:#000000;stroke-width:0.206;stroke-miterlimit:10;}
	.st465{stroke:#000000;stroke-width:0.1967;stroke-miterlimit:10;}
	.st466{stroke:#000000;stroke-width:0.326;stroke-miterlimit:10;}
	.st467{stroke:#000000;stroke-width:0.3;stroke-linecap:round;stroke-linejoin:round;stroke-miterlimit:10;}
	.st468{stroke:#000000;stroke-width:0.107;stroke-miterlimit:10;}
	.st469{fill:none;stroke:#000000;stroke-width:1.0431;stroke-linecap:round;stroke-linejoin:round;stroke-miterlimit:10;}
	.st470{fill:none;stroke:#000000;stroke-width:0.88;stroke-miterlimit:10;}
	.st471{clip-path:url(#SVGID_379_);}
	.st472{fill:none;stroke:#000000;stroke-width:1.02;stroke-miterlimit:10;}
	.st473{fill:#FFFFFF;stroke:#000000;stroke-width:1.02;stroke-miterlimit:10;}
	.st474{stroke:#000000;stroke-width:0.2528;stroke-linecap:round;stroke-linejoin:round;stroke-miterlimit:10;}
	.st475{fill:none;stroke:#000000;stroke-width:1.3;stroke-miterlimit:10;}
</style>
<g>
	<g>
		<g>
			<g>
				<g>
					<path d="M78.4,42.1H40c-0.4,0-0.7,0.3-0.7,0.7c0,4,3.3,7.3,7.3,7.3h25.2c4,0,7.3-3.3,7.3-7.3C79.1,42.4,78.8,42.1,78.4,42.1z
						 M71.8,48.7H46.6c-3.1,0-5.6-2.3-5.9-5.3h37C77.4,46.4,74.9,48.7,71.8,48.7z"/>
					<path d="M71.8,50.1H46.6c-4.1,0-7.4-3.3-7.4-7.4c0-0.4,0.3-0.8,0.8-0.8h38.4c0.4,0,0.8,0.3,0.8,0.8
						C79.2,46.8,75.9,50.1,71.8,50.1z M40,42.2c-0.3,0-0.6,0.3-0.6,0.6c0,4,3.2,7.2,7.2,7.2h25.2c4,0,7.2-3.2,7.2-7.2
						c0-0.3-0.3-0.6-0.6-0.6H40z M71.8,48.8H46.6c-3.1,0-5.7-2.3-6-5.4l0-0.1h37.3l0,0.1C77.5,46.5,74.9,48.8,71.8,48.8z M40.8,43.5
						c0.4,2.9,2.9,5.1,5.8,5.1h25.2c3,0,5.4-2.2,5.8-5.1H40.8z"/>
				</g>
				<g>
					<path d="M71.8,50.1H46.6c-4.1,0-7.4-3.3-7.4-7.4c0-0.4,0.3-0.7,0.7-0.7h38.4c0.4,0,0.7,0.3,0.7,0.7
						C79.2,46.8,75.9,50.1,71.8,50.1z M40,42.2c-0.3,0-0.6,0.3-0.6,0.6c0,4,3.2,7.2,7.2,7.2h25.2c4,0,7.2-3.2,7.2-7.2
						c0-0.3-0.3-0.6-0.6-0.6H40z M71.8,48.8H46.6c-3.1,0-5.7-2.3-6-5.4l0-0.1h37.2l0,0.1C77.5,46.5,74.9,48.8,71.8,48.8z M40.8,43.5
						c0.4,2.9,2.9,5.1,5.8,5.1h25.2c3,0,5.5-2.2,5.8-5.1H40.8z"/>
					<path d="M71.8,50.2H46.6c-4.1,0-7.5-3.4-7.5-7.5c0-0.5,0.4-0.8,0.8-0.8h38.4c0.5,0,0.8,0.4,0.8,0.8
						C79.3,46.9,75.9,50.2,71.8,50.2z M40,42.3c-0.3,0-0.5,0.2-0.5,0.5c0,3.9,3.2,7.1,7.1,7.1h25.2c3.9,0,7.1-3.2,7.1-7.1
						c0-0.3-0.2-0.5-0.5-0.5H40z M71.8,48.9H46.6c-3.1,0-5.8-2.3-6.1-5.5l0-0.2h37.5l0,0.2C77.6,46.5,74.9,48.9,71.8,48.9z
						 M40.9,43.6c0.4,2.8,2.9,4.9,5.7,4.9h25.2c2.9,0,5.3-2.1,5.7-4.9H40.9z"/>
				</g>
			</g>
		</g>
	</g>
	<g>
		<g>
			<g>
				<g>
					<path d="M59.2,32.1C59.2,32.1,59.2,32.1,59.2,32.1c-2.6,0-5.1,1-7.1,2.7l0.9,1c1.7-1.5,3.9-2.4,6.2-2.4c0,0,0,0,0,0
						c3.7,0,6.8,1.9,8,4.9l1.2-0.5C67,34.4,63.4,32.1,59.2,32.1z"/>
					<path d="M67.2,38.5L67.2,38.5c-1.2-3-4.3-4.9-7.9-4.9c-2.3,0-4.4,0.8-6.1,2.3L53,36l-1-1.1l0.1-0.1c2-1.8,4.5-2.7,7.1-2.7h0
						c4.3,0,7.9,2.3,9.3,5.8l0,0.1L67.2,38.5z M59.2,33.4c3.7,0,6.8,1.9,8.1,4.9l1-0.4c-1.4-3.4-5-5.6-9.1-5.6h0
						c-2.6,0-5,0.9-6.9,2.6l0.8,0.8C54.7,34.2,56.9,33.4,59.2,33.4z"/>
				</g>
				<g>
					<path d="M67.2,38.5L67.2,38.5c-1.2-3-4.3-4.9-8-4.9c-2.3,0-4.4,0.8-6.1,2.3L53,35.9l-1-1.1l0.1-0.1c2-1.8,4.5-2.7,7.1-2.7h0
						c4.3,0,7.9,2.3,9.3,5.8l0,0.1L67.2,38.5z M59.2,33.4c3.7,0,6.8,1.9,8.1,4.9l1.1-0.4c-1.4-3.4-5-5.6-9.1-5.6h0
						c-2.6,0-5,0.9-6.9,2.6l0.8,0.9C54.7,34.2,56.9,33.4,59.2,33.4z"/>
					<path d="M67.1,38.6L67,38.4c-1.2-2.9-4.2-4.8-7.8-4.8c-2.2,0-4.4,0.8-6.1,2.3L53,36.1L52.9,36l-1.1-1.2l0.1-0.1
						c2-1.8,4.5-2.8,7.2-2.8c4.3,0,8,2.3,9.4,5.8l0.1,0.2L67.1,38.6z M59.2,33.3c3.7,0,6.8,1.9,8.1,4.8l0.9-0.4
						c-1.4-3.3-4.9-5.4-9-5.4c-2.5,0-4.9,0.9-6.8,2.5l0.6,0.7C54.7,34.1,56.9,33.3,59.2,33.3z"/>
				</g>
			</g>
		</g>
	</g>
	<g>
		<g>
			<g>
				<g>
					<path d="M64.3,36.6c-3.4-2.8-8.4-2.3-11.2,1.1l1,0.8c2.3-2.8,6.5-3.2,9.3-0.9c0.5,0.4,0.9,0.8,1.2,1.3l1.1-0.8
						C65.3,37.6,64.8,37.1,64.3,36.6z"/>
					<path d="M64.6,39.1L64.6,39.1c-0.4-0.6-0.8-1-1.2-1.4c-1.3-1.1-3-1.6-4.8-1.5c-1.7,0.2-3.3,1-4.4,2.3l-0.1,0.1l-1.2-1l0.1-0.1
						c2.8-3.4,7.9-3.9,11.3-1.1l0,0c0.6,0.5,1,1,1.5,1.6l0.1,0.1L64.6,39.1z M59.2,36c1.6,0,3.1,0.5,4.3,1.5
						c0.4,0.4,0.8,0.8,1.2,1.2l0.9-0.6c-0.4-0.5-0.9-1-1.4-1.5l0,0c-3.3-2.7-8.2-2.3-11,1l0.9,0.7c1.1-1.3,2.7-2.2,4.5-2.3
						C58.8,36,59,36,59.2,36z"/>
				</g>
				<g>
					<path d="M64.6,39.1L64.6,39.1c-0.4-0.5-0.8-1-1.2-1.4c-2.8-2.3-6.9-1.9-9.2,0.9l-0.1,0.1L53,37.7l0.1-0.1
						c2.8-3.4,7.9-3.9,11.3-1.1l0,0c0.6,0.5,1,1,1.5,1.6l0,0.1l-0.1,0L64.6,39.1z M59.2,36c1.5,0,3,0.5,4.3,1.5
						c0.4,0.4,0.8,0.8,1.2,1.2l1-0.7c-0.4-0.6-0.9-1-1.4-1.5l0,0c-3.3-2.7-8.3-2.3-11,1l0.9,0.7C55.4,36.8,57.3,36,59.2,36z"/>
					<path d="M64.6,39.2L64.5,39c-0.3-0.5-0.7-0.9-1.2-1.3c-2.7-2.3-6.8-1.9-9.1,0.9l-0.1,0.1l-1.3-1.1l0.1-0.1
						c1.4-1.7,3.3-2.7,5.5-2.9c2.2-0.2,4.3,0.4,6,1.8c0.6,0.5,1.1,1,1.5,1.6l0.1,0.1L64.6,39.2z M59.2,35.9c1.6,0,3.1,0.6,4.3,1.6
						c0.4,0.3,0.8,0.7,1.1,1.2l0.8-0.6c-0.4-0.5-0.8-1-1.3-1.4c-3.2-2.7-8.1-2.3-10.8,0.9l0.7,0.6C55.4,36.8,57.2,35.9,59.2,35.9z"
						/>
				</g>
			</g>
		</g>
	</g>
	<g>
		<g>
			<g>
				<g>
					<path d="M62.9,39c-2.1-2-5.5-2-7.5,0.1l0.9,0.9c1.5-1.6,4.1-1.6,5.6-0.1c0.8,0.7,1.2,1.8,1.2,2.8h1.3
						C64.5,41.3,63.9,39.9,62.9,39z"/>
					<path d="M64.6,42.8h-1.5v-0.1c0-1-0.4-2-1.2-2.8c-1.5-1.5-4-1.5-5.5,0.1l-0.1,0.1L55.3,39l0.1-0.1c2.1-2.1,5.5-2.2,7.6-0.1l0,0
						C64,39.9,64.6,41.3,64.6,42.8L64.6,42.8z M63.3,42.6h1.1c0-1.4-0.6-2.7-1.6-3.6l0,0c-2-2-5.3-2-7.3,0l0.8,0.8
						c1.6-1.5,4.1-1.5,5.7,0C62.8,40.6,63.3,41.6,63.3,42.6z"/>
				</g>
				<g>
					<path d="M64.6,42.8h-1.5v-0.1c0-1-0.4-2.1-1.2-2.8c-1.5-1.5-4-1.5-5.5,0.1l-0.1,0.1L56.3,40l-1-1l0.1-0.1
						c2.1-2.1,5.5-2.2,7.6-0.1l0,0C64,39.9,64.6,41.3,64.6,42.8L64.6,42.8z M63.3,42.7h1.2c0-1.4-0.6-2.7-1.6-3.6l0,0
						c-2-2-5.3-2-7.3,0l0.8,0.8c1.6-1.5,4.1-1.5,5.7,0C62.8,40.6,63.2,41.6,63.3,42.7z"/>
					<path d="M64.7,42.9H63v-0.2c0-1-0.4-2-1.1-2.7c-0.7-0.7-1.7-1.1-2.7-1.1c0,0,0,0,0,0c-1,0-2,0.4-2.7,1.1l-0.1,0.1l-0.1-0.1
						L55.2,39l0.1-0.1c2.1-2.2,5.6-2.2,7.8-0.1c1,1,1.6,2.5,1.6,3.9V42.9z M63.4,42.6h1c0-1.3-0.6-2.6-1.5-3.5
						c-2-1.9-5.1-1.9-7.1-0.1l0.7,0.7c1.6-1.5,4.2-1.5,5.8,0.1C62.9,40.5,63.3,41.5,63.4,42.6z"/>
				</g>
			</g>
		</g>
	</g>
	<g>
		<g>
			<g>
				<g>
					<path d="M66.5,34.8C66.5,34.8,66.5,34.8,66.5,34.8h-0.7v1.3h0.7c3.8,0,7,2.9,7.3,6.7l1.3-0.1C74.7,38.3,71,34.8,66.5,34.8z"/>
					<path d="M73.7,42.9L73.7,42.9c-0.3-3.8-3.5-6.7-7.2-6.7h-0.8v-1.5h0.8c4.5,0,8.3,3.5,8.7,8l0,0.1L73.7,42.9z M65.9,36h0.6
						c3.8,0,7,2.9,7.4,6.7l1.1-0.1c-0.4-4.3-4.1-7.7-8.5-7.7h-0.6V36z"/>
				</g>
				<g>
					<path d="M73.7,42.9L73.7,42.9c-0.3-3.8-3.5-6.7-7.2-6.7h-0.7v-1.5h0.8c4.5,0,8.3,3.5,8.7,8l0,0.1L73.7,42.9z M65.9,36h0.6
						c3.8,0,7,2.9,7.4,6.7l1.2-0.1c-0.4-4.3-4.1-7.7-8.5-7.7h-0.6V36z"/>
					<path d="M73.6,43l0-0.2c-0.3-3.6-3.4-6.5-7.1-6.5h-0.8v-1.7h0.9c4.5,0,8.4,3.5,8.8,8.1l0,0.2L73.6,43z M66,35.9h0.5
						c3.8,0,7,2.9,7.5,6.7l1-0.1c-0.4-4.2-4.1-7.6-8.4-7.6H66V35.9z"/>
				</g>
			</g>
		</g>
	</g>
	<g>
		<g>
			<g>
				<g>
					<path d="M70.4,39c-1.2-1.1-2.7-1.6-4.3-1.5c-1.6,0.1-3.1,0.8-4.1,2l1,0.9c0.8-0.9,2-1.5,3.2-1.5c1.2-0.1,2.4,0.3,3.4,1.2
						c0.8,0.7,1.4,1.8,1.5,2.9l1.3-0.2C72.2,41.2,71.5,39.9,70.4,39z"/>
					<path d="M71,42.9L71,42.9c-0.1-1.2-0.7-2.2-1.5-2.9c-0.9-0.8-2.1-1.2-3.3-1.1c-1.2,0.1-2.3,0.6-3.1,1.5L63,40.5l-1.1-1l0.1-0.1
						c1.1-1.2,2.6-1.9,4.2-2c1.6-0.1,3.2,0.5,4.4,1.5l0,0c1.1,1,1.8,2.3,2,3.8l0,0.1L71,42.9z M66.5,38.7c1.2,0,2.3,0.4,3.2,1.2
						c0.8,0.7,1.4,1.7,1.5,2.8l1.1-0.1c-0.2-1.4-0.9-2.6-1.9-3.5l0,0c-1.2-1-2.7-1.6-4.2-1.5c-1.5,0.1-2.9,0.7-4,1.9l0.8,0.8
						c0.8-0.9,2-1.4,3.2-1.5C66.3,38.7,66.4,38.7,66.5,38.7z"/>
				</g>
				<g>
					<path d="M71,42.9L71,42.9c-0.1-1.2-0.7-2.2-1.5-2.9c-0.8-0.8-1.9-1.2-3-1.2c-0.1,0-0.2,0-0.2,0c-1.2,0.1-2.3,0.6-3.1,1.5
						L63,40.4l-1.1-1l0.1-0.1c1.1-1.2,2.6-1.9,4.2-2c1.6-0.1,3.2,0.5,4.4,1.5l0,0c1.1,1,1.8,2.3,2,3.8l0,0.1l-0.1,0L71,42.9z
						 M66.5,38.7c1.2,0,2.3,0.4,3.2,1.2c0.8,0.7,1.4,1.7,1.5,2.8l1.2-0.1c-0.2-1.4-0.9-2.6-1.9-3.6l0,0c-1.1-1-2.5-1.5-3.9-1.5
						c-0.1,0-0.2,0-0.3,0c-1.5,0.1-3,0.8-4,1.9l0.9,0.8c0.8-0.9,2-1.4,3.2-1.5C66.3,38.7,66.4,38.7,66.5,38.7z"/>
					<path d="M70.9,43l0-0.2c-0.1-1.1-0.6-2-1.5-2.8c-0.8-0.7-1.9-1.1-3-1.1c-0.1,0-0.2,0-0.2,0c-1.2,0.1-2.3,0.6-3.1,1.5L63,40.6
						l-1.3-1.1l0.1-0.1c1.1-1.2,2.6-1.9,4.2-2c1.6-0.1,3.2,0.5,4.4,1.6c1.1,1,1.8,2.3,2,3.8l0,0.2l-0.2,0L70.9,43z M66.5,38.6
						c1.2,0,2.3,0.4,3.2,1.2c0.8,0.7,1.4,1.7,1.5,2.8l1-0.1c-0.2-1.3-0.9-2.5-1.9-3.4c-1.1-1-2.6-1.6-4.2-1.5
						c-1.5,0.1-2.8,0.7-3.9,1.8l0.7,0.6c0.8-0.9,2-1.4,3.2-1.5C66.3,38.6,66.4,38.6,66.5,38.6z"/>
				</g>
			</g>
		</g>
	</g>
	<g>
		<g>
			<g>
				<g>
					<path d="M67.3,40.2c-1.8-0.5-3.6,0.6-4,2.4l1.3,0.3c0.3-1.1,1.4-1.7,2.4-1.4c0.7,0.2,1.3,0.7,1.4,1.4l1.3-0.3
						C69.4,41.4,68.5,40.5,67.3,40.2z"/>
					<path d="M68.3,43L68.3,43c-0.2-0.8-0.7-1.3-1.4-1.5c-0.5-0.1-1-0.1-1.4,0.2s-0.7,0.7-0.9,1.2l0,0.1l-1.5-0.4l0-0.1
						c0.5-1.8,2.3-2.9,4.2-2.5c1.2,0.3,2.2,1.3,2.5,2.5l0,0.1L68.3,43z M63.4,42.5l1.1,0.3c0.2-0.5,0.5-0.9,0.9-1.2
						c0.5-0.3,1-0.4,1.6-0.2c0.7,0.2,1.3,0.7,1.5,1.4l1.1-0.3c-0.3-1.1-1.2-1.9-2.3-2.2C65.6,39.9,63.9,40.8,63.4,42.5z"/>
				</g>
				<g>
					<path d="M68.3,43L68.3,43c-0.2-0.8-0.7-1.3-1.4-1.5c-1-0.3-2.1,0.4-2.3,1.4l0,0.1l-0.1,0l-1.4-0.3l0-0.1
						c0.5-1.8,2.3-2.9,4.1-2.4l0,0c1.2,0.3,2.1,1.2,2.4,2.4l0,0.1l-0.1,0L68.3,43z M66.5,41.3c0.2,0,0.3,0,0.5,0.1
						c0.7,0.2,1.3,0.7,1.5,1.4l1.1-0.3c-0.3-1.1-1.2-2-2.3-2.2l0,0c-1.7-0.4-3.4,0.6-3.9,2.2l1.1,0.3c0.1-0.5,0.5-0.9,0.9-1.2
						C65.7,41.4,66.1,41.3,66.5,41.3z"/>
					<path d="M68.3,43.1l0-0.2c-0.2-0.6-0.7-1.1-1.3-1.3c-0.5-0.1-1-0.1-1.4,0.2c-0.4,0.2-0.7,0.6-0.8,1.1l0,0.2l-0.2,0L63,42.7
						l0-0.2c0.5-1.9,2.4-3,4.3-2.5c1.2,0.3,2.2,1.3,2.5,2.5l0,0.2L68.3,43.1z M66.5,41.2c0.2,0,0.4,0,0.5,0.1
						c0.7,0.2,1.3,0.7,1.5,1.4l0.9-0.2c-0.3-1-1.2-1.8-2.2-2.1c-1.6-0.4-3.3,0.5-3.8,2.1l0.9,0.2c0.2-0.5,0.5-0.9,0.9-1.2
						C65.7,41.3,66.1,41.2,66.5,41.2z"/>
				</g>
			</g>
		</g>
	</g>
	<g>
		<g>
			<g>
				<g>
					<path d="M52.6,34.8c-2.3-0.2-4.5,0.5-6.3,2c-1.8,1.5-2.8,3.6-3,5.9l1.3,0.1c0.2-1.9,1.1-3.7,2.5-5c1.5-1.3,3.4-1.9,5.3-1.7
						c1.1,0.1,2.1,0.4,3.1,1l0.7-1.1C55.1,35.3,53.9,34.9,52.6,34.8z"/>
					<path d="M44.7,42.9l-1.5-0.1l0-0.1c0.2-2.3,1.3-4.4,3-5.9c1.8-1.5,4-2.2,6.4-2l0,0c1.3,0.1,2.6,0.5,3.7,1.2l0.1,0l-0.8,1.3
						l-0.1,0c-0.9-0.5-2-0.9-3-1c-1.9-0.2-3.8,0.4-5.2,1.7c-1.5,1.2-2.4,3-2.5,4.9L44.7,42.9z M43.4,42.6l1.1,0.1
						c0.2-1.9,1.1-3.7,2.6-4.9c1.5-1.3,3.4-1.9,5.4-1.7c1.1,0.1,2.1,0.4,3,0.9l0.6-1c-1.1-0.6-2.3-1-3.5-1.1l0,0
						c-2.3-0.2-4.5,0.5-6.2,2C44.7,38.4,43.6,40.4,43.4,42.6z"/>
				</g>
				<g>
					<path d="M44.7,42.9l-1.5-0.1l0-0.1c0.2-2.3,1.3-4.4,3-5.9c1.8-1.5,4-2.2,6.3-2l0,0c1.3,0.1,2.6,0.5,3.7,1.2l0.1,0l-0.8,1.3
						l-0.1,0c-0.9-0.5-2-0.9-3-1c-0.2,0-0.4,0-0.6,0c-1.7,0-3.3,0.6-4.7,1.7C45.8,39.1,44.9,40.9,44.7,42.9L44.7,42.9z M43.4,42.6
						l1.2,0.1c0.2-1.9,1.1-3.7,2.6-4.9c1.5-1.3,3.4-1.9,5.4-1.7c1.1,0.1,2.1,0.4,3,0.9l0.6-1c-1.1-0.6-2.3-1-3.5-1.1
						c-2.3-0.2-4.5,0.5-6.2,2C44.6,38.3,43.6,40.4,43.4,42.6z"/>
					<path d="M44.8,43l-1.7-0.1l0-0.2c0.2-2.3,1.3-4.5,3.1-6c1.8-1.5,4.1-2.3,6.4-2.1c1.3,0.1,2.6,0.5,3.7,1.2l0.2,0.1l-0.9,1.5
						l-0.2-0.1c-0.9-0.5-2-0.9-3-0.9c-1.9-0.1-3.7,0.4-5.2,1.7c-1.4,1.2-2.3,2.9-2.5,4.8L44.8,43z M43.5,42.5l1,0.1
						c0.2-1.9,1.1-3.7,2.6-4.9c1.5-1.3,3.5-1.9,5.4-1.8c1,0.1,2.1,0.4,3,0.9L56,36c-1-0.6-2.2-0.9-3.4-1c-2.3-0.2-4.4,0.5-6.1,2
						C44.8,38.4,43.7,40.4,43.5,42.5z"/>
				</g>
			</g>
		</g>
	</g>
	<g>
		<g>
			<g>
				<g>
					<path d="M52.6,37.5c-3.3-0.4-6.2,1.9-6.7,5.2l1.3,0.2c0.3-2.5,2.6-4.3,5.2-4c2.1,0.3,3.8,1.9,4,4l1.3-0.2
						C57.5,39.9,55.4,37.8,52.6,37.5z"/>
					<path d="M47.4,42.9l-1.5-0.2l0-0.1c0.2-1.6,1-3,2.3-4c1.3-1,2.9-1.4,4.5-1.2l0,0c2.8,0.3,4.9,2.5,5.3,5.3l0,0.1l-1.5,0.2l0-0.1
						c-0.3-2.1-1.9-3.7-4-4c-0.2,0-0.4,0-0.5,0C49.7,38.9,47.7,40.5,47.4,42.9L47.4,42.9z M51.9,38.7c0.2,0,0.4,0,0.6,0
						c2.1,0.3,3.8,1.9,4.1,4l1.1-0.1c-0.4-2.6-2.5-4.7-5.1-5l0,0c-1.6-0.2-3.1,0.2-4.3,1.2c-1.2,0.9-2,2.3-2.2,3.8l1.1,0.1
						C47.6,40.4,49.6,38.7,51.9,38.7z"/>
				</g>
				<g>
					<path d="M47.4,42.9l-1.5-0.2l0-0.1c0.2-1.6,1-3,2.3-4c1.3-1,2.9-1.4,4.5-1.2l0,0c2.8,0.3,4.9,2.5,5.3,5.3l0,0.1l-1.5,0.2l0-0.1
						c-0.3-2.1-1.9-3.7-4-4C50,38.6,47.7,40.3,47.4,42.9L47.4,42.9z M51.9,38.7c0.2,0,0.4,0,0.6,0c2.1,0.3,3.8,1.9,4.1,4l1.2-0.1
						c-0.4-2.6-2.5-4.7-5.1-5l0,0c-1.6-0.2-3.1,0.2-4.3,1.2c-1.2,1-2,2.3-2.2,3.8l1.2,0.1C47.6,40.4,49.6,38.7,51.9,38.7z"/>
					<path d="M47.5,43l-1.7-0.2l0-0.2c0.2-1.6,1-3.1,2.3-4.1c1.3-1,2.9-1.5,4.5-1.3c2.8,0.3,5,2.5,5.4,5.3l0,0.2L56.4,43l0-0.2
						c-0.3-2-1.8-3.6-3.9-3.9c-0.2,0-0.4,0-0.5,0c-2.2,0-4.2,1.7-4.4,3.9L47.5,43z M51.9,38.6c0.2,0,0.4,0,0.6,0
						c2.1,0.3,3.8,1.9,4.2,4l1-0.1c-0.4-2.5-2.4-4.5-5-4.9c-1.5-0.2-3,0.2-4.3,1.2c-1.2,0.9-1.9,2.2-2.2,3.7l1,0.1
						C47.5,40.3,49.6,38.6,51.9,38.6z"/>
				</g>
			</g>
		</g>
	</g>
	<g>
		<g>
			<g>
				<g>
					<path d="M52.8,40.2c-0.9-0.2-1.7-0.1-2.5,0.3c-0.8,0.4-1.3,1.2-1.5,2l1.3,0.3c0.1-0.5,0.5-0.9,0.9-1.2c0.5-0.3,1-0.3,1.5-0.2
						c0.7,0.2,1.2,0.7,1.4,1.4l1.3-0.3C54.8,41.4,53.9,40.5,52.8,40.2z"/>
					<path d="M53.8,43L53.8,43c-0.2-0.8-0.7-1.3-1.4-1.4c-0.5-0.1-1-0.1-1.4,0.2c-0.4,0.3-0.7,0.7-0.9,1.2l0,0.1l-1.5-0.4l0-0.1
						c0.2-0.9,0.8-1.6,1.6-2.1c0.8-0.5,1.7-0.6,2.6-0.4c1.2,0.3,2.1,1.2,2.4,2.4l0,0.1L53.8,43z M51.9,41.3c0.2,0,0.4,0,0.5,0.1
						c0.7,0.2,1.3,0.7,1.5,1.4l1.1-0.3c-0.3-1.1-1.2-1.9-2.3-2.2l0,0c-0.8-0.2-1.7-0.1-2.4,0.3c-0.7,0.4-1.2,1.1-1.5,1.9l1.1,0.3
						c0.2-0.5,0.5-0.9,0.9-1.2C51.2,41.4,51.5,41.3,51.9,41.3z"/>
				</g>
				<g>
					<path d="M53.8,43L53.8,43c-0.2-0.7-0.7-1.3-1.4-1.4c-0.5-0.1-1-0.1-1.4,0.2c-0.4,0.3-0.8,0.7-0.9,1.2l0,0.1L50,43l-1.4-0.4
						l0-0.1c0.2-0.9,0.8-1.6,1.6-2.1c0.8-0.5,1.7-0.6,2.6-0.4l0,0c1.2,0.3,2.1,1.2,2.4,2.4l0,0.1L53.8,43z M48.8,42.5l1.1,0.3
						c0.2-0.5,0.5-0.9,0.9-1.2c0.5-0.3,1-0.4,1.6-0.2c0.7,0.2,1.3,0.7,1.5,1.4l1.1-0.3c-0.3-1.1-1.2-1.9-2.3-2.2l0,0
						c-0.8-0.2-1.7-0.1-2.5,0.3C49.6,41,49,41.7,48.8,42.5z"/>
					<path d="M53.7,43.1l0-0.2c-0.2-0.6-0.7-1.1-1.3-1.3c-0.5-0.1-1-0.1-1.4,0.2c-0.4,0.2-0.7,0.6-0.8,1.1l0,0.2l-0.2,0l-1.5-0.4
						l0-0.2c0.2-0.9,0.8-1.7,1.6-2.1c0.8-0.5,1.7-0.6,2.7-0.4c1.2,0.3,2.2,1.3,2.5,2.5l0,0.2L53.7,43.1z M51.9,41.2
						c0.2,0,0.4,0,0.5,0.1c0.7,0.2,1.3,0.7,1.5,1.4l0.9-0.2c-0.3-1-1.2-1.8-2.2-2.1c-0.8-0.2-1.7-0.1-2.4,0.3
						c-0.7,0.4-1.2,1-1.4,1.7l0.9,0.2c0.2-0.5,0.5-0.9,1-1.2C51.2,41.3,51.5,41.2,51.9,41.2z"/>
				</g>
			</g>
		</g>
	</g>
	<g>
		<g>
			<g>
				<g>
					<path d="M59.2,40.1c-1.5,0-2.7,1.2-2.7,2.7h1.3c0-0.7,0.6-1.3,1.3-1.3c0.7,0,1.3,0.6,1.3,1.3h1.3
						C61.9,41.3,60.7,40.1,59.2,40.1z"/>
					<path d="M62,42.8h-1.5v-0.1c0-0.7-0.6-1.2-1.2-1.2S58,42.1,58,42.7v0.1h-1.5v-0.1c0-1.5,1.2-2.8,2.8-2.8S62,41.2,62,42.8
						L62,42.8z M60.6,42.6h1.1c-0.1-1.4-1.2-2.5-2.5-2.5s-2.5,1.1-2.5,2.5h1.1c0.1-0.7,0.7-1.3,1.4-1.3S60.6,41.9,60.6,42.6z"/>
				</g>
				<g>
					<path d="M61.9,42.8h-1.5v-0.1c0-0.7-0.6-1.2-1.2-1.2c-0.7,0-1.2,0.6-1.2,1.2v0.1h-1.5v-0.1c0-1.5,1.2-2.7,2.7-2.7
						S61.9,41.2,61.9,42.8L61.9,42.8z M60.6,42.7h1.2c0-1.4-1.2-2.5-2.6-2.5c-1.4,0-2.5,1.1-2.6,2.5h1.2c0-0.7,0.7-1.3,1.4-1.3
						S60.6,41.9,60.6,42.7z"/>
					<path d="M62,42.9h-1.7v-0.2c0-0.6-0.5-1.1-1.1-1.1c-0.6,0-1.1,0.5-1.1,1.1v0.2h-1.7v-0.2c0-1.6,1.3-2.8,2.8-2.8
						c1.6,0,2.8,1.3,2.8,2.8V42.9z M60.7,42.6h1c-0.1-1.3-1.2-2.3-2.5-2.3s-2.4,1-2.5,2.3h1c0.1-0.8,0.7-1.3,1.5-1.3
						C60,41.2,60.6,41.8,60.7,42.6z"/>
				</g>
			</g>
		</g>
	</g>
	<g>
		<g>
			<g>
				<g>
					<rect x="45.9" y="12.9" width="5.3" height="1.3"/>
					<path d="M51.3,14.3h-5.5v-1.5h5.5V14.3z M46,14.1h5.1V13H46V14.1z"/>
				</g>
				<g>
					<path d="M51.3,14.3h-5.5v-1.5h5.5V14.3z M46,14.2h5.1V13H46V14.2z"/>
					<path d="M51.4,14.4h-5.7v-1.7h5.7V14.4z M46.1,14.1h4.9v-1h-4.9V14.1z"/>
				</g>
			</g>
		</g>
	</g>
	<g>
		<g>
			<g>
				<g>
					<rect x="47.3" y="15.6" width="4" height="1.3"/>
					<path d="M51.3,17h-4.2v-1.5h4.2V17z M47.4,16.8h3.8v-1.1h-3.8V16.8z"/>
				</g>
				<g>
					<path d="M51.3,17h-4.1v-1.5h4.1V17z M47.4,16.8h3.8v-1.2h-3.8V16.8z"/>
					<path d="M51.4,17.1h-4.3v-1.7h4.3V17.1z M47.5,16.7h3.6v-1h-3.6V16.7z"/>
				</g>
			</g>
		</g>
	</g>
	<g>
		<g>
			<g>
				<g>
					<path d="M44.5,24.5c-0.7-1.2-0.7-2.8,0-4c0.9-1.6,0.9-3.7,0-5.3c-0.7-1.2-0.7-2.8,0-4c0.1-0.2,0.1-0.5,0-0.7
						c-0.1-0.2-0.3-0.3-0.6-0.3H42v1.3h0.9c-0.5,1.4-0.3,3,0.4,4.3c0.7,1.2,0.7,2.8,0,4c-0.9,1.6-0.9,3.7,0,5.3c0.7,1.2,0.7,2.8,0,4
						c-0.9,1.6-0.9,3.7,0,5.2c0.2,0.4,0.4,0.9,0.5,1.4l1.3-0.4c-0.2-0.5-0.3-1-0.6-1.6c-0.7-1.2-0.7-2.8,0-4
						C45.4,28.2,45.4,26.2,44.5,24.5z"/>
					<path d="M43.8,35.9L43.8,35.9c-0.2-0.6-0.3-1-0.5-1.4c-0.9-1.6-0.9-3.7,0-5.3c0.7-1.2,0.7-2.7,0-3.9c-1-1.7-1-3.7,0-5.4
						c0.7-1.2,0.7-2.7,0-3.9c-0.7-1.3-0.9-2.8-0.5-4.3h-0.9v-1.5h2c0.3,0,0.5,0.1,0.7,0.4c0.1,0.2,0.1,0.5,0,0.8
						c-0.7,1.2-0.7,2.7,0,3.9c1,1.7,1,3.7,0,5.4c-0.7,1.2-0.7,2.7,0,3.9c1,1.7,1,3.7,0,5.4c-0.7,1.2-0.7,2.7,0,3.9
						c0.3,0.6,0.5,1.1,0.6,1.6l0,0.1L43.8,35.9z M42.1,11.5h1l0,0.1c-0.5,1.4-0.3,2.9,0.4,4.2c0.7,1.3,0.7,2.8,0,4.1
						c-0.9,1.6-0.9,3.6,0,5.2c0.7,1.3,0.7,2.8,0,4.1c-0.9,1.6-0.9,3.6,0,5.1c0.2,0.4,0.4,0.9,0.5,1.3l1.1-0.3
						c-0.2-0.5-0.3-1-0.6-1.5c-0.7-1.3-0.7-2.8,0-4.1c0.9-1.6,0.9-3.6,0-5.2l0,0c-0.7-1.3-0.7-2.8,0-4.1c0.9-1.6,0.9-3.6,0-5.2
						c-0.7-1.3-0.7-2.8,0-4.1c0.1-0.2,0.1-0.4,0-0.6c-0.1-0.2-0.3-0.3-0.5-0.3h-1.8V11.5z"/>
				</g>
				<g>
					<path d="M43.8,35.9L43.8,35.9c-0.2-0.5-0.3-1-0.5-1.4c-0.9-1.6-0.9-3.7,0-5.3c0.7-1.2,0.7-2.7,0-3.9c-1-1.7-1-3.7,0-5.4
						c0.7-1.2,0.7-2.7,0-3.9c-0.7-1.3-0.9-2.8-0.5-4.3h-0.9v-1.5h2c0.3,0,0.5,0.1,0.6,0.4c0.1,0.2,0.1,0.5,0,0.7
						c-0.7,1.2-0.7,2.7,0,3.9c0.9,1.7,0.9,3.7,0,5.4c-0.7,1.2-0.7,2.7,0,3.9l0,0c0.9,1.7,0.9,3.7,0,5.4c-0.7,1.2-0.7,2.7,0,3.9
						c0.3,0.5,0.5,1.1,0.6,1.6l0,0.1l-0.1,0L43.8,35.9z M42.1,11.5h1l0,0.1c-0.5,1.4-0.3,3,0.4,4.2c0.7,1.3,0.7,2.8,0,4.1
						c-0.9,1.6-0.9,3.6,0,5.2c0.7,1.3,0.7,2.8,0,4.1c-0.9,1.6-0.9,3.6,0,5.2c0.2,0.4,0.4,0.9,0.5,1.3l1.1-0.3
						c-0.2-0.5-0.3-1-0.6-1.5c-0.7-1.2-0.7-2.8,0-4.1c0.9-1.6,0.9-3.6,0-5.2c-0.7-1.3-0.7-2.8,0-4.1c0.9-1.6,0.9-3.6,0-5.2
						c-0.7-1.3-0.7-2.8,0-4.1c0.1-0.2,0.1-0.4,0-0.6c-0.1-0.2-0.3-0.3-0.5-0.3h-1.9V11.5z"/>
					<path d="M43.7,36l0-0.2c-0.1-0.5-0.3-0.9-0.5-1.3c-0.9-1.6-0.9-3.7,0-5.4c0.7-1.2,0.7-2.6,0-3.8c-1-1.7-1-3.8,0-5.5
						c0.7-1.2,0.7-2.6,0-3.8c-0.7-1.3-0.9-2.8-0.5-4.2h-0.9v-1.7h2.1c0.3,0,0.6,0.2,0.7,0.4s0.2,0.6,0,0.8c-0.7,1.2-0.7,2.6,0,3.8
						c1,1.7,1,3.8,0,5.5c-0.7,1.2-0.7,2.6,0,3.8c1,1.7,1,3.8,0,5.5c-0.7,1.2-0.7,2.6,0,3.8c0.3,0.6,0.5,1.1,0.6,1.6l0.1,0.2L43.7,36
						z M42.2,11.4h1l-0.1,0.2c-0.5,1.4-0.3,2.9,0.4,4.2c0.7,1.3,0.7,2.9,0,4.2c-0.9,1.6-0.9,3.5,0,5.1c0.7,1.3,0.7,2.9,0,4.2
						c-0.9,1.6-0.9,3.5,0,5.1c0.2,0.4,0.3,0.8,0.5,1.2l0.9-0.3c-0.1-0.5-0.3-0.9-0.5-1.4c-0.7-1.3-0.7-2.9,0-4.1
						c0.9-1.6,0.9-3.5,0-5.1c-0.7-1.3-0.7-2.9,0-4.2c0.9-1.6,0.9-3.5,0-5.1c-0.7-1.3-0.7-2.9,0-4.2c0.1-0.2,0.1-0.3,0-0.5
						s-0.2-0.2-0.4-0.2h-1.8V11.4z"/>
				</g>
			</g>
		</g>
	</g>
	<g>
		<g>
			<g>
				<g>
					<path d="M79.1,15.1c-0.1-1.9-1.7-3.5-3.6-3.4l-19.3,0.6l-1-1c-0.6-0.6-1.5-1-2.3-1c0,0,0,0,0,0h-6.1c-0.2,0-0.5,0.1-0.6,0.3
						c-0.9,1.6-0.9,3.7,0,5.3c0.7,1.2,0.7,2.8,0,4c-0.9,1.6-0.9,3.7,0,5.3c0.7,1.2,0.7,2.8,0,4c-0.9,1.6-0.9,3.7,0,5.3
						c0.1,0.2,0.2,0.3,0.2,0.5l1.2-0.5c-0.1-0.2-0.2-0.4-0.3-0.7c-0.7-1.2-0.7-2.8,0-4c0.9-1.6,0.9-3.7,0-5.3c-0.7-1.2-0.7-2.8,0-4
						c0.2-0.3,0.3-0.7,0.4-1h5.1c0,0,0,0,0,0c0.9,0,1.7-0.3,2.3-1l1-1l19.2,1.1c0.1,0,0.2,0,0.2,0C77.5,18.7,79.1,17.1,79.1,15.1
						L79.1,15.1z M75.6,17.4c-0.1,0-0.1,0-0.1,0l-19.5-1.1c-0.2,0-0.4,0.1-0.5,0.2l-1.2,1.2c-0.4,0.4-0.9,0.6-1.4,0.6c0,0,0,0,0,0
						h-4.9c0.1-1-0.2-2.1-0.7-3c-0.6-1.1-0.7-2.5-0.2-3.6h5.7c0,0,0,0,0,0c0.5,0,1,0.2,1.4,0.6l1.2,1.2c0.1,0.1,0.3,0.2,0.5,0.2
						L75.5,13c1.2,0,2.2,0.9,2.3,2.2C77.8,16.4,76.8,17.4,75.6,17.4z"/>
					<path d="M46.3,35.1L46.3,35.1c-0.1-0.3-0.2-0.4-0.3-0.6c-1-1.7-1-3.7,0-5.4c0.7-1.2,0.7-2.7,0-3.9c-1-1.7-1-3.7,0-5.4
						c0.7-1.2,0.7-2.7,0-3.9c-1-1.7-1-3.7,0-5.4c0.1-0.2,0.4-0.4,0.7-0.4h6.1c0.9,0,1.8,0.4,2.4,1l1,1l19.3-0.6c0,0,0,0,0.1,0
						c2,0,3.6,1.6,3.6,3.5l0,0.1c0,2-1.6,3.6-3.6,3.6c-0.1,0-0.1,0-0.2,0l-19.2-1.1l-1,1c-0.6,0.6-1.5,1-2.4,1h-5.1
						c-0.1,0.3-0.3,0.6-0.4,0.9c-0.7,1.2-0.7,2.7,0,3.9c1,1.7,1,3.7,0,5.4c-0.7,1.2-0.7,2.7,0,3.9c0.1,0.2,0.2,0.4,0.3,0.7l0,0.1
						L46.3,35.1z M46.7,10.4c-0.2,0-0.4,0.1-0.5,0.3c-0.9,1.6-0.9,3.6,0,5.2c0.7,1.3,0.7,2.8,0,4.1c-0.9,1.6-0.9,3.6,0,5.2
						c0.7,1.3,0.7,2.8,0,4.1c-0.9,1.6-0.9,3.6,0,5.2c0.1,0.1,0.1,0.3,0.2,0.4l1-0.4c-0.1-0.2-0.2-0.4-0.3-0.6
						c-0.7-1.3-0.7-2.8,0-4.1c0.9-1.6,0.9-3.6,0-5.2c-0.7-1.3-0.7-2.8,0-4.1c0.2-0.3,0.3-0.6,0.4-1l0-0.1h5.2c0.9,0,1.7-0.3,2.3-0.9
						l1-1l0,0l19.2,1.1c0.1,0,0.2,0,0.2,0c1.9,0,3.4-1.5,3.4-3.4l0-0.1c-0.1-1.8-1.6-3.3-3.4-3.3c0,0,0,0-0.1,0l-19.4,0.6l0,0l-1-1
						c-0.6-0.6-1.4-0.9-2.3-0.9H46.7z M52.8,18.3h-5l0-0.1c0.1-1-0.2-2-0.7-2.9c-0.7-1.1-0.7-2.5-0.2-3.7l0-0.1h5.8
						c0.6,0,1.1,0.2,1.5,0.6l1.2,1.2c0.1,0.1,0.3,0.2,0.4,0.2l19.6-0.6c0,0,0,0,0.1,0c1.3,0,2.3,1,2.3,2.3c0,1.3-1,2.3-2.3,2.3l0,0
						c0,0,0,0-0.1,0c0,0,0,0-0.1,0l-19.5-1.1c0,0,0,0,0,0c-0.1,0-0.3,0.1-0.4,0.2l-1.2,1.2C53.9,18.1,53.4,18.3,52.8,18.3z M48,18.1
						h4.8c0.5,0,1-0.2,1.3-0.6l1.2-1.2c0.2-0.2,0.4-0.2,0.6-0.2l19.5,1.1c0,0,0,0,0,0c0,0,0.1,0,0.1,0c1.1,0,2.1-0.9,2.1-2.1
						c0-1.2-0.9-2.1-2.1-2.1c0,0,0,0-0.1,0l-19.6,0.6c-0.2,0-0.4-0.1-0.6-0.2l-1.2-1.2c-0.4-0.4-0.8-0.6-1.3-0.6h-5.7
						c-0.5,1.1-0.4,2.4,0.2,3.5C47.8,16.1,48.1,17.1,48,18.1z"/>
				</g>
				<g>
					<path d="M46.3,35.1L46.3,35.1c-0.1-0.3-0.2-0.4-0.3-0.6c-1-1.7-1-3.7,0-5.4c0.7-1.2,0.7-2.7,0-3.9c-1-1.7-1-3.7,0-5.4
						c0.7-1.2,0.7-2.7,0-3.9c-1-1.7-1-3.7,0-5.4c0.1-0.2,0.4-0.4,0.6-0.4h6.1c0.9,0,1.8,0.4,2.4,1l1,1l19.3-0.6c0,0,0,0,0.1,0
						c2,0,3.6,1.6,3.6,3.5v0.1c0,2-1.6,3.6-3.6,3.6c-0.1,0-0.1,0-0.2,0l-19.2-1.1l-1,1c-0.6,0.6-1.5,1-2.4,1h-5.1
						c-0.1,0.3-0.3,0.6-0.4,1c-0.7,1.2-0.7,2.7,0,3.9c1,1.7,1,3.7,0,5.4c-0.7,1.2-0.7,2.7,0,3.9c0.1,0.2,0.2,0.4,0.3,0.7l0,0.1
						L46.3,35.1z M46.7,10.3c-0.2,0-0.4,0.1-0.5,0.3c-0.9,1.6-0.9,3.6,0,5.2c0.7,1.3,0.7,2.8,0,4.1c-0.9,1.6-0.9,3.6,0,5.2
						c0.7,1.3,0.7,2.8,0,4.1c-0.9,1.6-0.9,3.6,0,5.2c0.1,0.1,0.1,0.3,0.2,0.4l1.1-0.4c-0.1-0.2-0.2-0.4-0.3-0.6
						c-0.7-1.3-0.7-2.8,0-4.1c0.9-1.6,0.9-3.6,0-5.2c-0.7-1.3-0.7-2.8,0-4.1c0.2-0.3,0.3-0.6,0.4-1l0-0.1h5.2c0.9,0,1.7-0.3,2.3-0.9
						l1-1l0,0l19.2,1.1c0.1,0,0.2,0,0.2,0c1.9,0,3.4-1.5,3.4-3.4v-0.1c-0.1-1.9-1.6-3.3-3.5-3.3c0,0,0,0-0.1,0l-19.4,0.6l0,0l-1-1
						c-0.6-0.6-1.4-0.9-2.3-0.9H46.7z M52.8,18.3h-5l0-0.1c0.1-1-0.2-2-0.7-2.9c-0.6-1.1-0.7-2.5-0.2-3.7l0,0h5.8
						c0.6,0,1.1,0.2,1.5,0.6l1.2,1.2c0.1,0.1,0.3,0.2,0.4,0.2c0,0,0,0,0,0l19.6-0.6c0,0,0,0,0.1,0c1.2,0,2.2,1,2.3,2.3
						c0,1.3-1,2.3-2.3,2.3l0,0c0,0,0,0-0.1,0c0,0,0,0,0,0l-19.5-1.1c-0.2,0-0.3,0-0.4,0.2l-1.2,1.2C53.9,18.1,53.4,18.3,52.8,18.3z
						 M48,18.1h4.8c0.5,0,1-0.2,1.3-0.6l1.2-1.2c0.2-0.2,0.4-0.2,0.6-0.2l19.5,1.1c0,0,0,0,0,0c0,0,0.1,0,0.1,0c1.2,0,2.1-1,2.1-2.1
						c0-1.2-1-2.1-2.1-2.1c0,0,0,0-0.1,0l-19.6,0.6c0,0,0,0,0,0c-0.2,0-0.4-0.1-0.5-0.2l-1.2-1.2c-0.4-0.4-0.8-0.6-1.3-0.6h-5.7
						c-0.5,1.1-0.4,2.4,0.2,3.5C47.8,16.1,48.1,17.1,48,18.1z"/>
					<path d="M46.2,35.2L46.2,35c-0.1-0.2-0.1-0.3-0.2-0.5c-1-1.7-1-3.8,0-5.5c0.7-1.2,0.7-2.6,0-3.8c-1-1.7-1-3.8,0-5.5
						c0.7-1.2,0.7-2.6,0-3.8c-1-1.7-1-3.8,0-5.5c0.1-0.3,0.4-0.4,0.7-0.4h6.1c0.9,0,1.8,0.4,2.5,1l1,1l19.3-0.6c2,0,3.7,1.6,3.7,3.6
						v0.1c0,2-1.7,3.7-3.7,3.7c0,0-0.1,0-0.1,0l-0.1,0l-19.1-1.1l-0.9,0.9c-0.7,0.7-1.5,1-2.5,1h-5c-0.1,0.3-0.2,0.6-0.4,0.9
						c-0.7,1.2-0.7,2.6,0,3.8c1,1.7,1,3.8,0,5.5c-0.7,1.2-0.7,2.6,0,3.8c0.1,0.2,0.2,0.4,0.3,0.7l0.1,0.2L46.2,35.2z M46.7,10.4
						c-0.2,0-0.3,0.1-0.4,0.2c-0.9,1.6-0.9,3.5,0,5.1c0.7,1.3,0.7,2.9,0,4.2c-0.9,1.6-0.9,3.5,0,5.1c0.7,1.3,0.7,2.9,0,4.2
						c-0.9,1.6-0.9,3.5,0,5.1c0.1,0.1,0.1,0.2,0.2,0.3l0.9-0.4c-0.1-0.2-0.2-0.3-0.2-0.5c-0.7-1.3-0.7-2.9,0-4.2
						c0.9-1.6,0.9-3.5,0-5.1c-0.7-1.3-0.7-2.9,0-4.2c0.2-0.3,0.3-0.6,0.4-1l0-0.1h5.3c0.8,0,1.6-0.3,2.2-0.9l1.1-1.1l0.1,0l19.2,1.1
						c0.1,0,0.2,0,0.2,0c1.8,0,3.3-1.5,3.3-3.3v-0.1c-0.1-1.8-1.6-3.2-3.4-3.2h-0.1l-19.4,0.6L56,12.4l-1-1
						c-0.6-0.6-1.4-0.9-2.2-0.9H46.7z M52.8,18.4h-5.1l0-0.2c0.1-1-0.2-2-0.7-2.9c-0.7-1.2-0.7-2.6-0.2-3.8l0-0.1h5.9
						c0.6,0,1.1,0.2,1.5,0.6l1.2,1.2c0.1,0.1,0.2,0.1,0.3,0.1h0l19.6-0.6c0,0,0,0,0.1,0c1.3,0,2.3,1,2.4,2.4c0,1.3-1.1,2.4-2.4,2.4
						l0,0c0,0,0,0,0,0c0,0,0,0-0.1,0l-19.5-1.1c-0.1,0-0.3,0-0.4,0.1l-1.2,1.2C53.9,18.2,53.4,18.4,52.8,18.4z M48.1,18h4.7
						c0.5,0,0.9-0.2,1.3-0.5l1.2-1.2c0.2-0.2,0.4-0.3,0.7-0.2l19.5,1.1l0,0c0,0,0.1,0,0.1,0c1.1,0,2-0.9,2-2c0-1.1-0.9-2-2-2h-0.1
						l-19.6,0.6c0,0,0,0,0,0c-0.2,0-0.4-0.1-0.6-0.2l-1.2-1.2c-0.3-0.3-0.8-0.5-1.3-0.5h-5.6c-0.5,1.1-0.4,2.3,0.2,3.4
						C47.9,16,48.1,17,48.1,18z"/>
				</g>
			</g>
		</g>
	</g>
	<g>
		<g>
			<g>
				<g>
					<path d="M49.9,24.5c-0.7-1.2-0.7-2.8,0-4c0.3-0.5,0.5-1,0.6-1.5l-1.3-0.3c-0.1,0.4-0.2,0.8-0.4,1.1c-0.9,1.6-0.9,3.7,0,5.3
						c0.7,1.2,0.7,2.8,0,4c-0.9,1.5-0.9,3.4-0.2,4.9l1.2-0.6c-0.6-1.2-0.5-2.6,0.1-3.7C50.8,28.2,50.8,26.2,49.9,24.5z"/>
					<path d="M48.5,34.2L48.5,34.2c-0.8-1.7-0.7-3.6,0.1-5.1c0.7-1.2,0.7-2.7,0-3.9c-1-1.7-1-3.7,0-5.4c0.2-0.3,0.3-0.7,0.4-1.1
						l0-0.1l1.5,0.3l0,0.1c-0.1,0.5-0.3,1-0.6,1.5c-0.7,1.2-0.7,2.7,0,3.9c1,1.7,1,3.7,0,5.4c-0.6,1.1-0.7,2.5-0.1,3.6l0,0.1
						L48.5,34.2z M49.2,18.9c-0.1,0.4-0.2,0.7-0.4,1c-0.9,1.6-0.9,3.6,0,5.2c0.7,1.3,0.7,2.8,0,4.1c-0.8,1.5-0.9,3.2-0.2,4.8l1-0.5
						c-0.5-1.2-0.5-2.6,0.2-3.7c0.9-1.6,0.9-3.6,0-5.2l0,0c-0.7-1.3-0.7-2.8,0-4.1c0.2-0.4,0.4-0.9,0.5-1.4L49.2,18.9z"/>
				</g>
				<g>
					<path d="M48.5,34.2L48.5,34.2c-0.8-1.7-0.7-3.6,0.1-5.1c0.7-1.2,0.7-2.7,0-3.9c-0.9-1.7-0.9-3.7,0-5.4c0.2-0.3,0.3-0.7,0.4-1.1
						l0-0.1l1.5,0.3l0,0.1c-0.1,0.5-0.3,1-0.6,1.5c-0.7,1.2-0.7,2.7,0,3.9l0,0c0.9,1.7,0.9,3.7,0,5.4c-0.6,1.1-0.7,2.5-0.1,3.6
						l0,0.1L48.5,34.2z M49.2,18.9c-0.1,0.4-0.2,0.7-0.4,1.1c-0.9,1.6-0.9,3.6,0,5.2c0.7,1.3,0.7,2.8,0,4.1
						c-0.8,1.5-0.9,3.3-0.2,4.8l1-0.5c-0.5-1.2-0.5-2.6,0.2-3.7c0.9-1.6,0.9-3.6,0-5.2l0,0c-0.7-1.3-0.7-2.8,0-4.1
						c0.2-0.4,0.4-0.9,0.5-1.4L49.2,18.9z"/>
					<path d="M48.5,34.3l-0.1-0.2c-0.8-1.6-0.7-3.5,0.2-5.1c0.7-1.2,0.7-2.6,0-3.8c-1-1.7-1-3.8,0-5.5c0.2-0.3,0.3-0.7,0.4-1.1
						l0-0.2l1.6,0.4l0,0.2c-0.1,0.5-0.3,1.1-0.6,1.5c-0.7,1.2-0.7,2.6,0,3.8c1,1.7,1,3.8,0,5.5c-0.6,1.1-0.7,2.4-0.1,3.6l0.1,0.2
						L48.5,34.3z M49.3,19c-0.1,0.3-0.2,0.7-0.4,1c-0.9,1.6-0.9,3.5,0,5.1c0.7,1.3,0.7,2.9,0,4.2c-0.8,1.4-0.9,3.1-0.2,4.6l0.9-0.4
						c-0.5-1.2-0.4-2.6,0.2-3.7c0.9-1.6,0.9-3.5,0-5.1c-0.7-1.3-0.7-2.9,0-4.2c0.2-0.4,0.4-0.8,0.5-1.2L49.3,19z"/>
				</g>
			</g>
		</g>
	</g>
	<g>
		<g>
			<g>
				<g>
					<rect x="42" y="12.9" width="1.3" height="1.3"/>
					<path d="M43.4,14.3h-1.5v-1.5h1.5V14.3z M42.1,14.1h1.1V13h-1.1V14.1z"/>
				</g>
				<g>
					<path d="M43.4,14.3h-1.5v-1.5h1.5V14.3z M42.1,14.2h1.2V13h-1.2V14.2z"/>
					<path d="M43.5,14.4h-1.7v-1.7h1.7V14.4z M42.2,14.1h1v-1h-1V14.1z"/>
				</g>
			</g>
		</g>
	</g>
	<g>
		<g>
			<g>
				<g>
					<rect x="42" y="15.6" width="2" height="1.3"/>
					<path d="M44.1,17h-2.2v-1.5h2.2V17z M42.1,16.8h1.8v-1.1h-1.8V16.8z"/>
				</g>
				<g>
					<path d="M44,17h-2.2v-1.5H44V17z M42.1,16.8h1.8v-1.2h-1.8V16.8z"/>
					<path d="M44.1,17.1h-2.4v-1.7h2.4V17.1z M42.2,16.7h1.6v-1h-1.6V16.7z"/>
				</g>
			</g>
		</g>
	</g>
	<g>
		<g>
			<g>
				<g>
					<rect x="42" y="18.2" width="2.7" height="1.3"/>
					<path d="M44.7,19.6h-2.9v-1.5h2.9V19.6z M42.1,19.4h2.5v-1.1h-2.5V19.4z"/>
				</g>
				<g>
					<path d="M44.7,19.6h-2.8v-1.5h2.8V19.6z M42.1,19.5h2.5v-1.2h-2.5V19.5z"/>
					<path d="M44.8,19.7h-3V18h3V19.7z M42.2,19.4h2.3v-1h-2.3V19.4z"/>
				</g>
			</g>
		</g>
	</g>
</g>
<g>
	<g>
		<g>
			<path d="M32.7,27.8c-0.6-3.9-4-5.1-6.6-5.6c-3.3-0.7-8.5-1-12.8,0c-1,0.2-2,0.6-3,1.1c0.3-0.1,0.7-0.2,1.1-0.3
				c3.8-0.9,8.6-0.8,12.4,0c1.2,0.2,2.1,0.6,2.9,1.1c2.7,0.8,4,2,4.3,4c0.5,3.1-1.1,4.8-2.2,5.6l-0.3,0.3v12.1l-1.3,0.6h-0.6v0.8
				H9.8v0.8h17.7l2.7-1.2V34.7C31.5,33.6,33.2,31.4,32.7,27.8z"/>
			<path d="M27.6,48.4H9.7v-1h16.8v-0.8h0.7l1.3-0.6V33.9l0.4-0.3c1-0.8,2.6-2.5,2.1-5.5c-0.3-2-1.6-3.2-4.2-3.9
				c-0.8-0.5-1.8-0.8-2.9-1.1c-4-0.8-8.7-0.8-12.4,0c-0.4,0.1-0.7,0.2-1,0.3l-0.1-0.2c0.8-0.4,1.8-0.8,3-1.1c4.3-1,9.5-0.8,12.8,0
				c2.6,0.6,6,1.8,6.6,5.7l0,0c0.6,3.7-1.3,6-2.5,7v12.4l-0.1,0L27.6,48.4z M9.9,48.2h17.6l2.6-1.2V34.7l0,0c1.4-1.2,3-3.4,2.4-6.8
				c-0.6-3.8-4-5-6.5-5.6c-3.3-0.7-8.5-1-12.7,0c-0.7,0.2-1.4,0.4-1.9,0.6c3.6-0.8,8.4-0.8,12.4,0c1.1,0.2,2.1,0.6,3,1.1
				c2.7,0.8,4,2,4.4,4.1c0.5,3.1-1.2,4.9-2.2,5.7L28.6,34v12.2l-1.4,0.6h-0.5v0.8H9.9V48.2z"/>
		</g>
	</g>
	<g>
		<g>
			<path d="M27.4,48.3H7.7V33.7C6,32.5,5,30.5,5,28.5c0-4.4,3.5-5.7,6.2-6.3c3.7-0.9,8.6-0.9,12.8,0c5.1,1.1,6.2,4,6.2,6.4
				c0,2-1,4-2.7,5.2V48.3z M9.3,46.7h16.4V32.7l0.4-0.2c1.4-0.9,2.3-2.4,2.3-4c0-2.5-1.6-4-4.9-4.7c-3.8-0.8-8.6-0.8-12.1,0
				c-3.5,0.8-4.9,2.2-4.9,4.7c0,1.6,0.9,3.2,2.3,4l0.4,0.2V46.7z"/>
			<path d="M27.5,48.4h-20V33.7c-1.7-1.2-2.7-3.2-2.7-5.2c0-4.5,3.6-5.8,6.3-6.4c3.8-0.9,8.7-0.9,12.8,0c5.2,1.1,6.3,4.1,6.3,6.5
				c0,2.1-1,4-2.7,5.2V48.4z M7.8,48.2h19.6V33.6l0,0c1.7-1.2,2.6-3.1,2.6-5.1c0-2.3-1.1-5.2-6.1-6.3c-4.1-0.8-9-0.8-12.7,0
				c-2.6,0.6-6.1,1.9-6.1,6.3c0,2,1,3.9,2.6,5.1l0,0V48.2z M25.9,46.8H9.2v-14l-0.4-0.2c-1.4-0.9-2.3-2.4-2.3-4.1c0-2.6,1.4-4,5-4.8
				c3.5-0.8,8.2-0.8,12.1,0c3.3,0.7,4.9,2.3,4.9,4.8c0,1.7-0.9,3.2-2.3,4.1l-0.4,0.2V46.8z M9.4,46.6h16.2V32.7l0.4-0.3
				c1.4-0.8,2.2-2.3,2.2-3.9c0-2.4-1.6-4-4.8-4.6c-3.8-0.8-8.5-0.8-12,0c-3.4,0.8-4.8,2.1-4.8,4.6c0,1.6,0.9,3.1,2.2,3.9l0.4,0.3
				V46.6z"/>
		</g>
	</g>
	<g>
		<g>
			<path d="M11.9,28.6h-0.7c-0.1,0-0.2-0.1-0.2-0.2V28c0-0.1,0.1-0.2,0.2-0.2h0.7c0.1,0,0.2,0.1,0.2,0.2v0.3
				C12.2,28.5,12.1,28.6,11.9,28.6z"/>
			<path d="M11.9,28.7h-0.7c-0.2,0-0.3-0.1-0.3-0.3V28c0-0.2,0.1-0.3,0.3-0.3h0.7c0.2,0,0.3,0.1,0.3,0.3v0.3
				C12.3,28.5,12.1,28.7,11.9,28.7z M11.2,27.9c-0.1,0-0.1,0.1-0.1,0.1v0.3c0,0.1,0.1,0.1,0.1,0.1h0.7c0.1,0,0.1-0.1,0.1-0.1V28
				c0-0.1-0.1-0.1-0.1-0.1H11.2z"/>
		</g>
		<g>
			<path d="M11.8,28.8h-0.4c-0.3,0-0.6-0.3-0.6-0.6v-0.1c0-0.3,0.3-0.6,0.6-0.6h0.4c0.3,0,0.6,0.3,0.6,0.6v0.1
				C12.4,28.5,12.1,28.8,11.8,28.8z M11.4,28c-0.1,0-0.2,0.1-0.2,0.2v0.1c0,0.1,0.1,0.2,0.2,0.2h0.4c0.1,0,0.2-0.1,0.2-0.2v-0.1
				c0-0.1-0.1-0.2-0.2-0.2H11.4z"/>
			<path d="M11.8,28.9h-0.4c-0.4,0-0.7-0.3-0.7-0.7v-0.1c0-0.4,0.3-0.7,0.7-0.7h0.4c0.4,0,0.7,0.3,0.7,0.7v0.1
				C12.5,28.6,12.2,28.9,11.8,28.9z M11.4,27.7c-0.3,0-0.5,0.2-0.5,0.5v0.1c0,0.3,0.2,0.5,0.5,0.5h0.4c0.3,0,0.5-0.2,0.5-0.5v-0.1
				c0-0.3-0.2-0.5-0.5-0.5H11.4z M11.8,28.5h-0.4c-0.1,0-0.3-0.1-0.3-0.3v-0.1c0-0.1,0.1-0.3,0.3-0.3h0.4c0.1,0,0.3,0.1,0.3,0.3v0.1
				C12.1,28.3,11.9,28.5,11.8,28.5z M11.4,28.1C11.4,28.1,11.3,28.1,11.4,28.1l-0.1,0.1c0,0,0,0.1,0.1,0.1h0.4c0,0,0.1,0,0.1-0.1
				v-0.1c0,0,0-0.1-0.1-0.1H11.4z"/>
		</g>
	</g>
	<g>
		<g>
			<path d="M19,28.6h-0.7c-0.1,0-0.2-0.1-0.2-0.2V28c0-0.1,0.1-0.2,0.2-0.2H19c0.1,0,0.2,0.1,0.2,0.2v0.3
				C19.2,28.5,19.1,28.6,19,28.6z"/>
			<path d="M19,28.7h-0.7c-0.2,0-0.3-0.1-0.3-0.3V28c0-0.2,0.1-0.3,0.3-0.3H19c0.2,0,0.3,0.1,0.3,0.3v0.3
				C19.3,28.5,19.2,28.7,19,28.7z M18.3,27.9c-0.1,0-0.1,0.1-0.1,0.1v0.3c0,0.1,0.1,0.1,0.1,0.1H19c0.1,0,0.1-0.1,0.1-0.1V28
				c0-0.1-0.1-0.1-0.1-0.1H18.3z"/>
		</g>
		<g>
			<path d="M18.9,28.8h-0.4c-0.3,0-0.6-0.3-0.6-0.6v-0.1c0-0.3,0.3-0.6,0.6-0.6h0.4c0.3,0,0.6,0.3,0.6,0.6v0.1
				C19.4,28.5,19.2,28.8,18.9,28.8z M18.4,28c-0.1,0-0.2,0.1-0.2,0.2v0.1c0,0.1,0.1,0.2,0.2,0.2h0.4c0.1,0,0.2-0.1,0.2-0.2v-0.1
				c0-0.1-0.1-0.2-0.2-0.2H18.4z"/>
			<path d="M18.9,28.9h-0.4c-0.4,0-0.7-0.3-0.7-0.7v-0.1c0-0.4,0.3-0.7,0.7-0.7h0.4c0.4,0,0.7,0.3,0.7,0.7v0.1
				C19.5,28.6,19.2,28.9,18.9,28.9z M18.4,27.7c-0.3,0-0.5,0.2-0.5,0.5v0.1c0,0.3,0.2,0.5,0.5,0.5h0.4c0.3,0,0.5-0.2,0.5-0.5v-0.1
				c0-0.3-0.2-0.5-0.5-0.5H18.4z M18.9,28.5h-0.4c-0.1,0-0.3-0.1-0.3-0.3v-0.1c0-0.1,0.1-0.3,0.3-0.3h0.4c0.1,0,0.3,0.1,0.3,0.3v0.1
				C19.1,28.3,19,28.5,18.9,28.5z M18.4,28.1C18.4,28.1,18.4,28.1,18.4,28.1l-0.1,0.1c0,0,0,0.1,0.1,0.1h0.4c0,0,0.1,0,0.1-0.1v-0.1
				c0,0,0-0.1-0.1-0.1H18.4z"/>
		</g>
	</g>
	<g>
		<g>
			<path d="M25.8,28.6h-0.7c-0.1,0-0.2-0.1-0.2-0.2V28c0-0.1,0.1-0.2,0.2-0.2h0.7c0.1,0,0.2,0.1,0.2,0.2v0.3
				C26.1,28.5,26,28.6,25.8,28.6z"/>
			<path d="M25.8,28.7h-0.7c-0.2,0-0.3-0.1-0.3-0.3V28c0-0.2,0.1-0.3,0.3-0.3h0.7c0.2,0,0.3,0.1,0.3,0.3v0.3
				C26.2,28.5,26,28.7,25.8,28.7z M25.1,27.9c-0.1,0-0.1,0.1-0.1,0.1v0.3c0,0.1,0.1,0.1,0.1,0.1h0.7c0.1,0,0.1-0.1,0.1-0.1V28
				c0-0.1-0.1-0.1-0.1-0.1H25.1z"/>
		</g>
		<g>
			<path d="M25.7,28.8h-0.4c-0.3,0-0.6-0.3-0.6-0.6v-0.1c0-0.3,0.3-0.6,0.6-0.6h0.4c0.3,0,0.6,0.3,0.6,0.6v0.1
				C26.3,28.5,26,28.8,25.7,28.8z M25.3,28c-0.1,0-0.2,0.1-0.2,0.2v0.1c0,0.1,0.1,0.2,0.2,0.2h0.4c0.1,0,0.2-0.1,0.2-0.2v-0.1
				c0-0.1-0.1-0.2-0.2-0.2H25.3z"/>
			<path d="M25.7,28.9h-0.4c-0.4,0-0.7-0.3-0.7-0.7v-0.1c0-0.4,0.3-0.7,0.7-0.7h0.4c0.4,0,0.7,0.3,0.7,0.7v0.1
				C26.4,28.6,26.1,28.9,25.7,28.9z M25.3,27.7c-0.3,0-0.5,0.2-0.5,0.5v0.1c0,0.3,0.2,0.5,0.5,0.5h0.4c0.3,0,0.5-0.2,0.5-0.5v-0.1
				c0-0.3-0.2-0.5-0.5-0.5H25.3z M25.7,28.5h-0.4c-0.1,0-0.3-0.1-0.3-0.3v-0.1c0-0.1,0.1-0.3,0.3-0.3h0.4c0.1,0,0.3,0.1,0.3,0.3v0.1
				C26,28.3,25.8,28.5,25.7,28.5z M25.3,28.1C25.3,28.1,25.2,28.1,25.3,28.1l-0.1,0.1c0,0,0,0.1,0.1,0.1h0.4c0,0,0.1,0,0.1-0.1v-0.1
				c0,0,0-0.1-0.1-0.1H25.3z"/>
		</g>
	</g>
	<g>
		<g>
			<path d="M15.7,32.4H15c-0.1,0-0.2-0.1-0.2-0.2v-0.3c0-0.1,0.1-0.2,0.2-0.2h0.7c0.1,0,0.2,0.1,0.2,0.2v0.3
				C15.9,32.3,15.8,32.4,15.7,32.4z"/>
			<path d="M15.7,32.5H15c-0.2,0-0.3-0.1-0.3-0.3v-0.3c0-0.2,0.1-0.3,0.3-0.3h0.7c0.2,0,0.3,0.1,0.3,0.3v0.3
				C16,32.3,15.9,32.5,15.7,32.5z M15,31.7c-0.1,0-0.1,0.1-0.1,0.1v0.3c0,0.1,0.1,0.1,0.1,0.1h0.7c0.1,0,0.1-0.1,0.1-0.1v-0.3
				c0-0.1-0.1-0.1-0.1-0.1H15z"/>
		</g>
		<g>
			<path d="M15.5,32.6h-0.4c-0.3,0-0.6-0.3-0.6-0.6V32c0-0.3,0.3-0.6,0.6-0.6h0.4c0.3,0,0.6,0.3,0.6,0.6V32
				C16.1,32.3,15.8,32.6,15.5,32.6z M15.1,31.8C15,31.8,15,31.9,15,32V32c0,0.1,0.1,0.2,0.2,0.2h0.4c0.1,0,0.2-0.1,0.2-0.2V32
				c0-0.1-0.1-0.2-0.2-0.2H15.1z"/>
			<path d="M15.5,32.7h-0.4c-0.4,0-0.7-0.3-0.7-0.7V32c0-0.4,0.3-0.7,0.7-0.7h0.4c0.4,0,0.7,0.3,0.7,0.7V32
				C16.2,32.4,15.9,32.7,15.5,32.7z M15.1,31.5c-0.3,0-0.5,0.2-0.5,0.5V32c0,0.3,0.2,0.5,0.5,0.5h0.4c0.3,0,0.5-0.2,0.5-0.5V32
				c0-0.3-0.2-0.5-0.5-0.5H15.1z M15.5,32.3h-0.4c-0.1,0-0.3-0.1-0.3-0.3V32c0-0.1,0.1-0.3,0.3-0.3h0.4c0.1,0,0.3,0.1,0.3,0.3V32
				C15.8,32.2,15.7,32.3,15.5,32.3z M15.1,31.9C15.1,31.9,15.1,31.9,15.1,31.9L15.1,32c0,0,0,0.1,0.1,0.1h0.4c0,0,0.1,0,0.1-0.1V32
				c0,0,0-0.1-0.1-0.1H15.1z"/>
		</g>
	</g>
	<g>
		<g>
			<path d="M22.7,32.4H22c-0.1,0-0.2-0.1-0.2-0.2v-0.3c0-0.1,0.1-0.2,0.2-0.2h0.7c0.1,0,0.2,0.1,0.2,0.2v0.3
				C23,32.3,22.9,32.4,22.7,32.4z"/>
			<path d="M22.7,32.5H22c-0.2,0-0.3-0.1-0.3-0.3v-0.3c0-0.2,0.1-0.3,0.3-0.3h0.7c0.2,0,0.3,0.1,0.3,0.3v0.3
				C23.1,32.3,22.9,32.5,22.7,32.5z M22,31.7c-0.1,0-0.1,0.1-0.1,0.1v0.3c0,0.1,0.1,0.1,0.1,0.1h0.7c0.1,0,0.1-0.1,0.1-0.1v-0.3
				c0-0.1-0.1-0.1-0.1-0.1H22z"/>
		</g>
		<g>
			<path d="M22.6,32.6h-0.4c-0.3,0-0.6-0.3-0.6-0.6V32c0-0.3,0.3-0.6,0.6-0.6h0.4c0.3,0,0.6,0.3,0.6,0.6V32
				C23.2,32.3,22.9,32.6,22.6,32.6z M22.2,31.8c-0.1,0-0.2,0.1-0.2,0.2V32c0,0.1,0.1,0.2,0.2,0.2h0.4c0.1,0,0.2-0.1,0.2-0.2V32
				c0-0.1-0.1-0.2-0.2-0.2H22.2z"/>
			<path d="M22.6,32.7h-0.4c-0.4,0-0.7-0.3-0.7-0.7V32c0-0.4,0.3-0.7,0.7-0.7h0.4c0.4,0,0.7,0.3,0.7,0.7V32
				C23.3,32.4,23,32.7,22.6,32.7z M22.2,31.5c-0.3,0-0.5,0.2-0.5,0.5V32c0,0.3,0.2,0.5,0.5,0.5h0.4c0.3,0,0.5-0.2,0.5-0.5V32
				c0-0.3-0.2-0.5-0.5-0.5H22.2z M22.6,32.3h-0.4c-0.1,0-0.3-0.1-0.3-0.3V32c0-0.1,0.1-0.3,0.3-0.3h0.4c0.1,0,0.3,0.1,0.3,0.3V32
				C22.8,32.2,22.7,32.3,22.6,32.3z M22.2,31.9C22.1,31.9,22.1,31.9,22.2,31.9L22.1,32c0,0,0,0.1,0.1,0.1h0.4c0,0,0.1,0,0.1-0.1V32
				c0,0,0-0.1-0.1-0.1H22.2z"/>
		</g>
	</g>
	<g>
		<g>
			<path d="M11.9,36.3h-0.7c-0.1,0-0.2-0.1-0.2-0.2v-0.3c0-0.1,0.1-0.2,0.2-0.2h0.7c0.1,0,0.2,0.1,0.2,0.2V36
				C12.2,36.2,12.1,36.3,11.9,36.3z"/>
			<path d="M11.9,36.4h-0.7c-0.2,0-0.3-0.1-0.3-0.3v-0.3c0-0.2,0.1-0.3,0.3-0.3h0.7c0.2,0,0.3,0.1,0.3,0.3V36
				C12.3,36.2,12.1,36.4,11.9,36.4z M11.2,35.6c-0.1,0-0.1,0.1-0.1,0.1V36c0,0.1,0.1,0.1,0.1,0.1h0.7c0.1,0,0.1-0.1,0.1-0.1v-0.3
				c0-0.1-0.1-0.1-0.1-0.1H11.2z"/>
		</g>
		<g>
			<path d="M11.8,36.5h-0.4c-0.3,0-0.6-0.3-0.6-0.6v-0.1c0-0.3,0.3-0.6,0.6-0.6h0.4c0.3,0,0.6,0.3,0.6,0.6v0.1
				C12.4,36.2,12.1,36.5,11.8,36.5z M11.4,35.7c-0.1,0-0.2,0.1-0.2,0.2v0.1c0,0.1,0.1,0.2,0.2,0.2h0.4c0.1,0,0.2-0.1,0.2-0.2v-0.1
				c0-0.1-0.1-0.2-0.2-0.2H11.4z"/>
			<path d="M11.8,36.6h-0.4c-0.4,0-0.7-0.3-0.7-0.7v-0.1c0-0.4,0.3-0.7,0.7-0.7h0.4c0.4,0,0.7,0.3,0.7,0.7v0.1
				C12.5,36.3,12.2,36.6,11.8,36.6z M11.4,35.4c-0.3,0-0.5,0.2-0.5,0.5v0.1c0,0.3,0.2,0.5,0.5,0.5h0.4c0.3,0,0.5-0.2,0.5-0.5v-0.1
				c0-0.3-0.2-0.5-0.5-0.5H11.4z M11.8,36.1h-0.4c-0.1,0-0.3-0.1-0.3-0.3v-0.1c0-0.1,0.1-0.3,0.3-0.3h0.4c0.1,0,0.3,0.1,0.3,0.3v0.1
				C12.1,36,11.9,36.1,11.8,36.1z M11.4,35.8C11.4,35.8,11.3,35.8,11.4,35.8l-0.1,0.1c0,0,0,0.1,0.1,0.1h0.4c0,0,0.1,0,0.1-0.1v-0.1
				c0,0,0-0.1-0.1-0.1H11.4z"/>
		</g>
	</g>
	<g>
		<g>
			<path d="M19,36.3h-0.7c-0.1,0-0.2-0.1-0.2-0.2v-0.3c0-0.1,0.1-0.2,0.2-0.2H19c0.1,0,0.2,0.1,0.2,0.2l0,0.3
				C19.2,36.2,19.1,36.3,19,36.3z"/>
			<path d="M19,36.4h-0.7c-0.2,0-0.3-0.1-0.3-0.3v-0.3c0-0.2,0.1-0.3,0.3-0.3H19c0.2,0,0.3,0.1,0.3,0.3V36
				C19.3,36.2,19.2,36.4,19,36.4z M18.3,35.6c-0.1,0-0.1,0.1-0.1,0.1V36c0,0.1,0.1,0.1,0.1,0.1H19c0.1,0,0.1-0.1,0.1-0.1v-0.3
				c0-0.1-0.1-0.1-0.1-0.1H18.3z"/>
		</g>
		<g>
			<path d="M18.9,36.5h-0.4c-0.3,0-0.6-0.3-0.6-0.6v-0.1c0-0.3,0.3-0.6,0.6-0.6h0.4c0.3,0,0.6,0.3,0.6,0.6v0.1
				C19.4,36.2,19.2,36.5,18.9,36.5z M18.4,35.7c-0.1,0-0.2,0.1-0.2,0.2v0.1c0,0.1,0.1,0.2,0.2,0.2h0.4c0.1,0,0.2-0.1,0.2-0.2v-0.1
				c0-0.1-0.1-0.2-0.2-0.2H18.4z"/>
			<path d="M18.9,36.6h-0.4c-0.4,0-0.7-0.3-0.7-0.7v-0.1c0-0.4,0.3-0.7,0.7-0.7h0.4c0.4,0,0.7,0.3,0.7,0.7v0.1
				C19.5,36.3,19.2,36.6,18.9,36.6z M18.4,35.4c-0.3,0-0.5,0.2-0.5,0.5v0.1c0,0.3,0.2,0.5,0.5,0.5h0.4c0.3,0,0.5-0.2,0.5-0.5v-0.1
				c0-0.3-0.2-0.5-0.5-0.5H18.4z M18.9,36.1h-0.4c-0.1,0-0.3-0.1-0.3-0.3v-0.1c0-0.1,0.1-0.3,0.3-0.3h0.4c0.1,0,0.3,0.1,0.3,0.3v0.1
				C19.1,36,19,36.1,18.9,36.1z M18.4,35.8C18.4,35.8,18.4,35.8,18.4,35.8l-0.1,0.1c0,0,0,0.1,0.1,0.1h0.4c0,0,0.1,0,0.1-0.1v-0.1
				c0,0,0-0.1-0.1-0.1H18.4z"/>
		</g>
	</g>
	<g>
		<g>
			<path d="M11.9,43.9h-0.7c-0.1,0-0.2-0.1-0.2-0.2v-0.3c0-0.1,0.1-0.2,0.2-0.2h0.7c0.1,0,0.2,0.1,0.2,0.2v0.3
				C12.2,43.8,12.1,43.9,11.9,43.9z"/>
			<path d="M11.9,44h-0.7c-0.2,0-0.3-0.1-0.3-0.3v-0.3c0-0.2,0.1-0.3,0.3-0.3h0.7c0.2,0,0.3,0.1,0.3,0.3v0.3
				C12.3,43.8,12.1,44,11.9,44z M11.2,43.2c-0.1,0-0.1,0.1-0.1,0.1v0.3c0,0.1,0.1,0.1,0.1,0.1h0.7c0.1,0,0.1-0.1,0.1-0.1v-0.3
				c0-0.1-0.1-0.1-0.1-0.1H11.2z"/>
		</g>
		<g>
			<path d="M11.8,44.1h-0.4c-0.3,0-0.6-0.3-0.6-0.6v-0.1c0-0.3,0.3-0.6,0.6-0.6h0.4c0.3,0,0.6,0.3,0.6,0.6v0.1
				C12.4,43.8,12.1,44.1,11.8,44.1z M11.4,43.3c-0.1,0-0.2,0.1-0.2,0.2v0.1c0,0.1,0.1,0.2,0.2,0.2h0.4c0.1,0,0.2-0.1,0.2-0.2v-0.1
				c0-0.1-0.1-0.2-0.2-0.2H11.4z"/>
			<path d="M11.8,44.2h-0.4c-0.4,0-0.7-0.3-0.7-0.7v-0.1c0-0.4,0.3-0.7,0.7-0.7h0.4c0.4,0,0.7,0.3,0.7,0.7v0.1
				C12.5,43.9,12.2,44.2,11.8,44.2z M11.4,43c-0.3,0-0.5,0.2-0.5,0.5v0.1c0,0.3,0.2,0.5,0.5,0.5h0.4c0.3,0,0.5-0.2,0.5-0.5v-0.1
				c0-0.3-0.2-0.5-0.5-0.5H11.4z M11.8,43.8h-0.4c-0.1,0-0.3-0.1-0.3-0.3v-0.1c0-0.1,0.1-0.3,0.3-0.3h0.4c0.1,0,0.3,0.1,0.3,0.3v0.1
				C12.1,43.7,11.9,43.8,11.8,43.8z M11.4,43.4C11.4,43.4,11.3,43.4,11.4,43.4l-0.1,0.1c0,0,0,0.1,0.1,0.1h0.4c0,0,0.1,0,0.1-0.1
				v-0.1c0,0,0-0.1-0.1-0.1H11.4z"/>
		</g>
	</g>
	<g>
		<g>
			<path d="M19,43.9h-0.7c-0.1,0-0.2-0.1-0.2-0.2v-0.3c0-0.1,0.1-0.2,0.2-0.2l0.7,0c0.1,0,0.2,0.1,0.2,0.2l0,0.3
				C19.2,43.8,19.1,43.9,19,43.9z"/>
			<path d="M19,44h-0.7c-0.2,0-0.3-0.1-0.3-0.3v-0.3c0-0.2,0.1-0.3,0.3-0.3H19c0.2,0,0.3,0.1,0.3,0.3v0.3C19.3,43.8,19.2,44,19,44z
				 M18.3,43.2c-0.1,0-0.1,0.1-0.1,0.1v0.3c0,0.1,0.1,0.1,0.1,0.1H19c0.1,0,0.1-0.1,0.1-0.1v-0.3c0-0.1-0.1-0.1-0.1-0.1H18.3z"/>
		</g>
		<g>
			<path d="M18.9,44.1h-0.4c-0.3,0-0.6-0.3-0.6-0.6v-0.1c0-0.3,0.3-0.6,0.6-0.6h0.4c0.3,0,0.6,0.3,0.6,0.6v0.1
				C19.4,43.8,19.2,44.1,18.9,44.1z M18.4,43.3c-0.1,0-0.2,0.1-0.2,0.2v0.1c0,0.1,0.1,0.2,0.2,0.2h0.4c0.1,0,0.2-0.1,0.2-0.2v-0.1
				c0-0.1-0.1-0.2-0.2-0.2H18.4z"/>
			<path d="M18.9,44.2h-0.4c-0.4,0-0.7-0.3-0.7-0.7v-0.1c0-0.4,0.3-0.7,0.7-0.7h0.4c0.4,0,0.7,0.3,0.7,0.7v0.1
				C19.5,43.9,19.2,44.2,18.9,44.2z M18.4,43c-0.3,0-0.5,0.2-0.5,0.5v0.1c0,0.3,0.2,0.5,0.5,0.5h0.4c0.3,0,0.5-0.2,0.5-0.5v-0.1
				c0-0.3-0.2-0.5-0.5-0.5H18.4z M18.9,43.8h-0.4c-0.1,0-0.3-0.1-0.3-0.3v-0.1c0-0.1,0.1-0.3,0.3-0.3h0.4c0.1,0,0.3,0.1,0.3,0.3v0.1
				C19.1,43.7,19,43.8,18.9,43.8z M18.4,43.4C18.4,43.4,18.4,43.4,18.4,43.4l-0.1,0.1c0,0,0,0.1,0.1,0.1h0.4c0,0,0.1,0,0.1-0.1v-0.1
				c0,0,0-0.1-0.1-0.1H18.4z"/>
		</g>
	</g>
	<g>
		<g>
			<path d="M15.7,40.1H15c-0.1,0-0.2-0.1-0.2-0.2v-0.3c0-0.1,0.1-0.2,0.2-0.2h0.7c0.1,0,0.2,0.1,0.2,0.2v0.3
				C15.9,40,15.8,40.1,15.7,40.1z"/>
			<path d="M15.7,40.2H15c-0.2,0-0.3-0.1-0.3-0.3v-0.3c0-0.2,0.1-0.3,0.3-0.3h0.7c0.2,0,0.3,0.1,0.3,0.3v0.3
				C16,40,15.9,40.2,15.7,40.2z M15,39.4c-0.1,0-0.1,0.1-0.1,0.1v0.3c0,0.1,0.1,0.1,0.1,0.1h0.7c0.1,0,0.1-0.1,0.1-0.1v-0.3
				c0-0.1-0.1-0.1-0.1-0.1H15z"/>
		</g>
		<g>
			<path d="M15.5,40.3h-0.4c-0.3,0-0.6-0.3-0.6-0.6v-0.1c0-0.3,0.3-0.6,0.6-0.6h0.4c0.3,0,0.6,0.3,0.6,0.6v0.1
				C16.1,40,15.8,40.3,15.5,40.3z M15.1,39.5c-0.1,0-0.2,0.1-0.2,0.2v0.1c0,0.1,0.1,0.2,0.2,0.2h0.4c0.1,0,0.2-0.1,0.2-0.2v-0.1
				c0-0.1-0.1-0.2-0.2-0.2H15.1z"/>
			<path d="M15.5,40.4h-0.4c-0.4,0-0.7-0.3-0.7-0.7v-0.1c0-0.4,0.3-0.7,0.7-0.7h0.4c0.4,0,0.7,0.3,0.7,0.7v0.1
				C16.2,40.1,15.9,40.4,15.5,40.4z M15.1,39.2c-0.3,0-0.5,0.2-0.5,0.5v0.1c0,0.3,0.2,0.5,0.5,0.5h0.4c0.3,0,0.5-0.2,0.5-0.5v-0.1
				c0-0.3-0.2-0.5-0.5-0.5H15.1z M15.5,40h-0.4c-0.1,0-0.3-0.1-0.3-0.3v-0.1c0-0.1,0.1-0.3,0.3-0.3h0.4c0.1,0,0.3,0.1,0.3,0.3v0.1
				C15.8,39.9,15.7,40,15.5,40z M15.1,39.6C15.1,39.6,15.1,39.6,15.1,39.6l-0.1,0.1c0,0,0,0.1,0.1,0.1h0.4c0,0,0.1,0,0.1-0.1v-0.1
				c0,0,0-0.1-0.1-0.1H15.1z"/>
		</g>
	</g>
	<g>
		<g>
			<path d="M22.7,40.1H22c-0.1,0-0.2-0.1-0.2-0.2v-0.3c0-0.1,0.1-0.2,0.2-0.2h0.7c0.1,0,0.2,0.1,0.2,0.2v0.3
				C23,40,22.9,40.1,22.7,40.1z"/>
			<path d="M22.7,40.2H22c-0.2,0-0.3-0.1-0.3-0.3v-0.3c0-0.2,0.1-0.3,0.3-0.3h0.7c0.2,0,0.3,0.1,0.3,0.3v0.3
				C23.1,40,22.9,40.2,22.7,40.2z M22,39.4c-0.1,0-0.1,0.1-0.1,0.1v0.3c0,0.1,0.1,0.1,0.1,0.1h0.7c0.1,0,0.1-0.1,0.1-0.1v-0.3
				c0-0.1-0.1-0.1-0.1-0.1H22z"/>
		</g>
		<g>
			<path d="M22.6,40.3h-0.4c-0.3,0-0.6-0.3-0.6-0.6v-0.1c0-0.3,0.3-0.6,0.6-0.6h0.4c0.3,0,0.6,0.3,0.6,0.6v0.1
				C23.2,40,22.9,40.3,22.6,40.3z M22.2,39.5c-0.1,0-0.2,0.1-0.2,0.2v0.1c0,0.1,0.1,0.2,0.2,0.2h0.4c0.1,0,0.2-0.1,0.2-0.2v-0.1
				c0-0.1-0.1-0.2-0.2-0.2H22.2z"/>
			<path d="M22.6,40.4h-0.4c-0.4,0-0.7-0.3-0.7-0.7v-0.1c0-0.4,0.3-0.7,0.7-0.7h0.4c0.4,0,0.7,0.3,0.7,0.7v0.1
				C23.3,40.1,23,40.4,22.6,40.4z M22.2,39.2c-0.3,0-0.5,0.2-0.5,0.5v0.1c0,0.3,0.2,0.5,0.5,0.5h0.4c0.3,0,0.5-0.2,0.5-0.5v-0.1
				c0-0.3-0.2-0.5-0.5-0.5H22.2z M22.6,40h-0.4c-0.1,0-0.3-0.1-0.3-0.3v-0.1c0-0.1,0.1-0.3,0.3-0.3h0.4c0.1,0,0.3,0.1,0.3,0.3v0.1
				C22.8,39.9,22.7,40,22.6,40z M22.2,39.6C22.1,39.6,22.1,39.6,22.2,39.6l-0.1,0.1c0,0,0,0.1,0.1,0.1h0.4c0,0,0.1,0,0.1-0.1v-0.1
				c0,0,0-0.1-0.1-0.1H22.2z"/>
		</g>
	</g>
</g>
</svg>
