<?xml version="1.0" encoding="utf-8"?>
<!-- Generator: Adobe Illustrator 23.1.1, SVG Export Plug-In . SVG Version: 6.00 Build 0)  -->
<svg version="1.1" id="Calque_1" xmlns="http://www.w3.org/2000/svg" xmlns:xlink="http://www.w3.org/1999/xlink" x="0px" y="0px"
	 viewBox="0 0 85 55.7" style="enable-background:new 0 0 85 55.7;" xml:space="preserve">
<style type="text/css">
	.st0{opacity:0.9;clip-path:url(#SVGID_2_);}
	.st1{fill:#08F9D6;}
	.st2{fill:#1FFFC4;}
	.st3{fill:none;stroke:#000000;stroke-width:2.8103;stroke-miterlimit:10;}
	.st4{fill:none;}
	.st5{fill:url(#SVGID_13_);}
	.st6{fill:url(#SVGID_14_);}
	.st7{fill:#C7C7C7;}
	.st8{fill:url(#SVGID_15_);}
	.st9{fill:url(#SVGID_16_);}
	.st10{fill:url(#SVGID_17_);}
	.st11{fill:url(#SVGID_18_);}
	.st12{fill:#3E3E3E;}
	.st13{fill:url(#SVGID_19_);}
	.st14{fill:url(#SVGID_20_);}
	.st15{fill:url(#SVGID_21_);}
	.st16{fill:url(#SVGID_22_);}
	.st17{fill:url(#SVGID_23_);}
	.st18{fill:url(#SVGID_24_);}
	.st19{fill:url(#SVGID_27_);}
	.st20{filter:url(#Adobe_OpacityMaskFilter);}
	.st21{filter:url(#Adobe_OpacityMaskFilter_1_);}
	.st22{mask:url(#SVGID_28_);fill:url(#SVGID_29_);}
	.st23{fill:url(#SVGID_30_);}
	.st24{fill:url(#SVGID_31_);}
	.st25{fill:url(#SVGID_32_);}
	.st26{fill:#3B3B3B;}
	.st27{fill:#666666;}
	.st28{fill:url(#SVGID_33_);}
	.st29{fill:url(#SVGID_34_);}
	.st30{fill:url(#SVGID_35_);}
	.st31{fill:url(#SVGID_36_);}
	.st32{fill:url(#SVGID_37_);}
	.st33{fill:url(#SVGID_38_);}
	.st34{filter:url(#Adobe_OpacityMaskFilter_2_);}
	.st35{filter:url(#Adobe_OpacityMaskFilter_3_);}
	.st36{mask:url(#SVGID_39_);fill:url(#SVGID_40_);}
	.st37{fill:url(#SVGID_41_);}
	.st38{fill:url(#SVGID_42_);}
	.st39{fill:url(#SVGID_43_);}
	.st40{clip-path:url(#SVGID_45_);}
	.st41{fill:#FFFFFF;stroke:#000000;stroke-width:0.4645;stroke-miterlimit:10;}
	.st42{fill:#828282;}
	.st43{fill:none;stroke:#FFFFFF;stroke-width:0.4533;stroke-miterlimit:10;}
	.st44{fill:#FFFFFF;}
	.st45{fill:none;stroke:#FFFFFF;stroke-width:0.3461;stroke-miterlimit:10;}
	.st46{fill:#191919;}
	.st47{fill:none;stroke:#FFFFFF;stroke-width:0.178;stroke-miterlimit:10;}
	.st48{fill:none;stroke:#FFFFFF;stroke-width:0.1701;stroke-miterlimit:10;}
	.st49{filter:url(#Adobe_OpacityMaskFilter_4_);}
	.st50{filter:url(#Adobe_OpacityMaskFilter_5_);}
	.st51{mask:url(#SVGID_48_);fill:url(#SVGID_49_);}
	.st52{opacity:0.2;fill:url(#SVGID_50_);}
	.st53{fill:#FFFFFF;stroke:#686868;stroke-width:0.3461;stroke-miterlimit:10;}
	.st54{fill:none;stroke:#FFFFFF;stroke-width:0.3647;stroke-miterlimit:10;}
	.st55{fill:none;stroke:#FFFFFF;stroke-width:1.0353;stroke-miterlimit:10;}
	.st56{fill:none;stroke:#FFFFFF;stroke-width:0.5291;stroke-miterlimit:10;}
	.st57{fill:none;stroke:#FFFFFF;stroke-width:0.8823;stroke-miterlimit:10;}
	.st58{filter:url(#Adobe_OpacityMaskFilter_6_);}
	.st59{filter:url(#Adobe_OpacityMaskFilter_7_);}
	.st60{mask:url(#SVGID_53_);fill:url(#SVGID_54_);}
	.st61{opacity:0.2;fill:url(#SVGID_55_);}
	.st62{fill:#B43FE0;}
	.st63{fill:#26E186;}
	.st64{fill:none;stroke:#000000;stroke-miterlimit:10;}
	.st65{fill:none;stroke:#000000;stroke-width:0.4033;stroke-miterlimit:10;}
	.st66{clip-path:url(#SVGID_57_);}
	.st67{fill:none;stroke:#FFFFFF;stroke-width:0.8873;stroke-miterlimit:10;}
	.st68{fill:#F184FF;}
	.st69{fill:none;stroke:#FFFFFF;stroke-width:0.4033;stroke-miterlimit:10;}
	.st70{fill:none;stroke:#FFFFFF;stroke-width:0.8067;stroke-miterlimit:10;}
	.st71{fill:none;stroke:#FFFFFF;stroke-width:1.6133;stroke-miterlimit:10;}
	.st72{fill:#FFFFFF;stroke:#686868;stroke-width:0.3983;stroke-miterlimit:10;}
	.st73{fill:none;stroke:#FFFFFF;stroke-width:0.8394;stroke-miterlimit:10;}
	.st74{clip-path:url(#SVGID_59_);}
	.st75{fill:none;stroke:#FFFFFF;stroke-width:1.1915;stroke-miterlimit:10;}
	.st76{fill:none;stroke:#FFFFFF;stroke-width:1.259;stroke-miterlimit:10;}
	.st77{fill:none;stroke:#FFFFFF;stroke-width:1.0152;stroke-miterlimit:10;}
	.st78{fill:#A13DF9;}
	.st79{fill:#2E00EF;}
	.st80{fill:none;stroke:#191919;stroke-width:0.5541;stroke-miterlimit:10;}
	.st81{fill:none;stroke:#191919;stroke-width:1.1082;stroke-miterlimit:10;}
	.st82{fill:none;stroke:#191919;stroke-width:1.212;stroke-miterlimit:10;}
	.st83{fill:#191919;stroke:#191919;stroke-width:0.5833;stroke-miterlimit:10;}
	.st84{fill:none;stroke:#FFFFFF;stroke-width:1.087;stroke-miterlimit:10;}
	.st85{fill:none;stroke:#A13DF9;stroke-width:1.212;stroke-miterlimit:10;}
	.st86{fill:none;stroke:#FFFFFF;stroke-width:1.2676;stroke-miterlimit:10;}
	.st87{clip-path:url(#SVGID_61_);}
	.st88{fill:none;stroke:#FFFFFF;stroke-width:1.2258;stroke-miterlimit:10;}
	.st89{enable-background:new    ;}
	.st90{clip-path:url(#SVGID_63_);enable-background:new    ;}
	.st91{fill:#858585;}
	.st92{fill:#8A8A8A;}
	.st93{fill:#8F8F8F;}
	.st94{fill:#949494;}
	.st95{fill:#999999;}
	.st96{fill:#9E9E9E;}
	.st97{fill:#A3A3A3;}
	.st98{fill:#A8A8A8;}
	.st99{fill:#ADADAD;}
	.st100{clip-path:url(#SVGID_65_);enable-background:new    ;}
	.st101{clip-path:url(#SVGID_67_);enable-background:new    ;}
	.st102{clip-path:url(#SVGID_69_);enable-background:new    ;}
	.st103{clip-path:url(#SVGID_71_);enable-background:new    ;}
	.st104{clip-path:url(#SVGID_73_);enable-background:new    ;}
	.st105{fill:#D6D6D6;}
	.st106{clip-path:url(#SVGID_75_);enable-background:new    ;}
	.st107{clip-path:url(#SVGID_77_);enable-background:new    ;}
	.st108{clip-path:url(#SVGID_79_);enable-background:new    ;}
	.st109{fill:#A5A5A5;}
	.st110{fill:#8E8E8E;}
	.st111{fill:#B0B0B0;}
	.st112{fill:#939393;}
	.st113{fill:#B3B3B3;}
	.st114{fill:#898989;}
	.st115{clip-path:url(#SVGID_81_);enable-background:new    ;}
	.st116{clip-path:url(#SVGID_83_);enable-background:new    ;}
	.st117{clip-path:url(#SVGID_85_);enable-background:new    ;}
	.st118{clip-path:url(#SVGID_87_);enable-background:new    ;}
	.st119{clip-path:url(#SVGID_89_);enable-background:new    ;}
	.st120{clip-path:url(#SVGID_91_);enable-background:new    ;}
	.st121{clip-path:url(#SVGID_93_);enable-background:new    ;}
	.st122{fill:#848484;}
	.st123{clip-path:url(#SVGID_95_);enable-background:new    ;}
	.st124{clip-path:url(#SVGID_97_);enable-background:new    ;}
	.st125{clip-path:url(#SVGID_99_);enable-background:new    ;}
	.st126{clip-path:url(#SVGID_101_);enable-background:new    ;}
	.st127{clip-path:url(#SVGID_103_);enable-background:new    ;}
	.st128{clip-path:url(#SVGID_105_);enable-background:new    ;}
	.st129{clip-path:url(#SVGID_107_);enable-background:new    ;}
	.st130{clip-path:url(#SVGID_109_);enable-background:new    ;}
	.st131{clip-path:url(#SVGID_111_);enable-background:new    ;}
	.st132{clip-path:url(#SVGID_113_);enable-background:new    ;}
	.st133{fill:none;stroke:#FFFFFF;stroke-width:1.4447;stroke-miterlimit:10;}
	.st134{fill:none;stroke:#FFFFFF;stroke-width:2.5207;stroke-miterlimit:10;}
	.st135{fill:#FFFFFF;stroke:#A13DF9;stroke-width:1.5068;stroke-miterlimit:10;}
	.st136{clip-path:url(#SVGID_115_);enable-background:new    ;}
	.st137{clip-path:url(#SVGID_117_);enable-background:new    ;}
	.st138{clip-path:url(#SVGID_119_);enable-background:new    ;}
	.st139{clip-path:url(#SVGID_121_);enable-background:new    ;}
	.st140{clip-path:url(#SVGID_123_);enable-background:new    ;}
	.st141{clip-path:url(#SVGID_125_);enable-background:new    ;}
	.st142{clip-path:url(#SVGID_127_);enable-background:new    ;}
	.st143{clip-path:url(#SVGID_129_);enable-background:new    ;}
	.st144{clip-path:url(#SVGID_131_);enable-background:new    ;}
	.st145{clip-path:url(#SVGID_133_);enable-background:new    ;}
	.st146{clip-path:url(#SVGID_135_);enable-background:new    ;}
	.st147{clip-path:url(#SVGID_137_);enable-background:new    ;}
	.st148{clip-path:url(#SVGID_139_);enable-background:new    ;}
	.st149{clip-path:url(#SVGID_141_);enable-background:new    ;}
	.st150{clip-path:url(#SVGID_143_);enable-background:new    ;}
	.st151{clip-path:url(#SVGID_145_);enable-background:new    ;}
	.st152{clip-path:url(#SVGID_147_);enable-background:new    ;}
	.st153{clip-path:url(#SVGID_149_);enable-background:new    ;}
	.st154{clip-path:url(#SVGID_151_);enable-background:new    ;}
	.st155{fill:#08F9D6;stroke:#191919;stroke-width:0.5357;stroke-miterlimit:10;}
	.st156{fill:#FFFFFF;stroke:#191919;stroke-width:1.1187;stroke-miterlimit:10;}
	.st157{clip-path:url(#SVGID_153_);enable-background:new    ;}
	.st158{clip-path:url(#SVGID_155_);enable-background:new    ;}
	.st159{clip-path:url(#SVGID_157_);enable-background:new    ;}
	.st160{clip-path:url(#SVGID_159_);enable-background:new    ;}
	.st161{clip-path:url(#SVGID_161_);enable-background:new    ;}
	.st162{clip-path:url(#SVGID_163_);enable-background:new    ;}
	.st163{clip-path:url(#SVGID_165_);enable-background:new    ;}
	.st164{clip-path:url(#SVGID_167_);enable-background:new    ;}
	.st165{clip-path:url(#SVGID_169_);enable-background:new    ;}
	.st166{clip-path:url(#SVGID_171_);enable-background:new    ;}
	.st167{clip-path:url(#SVGID_173_);enable-background:new    ;}
	.st168{clip-path:url(#SVGID_175_);enable-background:new    ;}
	.st169{clip-path:url(#SVGID_177_);enable-background:new    ;}
	.st170{clip-path:url(#SVGID_179_);enable-background:new    ;}
	.st171{clip-path:url(#SVGID_181_);enable-background:new    ;}
	.st172{fill:#DADADA;}
	.st173{clip-path:url(#SVGID_183_);enable-background:new    ;}
	.st174{clip-path:url(#SVGID_185_);enable-background:new    ;}
	.st175{clip-path:url(#SVGID_187_);enable-background:new    ;}
	.st176{clip-path:url(#SVGID_189_);enable-background:new    ;}
	.st177{clip-path:url(#SVGID_191_);enable-background:new    ;}
	.st178{clip-path:url(#SVGID_193_);enable-background:new    ;}
	.st179{clip-path:url(#SVGID_195_);enable-background:new    ;}
	.st180{clip-path:url(#SVGID_197_);enable-background:new    ;}
	.st181{clip-path:url(#SVGID_199_);enable-background:new    ;}
	.st182{clip-path:url(#SVGID_201_);enable-background:new    ;}
	.st183{clip-path:url(#SVGID_203_);enable-background:new    ;}
	.st184{fill:#808080;}
	.st185{clip-path:url(#SVGID_205_);enable-background:new    ;}
	.st186{clip-path:url(#SVGID_207_);enable-background:new    ;}
	.st187{clip-path:url(#SVGID_209_);enable-background:new    ;}
	.st188{clip-path:url(#SVGID_211_);enable-background:new    ;}
	.st189{clip-path:url(#SVGID_213_);enable-background:new    ;}
	.st190{clip-path:url(#SVGID_215_);enable-background:new    ;}
	.st191{clip-path:url(#SVGID_217_);enable-background:new    ;}
	.st192{clip-path:url(#SVGID_219_);enable-background:new    ;}
	.st193{clip-path:url(#SVGID_221_);enable-background:new    ;}
	.st194{clip-path:url(#SVGID_223_);enable-background:new    ;}
	.st195{clip-path:url(#SVGID_225_);enable-background:new    ;}
	.st196{clip-path:url(#SVGID_227_);enable-background:new    ;}
	.st197{clip-path:url(#SVGID_229_);enable-background:new    ;}
	.st198{fill:#AAAAAA;}
	.st199{clip-path:url(#SVGID_231_);enable-background:new    ;}
	.st200{clip-path:url(#SVGID_233_);enable-background:new    ;}
	.st201{clip-path:url(#SVGID_235_);enable-background:new    ;}
	.st202{clip-path:url(#SVGID_237_);enable-background:new    ;}
	.st203{clip-path:url(#SVGID_239_);enable-background:new    ;}
	.st204{clip-path:url(#SVGID_241_);enable-background:new    ;}
	.st205{clip-path:url(#SVGID_243_);enable-background:new    ;}
	.st206{clip-path:url(#SVGID_245_);enable-background:new    ;}
	.st207{clip-path:url(#SVGID_247_);enable-background:new    ;}
	.st208{clip-path:url(#SVGID_249_);enable-background:new    ;}
	.st209{clip-path:url(#SVGID_251_);enable-background:new    ;}
	.st210{clip-path:url(#SVGID_253_);enable-background:new    ;}
	.st211{clip-path:url(#SVGID_255_);enable-background:new    ;}
	.st212{clip-path:url(#SVGID_257_);enable-background:new    ;}
	.st213{clip-path:url(#SVGID_259_);enable-background:new    ;}
	.st214{clip-path:url(#SVGID_261_);enable-background:new    ;}
	.st215{clip-path:url(#SVGID_263_);enable-background:new    ;}
	.st216{clip-path:url(#SVGID_265_);enable-background:new    ;}
	.st217{fill:#ABABAB;}
	.st218{clip-path:url(#SVGID_267_);enable-background:new    ;}
	.st219{clip-path:url(#SVGID_269_);enable-background:new    ;}
	.st220{clip-path:url(#SVGID_271_);enable-background:new    ;}
	.st221{clip-path:url(#SVGID_273_);enable-background:new    ;}
	.st222{clip-path:url(#SVGID_275_);enable-background:new    ;}
	.st223{clip-path:url(#SVGID_277_);enable-background:new    ;}
	.st224{clip-path:url(#SVGID_279_);enable-background:new    ;}
	.st225{clip-path:url(#SVGID_281_);enable-background:new    ;}
	.st226{clip-path:url(#SVGID_283_);enable-background:new    ;}
	.st227{clip-path:url(#SVGID_285_);enable-background:new    ;}
	.st228{clip-path:url(#SVGID_287_);enable-background:new    ;}
	.st229{clip-path:url(#SVGID_289_);enable-background:new    ;}
	.st230{clip-path:url(#SVGID_291_);enable-background:new    ;}
	.st231{clip-path:url(#SVGID_293_);enable-background:new    ;}
	.st232{clip-path:url(#SVGID_295_);enable-background:new    ;}
	.st233{clip-path:url(#SVGID_297_);enable-background:new    ;}
	.st234{clip-path:url(#SVGID_299_);enable-background:new    ;}
	.st235{clip-path:url(#SVGID_301_);enable-background:new    ;}
	.st236{clip-path:url(#SVGID_303_);enable-background:new    ;}
	.st237{clip-path:url(#SVGID_305_);enable-background:new    ;}
	.st238{clip-path:url(#SVGID_307_);enable-background:new    ;}
	.st239{clip-path:url(#SVGID_309_);enable-background:new    ;}
	.st240{clip-path:url(#SVGID_311_);enable-background:new    ;}
	.st241{clip-path:url(#SVGID_313_);enable-background:new    ;}
	.st242{clip-path:url(#SVGID_315_);enable-background:new    ;}
	.st243{clip-path:url(#SVGID_317_);enable-background:new    ;}
	.st244{clip-path:url(#SVGID_319_);enable-background:new    ;}
	.st245{clip-path:url(#SVGID_321_);enable-background:new    ;}
	.st246{clip-path:url(#SVGID_323_);enable-background:new    ;}
	.st247{clip-path:url(#SVGID_325_);enable-background:new    ;}
	.st248{clip-path:url(#SVGID_327_);enable-background:new    ;}
	.st249{clip-path:url(#SVGID_329_);enable-background:new    ;}
	.st250{clip-path:url(#SVGID_331_);enable-background:new    ;}
	.st251{clip-path:url(#SVGID_333_);enable-background:new    ;}
	.st252{clip-path:url(#SVGID_335_);enable-background:new    ;}
	.st253{clip-path:url(#SVGID_337_);enable-background:new    ;}
	.st254{clip-path:url(#SVGID_339_);enable-background:new    ;}
	.st255{fill:#FFFFFF;stroke:#000000;stroke-width:1.5255;}
	.st256{fill:#F70B4E;}
	.st257{fill:none;stroke:#000000;stroke-width:2.0339;stroke-miterlimit:10;}
	.st258{fill:none;stroke:#191919;stroke-width:0.8599;stroke-miterlimit:10;}
	.st259{fill:none;stroke:#FFFFFF;stroke-width:0.4649;stroke-miterlimit:10;}
	.st260{fill:none;stroke:#191919;stroke-width:1.0392;stroke-miterlimit:10;}
	.st261{fill:#191919;stroke:#191919;stroke-width:0.5001;stroke-miterlimit:10;}
	.st262{fill:none;stroke:#FFFFFF;stroke-width:0.4944;stroke-miterlimit:10;}
	.st263{fill:#FFFFFF;stroke:#686868;stroke-width:0.4092;stroke-miterlimit:10;}
	.st264{fill:none;stroke:#FFFFFF;stroke-width:0.5767;stroke-miterlimit:10;}
	.st265{fill:#FFFFFF;stroke:#191919;stroke-width:1.0712;stroke-miterlimit:10;}
	.st266{fill:#FFFFFF;stroke:#000000;stroke-miterlimit:10;}
	.st267{stroke:#000000;stroke-width:0.843;}
	.st268{clip-path:url(#SVGID_343_);}
	.st269{fill:none;stroke:#FFFFFF;stroke-width:0.487;stroke-miterlimit:10;}
	.st270{fill:#08F9D6;stroke:#070707;stroke-width:1.5048;stroke-miterlimit:10;}
	.st271{fill:#FFFFFF;stroke:#000000;stroke-width:1.336;stroke-miterlimit:10;}
	.st272{fill:none;stroke:#FFFFFF;stroke-width:0.3186;stroke-miterlimit:10;}
	.st273{clip-path:url(#SVGID_345_);}
	.st274{clip-path:url(#SVGID_347_);}
	.st275{clip-path:url(#SVGID_349_);}
	.st276{fill:#FFFFFF;stroke:#000000;stroke-width:0.7497;stroke-miterlimit:10;}
	.st277{fill:#FFFFFF;stroke:#000000;stroke-width:0.7805;stroke-miterlimit:10;}
	.st278{fill:#FFFFFF;stroke:#000000;stroke-width:0.7629;stroke-miterlimit:10;}
	.st279{fill:#08F9D6;stroke:#070707;stroke-width:1.1759;stroke-miterlimit:10;}
	.st280{fill:#FFFFFF;stroke:#000000;stroke-width:1.1024;stroke-miterlimit:10;}
	.st281{fill:#FFFFFF;stroke:#000000;stroke-width:1.8;stroke-miterlimit:10;}
	.st282{fill:#FFA476;}
	.st283{fill:none;stroke:#000000;stroke-width:1.5068;stroke-miterlimit:10;}
	.st284{fill:#FFFFFF;stroke:#000000;stroke-width:1.7556;stroke-miterlimit:10;}
	.st285{fill:#FFFFFF;stroke:#000000;stroke-width:1.9269;stroke-miterlimit:10;}
	.st286{fill:#364EFF;}
	.st287{fill:none;stroke:#000000;stroke-width:1.3967;stroke-miterlimit:10;}
	.st288{fill:#FF245E;}
	.st289{fill:#08F9D6;stroke:#070707;stroke-width:1.7755;stroke-miterlimit:10;}
	.st290{fill:#FFFFFF;stroke:#000000;stroke-width:1.6646;stroke-miterlimit:10;}
	.st291{fill:#FFFFFF;stroke:#000000;stroke-width:2.664;stroke-miterlimit:10;}
	.st292{fill:#FFFFFF;stroke:#000000;stroke-width:1.37;stroke-miterlimit:10;}
	.st293{fill:#FFFFFF;stroke:#000000;stroke-width:0.4598;stroke-miterlimit:10;}
	.st294{fill:#FFFFFF;stroke:#000000;stroke-width:1.1496;stroke-miterlimit:10;}
	.st295{fill:none;stroke:#FFFFFF;stroke-width:0.6758;stroke-miterlimit:10;}
	.st296{fill:#FFFFFF;stroke:#000000;stroke-width:2.5956;stroke-miterlimit:10;}
	.st297{fill:#A6A6A6;}
	.st298{fill:#FFA476;stroke:#070707;stroke-width:1.8248;stroke-miterlimit:10;}
	.st299{fill:#FFFFFF;stroke:#000000;stroke-width:1.8248;stroke-miterlimit:10;}
	.st300{fill:#A13DF9;stroke:#070707;stroke-width:1.8451;stroke-miterlimit:10;}
	.st301{fill:#FFFFFF;stroke:#000000;stroke-width:2.2261;stroke-miterlimit:10;}
	.st302{fill:#FFFFFF;stroke:#000000;stroke-width:1.7209;stroke-miterlimit:10;}
	.st303{stroke:#000000;stroke-width:0.2658;stroke-miterlimit:10;}
	.st304{stroke:#000000;stroke-width:0.3067;stroke-miterlimit:10;}
	.st305{stroke:#000000;stroke-width:0.2634;stroke-miterlimit:10;}
	.st306{fill:#08F9D6;stroke:#070707;stroke-width:0.813;stroke-miterlimit:10;}
	.st307{fill:#FFFFFF;stroke:#000000;stroke-width:0.486;stroke-miterlimit:10;}
	.st308{fill:#08F9D6;stroke:#070707;stroke-width:0.8004;stroke-miterlimit:10;}
	.st309{stroke:#000000;stroke-width:0.5429;stroke-miterlimit:10;}
	.st310{stroke:#000000;stroke-width:0.5385;stroke-miterlimit:10;}
	.st311{stroke:#000000;stroke-width:0.614;stroke-miterlimit:10;}
	.st312{fill:none;stroke:#191919;stroke-width:1.1534;stroke-miterlimit:10;}
	.st313{stroke:#000000;stroke-miterlimit:10;}
	.st314{fill:none;stroke:#000000;stroke-width:1.2604;stroke-miterlimit:10;}
	.st315{fill:none;stroke:#000000;stroke-width:1.4249;stroke-miterlimit:10;}
	.st316{fill:none;stroke:#191919;stroke-width:1.6462;stroke-miterlimit:10;}
	.st317{opacity:0.92;fill:#2E00EF;}
	.st318{clip-path:url(#SVGID_351_);}
	.st319{stroke:#000000;stroke-width:0.2009;stroke-miterlimit:10;}
	.st320{fill:#FFFFFF;stroke:#686868;stroke-width:0.2882;stroke-miterlimit:10;}
	.st321{stroke:#000000;stroke-width:0.1056;stroke-miterlimit:10;}
	.st322{clip-path:url(#SVGID_353_);}
	.st323{fill:none;stroke:#686868;stroke-width:0.4092;stroke-miterlimit:10;}
	.st324{clip-path:url(#SVGID_355_);}
	.st325{clip-path:url(#SVGID_357_);}
	.st326{fill:#08F9D6;stroke:#191919;stroke-width:0.6035;stroke-miterlimit:10;}
	.st327{fill:#08F9D6;stroke:#070707;stroke-width:1.0383;stroke-miterlimit:10;}
	.st328{fill:#FFFFFF;stroke:#000000;stroke-width:0.9734;stroke-miterlimit:10;}
	.st329{opacity:0.9;}
	.st330{fill:#08F9D6;stroke:#070707;stroke-width:0.9789;stroke-miterlimit:10;}
	.st331{fill:#FFFFFF;stroke:#000000;stroke-width:0.9177;stroke-miterlimit:10;}
	.st332{fill:#08F9D6;stroke:#000000;stroke-width:1.1719;stroke-miterlimit:10;}
	.st333{clip-path:url(#SVGID_359_);}
	.st334{clip-path:url(#SVGID_361_);}
	.st335{fill:none;stroke:#191919;stroke-miterlimit:10;}
	.st336{stroke:#000000;stroke-width:0.7435;stroke-miterlimit:10;}
	.st337{fill:none;stroke:#000000;stroke-width:0.937;stroke-miterlimit:10;}
	.st338{fill:none;stroke:#000000;stroke-width:1.0594;stroke-miterlimit:10;}
	.st339{stroke:#000000;stroke-width:0.15;stroke-miterlimit:10;}
	.st340{stroke:#000000;stroke-width:0.1;stroke-miterlimit:10;}
	.st341{stroke:#000000;stroke-width:0.1641;stroke-miterlimit:10;}
	.st342{fill:none;stroke:#191919;stroke-width:1.2925;stroke-miterlimit:10;}
	.st343{clip-path:url(#SVGID_363_);}
	.st344{clip-path:url(#SVGID_365_);}
	.st345{fill:none;stroke:#191919;stroke-width:1.2817;stroke-miterlimit:10;}
	.st346{fill:none;stroke:#191919;stroke-width:1.1365;stroke-miterlimit:10;}
	.st347{fill:#FFFFFF;stroke:#191919;stroke-width:2.1594;stroke-miterlimit:10;}
	.st348{fill:#08F9D6;stroke:#000000;stroke-width:1.1908;stroke-miterlimit:10;}
	.st349{fill:#FFFFFF;stroke:#070707;stroke-width:0.9789;stroke-miterlimit:10;}
	.st350{fill:#08F9D6;stroke:#070707;stroke-width:0.9855;stroke-miterlimit:10;}
	.st351{fill:#FFFFFF;stroke:#000000;stroke-width:0.8944;stroke-miterlimit:10;}
	.st352{fill:#08F9D6;stroke:#070707;stroke-width:0.9859;stroke-miterlimit:10;}
	.st353{fill:#FFFFFF;stroke:#000000;stroke-width:0.9243;stroke-miterlimit:10;}
	.st354{stroke:#000000;stroke-width:0.25;stroke-miterlimit:10;}
	.st355{stroke:#000000;stroke-width:0.1933;stroke-miterlimit:10;}
	.st356{stroke:#000000;stroke-width:0.4986;stroke-miterlimit:10;}
	.st357{stroke:#A6A6A6;stroke-width:0.15;stroke-miterlimit:10;}
	.st358{stroke:#000000;stroke-width:0.193;stroke-miterlimit:10;}
	.st359{stroke:#000000;stroke-width:0.199;stroke-miterlimit:10;}
	.st360{fill:#FFFFFF;stroke:#191919;stroke-width:1.6145;stroke-miterlimit:10;}
	.st361{fill:#08F9D6;stroke:#070707;stroke-width:1.4576;stroke-miterlimit:10;}
	.st362{fill:#FFFFFF;stroke:#000000;stroke-width:1.3665;stroke-miterlimit:10;}
	.st363{fill:#08F9D6;stroke:#070707;stroke-width:1.3742;stroke-miterlimit:10;}
	.st364{fill:#FFFFFF;stroke:#000000;stroke-width:1.2884;stroke-miterlimit:10;}
	.st365{fill:none;stroke:#000000;stroke-width:1.4039;stroke-miterlimit:10;}
	.st366{fill:#08F9D6;stroke:#000000;stroke-width:1.6717;stroke-miterlimit:10;}
	.st367{fill:#FFFFFF;stroke:#070707;stroke-width:1.3742;stroke-miterlimit:10;}
	.st368{fill:#FFFFFF;stroke:#000000;stroke-width:1.4039;stroke-miterlimit:10;}
	.st369{fill:#08F9D6;stroke:#070707;stroke-width:1.3841;stroke-miterlimit:10;}
	.st370{fill:#FFFFFF;stroke:#000000;stroke-width:1.2976;stroke-miterlimit:10;}
	.st371{fill:#08F9D6;stroke:#070707;stroke-width:1.3835;stroke-miterlimit:10;}
	.st372{fill:#FFFFFF;stroke:#000000;stroke-width:1.2556;stroke-miterlimit:10;}
	.st373{fill:#FFFFFF;stroke:#191919;stroke-width:0.8217;stroke-miterlimit:10;}
	.st374{fill:none;stroke:#191919;stroke-width:0.7444;stroke-miterlimit:10;}
	.st375{clip-path:url(#SVGID_369_);}
	.st376{fill:none;stroke:#FFFFFF;stroke-width:0.4424;stroke-miterlimit:10;}
	.st377{clip-path:url(#SVGID_371_);}
	.st378{fill:none;stroke:#FFFFFF;stroke-width:0.2222;stroke-miterlimit:10;}
	.st379{fill:#FFFFFF;stroke:#191919;stroke-width:0.8204;stroke-miterlimit:10;}
	.st380{stroke:#FFFFFF;stroke-width:0.2155;stroke-miterlimit:10;}
	.st381{stroke:#000000;stroke-width:0.1416;stroke-miterlimit:10;}
	.st382{stroke:#000000;stroke-width:0.1822;stroke-miterlimit:10;}
	.st383{stroke:#000000;stroke-width:0.1879;stroke-miterlimit:10;}
	.st384{fill:#A13DF9;stroke:#070707;stroke-width:0.9855;stroke-miterlimit:10;}
	.st385{fill:#FFA476;stroke:#070707;stroke-width:0.9855;stroke-miterlimit:10;}
	.st386{stroke:#FFFFFF;stroke-width:0.2275;stroke-miterlimit:10;}
	.st387{stroke:#000000;stroke-width:0.1495;stroke-miterlimit:10;}
	.st388{stroke:#000000;stroke-width:0.1923;stroke-miterlimit:10;}
	.st389{stroke:#000000;stroke-width:0.1983;stroke-miterlimit:10;}
	.st390{fill:#364EFF;stroke:#070707;stroke-width:0.9855;stroke-miterlimit:10;}
	.st391{fill:none;stroke:#191919;stroke-width:1.1639;stroke-miterlimit:10;}
	.st392{stroke:#000000;stroke-width:0.1177;stroke-miterlimit:10;}
	.st393{stroke:#000000;stroke-width:7.849640e-02;stroke-miterlimit:10;}
	.st394{stroke:#000000;stroke-width:0.1275;stroke-miterlimit:10;}
	.st395{stroke:#000000;stroke-width:8.498526e-02;stroke-miterlimit:10;}
	.st396{stroke:#000000;stroke-width:8.898332e-02;stroke-miterlimit:10;}
	.st397{clip-path:url(#SVGID_375_);}
	.st398{clip-path:url(#SVGID_377_);}
	.st399{fill:#FFFFFF;stroke:#FFFFFF;stroke-width:7.424556e-02;stroke-miterlimit:10;}
	.st400{fill:#FFFFFF;stroke:#FFFFFF;stroke-width:8.124047e-02;stroke-miterlimit:10;}
	.st401{fill:none;stroke:#FFFFFF;stroke-width:0.6398;stroke-miterlimit:10;}
	.st402{fill:#FFFFFF;stroke:#000000;stroke-width:0.1237;stroke-miterlimit:10;}
	.st403{fill:#FFFFFF;stroke:#FFFFFF;stroke-width:9.552929e-02;stroke-miterlimit:10;}
	.st404{fill:#FFFFFF;stroke:#FFFFFF;stroke-width:9.849911e-02;stroke-miterlimit:10;}
	.st405{fill:none;stroke:#FFFFFF;stroke-width:0.6801;stroke-miterlimit:10;}
	.st406{fill:none;stroke:#FFFFFF;stroke-width:0.724;stroke-miterlimit:10;}
	.st407{stroke:#000000;stroke-width:0.1642;stroke-miterlimit:10;}
	.st408{stroke:#000000;stroke-width:0.1562;stroke-miterlimit:10;}
	.st409{stroke:#000000;stroke-width:0.1042;stroke-miterlimit:10;}
	.st410{fill:none;stroke:#020202;stroke-miterlimit:10;}
	.st411{fill:none;stroke:#000000;stroke-width:0.9474;stroke-miterlimit:10;}
	.st412{fill:none;stroke:#000000;stroke-width:0.8857;stroke-miterlimit:10;}
	.st413{fill:none;stroke:#000000;stroke-width:0.9514;stroke-miterlimit:10;}
	.st414{fill:none;stroke:#000000;stroke-width:0.9917;stroke-miterlimit:10;}
	.st415{fill:none;stroke:#000000;stroke-width:0.9396;stroke-miterlimit:10;}
	.st416{fill:none;stroke:#020202;stroke-width:1.2837;stroke-miterlimit:10;}
	.st417{fill:none;stroke:#000000;stroke-width:0.9982;stroke-miterlimit:10;}
	.st418{fill:none;stroke:#000000;stroke-width:0.9941;stroke-miterlimit:10;}
	.st419{fill:#FFFFFF;stroke:#000000;stroke-width:0.25;stroke-miterlimit:10;}
	.st420{fill:#070707;}
	.st421{fill:#08F9D6;stroke:#070707;stroke-width:2.5951;stroke-miterlimit:10;}
	.st422{fill:#FFFFFF;stroke:#000000;stroke-width:2.3551;stroke-miterlimit:10;}
	.st423{stroke:#FFFFFF;stroke-width:0.6175;stroke-miterlimit:10;}
	.st424{stroke:#FFFFFF;stroke-width:0.6105;stroke-miterlimit:10;}
	.st425{stroke:#FFFFFF;stroke-width:0.6189;stroke-miterlimit:10;}
	.st426{fill:#08F9D6;stroke:#070707;stroke-width:3.3186;stroke-miterlimit:10;}
	.st427{fill:#FFFFFF;stroke:#000000;stroke-width:3.5163;stroke-miterlimit:10;}
	.st428{stroke:#FFFFFF;stroke-width:0.3532;stroke-miterlimit:10;}
	.st429{stroke:#FFFFFF;stroke-width:0.3493;stroke-miterlimit:10;}
	.st430{stroke:#FFFFFF;stroke-width:0.354;stroke-miterlimit:10;}
	.st431{fill:#08F9D6;stroke:#070707;stroke-width:1.8984;stroke-miterlimit:10;}
	.st432{fill:#FFFFFF;stroke:#000000;stroke-width:2.0115;stroke-miterlimit:10;}
	.st433{fill:#FFFFFF;stroke:#000000;stroke-width:1.5068;stroke-miterlimit:10;}
	.st434{fill:#08F9D6;stroke:#070707;stroke-width:2.4301;stroke-miterlimit:10;}
	.st435{fill:#FFFFFF;stroke:#000000;stroke-width:2.5748;stroke-miterlimit:10;}
	.st436{fill:#FFFFFF;stroke:#000000;stroke-width:0.6337;stroke-miterlimit:10;}
	.st437{fill:#A13DF9;stroke:#070707;stroke-width:2.4301;stroke-miterlimit:10;}
	.st438{fill:#364EFF;stroke:#070707;stroke-width:2.4301;stroke-miterlimit:10;}
	.st439{fill:#FFFFFF;stroke:#000000;stroke-width:2.3307;stroke-miterlimit:10;}
	.st440{fill:#FFFFFF;stroke:#000000;stroke-width:2.071;stroke-miterlimit:10;}
	.st441{fill:#FFA476;stroke:#070707;stroke-width:2.4301;stroke-miterlimit:10;}
	.st442{fill:#FFFFFF;stroke:#000000;stroke-width:2.8208;stroke-miterlimit:10;}
	.st443{fill:#FFA476;stroke:#070707;stroke-width:1.9481;stroke-miterlimit:10;}
	.st444{fill:#FFFFFF;stroke:#000000;stroke-width:2.2614;stroke-miterlimit:10;}
	.st445{fill:#A13DF9;stroke:#070707;stroke-width:1.9481;stroke-miterlimit:10;}
	.st446{fill:#FFFFFF;stroke:#000000;stroke-width:0.5402;stroke-miterlimit:10;}
	.st447{fill:#364EFF;stroke:#070707;stroke-width:1.8984;stroke-miterlimit:10;}
	.st448{fill:none;stroke:#FFFFFF;stroke-width:0.7069;stroke-miterlimit:10;}
	.st449{fill:none;stroke:#070707;stroke-width:1.8984;stroke-miterlimit:10;}
	.st450{fill:#FFFFFF;stroke:#FFFFFF;stroke-width:0.6915;stroke-miterlimit:10;}
	.st451{stroke:#000000;stroke-width:0.5168;stroke-miterlimit:10;}
	.st452{fill:none;stroke:#A6A6A6;stroke-width:1.868;stroke-miterlimit:10;}
	.st453{fill:none;stroke:#000000;stroke-width:1.698;stroke-miterlimit:10;}
	.st454{fill:#FFFFFF;stroke:#191919;stroke-width:2.4414;stroke-miterlimit:10;}
	.st455{fill:none;stroke:#191919;stroke-width:1.1335;stroke-miterlimit:10;}
	.st456{opacity:0.9;fill:#FF245E;}
	.st457{opacity:0.9;fill:#364EFF;}
	.st458{opacity:0.9;fill:#A13DF9;}
	.st459{fill:#FFD800;}
	.st460{fill:none;stroke:#000000;stroke-width:1.1782;stroke-miterlimit:10;}
	.st461{stroke:#000000;stroke-width:0.325;stroke-miterlimit:10;}
	.st462{stroke:#000000;stroke-width:0.2255;stroke-miterlimit:10;}
	.st463{fill:none;stroke:#000000;stroke-linecap:round;stroke-linejoin:round;stroke-miterlimit:10;}
	.st464{stroke:#000000;stroke-width:0.206;stroke-miterlimit:10;}
	.st465{stroke:#000000;stroke-width:0.1967;stroke-miterlimit:10;}
	.st466{stroke:#000000;stroke-width:0.326;stroke-miterlimit:10;}
	.st467{stroke:#000000;stroke-width:0.3;stroke-linecap:round;stroke-linejoin:round;stroke-miterlimit:10;}
	.st468{stroke:#000000;stroke-width:0.107;stroke-miterlimit:10;}
	.st469{fill:none;stroke:#000000;stroke-width:1.0431;stroke-linecap:round;stroke-linejoin:round;stroke-miterlimit:10;}
	.st470{fill:none;stroke:#000000;stroke-width:0.88;stroke-miterlimit:10;}
	.st471{clip-path:url(#SVGID_379_);}
	.st472{fill:none;stroke:#000000;stroke-width:1.02;stroke-miterlimit:10;}
	.st473{fill:#FFFFFF;stroke:#000000;stroke-width:1.02;stroke-miterlimit:10;}
	.st474{stroke:#000000;stroke-width:0.2528;stroke-linecap:round;stroke-linejoin:round;stroke-miterlimit:10;}
	.st475{fill:none;stroke:#000000;stroke-width:1.3;stroke-miterlimit:10;}
</style>
<g>
	<g>
		<g>
			<g>
				<g>
					<path d="M77.8,29.3c-2.7-4.8-7.1-7.7-12.2-8.2c-2.6-3.3-10.7-4.1-11-4.1c-0.2,0-0.5,0.1-0.6,0.3c-0.1,0.2-0.2,0.4-0.1,0.6
						c0.8,2.1,1.6,4.4,1.8,5.4c-1.5,0.7-2.8,1.4-3.6,2c-1.8-2.9-5.5-2.9-5.6-2.9c-0.4,0-0.7,0.3-0.7,0.7c0,3.9,1.3,5.8,2.3,6.7
						c-0.9,0.9-2.3,2.8-2.3,6.7c0,0.4,0.3,0.7,0.7,0.7c0.2,0,3.8,0,5.6-2.9c1.1,0.8,3,1.8,5.1,2.6c-0.5,0.7-0.7,1.9-0.7,3.6
						c0,0.4,0.3,0.7,0.7,0.7c0.2,0,4.7,0,7-2.7c5.8-0.1,10.7-3.1,13.6-8.3C77.9,29.8,77.9,29.5,77.8,29.3z M55.5,18.4
						c2.2,0.3,5.9,1.1,8,2.6c-1.9,0.1-4.4,0.8-6.6,1.7C56.6,21.5,56,19.7,55.5,18.4z M57.9,39.6c0.1-1.9,0.5-2.3,0.6-2.4
						c1.3,0.5,2.6,0.8,3.8,1C60.9,39.2,58.9,39.5,57.9,39.6z M58.4,37.2L58.4,37.2C58.4,37.2,58.4,37.2,58.4,37.2
						C58.4,37.2,58.4,37.2,58.4,37.2z M63.9,37c-3.9,0-10.3-3.2-11.5-4.4c-0.1-0.1-0.3-0.2-0.5-0.2c0,0-0.1,0-0.1,0
						c-0.2,0-0.4,0.2-0.5,0.4c-0.9,2.1-3,2.7-4.1,2.8c0.2-4.2,2.2-5.3,2.3-5.4c0.2-0.1,0.4-0.3,0.4-0.6c0-0.2-0.1-0.5-0.4-0.6
						c-0.1,0-2.1-1.2-2.3-5.4c1.1,0.2,3.2,0.7,4.1,2.8c0.1,0.2,0.3,0.4,0.5,0.4c0.2,0,0.4,0,0.6-0.2c1.2-1.2,7.6-4.4,11.5-4.4
						c5.3,0,9.8,2.7,12.6,7.3C73.7,34.3,69.1,37,63.9,37z"/>
					<path d="M57.2,41.1c-0.4,0-0.8-0.3-0.8-0.8c0-1.6,0.2-2.8,0.6-3.6c-1.9-0.8-3.8-1.7-4.9-2.5c-1.8,2.8-5.5,2.9-5.7,2.9
						c-0.4,0-0.8-0.3-0.8-0.8c0-3.9,1.3-5.8,2.2-6.7c-0.9-0.9-2.2-2.8-2.2-6.7c0-0.4,0.3-0.8,0.8-0.8c0.2,0,3.8,0,5.7,2.9
						c0.8-0.6,2.1-1.3,3.4-1.9c-0.2-1-1.1-3.4-1.8-5.3c-0.1-0.2-0.1-0.5,0.1-0.7c0.2-0.2,0.4-0.3,0.7-0.3c0.3,0,8.4,0.9,11.1,4.1
						c5.2,0.6,9.6,3.5,12.2,8.3h0c0.1,0.2,0.1,0.5,0,0.7c-2.9,5.2-7.9,8.3-13.7,8.4C61.9,41.1,57.4,41.1,57.2,41.1z M52.1,33.9
						L52.1,33.9c1.2,0.9,3.2,1.9,5.1,2.7l0.1,0l-0.1,0.1c-0.5,0.7-0.7,1.9-0.7,3.6c0,0.3,0.3,0.6,0.6,0.6c0.2,0,4.7,0,6.9-2.7l0,0
						l0,0c5.7-0.1,10.7-3.1,13.5-8.3c0.1-0.2,0.1-0.4,0-0.6c-2.6-4.7-7-7.6-12.1-8.2l0,0l0,0c-2.6-3.2-10.6-4-11-4.1
						c-0.2,0-0.4,0.1-0.5,0.2c-0.1,0.2-0.1,0.4-0.1,0.5c0.7,1.9,1.6,4.3,1.8,5.4l0,0.1l-0.1,0c-1.4,0.7-2.7,1.4-3.6,2l-0.1,0.1
						L52,25.2c-1.8-2.8-5.4-2.9-5.5-2.9c-0.3,0-0.6,0.3-0.6,0.6c0,3.9,1.4,5.8,2.2,6.6l0.1,0.1l-0.1,0.1c-0.8,0.8-2.2,2.7-2.2,6.6
						c0,0.3,0.3,0.6,0.6,0.6C46.6,36.9,50.3,36.8,52.1,33.9L52.1,33.9z M57.8,39.7l0-0.1c0.1-1.5,0.4-2.1,0.6-2.4V37l0.2,0.1
						c1.4,0.5,2.7,0.8,3.8,1l0.2,0l-0.2,0.1c-1.5,1.1-3.7,1.4-4.5,1.4L57.8,39.7z M58.5,37.3c-0.1,0.1-0.5,0.6-0.6,2.2
						c0.8-0.1,2.7-0.4,4.1-1.3C61,38.1,59.8,37.7,58.5,37.3z M63.9,37.1c-3.9,0-10.3-3.2-11.5-4.4c-0.1-0.1-0.3-0.2-0.5-0.2
						c-0.2,0-0.3,0.2-0.4,0.3c-0.9,2.1-3,2.7-4.2,2.9l-0.1,0l0-0.1c0.2-4.3,2.3-5.4,2.3-5.4c0.2-0.1,0.3-0.3,0.3-0.5
						c0-0.2-0.1-0.4-0.3-0.5c-0.1,0-2.1-1.2-2.3-5.4l0-0.1l0.1,0c1.2,0.2,3.3,0.8,4.2,2.9c0.1,0.2,0.2,0.3,0.4,0.3
						c0.2,0,0.4,0,0.5-0.2c1.2-1.2,7.6-4.4,11.5-4.4c5.3,0,9.9,2.7,12.7,7.4l0,0.1l0,0.1C73.8,34.4,69.1,37.1,63.9,37.1z M51.9,32.3
						c0.2,0,0.4,0.1,0.5,0.2c1.2,1.2,7.5,4.4,11.4,4.4c5.2,0,9.7-2.6,12.5-7.2c-2.7-4.6-7.3-7.2-12.5-7.2c-3.9,0-10.2,3.2-11.4,4.4
						C52.3,27,52,27,51.8,27c-0.3,0-0.5-0.2-0.6-0.5c-0.8-1.9-2.8-2.5-3.9-2.7c0.2,4,2.2,5.1,2.2,5.1c0.3,0.1,0.4,0.4,0.4,0.7
						c0,0.3-0.2,0.5-0.4,0.7c-0.1,0-2,1.1-2.2,5.2c1.2-0.2,3.1-0.8,3.9-2.7c0.1-0.2,0.3-0.4,0.6-0.5C51.8,32.3,51.9,32.3,51.9,32.3z
						 M56.9,22.8l0-0.1c-0.3-1.2-0.9-3-1.4-4.3l-0.1-0.2l0.2,0c1.3,0.2,5.6,0.9,8.1,2.6l0.2,0.2l-0.3,0c-1.7,0.1-4,0.7-6.6,1.7
						L56.9,22.8z M55.7,18.5c0.5,1.2,1,2.9,1.3,4c2.4-1,4.5-1.5,6.2-1.7C60.9,19.4,57.1,18.7,55.7,18.5z"/>
				</g>
				<g>
					<path d="M57.2,41.1c-0.4,0-0.7-0.3-0.7-0.7c0-1.6,0.2-2.8,0.7-3.6c-1.9-0.8-3.8-1.7-4.9-2.5c-1.8,2.8-5.5,2.9-5.7,2.9
						c-0.4,0-0.7-0.3-0.7-0.7c0-3.9,1.4-5.8,2.2-6.7c-0.9-0.9-2.2-2.8-2.2-6.7c0-0.4,0.3-0.7,0.7-0.7c0.2,0,3.8,0,5.7,2.9
						c0.8-0.6,2.1-1.3,3.5-1.9c-0.2-0.9-1-3.1-1.8-5.3c-0.1-0.2-0.1-0.5,0.1-0.7c0.1-0.2,0.4-0.3,0.6-0.3c0,0,0.1,0,0.1,0
						c0.3,0,8.4,0.8,11.1,4.1c5.2,0.6,9.6,3.5,12.2,8.3l0,0c0.1,0.2,0.1,0.5,0,0.7c-2.9,5.2-7.9,8.3-13.7,8.4
						C61.9,41,57.4,41.1,57.2,41.1z M52.1,34L52.1,34c1.2,0.9,3.1,1.9,5.1,2.7l0.1,0l-0.1,0.1c-0.5,0.7-0.7,1.9-0.7,3.6
						c0,0.3,0.3,0.6,0.6,0.6c0.2,0,4.7,0,6.9-2.7l0,0h0c5.7-0.1,10.7-3.1,13.5-8.3c0.1-0.2,0.1-0.4,0-0.6l0,0
						c-2.7-4.7-7-7.7-12.1-8.2l0,0l0,0c-2.6-3.2-10.6-4.1-11-4.1c0,0,0,0-0.1,0c-0.2,0-0.4,0.1-0.5,0.2c-0.1,0.2-0.2,0.4-0.1,0.6
						c0.7,1.9,1.6,4.3,1.8,5.4l0,0.1l-0.1,0c-1.4,0.7-2.7,1.4-3.6,2l-0.1,0l0-0.1c-1.8-2.8-5.4-2.9-5.6-2.9c-0.3,0-0.6,0.3-0.6,0.6
						c0,3.9,1.4,5.8,2.2,6.6l0.1,0.1l-0.1,0.1c-0.8,0.8-2.2,2.7-2.2,6.6c0,0.3,0.3,0.6,0.6,0.6C46.6,36.9,50.3,36.9,52.1,34L52.1,34
						z M57.8,39.7L57.8,39.7c0.1-1.6,0.4-2.3,0.6-2.5l0,0V37l0.1,0.1l0,0l0,0c1.4,0.5,2.7,0.8,3.8,1l0.2,0l-0.2,0.1
						C60.8,39.3,58.7,39.6,57.8,39.7L57.8,39.7z M58.5,37.3c-0.1,0.1-0.5,0.6-0.6,2.2c0.8-0.1,2.7-0.4,4.2-1.3
						C61,38.1,59.8,37.7,58.5,37.3z M63.9,37.1c-3.9,0-10.3-3.2-11.5-4.4c-0.1-0.1-0.3-0.2-0.5-0.2c-0.2,0-0.4,0.2-0.4,0.3
						c-0.9,2.1-3,2.7-4.2,2.9l-0.1,0l0-0.1c0.2-4.3,2.2-5.4,2.3-5.4c0.2-0.1,0.3-0.3,0.3-0.5c0-0.2-0.1-0.4-0.3-0.5
						c-0.1,0-2.1-1.1-2.3-5.4l0-0.1l0.1,0c1.2,0.2,3.3,0.8,4.2,2.9c0.1,0.2,0.2,0.3,0.4,0.3c0.2,0,0.4,0,0.5-0.2
						c1.2-1.2,7.6-4.4,11.5-4.4c5.3,0,9.9,2.7,12.7,7.4l0,0l0,0C73.8,34.4,69.1,37.1,63.9,37.1z M51.9,32.3c0.2,0,0.4,0.1,0.5,0.2
						c1.2,1.2,7.5,4.4,11.4,4.4c5.2,0,9.8-2.6,12.5-7.3c-2.7-4.6-7.3-7.3-12.5-7.3c-3.9,0-10.2,3.2-11.4,4.4
						C52.3,26.9,52,27,51.8,27c-0.2,0-0.5-0.2-0.6-0.4c-0.8-2-2.8-2.6-4-2.7c0.2,4.1,2.2,5.2,2.2,5.2c0.2,0.1,0.4,0.4,0.4,0.7
						c0,0.3-0.2,0.5-0.4,0.7c-0.1,0-2,1.1-2.2,5.2c1.2-0.2,3.1-0.8,4-2.8c0.1-0.2,0.3-0.4,0.5-0.4C51.8,32.3,51.9,32.3,51.9,32.3z
						 M56.9,22.8L56.9,22.8c-0.3-1.2-1-3-1.4-4.4l0-0.1l0.1,0c1.3,0.2,5.6,0.9,8,2.6l0.2,0.1l-0.2,0C61.8,21.1,59.5,21.7,56.9,22.8
						L56.9,22.8z M55.6,18.5c0.5,1.3,1.1,2.9,1.4,4.1c2.4-1,4.6-1.6,6.3-1.7C61,19.4,57,18.7,55.6,18.5z"/>
					<path d="M57.2,41.2c-0.5,0-0.8-0.4-0.8-0.8c0-1.6,0.2-2.7,0.6-3.5c-1.8-0.8-3.6-1.7-4.8-2.5c-1.9,2.8-5.5,2.8-5.7,2.8
						c-0.5,0-0.8-0.4-0.8-0.8c0-3.8,1.3-5.8,2.2-6.7c-0.8-0.9-2.2-2.9-2.2-6.7c0-0.5,0.4-0.8,0.8-0.8c0.2,0,3.8,0,5.7,2.8
						c0.8-0.6,2-1.2,3.3-1.8c-0.2-1-1-3.1-1.8-5.2c-0.1-0.3-0.1-0.6,0.1-0.8c0.2-0.2,0.4-0.3,0.7-0.3c0,0,0.1,0,0.1,0
						c0.3,0,8.4,0.8,11.1,4.1c5.2,0.6,9.6,3.5,12.3,8.3c0.1,0.3,0.1,0.6,0,0.8c-2.9,5.2-7.9,8.3-13.7,8.4
						C61.9,41.1,57.4,41.2,57.2,41.2z M52.1,33.8l0.2,0.1c1.1,0.8,3.1,1.8,5,2.6l0.2,0.1l-0.1,0.2c-0.4,0.7-0.7,1.9-0.7,3.5
						c0,0.3,0.2,0.5,0.5,0.5c0.2,0,4.6,0,6.9-2.6l0.1-0.1h0.1c5.7-0.1,10.6-3.1,13.5-8.2c0.1-0.1,0.1-0.3,0-0.5
						c-2.6-4.7-6.9-7.6-12.1-8.2l-0.1,0l0-0.1c-2.6-3.2-10.6-4-10.9-4l0,0c-0.1,0-0.3,0.1-0.4,0.2c-0.1,0.1-0.1,0.3-0.1,0.5
						c0.7,1.9,1.6,4.3,1.8,5.4l0,0.1l-0.1,0.1c-1.4,0.7-2.7,1.4-3.6,2l-0.2,0.1L52,25.3c-1.7-2.8-5.3-2.8-5.5-2.8
						c-0.3,0-0.5,0.2-0.5,0.5c0,3.9,1.4,5.8,2.2,6.5l0.1,0.1l-0.1,0.1c-0.8,0.8-2.2,2.7-2.2,6.5c0,0.3,0.2,0.5,0.5,0.5
						c0.2,0,3.7,0,5.5-2.8L52.1,33.8z M57.7,39.8l0-0.2c0.1-1.5,0.4-2.1,0.6-2.4v-0.5l0.3,0.3l0,0c1.4,0.5,2.7,0.8,3.8,1l0.4,0.1
						l-0.4,0.3c-1.6,1.1-3.7,1.4-4.5,1.5L57.7,39.8z M58.6,37.4c-0.1,0.2-0.4,0.7-0.5,2c0.8-0.1,2.4-0.3,3.8-1.1
						C60.8,38.1,59.7,37.8,58.6,37.4z M63.9,37.2c-3.9,0-10.4-3.2-11.6-4.5c-0.1-0.1-0.3-0.2-0.4-0.1c-0.2,0-0.3,0.1-0.4,0.3
						c-0.9,2.1-3.1,2.8-4.3,2.9l-0.2,0l0-0.2c0.2-4.2,2.2-5.4,2.4-5.5c0.2-0.1,0.3-0.2,0.3-0.4c0-0.2-0.1-0.4-0.3-0.4
						c-0.1,0-2.2-1.2-2.4-5.5l0-0.2l0.2,0c1.2,0.2,3.3,0.8,4.3,2.9c0.1,0.2,0.2,0.3,0.4,0.3c0.2,0,0.3,0,0.4-0.1
						c1.2-1.2,7.7-4.5,11.6-4.5c5.3,0,10,2.7,12.7,7.4l0.1,0.1l-0.1,0.1C73.8,34.4,69.2,37.2,63.9,37.2z M51.9,32.2
						c0.2,0,0.4,0.1,0.6,0.3c1.2,1.2,7.5,4.4,11.3,4.4c5.2,0,9.7-2.6,12.4-7.2c-2.7-4.6-7.2-7.2-12.4-7.2c-3.9,0-10.2,3.2-11.3,4.4
						c-0.2,0.2-0.5,0.3-0.8,0.2c-0.3,0-0.5-0.2-0.6-0.5c-0.8-1.9-2.7-2.5-3.8-2.7c0.3,3.9,2.1,4.9,2.2,5c0.3,0.1,0.5,0.4,0.5,0.8
						c0,0.3-0.2,0.6-0.5,0.7c-0.1,0-1.9,1-2.2,5c1.1-0.2,3-0.8,3.8-2.7c0.1-0.3,0.3-0.4,0.6-0.5C51.8,32.2,51.9,32.2,51.9,32.2z
						 M56.8,22.9l-0.1-0.2c-0.3-1.1-0.9-2.9-1.4-4.3l-0.1-0.3l0.3,0c1.3,0.2,5.7,0.9,8.1,2.6l0.5,0.3l-0.5,0c-1.7,0.1-4,0.7-6.5,1.7
						L56.8,22.9z M55.8,18.6c0.4,1.2,1,2.7,1.3,3.8c2.2-0.9,4.3-1.5,5.9-1.6C60.7,19.5,57.1,18.8,55.8,18.6z"/>
				</g>
			</g>
			<g>
				<g>
					<path d="M65.9,29.6c0-3.1,1.2-5,1.2-5c0.2-0.3,0.1-0.7-0.2-0.9c-0.3-0.2-0.7-0.1-0.9,0.2c-0.1,0.1-1.4,2.2-1.4,5.7
						s1.4,5.6,1.4,5.7c0.1,0.2,0.3,0.3,0.6,0.3c0.1,0,0.3,0,0.4-0.1c0.3-0.2,0.4-0.6,0.2-0.9C67.1,34.6,65.9,32.7,65.9,29.6z"/>
					<path d="M66.5,35.7c-0.3,0-0.5-0.1-0.6-0.3c-0.1-0.1-1.5-2.2-1.5-5.8c0-3.5,1.4-5.7,1.5-5.8c0.2-0.4,0.7-0.4,1.1-0.2
						c0.4,0.2,0.4,0.7,0.2,1.1c-0.1,0.2-1.2,2-1.2,4.9c0,3.1,1.2,4.9,1.2,4.9c0.1,0.2,0.2,0.4,0.1,0.6c0,0.2-0.2,0.4-0.3,0.5
						C66.8,35.7,66.7,35.7,66.5,35.7z M66.5,23.7c-0.2,0-0.4,0.1-0.5,0.3c-0.1,0.1-1.4,2.2-1.4,5.7s1.4,5.6,1.4,5.7
						c0.2,0.3,0.5,0.3,0.8,0.2c0.1-0.1,0.2-0.2,0.2-0.4c0-0.1,0-0.3-0.1-0.4c0,0-1.2-1.9-1.2-5c0-3,1.1-4.8,1.2-5
						c0.2-0.3,0.1-0.6-0.2-0.8C66.7,23.8,66.6,23.7,66.5,23.7z"/>
				</g>
				<g>
					<path d="M66.5,35.7c-0.3,0-0.5-0.1-0.6-0.3c-0.1-0.1-1.5-2.3-1.5-5.8c0-3.5,1.4-5.7,1.5-5.8c0.2-0.3,0.7-0.4,1-0.2
						c0.3,0.2,0.4,0.7,0.2,1c-0.1,0.2-1.2,2-1.2,4.9c0,3,1.2,4.9,1.2,4.9c0.2,0.3,0.1,0.8-0.2,1C66.8,35.7,66.7,35.7,66.5,35.7z
						 M66.5,23.7c-0.2,0-0.4,0.1-0.5,0.3c-0.1,0.1-1.4,2.2-1.4,5.7c0,3.5,1.4,5.6,1.4,5.7c0.2,0.3,0.5,0.3,0.8,0.2
						c0.3-0.2,0.3-0.5,0.2-0.8c-0.1-0.1-1.2-2-1.2-5c0-3,1.1-4.8,1.2-5c0.2-0.3,0.1-0.6-0.2-0.8C66.8,23.7,66.6,23.7,66.5,23.7z"/>
					<path d="M66.5,35.8c-0.3,0-0.5-0.1-0.7-0.4c0,0-1.5-2.2-1.5-5.8c0-3.6,1.5-5.8,1.5-5.8c0.3-0.4,0.8-0.5,1.2-0.2
						c0.4,0.3,0.5,0.8,0.2,1.2c-0.1,0.2-1.2,2-1.2,4.9c0,3,1.1,4.8,1.2,4.9c0.3,0.4,0.2,0.9-0.2,1.2C66.9,35.8,66.7,35.8,66.5,35.8z
						 M66.5,23.8c-0.2,0-0.3,0.1-0.4,0.2c-0.1,0.1-1.4,2.2-1.4,5.6c0,3.4,1.4,5.5,1.4,5.6c0.1,0.2,0.5,0.3,0.7,0.1
						c0.1-0.1,0.2-0.2,0.2-0.3s0-0.3-0.1-0.4c-0.1-0.2-1.3-2.1-1.3-5.1c0-3,1.1-4.9,1.2-5.1c0.2-0.2,0.1-0.5-0.1-0.7
						C66.7,23.8,66.6,23.8,66.5,23.8z"/>
				</g>
			</g>
			<g>
				<g>
					<path d="M64.2,23.7c-0.3-0.2-0.7-0.1-0.9,0.2c-0.1,0.1-1.4,2.2-1.4,5.7c0,1.9,0.4,3.3,0.7,4.2c0.1,0.3,0.4,0.4,0.6,0.4
						c0.1,0,0.2,0,0.2,0c0.3-0.1,0.5-0.5,0.4-0.9c-0.3-0.8-0.7-2.1-0.7-3.8c0-3.1,1.2-5,1.2-5C64.6,24.3,64.5,23.9,64.2,23.7z"/>
					<path d="M63.2,34.4c-0.3,0-0.6-0.2-0.7-0.5c-0.3-0.9-0.7-2.4-0.7-4.3c0-3.5,1.4-5.7,1.5-5.8c0.2-0.3,0.7-0.4,1.1-0.2l0,0
						c0.4,0.2,0.4,0.7,0.2,1.1c0,0-1.2,1.9-1.2,4.9c0,1.7,0.4,2.9,0.7,3.7c0.1,0.2,0.1,0.4,0,0.6c-0.1,0.2-0.2,0.3-0.4,0.4
						C63.4,34.4,63.3,34.4,63.2,34.4z M63.9,23.7c-0.2,0-0.4,0.1-0.5,0.3c-0.1,0.1-1.4,2.2-1.4,5.7c0,1.9,0.4,3.3,0.7,4.2
						c0.1,0.3,0.4,0.4,0.7,0.3c0.3-0.1,0.4-0.4,0.3-0.7c-0.3-0.8-0.7-2.1-0.7-3.8c0-3.1,1.2-5,1.2-5c0.2-0.3,0.1-0.6-0.2-0.8l0,0
						C64.1,23.8,64,23.7,63.9,23.7z"/>
				</g>
				<g>
					<path d="M63.2,34.4c-0.3,0-0.6-0.2-0.7-0.5c-0.3-0.9-0.7-2.4-0.7-4.3c0-3.5,1.4-5.7,1.5-5.8c0.2-0.3,0.7-0.4,1-0.2l0,0
						c0.3,0.2,0.4,0.7,0.2,1c0,0-1.2,1.9-1.2,4.9c0,1.7,0.4,3,0.7,3.7c0.1,0.2,0.1,0.4,0,0.6c-0.1,0.2-0.2,0.3-0.4,0.4
						C63.4,34.4,63.3,34.4,63.2,34.4z M63.9,23.7c-0.2,0-0.4,0.1-0.5,0.3c-0.1,0.1-1.4,2.2-1.4,5.7c0,1.9,0.4,3.3,0.7,4.2
						c0.1,0.2,0.3,0.4,0.5,0.4c0.1,0,0.1,0,0.2,0c0.1-0.1,0.3-0.2,0.3-0.3c0.1-0.1,0.1-0.3,0-0.5c-0.3-0.8-0.7-2.1-0.7-3.8
						c0-3.1,1.2-5,1.2-5c0.2-0.3,0.1-0.6-0.2-0.8l0,0C64.1,23.7,64,23.7,63.9,23.7z"/>
					<path d="M63.2,34.5c-0.3,0-0.7-0.2-0.8-0.6c-0.3-0.9-0.8-2.4-0.8-4.3c0-3.6,1.4-5.7,1.5-5.8c0.3-0.4,0.8-0.5,1.2-0.2
						c0.4,0.3,0.5,0.8,0.2,1.2c0,0-1.2,1.8-1.2,4.9c0,1.6,0.4,2.9,0.6,3.7c0.1,0.2,0.1,0.4,0,0.7c-0.1,0.2-0.3,0.4-0.5,0.4
						C63.4,34.5,63.3,34.5,63.2,34.5z M63.9,23.8c-0.2,0-0.3,0.1-0.4,0.2c-0.1,0.1-1.4,2.2-1.4,5.6c0,1.8,0.4,3.3,0.7,4.2
						c0.1,0.2,0.4,0.4,0.6,0.3c0.1,0,0.2-0.1,0.3-0.3c0.1-0.1,0.1-0.2,0-0.4c-0.3-0.8-0.7-2.1-0.7-3.8c0-3,1.1-4.9,1.3-5.1
						c0.1-0.2,0.1-0.5-0.1-0.7C64,23.8,64,23.8,63.9,23.8z"/>
				</g>
			</g>
			<g>
				<g>
					<circle cx="69.9" cy="27.6" r="1.3"/>
					<path d="M69.9,29.1c-0.8,0-1.4-0.6-1.4-1.4s0.6-1.4,1.4-1.4c0.8,0,1.4,0.6,1.4,1.4S70.7,29.1,69.9,29.1z M69.9,26.4
						c-0.7,0-1.2,0.6-1.2,1.2s0.6,1.2,1.2,1.2c0.7,0,1.2-0.6,1.2-1.2S70.5,26.4,69.9,26.4z"/>
				</g>
				<g>
					<path d="M69.9,29c-0.8,0-1.4-0.6-1.4-1.4c0-0.8,0.6-1.4,1.4-1.4s1.4,0.6,1.4,1.4C71.3,28.4,70.7,29,69.9,29z M69.9,26.4
						c-0.7,0-1.3,0.6-1.3,1.3c0,0.7,0.6,1.3,1.3,1.3s1.3-0.6,1.3-1.3C71.1,26.9,70.6,26.4,69.9,26.4z"/>
					<path d="M69.9,29.1c-0.8,0-1.5-0.7-1.5-1.5s0.7-1.5,1.5-1.5s1.5,0.7,1.5,1.5S70.7,29.1,69.9,29.1z M69.9,26.5
						c-0.6,0-1.2,0.5-1.2,1.2c0,0.6,0.5,1.2,1.2,1.2c0.6,0,1.2-0.5,1.2-1.2C71,27,70.5,26.5,69.9,26.5z"/>
				</g>
			</g>
		</g>
	</g>
</g>
<g>
	<g>
		<path d="M13.1,21.9c-0.5,0.2-0.8,0.6-1,1l-3.5,8.9c-1,2.4-1.4,4.9-1.4,7.5c0,4.5,3.8,8.2,8.5,8.2h13.8v0c0.2,0,0.4,0,0.7,0h2.6
			c4.7,0,8.5-3.7,8.5-8.2c0-2.6-1.3-5-3.4-6.5c-2.8-2-4.4-5.2-4.5-8.5v-0.6c0-0.7-0.5-1.4-1.2-1.7c0.8-3.3,2.2-6.4,4.3-9.2
			c0,0,0,0,0-0.1l0.7-1.2c0.2-0.3,0.1-0.7-0.3-0.9c0,0-0.1,0-0.2-0.1l-2.6-0.6c-0.3-0.1-0.5,0-0.7,0.2L33,10.6
			c-2.6,3.3-4.5,7.1-5.4,11.1h-1.9c0.8-3.3,2.2-6.3,4.2-9.1c0,0,0,0,0-0.1l0.7-1.2c0.2-0.3,0.1-0.7-0.3-0.9c0,0-0.1,0-0.2-0.1
			l-2.6-0.6c-0.3-0.1-0.5,0-0.7,0.2l-0.5,0.6c-2.6,3.3-4.5,7.1-5.4,11.1h-1.9c0.8-3.3,2.2-6.3,4.2-9.1c0,0,0,0,0-0.1l0.7-1.2
			c0.2-0.3,0.1-0.7-0.3-0.9c0,0-0.1,0-0.2-0.1l-2.6-0.6c-0.3-0.1-0.5,0-0.7,0.2l-0.5,0.6c-2.6,3.3-4.5,7.1-5.4,11.1h-0.1
			C14,21.8,13.6,21.7,13.1,21.9z M34.1,11.4l0.2-0.3l1.4,0.3L35.4,12c-2.1,2.9-3.7,6.3-4.5,9.8H29C29.9,18,31.6,14.5,34.1,11.4z
			 M27.5,11.4l0.2-0.3l1.4,0.3L28.8,12c-2.1,2.9-3.7,6.3-4.5,9.8h-1.9C23.3,18,25.1,14.5,27.5,11.4z M21,11.4l0.2-0.3l1.4,0.3
			L22.3,12c-2.1,2.9-3.7,6.3-4.5,9.8h-1.9C16.8,18,18.5,14.5,21,11.4z M15.6,46.2c-4,0-7.2-3.1-7.2-6.9c0-2.4,0.5-4.8,1.4-7.1
			l3.5-8.9c0.1-0.2,0.3-0.4,0.6-0.4h12.6L23,31.8c-1,2.4-1.4,4.9-1.4,7.5c0,2.8,1.5,5.4,4,6.9L15.6,46.2L15.6,46.2z M32.7,46.2h-2.6
			c-4,0-7.2-3.1-7.2-6.9c0-2.4,0.5-4.8,1.4-7.1l3.5-8.9c0.1-0.2,0.3-0.4,0.6-0.4h3c0.4,0,0.7,0.3,0.7,0.6v0.6c0,3.8,1.9,7.3,5,9.5
			c3.2,2.3,3.8,6.6,1.4,9.7C37.1,45.2,35,46.2,32.7,46.2z"/>
		<path d="M32.7,47.6h-2.6c-0.2,0-0.4,0-0.6,0v0H15.6c-4.7,0-8.6-3.7-8.6-8.3c0-2.6,0.5-5.1,1.4-7.5l3.5-8.9
			c0.2-0.5,0.6-0.9,1.1-1.1c0.4-0.2,0.7-0.2,1.1-0.2c0.1,0,0.2,0,0.3,0c0.9-4,2.8-7.8,5.4-11.1l0.5-0.6c0.2-0.2,0.5-0.3,0.8-0.3
			l2.6,0.6c0.1,0,0.1,0,0.2,0.1c0.2,0.1,0.3,0.3,0.4,0.4c0.1,0.2,0,0.4-0.1,0.5l-0.7,1.2c0,0,0,0,0,0.1c-2,2.7-3.4,5.7-4.2,8.9H21
			c0.9-4,2.8-7.8,5.4-11.1l0.5-0.6c0.2-0.2,0.5-0.3,0.8-0.3l2.6,0.6c0.1,0,0.1,0,0.2,0.1c0.2,0.1,0.3,0.2,0.4,0.4
			c0.1,0.2,0,0.4-0.1,0.5l-0.7,1.2c0,0,0,0,0,0.1c-2,2.7-3.4,5.7-4.2,8.9h1.7c0.9-4,2.8-7.8,5.4-11.1l0.5-0.6
			c0.2-0.2,0.5-0.3,0.8-0.3l2.6,0.6c0.1,0,0.1,0,0.2,0.1c0.2,0.1,0.3,0.3,0.4,0.4c0.1,0.2,0,0.4-0.1,0.5l-0.7,1.2c0,0,0,0,0,0.1
			c-2,2.8-3.4,5.8-4.2,9.1c0.7,0.3,1.2,1,1.2,1.8v0.6c0,3.3,1.7,6.5,4.4,8.5c2.2,1.6,3.4,4,3.4,6.6C41.3,43.9,37.5,47.6,32.7,47.6z
			 M29.3,47.3l0.1,0c0.2,0,0.4,0,0.6,0h2.6c4.6,0,8.4-3.6,8.4-8.1c0-2.5-1.3-4.9-3.4-6.4c-2.8-2-4.5-5.2-4.5-8.6v-0.6
			c0-0.7-0.4-1.3-1.1-1.6l-0.1,0l0-0.1c0.8-3.3,2.2-6.5,4.3-9.3c0,0,0,0,0,0l0.7-1.2c0.1-0.1,0.1-0.3,0-0.4c0-0.1-0.1-0.3-0.3-0.3
			c0,0-0.1,0-0.1,0l-2.6-0.6c-0.2-0.1-0.4,0-0.6,0.2l-0.5,0.6c-2.6,3.2-4.5,7.1-5.4,11l0,0.1h-2.1l0-0.1c0.8-3.3,2.2-6.3,4.3-9.1
			c0,0,0,0,0,0l0.7-1.2c0.1-0.1,0.1-0.3,0-0.4c0-0.1-0.1-0.3-0.3-0.3c0,0-0.1,0-0.1-0.1l-2.6-0.6c-0.2-0.1-0.4,0-0.6,0.2l-0.5,0.6
			c-2.6,3.2-4.5,7.1-5.4,11l0,0.1H19l0-0.1c0.8-3.3,2.2-6.3,4.3-9.1c0,0,0,0,0-0.1l0.7-1.2c0.1-0.1,0.1-0.3,0-0.4
			c0-0.1-0.1-0.3-0.3-0.3c0,0-0.1,0-0.1-0.1l-2.6-0.6c-0.2-0.1-0.4,0-0.6,0.2L20,10.7c-2.6,3.2-4.5,7.1-5.4,11l0,0.1h-0.1
			c-0.1,0-0.2,0-0.3,0c-0.3,0-0.7,0-1,0.2l0,0c-0.4,0.2-0.8,0.5-1,1l-3.5,8.9c-1,2.4-1.4,4.9-1.4,7.5c0,4.4,3.8,8.1,8.4,8.1
			L29.3,47.3L29.3,47.3z M32.7,46.3h-2.6c-4,0-7.3-3.1-7.3-7c0-2.4,0.5-4.8,1.4-7.1l3.5-8.9c0.1-0.3,0.4-0.5,0.7-0.5h3
			c0.4,0,0.8,0.3,0.8,0.7v0.6c0,3.7,1.9,7.2,4.9,9.5c1.6,1.1,2.6,2.8,2.9,4.7c0.3,1.8-0.2,3.7-1.4,5.2C37.2,45.3,35,46.3,32.7,46.3z
			 M28.4,23.1c-0.2,0-0.4,0.1-0.5,0.3l-3.5,8.9c-0.9,2.3-1.4,4.6-1.3,7c0,3.7,3.2,6.8,7.1,6.8h2.6c2.2,0,4.4-1,5.7-2.7
			c1.1-1.4,1.6-3.2,1.4-5c-0.3-1.8-1.2-3.4-2.8-4.5c-3.1-2.3-5-5.9-5-9.6v-0.6c0-0.3-0.2-0.5-0.6-0.5H28.4z M25.9,46.3H15.6
			c-4,0-7.3-3.1-7.3-7c0-2.4,0.5-4.8,1.4-7.1l3.5-8.9c0.1-0.3,0.4-0.5,0.7-0.5h12.7L26.6,23l-3.5,8.8c-1,2.4-1.4,4.9-1.4,7.5
			c0,2.8,1.5,5.3,3.9,6.8L25.9,46.3z M15.6,46.1h9.6c-2.3-1.5-3.7-4.1-3.7-6.8c0-2.6,0.5-5.1,1.4-7.5l3.4-8.7H13.9
			c-0.2,0-0.4,0.1-0.5,0.3l-3.5,8.9c-0.9,2.3-1.4,4.6-1.3,7C8.5,43.1,11.7,46.1,15.6,46.1L15.6,46.1z M31,21.8h-2.1l0-0.1
			c0.9-3.7,2.7-7.3,5.1-10.4l0.3-0.3l1.6,0.4L35.5,12C33.3,15,31.8,18.3,31,21.8L31,21.8z M29.1,21.6h1.7c0.8-3.5,2.3-6.8,4.5-9.7
			l0.2-0.4l-1.2-0.3l-0.2,0.2C31.7,14.5,30,18,29.1,21.6z M24.4,21.8h-2.1l0-0.1c0.9-3.7,2.7-7.3,5.1-10.4l0.3-0.3l1.6,0.4L28.9,12
			C26.8,15,25.3,18.3,24.4,21.8L24.4,21.8z M22.5,21.6h1.7c0.8-3.5,2.3-6.8,4.5-9.7l0.2-0.4l-1.2-0.3l-0.2,0.2
			C25.2,14.5,23.4,18,22.5,21.6z M17.9,21.8h-2.1l0-0.1c0.9-3.7,2.7-7.3,5.1-10.4l0.3-0.3l1.6,0.4L22.4,12
			C20.2,15,18.7,18.3,17.9,21.8L17.9,21.8z M16,21.6h1.7c0.8-3.5,2.3-6.8,4.5-9.7l0.2-0.4l-1.2-0.3L21,11.5
			C18.6,14.5,16.9,18,16,21.6z"/>
	</g>
	<g>
		<path d="M32.7,47.6h-2.6c-0.2,0-0.4,0-0.5,0v0H15.6c-4.8,0-8.6-3.7-8.6-8.3c0-2.6,0.5-5.1,1.4-7.6l3.5-8.9
			c0.2-0.5,0.6-0.9,1.1-1.1c0.4-0.2,0.7-0.2,1.1-0.2c0.1,0,0.2,0,0.3,0c0.9-4,2.8-7.8,5.4-11l0.5-0.6c0.2-0.2,0.5-0.3,0.8-0.3
			l2.6,0.6c0.1,0,0.1,0,0.2,0.1c0.2,0.1,0.3,0.3,0.4,0.5c0.1,0.2,0,0.4-0.1,0.6l-0.7,1.2c0,0,0,0,0,0.1c-2,2.7-3.4,5.7-4.2,8.9H21
			c0.9-4,2.8-7.8,5.4-11l0.5-0.6c0.2-0.2,0.5-0.3,0.8-0.3l2.6,0.6c0.1,0,0.1,0,0.2,0.1c0.2,0.1,0.3,0.3,0.4,0.5
			c0.1,0.2,0,0.4-0.1,0.6l-0.7,1.2c0,0,0,0.1,0,0.1c-2,2.7-3.4,5.7-4.2,8.9h1.7c0.9-4,2.8-7.8,5.4-11l0.5-0.6
			c0.2-0.2,0.5-0.3,0.8-0.3l2.6,0.6c0.1,0,0.1,0,0.2,0.1c0.2,0.1,0.3,0.3,0.4,0.5c0.1,0.2,0,0.4-0.1,0.6l-0.7,1.2c0,0,0,0,0,0.1
			c-2,2.8-3.4,5.8-4.2,9.1c0.7,0.3,1.2,1,1.2,1.8v0.6c0,3.3,1.7,6.5,4.4,8.4c2.2,1.6,3.5,4,3.5,6.6C41.4,43.9,37.5,47.6,32.7,47.6z
			 M29.3,47.3l0.1,0c0.2,0,0.4,0,0.6,0h2.6c4.6,0,8.4-3.6,8.4-8c0-2.5-1.3-4.9-3.4-6.4c-2.8-2-4.5-5.3-4.5-8.6v-0.6
			c0-0.7-0.4-1.3-1.1-1.6l-0.1,0l0-0.1c0.8-3.3,2.2-6.5,4.3-9.3c0,0,0,0,0,0l0.7-1.2c0.1-0.1,0.1-0.2,0-0.4c0-0.1-0.1-0.2-0.3-0.3
			c0,0-0.1,0-0.1,0L34.2,10c-0.2-0.1-0.4,0-0.6,0.2l-0.5,0.6c-2.6,3.2-4.5,7-5.4,11l0,0.1h-2.2l0-0.2c0.8-3.3,2.2-6.4,4.3-9.1
			c0,0,0,0,0,0l0.7-1.2c0.1-0.1,0.1-0.2,0-0.4c0-0.1-0.1-0.2-0.3-0.3c0,0-0.1,0-0.1,0L27.6,10c-0.2-0.1-0.4,0-0.6,0.2l-0.5,0.6
			c-2.6,3.2-4.5,7-5.4,11l0,0.1H19l0-0.2c0.8-3.3,2.2-6.4,4.3-9.1c0,0,0,0,0,0l0.7-1.2c0.1-0.1,0.1-0.2,0-0.4c0-0.1-0.1-0.2-0.3-0.3
			c0,0-0.1,0-0.1,0L21.1,10c-0.2-0.1-0.4,0-0.6,0.2L20,10.7c-2.6,3.2-4.5,7-5.4,11l0,0.1h-0.2c-0.1,0-0.2,0-0.3,0
			c-0.3,0-0.6,0-1,0.2l0,0c-0.4,0.2-0.8,0.5-1,1l-3.5,8.9c-1,2.4-1.4,4.9-1.4,7.5c0,4.4,3.8,8,8.4,8L29.3,47.3L29.3,47.3z
			 M32.7,46.3h-2.6c-4,0-7.3-3.2-7.3-7c0-2.4,0.5-4.8,1.4-7.1l3.5-8.9c0.1-0.3,0.4-0.5,0.7-0.5h3c0.4,0,0.8,0.3,0.8,0.8v0.6
			c0,3.7,1.9,7.2,4.9,9.4c1.6,1.1,2.6,2.8,2.9,4.7c0.3,1.8-0.2,3.7-1.4,5.2C37.2,45.3,35,46.3,32.7,46.3z M28.4,23.1
			c-0.2,0-0.4,0.1-0.5,0.3l-3.5,8.9c-0.9,2.2-1.3,4.6-1.3,7c0,3.7,3.2,6.8,7.1,6.8h2.6c2.2,0,4.3-1,5.7-2.7c1.1-1.4,1.6-3.2,1.3-5
			c-0.3-1.8-1.2-3.4-2.8-4.5c-3.1-2.3-5-5.9-5-9.6v-0.6c0-0.3-0.2-0.5-0.5-0.5H28.4z M26,46.3H15.6c-4,0-7.3-3.2-7.3-7
			c0-2.4,0.5-4.8,1.4-7.1l3.5-8.9c0.1-0.3,0.4-0.5,0.7-0.5h12.8L26.6,23l-3.5,8.8c-1,2.4-1.4,4.9-1.4,7.5c0,2.8,1.5,5.3,3.9,6.8
			L26,46.3z M15.6,46.1h9.5c-2.3-1.5-3.7-4.1-3.7-6.8c0-2.6,0.5-5.1,1.5-7.6l3.4-8.6H13.9c-0.2,0-0.4,0.1-0.5,0.3l-3.5,8.9
			c-0.9,2.2-1.3,4.6-1.3,7C8.6,43.1,11.7,46.1,15.6,46.1L15.6,46.1z M31,21.9h-2.2l0-0.2c0.9-3.7,2.7-7.3,5.1-10.4l0.3-0.3l1.6,0.4
			L35.5,12C33.3,15,31.8,18.3,31,21.9L31,21.9z M29.1,21.6h1.7c0.8-3.5,2.3-6.8,4.5-9.7l0.2-0.3l-1.1-0.3l-0.2,0.2
			C31.8,14.5,30,18,29.1,21.6z M24.4,21.9h-2.2l0-0.2c0.9-3.7,2.7-7.3,5.1-10.4l0.3-0.3l1.6,0.4L28.9,12
			C26.8,15,25.3,18.3,24.4,21.9L24.4,21.9z M22.6,21.6h1.7c0.8-3.5,2.3-6.8,4.5-9.7l0.2-0.3l-1.1-0.3l-0.2,0.2
			C25.2,14.5,23.5,18,22.6,21.6z M17.9,21.9h-2.2l0-0.2c0.9-3.7,2.7-7.3,5.1-10.4l0.3-0.3l1.6,0.4L22.4,12
			C20.2,15,18.7,18.3,17.9,21.9L17.9,21.9z M16,21.6h1.7c0.8-3.5,2.3-6.8,4.5-9.7l0.2-0.3l-1.1-0.3l-0.2,0.2
			C18.7,14.5,16.9,18,16,21.6z"/>
		<path d="M32.7,47.7h-2.6c-0.2,0-0.3,0-0.5,0l-0.1,0H15.6c-4.8,0-8.7-3.8-8.7-8.4c0-2.6,0.5-5.2,1.5-7.6l3.5-8.9
			c0.2-0.5,0.6-0.9,1.1-1.2c0.4-0.2,0.8-0.2,1.1-0.2c0.1,0,0.1,0,0.2,0c0.9-4,2.8-7.8,5.4-11l0.5-0.6c0.2-0.3,0.6-0.4,0.9-0.3
			l2.6,0.6c0.1,0,0.1,0,0.2,0.1c0.2,0.1,0.4,0.3,0.4,0.5c0.1,0.2,0,0.4-0.1,0.6l-0.7,1.2c0,0,0,0.1-0.1,0.1
			c-1.9,2.6-3.3,5.6-4.1,8.7h1.5c0.9-4,2.8-7.8,5.4-11l0.5-0.6c0.2-0.3,0.6-0.4,0.9-0.3l2.6,0.6c0.1,0,0.1,0,0.2,0.1
			c0.2,0.1,0.4,0.3,0.4,0.5c0.1,0.2,0,0.4-0.1,0.6l-0.7,1.2c0,0,0,0.1-0.1,0.1c-1.9,2.6-3.3,5.6-4.1,8.7h1.5c0.9-4,2.8-7.8,5.4-11
			l0.5-0.6c0.2-0.3,0.6-0.4,0.9-0.3l2.6,0.6c0.1,0,0.1,0,0.2,0.1c0.2,0.1,0.4,0.3,0.4,0.5c0.1,0.2,0,0.4-0.1,0.6l-0.7,1.2
			c0,0,0,0.1-0.1,0.1c-2,2.7-3.4,5.7-4.2,9c0.7,0.4,1.1,1.1,1.1,1.8v0.6c0,3.3,1.6,6.4,4.4,8.4c2.2,1.6,3.5,4.1,3.5,6.7
			C41.5,43.9,37.5,47.7,32.7,47.7z M29.6,47.5c0.2,0,0.3,0,0.5,0h2.6c4.7,0,8.5-3.7,8.5-8.2c0-2.6-1.3-5-3.4-6.5
			c-2.8-2-4.4-5.2-4.4-8.5v-0.6c0-0.7-0.4-1.4-1.1-1.7l-0.1,0l0-0.1c0.8-3.3,2.2-6.4,4.3-9.1c0,0,0,0,0,0l0.7-1.3
			c0.1-0.1,0.1-0.3,0.1-0.5c0-0.2-0.2-0.3-0.3-0.4c-0.1,0-0.1,0-0.2-0.1l-2.6-0.6c-0.3-0.1-0.5,0-0.7,0.2L33,10.6
			c-2.6,3.2-4.5,7-5.4,11l0,0.1h-1.9l0-0.1c0.8-3.2,2.2-6.2,4.2-8.9c0,0,0,0,0-0.1l0.7-1.2c0.1-0.1,0.1-0.3,0.1-0.5
			c-0.1-0.2-0.2-0.3-0.3-0.4c-0.1,0-0.1,0-0.2-0.1l-2.6-0.6c-0.3-0.1-0.5,0-0.7,0.2l-0.5,0.6c-2.6,3.2-4.5,7-5.4,11l0,0.1h-1.9
			l0-0.1c0.8-3.2,2.2-6.2,4.2-8.9c0,0,0,0,0-0.1l0.7-1.2c0.1-0.1,0.1-0.3,0.1-0.5c0-0.2-0.2-0.3-0.3-0.4c0,0-0.1,0-0.2-0.1l-2.6-0.6
			c-0.3-0.1-0.5,0-0.7,0.2l-0.5,0.6c-2.6,3.2-4.5,7-5.4,11l0,0.1l-0.2,0c-0.1,0-0.1,0-0.2,0c-0.4,0-0.7,0-1,0.2
			c-0.5,0.2-0.8,0.6-1,1.1l-3.5,8.9c-1,2.4-1.4,4.9-1.4,7.5c0,4.5,3.8,8.2,8.5,8.2l13.8,0L29.6,47.5z M32.7,47.5h-2.6
			c-0.2,0-0.4,0-0.7,0l0,0v0H15.6c-4.7,0-8.5-3.7-8.5-8.1c0-2.6,0.5-5.1,1.4-7.5l3.5-8.9c0.2-0.5,0.5-0.8,1-1c0.3-0.2,0.7-0.2,1-0.2
			h0c0.1,0,0.2,0,0.3,0h0.1l0,0c0.9-4,2.8-7.8,5.4-11.1l0.5-0.6c0.2-0.2,0.4-0.3,0.7-0.2l2.6,0.6c0.1,0,0.1,0,0.2,0.1
			c0.1,0.1,0.3,0.2,0.3,0.4c0,0.2,0,0.3-0.1,0.5l-0.7,1.3c-2,2.8-3.4,5.8-4.2,9.1l0,0h2l0,0c0.9-4,2.8-7.8,5.4-11.1l0.5-0.6
			c0.2-0.2,0.4-0.3,0.7-0.2l2.6,0.6c0,0,0.1,0,0.2,0.1c0.1,0.1,0.3,0.2,0.3,0.4c0,0.2,0,0.3-0.1,0.5l-0.7,1.2c0,0,0,0,0,0.1
			c-2,2.8-3.4,5.8-4.2,9.1l0,0h2l0,0c0.9-4,2.8-7.8,5.4-11.1l0.5-0.6c0.2-0.2,0.4-0.3,0.7-0.2l2.6,0.6c0,0,0.1,0,0.2,0.1
			c0.1,0.1,0.3,0.2,0.3,0.4c0,0.2,0,0.3-0.1,0.5l-0.7,1.3c-2.1,2.8-3.5,5.9-4.3,9.2l0,0l0,0c0.7,0.3,1.2,1,1.2,1.7v0.6
			c0,3.3,1.7,6.5,4.5,8.6c2.1,1.5,3.4,4,3.4,6.5C41.2,43.8,37.4,47.5,32.7,47.5z M29.2,47.2l0.2,0c0.2,0,0.4,0,0.6,0h2.6
			c4.6,0,8.3-3.6,8.3-7.9c0-2.5-1.2-4.9-3.3-6.3c-2.8-2-4.5-5.3-4.5-8.7v-0.6c0-0.7-0.4-1.3-1-1.5L31.9,22l0-0.2
			c0.8-3.4,2.3-6.5,4.3-9.3l0,0l0.7-1.3c0.1-0.1,0.1-0.2,0-0.3c0-0.1-0.1-0.2-0.2-0.2c0,0-0.1,0-0.1,0L34.1,10c-0.2,0-0.3,0-0.5,0.1
			l-0.5,0.6c-2.6,3.2-4.5,7-5.4,11l0,0.2h-2.4l0.1-0.3c0.8-3.3,2.2-6.4,4.3-9.2l0,0l0.7-1.2c0.1-0.1,0.1-0.2,0-0.3
			c0-0.1-0.1-0.2-0.2-0.2c0,0-0.1,0-0.1,0L27.6,10c-0.2,0-0.3,0-0.4,0.1l-0.5,0.6c-2.6,3.2-4.5,7-5.4,11l0,0.2h-2.4l0.1-0.3
			c0.8-3.3,2.3-6.4,4.3-9.2l0,0l0.7-1.2c0.1-0.1,0.1-0.2,0-0.3c0-0.1-0.1-0.2-0.2-0.2c0,0-0.1,0-0.1,0L21,10c-0.2,0-0.3,0-0.4,0.1
			l-0.5,0.6c-2.6,3.2-4.5,7-5.4,11l0,0.2h-0.2c-0.1,0-0.2,0-0.3,0h0c-0.3,0-0.6,0-0.9,0.1c-0.4,0.2-0.8,0.5-0.9,0.9l-3.5,8.9
			c-0.9,2.4-1.4,4.9-1.4,7.4c0,4.4,3.7,7.9,8.3,7.9L29.2,47.2L29.2,47.2z M32.7,46.4h-2.6c-4.1,0-7.4-3.2-7.4-7.1
			c0-2.5,0.5-4.9,1.4-7.1l3.5-8.9c0.1-0.3,0.5-0.5,0.8-0.5h3c0.5,0,0.9,0.4,0.9,0.8v0.6c0,3.7,1.8,7.2,4.9,9.4
			c1.6,1.2,2.6,2.8,2.9,4.7c0.3,1.9-0.2,3.7-1.4,5.2C37.3,45.4,35,46.4,32.7,46.4z M28.4,23c-0.3,0-0.5,0.2-0.6,0.4l-3.5,8.9
			c-0.9,2.3-1.4,4.6-1.4,7.1c0,3.8,3.2,6.9,7.2,6.9h2.6c2.3,0,4.4-1,5.8-2.8c1.2-1.5,1.6-3.3,1.4-5.1c-0.3-1.8-1.3-3.5-2.8-4.6
			c-3.1-2.2-5-5.8-5-9.5v-0.6c0-0.4-0.3-0.7-0.7-0.7H28.4z M26.4,46.4H15.6c-4.1,0-7.4-3.2-7.4-7.1c0-2.4,0.5-4.9,1.4-7.1l3.5-8.9
			c0.1-0.3,0.5-0.5,0.8-0.5h12.9l-0.1,0.3l-3.5,8.8c-0.9,2.4-1.4,4.9-1.4,7.4c0,2.7,1.5,5.3,3.9,6.7L26.4,46.4z M13.9,23
			c-0.3,0-0.5,0.2-0.6,0.4l-3.5,8.9c-0.9,2.3-1.4,4.6-1.4,7.1c0,3.8,3.2,6.9,7.2,6.9h10l-0.1,0c-2.5-1.5-4-4.1-4-6.9
			c0-2.6,0.5-5.1,1.4-7.5l3.5-8.8H13.9z M32.7,46.2h-2.6c-4,0-7.2-3.1-7.2-6.9c0-2.4,0.5-4.8,1.4-7.1l3.5-8.9
			c0.1-0.2,0.3-0.4,0.6-0.4h3c0.3,0,0.6,0.3,0.6,0.6v0.6c0,3.7,1.9,7.3,5,9.6c1.5,1.1,2.5,2.7,2.8,4.6c0.3,1.8-0.2,3.6-1.4,5.1
			C37.1,45.2,35,46.2,32.7,46.2z M28.4,23.2c-0.2,0-0.3,0.1-0.4,0.3l-3.5,8.9c-0.9,2.2-1.3,4.6-1.3,7c0,3.7,3.1,6.7,7,6.7h2.6
			c2.2,0,4.3-1,5.6-2.7c1.1-1.4,1.6-3.2,1.3-4.9c-0.3-1.8-1.2-3.4-2.7-4.4c-3.2-2.3-5.1-5.9-5.1-9.7v-0.6c0-0.2-0.2-0.4-0.4-0.4
			H28.4z M25.5,46.2h-9.8c-4,0-7.2-3.1-7.2-6.9c0-2.4,0.5-4.8,1.4-7.1l3.5-8.9c0.1-0.2,0.3-0.4,0.6-0.4h12.6l-0.1,0.1L23,31.8
			c-1,2.4-1.4,4.9-1.4,7.5c0,2.7,1.4,5.2,3.7,6.7L25.5,46.2z M15.6,46h9.2c-2.2-1.6-3.5-4-3.5-6.7c0-2.6,0.5-5.2,1.5-7.6l3.4-8.5
			H13.9c-0.2,0-0.3,0.1-0.4,0.3L10,32.3c-0.9,2.2-1.3,4.6-1.3,7C8.7,43,11.8,46,15.6,46L15.6,46z M31.1,22h-2.4l0.1-0.3
			c0.9-3.8,2.7-7.4,5.1-10.4l0.3-0.4l1.8,0.4l-0.4,0.8c-2.2,3-3.7,6.2-4.5,9.7L31.1,22z M28.9,21.8h2l0,0c0.8-3.5,2.3-6.8,4.5-9.8
			l0.3-0.5l-1.4-0.3L34,11.4C31.6,14.4,29.8,18,28.9,21.8L28.9,21.8z M24.5,22h-2.4l0.1-0.3c0.9-3.8,2.7-7.4,5.1-10.4l0.3-0.4
			l1.8,0.4L29,12.1c-2.2,3-3.7,6.2-4.5,9.7L24.5,22z M22.4,21.8h2l0,0c0.8-3.5,2.3-6.8,4.5-9.8l0.3-0.5l-1.4-0.3l-0.2,0.3
			C25.1,14.4,23.3,18,22.4,21.8L22.4,21.8z M18,22h-2.4l0.1-0.3c0.9-3.8,2.7-7.4,5.1-10.4l0.3-0.4l1.8,0.4l-0.4,0.8
			c-2.2,3-3.7,6.2-4.5,9.7L18,22z M15.8,21.8h2l0,0c0.8-3.5,2.3-6.8,4.5-9.8l0.3-0.5l-1.4-0.3l-0.2,0.3C18.5,14.4,16.7,18,15.8,21.8
			L15.8,21.8z M30.9,21.7H29l0-0.1c0.9-3.7,2.7-7.2,5.1-10.2l0.2-0.3l1.3,0.3L35.4,12C33.2,14.9,31.7,18.2,30.9,21.7L30.9,21.7z
			 M29.2,21.5h1.5c0.8-3.5,2.4-6.7,4.5-9.7l0.1-0.2l-1-0.2l-0.1,0.2C31.9,14.5,30.2,17.9,29.2,21.5z M24.3,21.7h-1.9l0-0.1
			c0.9-3.7,2.7-7.2,5.1-10.2l0.2-0.3l1.3,0.3L28.8,12C26.7,14.9,25.2,18.2,24.3,21.7L24.3,21.7z M22.7,21.5h1.5
			c0.8-3.5,2.4-6.7,4.5-9.7l0.1-0.2l-1-0.2l-0.1,0.2C25.3,14.5,23.6,17.9,22.7,21.5z M17.8,21.7h-1.9l0-0.1
			c0.9-3.7,2.7-7.2,5.1-10.2l0.2-0.3l1.3,0.3L22.3,12C20.1,14.9,18.6,18.2,17.8,21.7L17.8,21.7z M16.1,21.5h1.5
			c0.8-3.5,2.4-6.7,4.5-9.7l0.1-0.2l-1-0.2l-0.1,0.2C18.8,14.5,17.1,17.9,16.1,21.5z"/>
	</g>
</g>
<g>
	<g>
		<path d="M28.3,32.9h2.1c0.6,0,1.2-0.3,1.5-0.8c0.3-0.5,0.4-1,0.1-1.6c-0.5-1.1-0.8-2.2-1-3.3c-0.1-0.4-0.2-0.9-0.3-1.3
			c-0.2-0.5-0.8-0.8-1.4-0.6c-0.3,0.1-0.5,0.3-0.6,0.6l-1.9,4.8c-0.3,0.8,0.1,1.8,1,2.1C27.9,32.9,28.1,32.9,28.3,32.9z M27.8,31.1
			l1.8-4.6c0.1,0.2,0.1,0.6,0.2,1c0.2,1.2,0.6,2.4,1.1,3.6c0.1,0.2,0.1,0.4,0,0.5c-0.1,0.2-0.3,0.3-0.5,0.3h-2.1
			c-0.3,0-0.6-0.2-0.6-0.5C27.7,31.2,27.8,31.2,27.8,31.1z"/>
		<path d="M30.4,33C30.4,33,30.4,33,30.4,33h-2.1c-0.2,0-0.4,0-0.6-0.1c-0.5-0.2-0.8-0.5-1-0.9c-0.2-0.4-0.2-0.9,0-1.3l1.9-4.8
			c0.1-0.3,0.4-0.5,0.7-0.7c0.6-0.2,1.3,0.1,1.5,0.7c0.1,0.4,0.3,0.9,0.3,1.3c0.2,1.1,0.5,2.2,1,3.3c0.3,0.5,0.2,1.2-0.1,1.6
			C31.6,32.7,31,33,30.4,33z M29.6,25.4c-0.1,0-0.2,0-0.4,0.1c-0.3,0.1-0.5,0.3-0.6,0.5l-1.9,4.8c-0.1,0.4-0.1,0.8,0,1.1
			c0.2,0.4,0.5,0.7,0.9,0.8c0.2,0.1,0.4,0.1,0.6,0.1h2.1c0,0,0,0,0,0c0.6,0,1.1-0.3,1.4-0.7c0.3-0.4,0.3-1,0.1-1.5
			c-0.5-1.1-0.8-2.2-1-3.3c-0.1-0.4-0.2-0.9-0.3-1.3C30.4,25.6,30,25.4,29.6,25.4z M30.4,31.9h-2.1c-0.4,0-0.7-0.3-0.7-0.6
			c0-0.1,0-0.2,0-0.2v0l2-4.9l0.1,0.3c0.1,0.2,0.1,0.6,0.2,1l0,0c0.2,1.2,0.6,2.4,1.1,3.6c0.1,0.2,0.1,0.4,0,0.6
			C30.8,31.8,30.6,31.9,30.4,31.9z M27.9,31.1c0,0.1,0,0.1,0,0.2c0,0.2,0.2,0.4,0.5,0.4h2.1c0.2,0,0.3-0.1,0.4-0.2
			c0.1-0.1,0.1-0.3,0-0.4c-0.5-1.2-0.9-2.4-1.1-3.6l0,0c0-0.2-0.1-0.5-0.1-0.7L27.9,31.1z"/>
	</g>
	<g>
		<path d="M30.4,33.2C30.4,33.2,30.4,33.2,30.4,33.2h-2.1c-0.2,0-0.5,0-0.7-0.1c-0.5-0.2-0.9-0.5-1.1-1c-0.2-0.5-0.2-1,0-1.4
			l1.9-4.8c0.1-0.3,0.4-0.6,0.8-0.7c0.7-0.2,1.5,0.1,1.7,0.7c0.2,0.5,0.3,0.9,0.3,1.4c0.2,1.1,0.5,2.2,1,3.3
			c0.3,0.6,0.2,1.2-0.1,1.8C31.7,32.8,31.1,33.2,30.4,33.2z M29.6,25.5c-0.1,0-0.2,0-0.3,0.1c-0.2,0.1-0.4,0.2-0.5,0.5l-1.9,4.8
			c-0.1,0.3-0.1,0.7,0,1c0.2,0.4,0.5,0.6,0.8,0.8c0.2,0.1,0.3,0.1,0.5,0.1h2.1c0,0,0,0,0,0c0.5,0,1-0.2,1.3-0.7
			c0.3-0.4,0.3-0.9,0.1-1.3c-0.5-1.1-0.8-2.2-1-3.4c-0.1-0.4-0.2-0.9-0.3-1.3C30.3,25.7,30,25.5,29.6,25.5z M30.4,32.1h-2.1
			c-0.5,0-0.8-0.4-0.8-0.8c0-0.1,0-0.2,0.1-0.3l1.8-4.6c0-0.1,0.1-0.2,0.2-0.2c0.1,0,0.2,0.1,0.2,0.2c0.1,0.2,0.1,0.6,0.2,1
			c0,0,0,0.1,0,0.1c0.2,1.2,0.5,2.4,1.1,3.5c0.1,0.2,0.1,0.5-0.1,0.7C30.9,31.9,30.7,32.1,30.4,32.1z M29.6,27.3L28,31.2
			c0,0,0,0,0,0c0,0,0,0.1,0,0.1c0,0.2,0.1,0.3,0.3,0.3h2.1c0.1,0,0.2-0.1,0.3-0.2c0.1-0.1,0.1-0.2,0-0.3c-0.5-1.2-0.9-2.4-1.1-3.6
			C29.6,27.4,29.6,27.4,29.6,27.3z M27.8,31.1L27.8,31.1L27.8,31.1z"/>
		<path d="M30.4,33.3h-2.1c-0.3,0-0.5,0-0.7-0.1c-0.5-0.2-0.9-0.6-1.2-1.1c-0.2-0.5-0.2-1,0-1.5l1.9-4.8c0.2-0.4,0.5-0.7,0.8-0.8
			c0.7-0.3,1.6,0.1,1.8,0.8c0.2,0.5,0.3,0.9,0.3,1.4c0.2,1.1,0.5,2.2,1,3.2c0.3,0.6,0.2,1.3-0.1,1.9C31.7,32.9,31.1,33.3,30.4,33.3z
			 M29.6,25.1c-0.1,0-0.3,0-0.4,0.1c-0.3,0.1-0.6,0.4-0.7,0.7l-1.9,4.8c-0.2,0.4-0.2,0.9,0,1.3c0.2,0.5,0.6,0.8,1.1,1
			c0.2,0.1,0.4,0.1,0.7,0.1h2.1c0.6,0,1.2-0.3,1.6-0.8c0.3-0.5,0.4-1.1,0.1-1.7c-0.5-1.1-0.8-2.2-1-3.3c-0.1-0.5-0.2-0.9-0.3-1.4
			C30.6,25.4,30.1,25.1,29.6,25.1z M30.4,32.8h-2.1c-0.2,0-0.4,0-0.6-0.1c-0.4-0.1-0.7-0.4-0.9-0.8c-0.2-0.4-0.2-0.8,0-1.1l1.9-4.8
			c0.1-0.2,0.3-0.4,0.5-0.5c0.1,0,0.2-0.1,0.3-0.1c0.4,0,0.7,0.2,0.9,0.6c0.1,0.4,0.3,0.9,0.3,1.3c0.2,1.2,0.5,2.3,1,3.4
			c0.2,0.5,0.2,1-0.1,1.4C31.4,32.5,30.9,32.8,30.4,32.8z M29.6,25.6c-0.1,0-0.2,0-0.3,0c-0.2,0.1-0.4,0.2-0.4,0.4L27,30.8
			c-0.1,0.3-0.1,0.6,0,1c0.1,0.3,0.4,0.6,0.8,0.7c0.2,0.1,0.3,0.1,0.5,0.1h2c0.5,0,0.9-0.2,1.2-0.6c0.2-0.4,0.3-0.8,0.1-1.2
			c-0.5-1.1-0.8-2.2-1-3.4c-0.1-0.4-0.2-0.9-0.3-1.3C30.2,25.8,29.9,25.6,29.6,25.6z M30.4,32.2h-2c-0.5,0-0.9-0.4-0.9-0.9
			c0-0.1,0-0.2,0.1-0.3l1.8-4.6c0.1-0.2,0.2-0.3,0.4-0.2c0.1,0,0.3,0.1,0.3,0.2c0.1,0.3,0.1,0.6,0.2,1c0,0,0,0,0,0s0,0,0,0l0,0
			c0.2,1.2,0.5,2.4,1,3.5c0.1,0.3,0.1,0.6-0.1,0.8C31,32,30.7,32.2,30.4,32.2z M29.6,26.3C29.5,26.3,29.5,26.4,29.6,26.3L27.6,31
			c0,0.1,0,0.2-0.1,0.3c0,0.4,0.3,0.7,0.7,0.7h2c0.3,0,0.5-0.1,0.6-0.3c0.1-0.2,0.2-0.4,0.1-0.6c-0.5-1.1-0.9-2.3-1.1-3.5
			c0,0,0,0,0,0s0,0,0,0l0,0c-0.1-0.4-0.1-0.7-0.2-1C29.7,26.4,29.7,26.3,29.6,26.3L29.6,26.3C29.6,26.3,29.6,26.3,29.6,26.3z
			 M30.4,31.7h-2c-0.2,0-0.4-0.2-0.4-0.4c0-0.1,0-0.1,0-0.1l1.7-4.2l0.1,0.5c0.2,1.2,0.6,2.5,1.1,3.6c0.1,0.1,0,0.2,0,0.4
			C30.7,31.6,30.5,31.7,30.4,31.7z M28.1,31.2C28.1,31.3,28.1,31.3,28.1,31.2c0,0.2,0.1,0.2,0.2,0.2h2c0.1,0,0.2,0,0.2-0.1
			c0-0.1,0-0.1,0-0.2c-0.5-1.1-0.9-2.3-1.1-3.5L28.1,31.2z M27.8,31.2l0-0.2h0V31.2z"/>
	</g>
</g>
<g>
	<g>
		<path d="M33.6,35.2h-4.2c-2.5,0-4.6,1.9-4.6,4.2v0.1c0,2.7,2.4,4.9,5.3,4.9c0,0,0,0,0,0h2.4c1.5,0,2.9-0.6,3.9-1.6
			c1-1,1.5-2.4,1.4-3.8C37.6,37.6,36.3,35.2,33.6,35.2z M35.5,42.1c-0.8,0.8-1.9,1.2-3.1,1.2h-2.4c-1.1,0-2.1-0.4-2.9-1.1
			c-0.8-0.7-1.2-1.7-1.2-2.7v-0.1c0-1.7,1.6-3.2,3.5-3.2h4.2c2,0,2.8,2,2.9,2.9C36.7,40.3,36.3,41.3,35.5,42.1z"/>
		<path d="M32.4,44.6h-2.4c-1.5,0-2.8-0.5-3.8-1.5c-1-1-1.6-2.2-1.6-3.6v-0.1c0-2.4,2.1-4.3,4.7-4.3h4.2c2.8,0,4,2.4,4.2,4
			c0.2,1.4-0.4,2.8-1.4,3.8C35.4,44,34,44.5,32.4,44.6z M29.4,35.3c-2.5,0-4.5,1.9-4.5,4.1v0.1c0,1.3,0.5,2.5,1.5,3.4
			c1,0.9,2.3,1.4,3.7,1.4h2.4c1.5,0,2.9-0.6,3.9-1.6c1-1,1.5-2.3,1.3-3.7c-0.1-1.5-1.4-3.8-4-3.8H29.4z M30.1,43.5
			c-1.1,0-2.2-0.4-3-1.1c-0.8-0.7-1.3-1.8-1.2-2.8v-0.1c0-1.8,1.6-3.3,3.5-3.3h4.2c2.1,0,2.9,2,3,3c0.1,1.1-0.3,2.2-1.1,3l0,0
			c-0.8,0.8-1.9,1.3-3.1,1.3H30.1C30.1,43.5,30.1,43.5,30.1,43.5z M29.4,36.4c-1.8,0-3.3,1.4-3.4,3.1v0.1c0,1,0.4,2,1.2,2.7
			c0.7,0.7,1.8,1.1,2.8,1.1c0,0,0,0,0,0h2.4c1.1,0,2.2-0.4,3-1.2l0,0c0.8-0.8,1.1-1.8,1-2.8c-0.1-0.9-0.9-2.8-2.8-2.8H29.4z"/>
	</g>
	<g>
		<path d="M32.4,44.7h-2.4c-1.5,0-2.9-0.5-3.9-1.5c-1-1-1.6-2.3-1.6-3.7v-0.1c0-2.5,2.2-4.5,4.9-4.5h4.2c2.9,0,4.2,2.5,4.3,4.1
			c0.2,1.4-0.4,2.9-1.4,4C35.5,44.1,34,44.7,32.4,44.7z M29.4,35.4c-2.4,0-4.4,1.8-4.4,4v0.1c0,1.2,0.5,2.4,1.5,3.3
			c1,0.9,2.2,1.4,3.6,1.4h2.4c1.4,0,2.8-0.6,3.7-1.5c1-1,1.4-2.3,1.3-3.6c-0.1-1.4-1.3-3.7-3.9-3.7H29.4z M30.1,43.6
			c-1.1,0-2.3-0.4-3.1-1.2c-0.8-0.8-1.3-1.8-1.3-2.9v-0.1c0-1.9,1.7-3.4,3.7-3.4h4.2c2.2,0,3.1,2.1,3.2,3.1c0.1,1.1-0.3,2.3-1.1,3.1
			l0,0c-0.8,0.8-2,1.3-3.2,1.3H30.1C30.1,43.6,30.1,43.6,30.1,43.6z M29.4,36.5c-1.7,0-3.2,1.3-3.2,2.9v0.1c0,0.9,0.4,1.9,1.1,2.5
			c0.7,0.7,1.7,1.1,2.7,1.1c0,0,0,0,0,0h2.4c1.1,0,2.1-0.4,2.9-1.2l0,0c0.7-0.7,1.1-1.7,1-2.7c-0.1-0.9-0.9-2.7-2.7-2.7H29.4z"/>
		<path d="M32.4,44.8h-2.4c-1.5,0-2.9-0.6-4-1.5c-1.1-1-1.7-2.3-1.6-3.7v-0.1c0-2.5,2.3-4.6,5-4.6h4.2c2.9,0,4.3,2.6,4.4,4.2
			c0.2,1.5-0.4,2.9-1.5,4C35.5,44.2,34,44.8,32.4,44.8z M29.4,35c-2.6,0-4.7,2-4.8,4.4v0.1c0,1.4,0.6,2.6,1.6,3.6
			c1,1,2.4,1.5,3.9,1.5h2.4c1.5,0,3-0.6,4-1.6c1-1.1,1.6-2.5,1.4-3.9c-0.2-1.6-1.4-4-4.2-4H29.4z M32.4,44.3h-2.4
			c-1.4,0-2.7-0.5-3.7-1.4c-1-0.9-1.5-2.1-1.5-3.4v-0.1c0-2.3,2-4.1,4.5-4.1h4.2c2.6,0,3.8,2.3,4,3.8c0.1,1.3-0.3,2.7-1.3,3.6
			C35.3,43.7,33.9,44.3,32.4,44.3z M29.4,35.5c-2.3,0-4.3,1.7-4.3,3.9v0.1c0,1.2,0.5,2.4,1.4,3.2c0.9,0.9,2.2,1.4,3.5,1.4h2.4
			c1.4,0,2.7-0.5,3.7-1.5c0.9-0.9,1.4-2.2,1.3-3.5c-0.1-1.4-1.3-3.6-3.8-3.6H29.4z M32.4,43.7h-2.4c-1.2,0-2.3-0.4-3.1-1.2
			c-0.8-0.8-1.3-1.9-1.3-3v-0.1c0-1.9,1.7-3.5,3.8-3.5h4.2c2.2,0,3.2,2.2,3.3,3.2c0.1,1.2-0.3,2.3-1.2,3.2
			C34.9,43.2,33.7,43.7,32.4,43.7z M29.4,36.1c-2,0-3.6,1.5-3.6,3.3v0.1c0,1.1,0.5,2.1,1.3,2.8c0.8,0.7,1.9,1.2,3,1.2h2.4
			c1.2,0,2.3-0.5,3.2-1.3c0.8-0.8,1.2-1.9,1.1-3c-0.1-1-1-3-3.1-3H29.4z M32.4,43.2h-2.4c-1.1,0-2.1-0.4-2.8-1.1
			c-0.7-0.7-1.2-1.6-1.2-2.6v-0.1c0-1.7,1.5-3,3.3-3h4.2c1.9,0,2.7,1.9,2.8,2.8c0.1,1-0.3,2-1,2.8C34.6,42.8,33.6,43.2,32.4,43.2z
			 M29.4,36.6c-1.7,0-3.1,1.3-3.1,2.8v0.1c0,0.9,0.4,1.8,1.1,2.5c0.7,0.7,1.7,1,2.7,1h2.4c1.1,0,2.1-0.4,2.8-1.1
			c0.7-0.7,1.1-1.7,1-2.7c-0.1-0.8-0.8-2.6-2.6-2.6H29.4z"/>
	</g>
</g>
</svg>
