<?xml version="1.0" encoding="utf-8"?>
<!-- Generator: Adobe Illustrator 23.1.1, SVG Export Plug-In . SVG Version: 6.00 Build 0)  -->
<svg version="1.1" id="Calque_1" xmlns="http://www.w3.org/2000/svg" xmlns:xlink="http://www.w3.org/1999/xlink" x="0px" y="0px"
	 viewBox="0 0 85 85" style="enable-background:new 0 0 85 85;" xml:space="preserve">
<path d="M54.7,46.6c-2,3.4-4.7,6.3-8,8.6L71,78l8-8.6L54.7,46.6z"/>
<path d="M29,55.4C16.3,54.3,6.9,43.1,8,30.4s12.2-22.1,24.9-21s22.1,12.2,21,24.9C53,46,43.4,55.1,31.7,55.5
	C30.8,55.5,29.9,55.5,29,55.4z M32.4,16.4c-8.9-0.8-16.7,5.8-17.4,14.7c-0.8,8.9,5.8,16.7,14.7,17.4c8.9,0.8,16.7-5.8,17.4-14.7
	c0.4-4.9-1.4-9.8-5-13.1C39.4,18.2,36,16.7,32.4,16.4L32.4,16.4z"/>
</svg>
