<?xml version="1.0" encoding="utf-8"?>
<!-- Generator: Adobe Illustrator 23.1.1, SVG Export Plug-In . SVG Version: 6.00 Build 0)  -->
<svg version="1.1" id="Calque_1" xmlns="http://www.w3.org/2000/svg" xmlns:xlink="http://www.w3.org/1999/xlink" x="0px" y="0px"
	 viewBox="0 0 85 55.7" style="enable-background:new 0 0 85 55.7;" xml:space="preserve">
<style type="text/css">
	.st0{opacity:0.9;clip-path:url(#SVGID_2_);}
	.st1{fill:#08F9D6;}
	.st2{fill:#1FFFC4;}
	.st3{fill:none;stroke:#000000;stroke-width:2.8103;stroke-miterlimit:10;}
	.st4{fill:none;}
	.st5{fill:url(#SVGID_13_);}
	.st6{fill:url(#SVGID_14_);}
	.st7{fill:#C7C7C7;}
	.st8{fill:url(#SVGID_15_);}
	.st9{fill:url(#SVGID_16_);}
	.st10{fill:url(#SVGID_17_);}
	.st11{fill:url(#SVGID_18_);}
	.st12{fill:#3E3E3E;}
	.st13{fill:url(#SVGID_19_);}
	.st14{fill:url(#SVGID_20_);}
	.st15{fill:url(#SVGID_21_);}
	.st16{fill:url(#SVGID_22_);}
	.st17{fill:url(#SVGID_23_);}
	.st18{fill:url(#SVGID_24_);}
	.st19{fill:url(#SVGID_27_);}
	.st20{filter:url(#Adobe_OpacityMaskFilter);}
	.st21{filter:url(#Adobe_OpacityMaskFilter_1_);}
	.st22{mask:url(#SVGID_28_);fill:url(#SVGID_29_);}
	.st23{fill:url(#SVGID_30_);}
	.st24{fill:url(#SVGID_31_);}
	.st25{fill:url(#SVGID_32_);}
	.st26{fill:#3B3B3B;}
	.st27{fill:#666666;}
	.st28{fill:url(#SVGID_33_);}
	.st29{fill:url(#SVGID_34_);}
	.st30{fill:url(#SVGID_35_);}
	.st31{fill:url(#SVGID_36_);}
	.st32{fill:url(#SVGID_37_);}
	.st33{fill:url(#SVGID_38_);}
	.st34{filter:url(#Adobe_OpacityMaskFilter_2_);}
	.st35{filter:url(#Adobe_OpacityMaskFilter_3_);}
	.st36{mask:url(#SVGID_39_);fill:url(#SVGID_40_);}
	.st37{fill:url(#SVGID_41_);}
	.st38{fill:url(#SVGID_42_);}
	.st39{fill:url(#SVGID_43_);}
	.st40{clip-path:url(#SVGID_45_);}
	.st41{fill:#FFFFFF;stroke:#000000;stroke-width:0.4645;stroke-miterlimit:10;}
	.st42{fill:#828282;}
	.st43{fill:none;stroke:#FFFFFF;stroke-width:0.4533;stroke-miterlimit:10;}
	.st44{fill:#FFFFFF;}
	.st45{fill:none;stroke:#FFFFFF;stroke-width:0.3461;stroke-miterlimit:10;}
	.st46{fill:#191919;}
	.st47{fill:none;stroke:#FFFFFF;stroke-width:0.178;stroke-miterlimit:10;}
	.st48{fill:none;stroke:#FFFFFF;stroke-width:0.1701;stroke-miterlimit:10;}
	.st49{filter:url(#Adobe_OpacityMaskFilter_4_);}
	.st50{filter:url(#Adobe_OpacityMaskFilter_5_);}
	.st51{mask:url(#SVGID_48_);fill:url(#SVGID_49_);}
	.st52{opacity:0.2;fill:url(#SVGID_50_);}
	.st53{fill:#FFFFFF;stroke:#686868;stroke-width:0.3461;stroke-miterlimit:10;}
	.st54{fill:none;stroke:#FFFFFF;stroke-width:0.3647;stroke-miterlimit:10;}
	.st55{fill:none;stroke:#FFFFFF;stroke-width:1.0353;stroke-miterlimit:10;}
	.st56{fill:none;stroke:#FFFFFF;stroke-width:0.5291;stroke-miterlimit:10;}
	.st57{fill:none;stroke:#FFFFFF;stroke-width:0.8823;stroke-miterlimit:10;}
	.st58{filter:url(#Adobe_OpacityMaskFilter_6_);}
	.st59{filter:url(#Adobe_OpacityMaskFilter_7_);}
	.st60{mask:url(#SVGID_53_);fill:url(#SVGID_54_);}
	.st61{opacity:0.2;fill:url(#SVGID_55_);}
	.st62{fill:#B43FE0;}
	.st63{fill:#26E186;}
	.st64{fill:none;stroke:#000000;stroke-miterlimit:10;}
	.st65{fill:none;stroke:#000000;stroke-width:0.4033;stroke-miterlimit:10;}
	.st66{clip-path:url(#SVGID_57_);}
	.st67{fill:none;stroke:#FFFFFF;stroke-width:0.8873;stroke-miterlimit:10;}
	.st68{fill:#F184FF;}
	.st69{fill:none;stroke:#FFFFFF;stroke-width:0.4033;stroke-miterlimit:10;}
	.st70{fill:none;stroke:#FFFFFF;stroke-width:0.8067;stroke-miterlimit:10;}
	.st71{fill:none;stroke:#FFFFFF;stroke-width:1.6133;stroke-miterlimit:10;}
	.st72{fill:#FFFFFF;stroke:#686868;stroke-width:0.3983;stroke-miterlimit:10;}
	.st73{fill:none;stroke:#FFFFFF;stroke-width:0.8394;stroke-miterlimit:10;}
	.st74{clip-path:url(#SVGID_59_);}
	.st75{fill:none;stroke:#FFFFFF;stroke-width:1.1915;stroke-miterlimit:10;}
	.st76{fill:none;stroke:#FFFFFF;stroke-width:1.259;stroke-miterlimit:10;}
	.st77{fill:none;stroke:#FFFFFF;stroke-width:1.0152;stroke-miterlimit:10;}
	.st78{fill:#A13DF9;}
	.st79{fill:#2E00EF;}
	.st80{fill:none;stroke:#191919;stroke-width:0.5541;stroke-miterlimit:10;}
	.st81{fill:none;stroke:#191919;stroke-width:1.1082;stroke-miterlimit:10;}
	.st82{fill:none;stroke:#191919;stroke-width:1.212;stroke-miterlimit:10;}
	.st83{fill:#191919;stroke:#191919;stroke-width:0.5833;stroke-miterlimit:10;}
	.st84{fill:none;stroke:#FFFFFF;stroke-width:1.087;stroke-miterlimit:10;}
	.st85{fill:none;stroke:#A13DF9;stroke-width:1.212;stroke-miterlimit:10;}
	.st86{fill:none;stroke:#FFFFFF;stroke-width:1.2676;stroke-miterlimit:10;}
	.st87{clip-path:url(#SVGID_61_);}
	.st88{fill:none;stroke:#FFFFFF;stroke-width:1.2258;stroke-miterlimit:10;}
	.st89{enable-background:new    ;}
	.st90{clip-path:url(#SVGID_63_);enable-background:new    ;}
	.st91{fill:#858585;}
	.st92{fill:#8A8A8A;}
	.st93{fill:#8F8F8F;}
	.st94{fill:#949494;}
	.st95{fill:#999999;}
	.st96{fill:#9E9E9E;}
	.st97{fill:#A3A3A3;}
	.st98{fill:#A8A8A8;}
	.st99{fill:#ADADAD;}
	.st100{clip-path:url(#SVGID_65_);enable-background:new    ;}
	.st101{clip-path:url(#SVGID_67_);enable-background:new    ;}
	.st102{clip-path:url(#SVGID_69_);enable-background:new    ;}
	.st103{clip-path:url(#SVGID_71_);enable-background:new    ;}
	.st104{clip-path:url(#SVGID_73_);enable-background:new    ;}
	.st105{fill:#D6D6D6;}
	.st106{clip-path:url(#SVGID_75_);enable-background:new    ;}
	.st107{clip-path:url(#SVGID_77_);enable-background:new    ;}
	.st108{clip-path:url(#SVGID_79_);enable-background:new    ;}
	.st109{fill:#A5A5A5;}
	.st110{fill:#8E8E8E;}
	.st111{fill:#B0B0B0;}
	.st112{fill:#939393;}
	.st113{fill:#B3B3B3;}
	.st114{fill:#898989;}
	.st115{clip-path:url(#SVGID_81_);enable-background:new    ;}
	.st116{clip-path:url(#SVGID_83_);enable-background:new    ;}
	.st117{clip-path:url(#SVGID_85_);enable-background:new    ;}
	.st118{clip-path:url(#SVGID_87_);enable-background:new    ;}
	.st119{clip-path:url(#SVGID_89_);enable-background:new    ;}
	.st120{clip-path:url(#SVGID_91_);enable-background:new    ;}
	.st121{clip-path:url(#SVGID_93_);enable-background:new    ;}
	.st122{fill:#848484;}
	.st123{clip-path:url(#SVGID_95_);enable-background:new    ;}
	.st124{clip-path:url(#SVGID_97_);enable-background:new    ;}
	.st125{clip-path:url(#SVGID_99_);enable-background:new    ;}
	.st126{clip-path:url(#SVGID_101_);enable-background:new    ;}
	.st127{clip-path:url(#SVGID_103_);enable-background:new    ;}
	.st128{clip-path:url(#SVGID_105_);enable-background:new    ;}
	.st129{clip-path:url(#SVGID_107_);enable-background:new    ;}
	.st130{clip-path:url(#SVGID_109_);enable-background:new    ;}
	.st131{clip-path:url(#SVGID_111_);enable-background:new    ;}
	.st132{clip-path:url(#SVGID_113_);enable-background:new    ;}
	.st133{fill:none;stroke:#FFFFFF;stroke-width:1.4447;stroke-miterlimit:10;}
	.st134{fill:none;stroke:#FFFFFF;stroke-width:2.5207;stroke-miterlimit:10;}
	.st135{fill:#FFFFFF;stroke:#A13DF9;stroke-width:1.5068;stroke-miterlimit:10;}
	.st136{clip-path:url(#SVGID_115_);enable-background:new    ;}
	.st137{clip-path:url(#SVGID_117_);enable-background:new    ;}
	.st138{clip-path:url(#SVGID_119_);enable-background:new    ;}
	.st139{clip-path:url(#SVGID_121_);enable-background:new    ;}
	.st140{clip-path:url(#SVGID_123_);enable-background:new    ;}
	.st141{clip-path:url(#SVGID_125_);enable-background:new    ;}
	.st142{clip-path:url(#SVGID_127_);enable-background:new    ;}
	.st143{clip-path:url(#SVGID_129_);enable-background:new    ;}
	.st144{clip-path:url(#SVGID_131_);enable-background:new    ;}
	.st145{clip-path:url(#SVGID_133_);enable-background:new    ;}
	.st146{clip-path:url(#SVGID_135_);enable-background:new    ;}
	.st147{clip-path:url(#SVGID_137_);enable-background:new    ;}
	.st148{clip-path:url(#SVGID_139_);enable-background:new    ;}
	.st149{clip-path:url(#SVGID_141_);enable-background:new    ;}
	.st150{clip-path:url(#SVGID_143_);enable-background:new    ;}
	.st151{clip-path:url(#SVGID_145_);enable-background:new    ;}
	.st152{clip-path:url(#SVGID_147_);enable-background:new    ;}
	.st153{clip-path:url(#SVGID_149_);enable-background:new    ;}
	.st154{clip-path:url(#SVGID_151_);enable-background:new    ;}
	.st155{fill:#08F9D6;stroke:#191919;stroke-width:0.5357;stroke-miterlimit:10;}
	.st156{fill:#FFFFFF;stroke:#191919;stroke-width:1.1187;stroke-miterlimit:10;}
	.st157{clip-path:url(#SVGID_153_);enable-background:new    ;}
	.st158{clip-path:url(#SVGID_155_);enable-background:new    ;}
	.st159{clip-path:url(#SVGID_157_);enable-background:new    ;}
	.st160{clip-path:url(#SVGID_159_);enable-background:new    ;}
	.st161{clip-path:url(#SVGID_161_);enable-background:new    ;}
	.st162{clip-path:url(#SVGID_163_);enable-background:new    ;}
	.st163{clip-path:url(#SVGID_165_);enable-background:new    ;}
	.st164{clip-path:url(#SVGID_167_);enable-background:new    ;}
	.st165{clip-path:url(#SVGID_169_);enable-background:new    ;}
	.st166{clip-path:url(#SVGID_171_);enable-background:new    ;}
	.st167{clip-path:url(#SVGID_173_);enable-background:new    ;}
	.st168{clip-path:url(#SVGID_175_);enable-background:new    ;}
	.st169{clip-path:url(#SVGID_177_);enable-background:new    ;}
	.st170{clip-path:url(#SVGID_179_);enable-background:new    ;}
	.st171{clip-path:url(#SVGID_181_);enable-background:new    ;}
	.st172{fill:#DADADA;}
	.st173{clip-path:url(#SVGID_183_);enable-background:new    ;}
	.st174{clip-path:url(#SVGID_185_);enable-background:new    ;}
	.st175{clip-path:url(#SVGID_187_);enable-background:new    ;}
	.st176{clip-path:url(#SVGID_189_);enable-background:new    ;}
	.st177{clip-path:url(#SVGID_191_);enable-background:new    ;}
	.st178{clip-path:url(#SVGID_193_);enable-background:new    ;}
	.st179{clip-path:url(#SVGID_195_);enable-background:new    ;}
	.st180{clip-path:url(#SVGID_197_);enable-background:new    ;}
	.st181{clip-path:url(#SVGID_199_);enable-background:new    ;}
	.st182{clip-path:url(#SVGID_201_);enable-background:new    ;}
	.st183{clip-path:url(#SVGID_203_);enable-background:new    ;}
	.st184{fill:#808080;}
	.st185{clip-path:url(#SVGID_205_);enable-background:new    ;}
	.st186{clip-path:url(#SVGID_207_);enable-background:new    ;}
	.st187{clip-path:url(#SVGID_209_);enable-background:new    ;}
	.st188{clip-path:url(#SVGID_211_);enable-background:new    ;}
	.st189{clip-path:url(#SVGID_213_);enable-background:new    ;}
	.st190{clip-path:url(#SVGID_215_);enable-background:new    ;}
	.st191{clip-path:url(#SVGID_217_);enable-background:new    ;}
	.st192{clip-path:url(#SVGID_219_);enable-background:new    ;}
	.st193{clip-path:url(#SVGID_221_);enable-background:new    ;}
	.st194{clip-path:url(#SVGID_223_);enable-background:new    ;}
	.st195{clip-path:url(#SVGID_225_);enable-background:new    ;}
	.st196{clip-path:url(#SVGID_227_);enable-background:new    ;}
	.st197{clip-path:url(#SVGID_229_);enable-background:new    ;}
	.st198{fill:#AAAAAA;}
	.st199{clip-path:url(#SVGID_231_);enable-background:new    ;}
	.st200{clip-path:url(#SVGID_233_);enable-background:new    ;}
	.st201{clip-path:url(#SVGID_235_);enable-background:new    ;}
	.st202{clip-path:url(#SVGID_237_);enable-background:new    ;}
	.st203{clip-path:url(#SVGID_239_);enable-background:new    ;}
	.st204{clip-path:url(#SVGID_241_);enable-background:new    ;}
	.st205{clip-path:url(#SVGID_243_);enable-background:new    ;}
	.st206{clip-path:url(#SVGID_245_);enable-background:new    ;}
	.st207{clip-path:url(#SVGID_247_);enable-background:new    ;}
	.st208{clip-path:url(#SVGID_249_);enable-background:new    ;}
	.st209{clip-path:url(#SVGID_251_);enable-background:new    ;}
	.st210{clip-path:url(#SVGID_253_);enable-background:new    ;}
	.st211{clip-path:url(#SVGID_255_);enable-background:new    ;}
	.st212{clip-path:url(#SVGID_257_);enable-background:new    ;}
	.st213{clip-path:url(#SVGID_259_);enable-background:new    ;}
	.st214{clip-path:url(#SVGID_261_);enable-background:new    ;}
	.st215{clip-path:url(#SVGID_263_);enable-background:new    ;}
	.st216{clip-path:url(#SVGID_265_);enable-background:new    ;}
	.st217{fill:#ABABAB;}
	.st218{clip-path:url(#SVGID_267_);enable-background:new    ;}
	.st219{clip-path:url(#SVGID_269_);enable-background:new    ;}
	.st220{clip-path:url(#SVGID_271_);enable-background:new    ;}
	.st221{clip-path:url(#SVGID_273_);enable-background:new    ;}
	.st222{clip-path:url(#SVGID_275_);enable-background:new    ;}
	.st223{clip-path:url(#SVGID_277_);enable-background:new    ;}
	.st224{clip-path:url(#SVGID_279_);enable-background:new    ;}
	.st225{clip-path:url(#SVGID_281_);enable-background:new    ;}
	.st226{clip-path:url(#SVGID_283_);enable-background:new    ;}
	.st227{clip-path:url(#SVGID_285_);enable-background:new    ;}
	.st228{clip-path:url(#SVGID_287_);enable-background:new    ;}
	.st229{clip-path:url(#SVGID_289_);enable-background:new    ;}
	.st230{clip-path:url(#SVGID_291_);enable-background:new    ;}
	.st231{clip-path:url(#SVGID_293_);enable-background:new    ;}
	.st232{clip-path:url(#SVGID_295_);enable-background:new    ;}
	.st233{clip-path:url(#SVGID_297_);enable-background:new    ;}
	.st234{clip-path:url(#SVGID_299_);enable-background:new    ;}
	.st235{clip-path:url(#SVGID_301_);enable-background:new    ;}
	.st236{clip-path:url(#SVGID_303_);enable-background:new    ;}
	.st237{clip-path:url(#SVGID_305_);enable-background:new    ;}
	.st238{clip-path:url(#SVGID_307_);enable-background:new    ;}
	.st239{clip-path:url(#SVGID_309_);enable-background:new    ;}
	.st240{clip-path:url(#SVGID_311_);enable-background:new    ;}
	.st241{clip-path:url(#SVGID_313_);enable-background:new    ;}
	.st242{clip-path:url(#SVGID_315_);enable-background:new    ;}
	.st243{clip-path:url(#SVGID_317_);enable-background:new    ;}
	.st244{clip-path:url(#SVGID_319_);enable-background:new    ;}
	.st245{clip-path:url(#SVGID_321_);enable-background:new    ;}
	.st246{clip-path:url(#SVGID_323_);enable-background:new    ;}
	.st247{clip-path:url(#SVGID_325_);enable-background:new    ;}
	.st248{clip-path:url(#SVGID_327_);enable-background:new    ;}
	.st249{clip-path:url(#SVGID_329_);enable-background:new    ;}
	.st250{clip-path:url(#SVGID_331_);enable-background:new    ;}
	.st251{clip-path:url(#SVGID_333_);enable-background:new    ;}
	.st252{clip-path:url(#SVGID_335_);enable-background:new    ;}
	.st253{clip-path:url(#SVGID_337_);enable-background:new    ;}
	.st254{clip-path:url(#SVGID_339_);enable-background:new    ;}
	.st255{fill:#FFFFFF;stroke:#000000;stroke-width:1.5255;}
	.st256{fill:#F70B4E;}
	.st257{fill:none;stroke:#000000;stroke-width:2.0339;stroke-miterlimit:10;}
	.st258{fill:none;stroke:#191919;stroke-width:0.8599;stroke-miterlimit:10;}
	.st259{fill:none;stroke:#FFFFFF;stroke-width:0.4649;stroke-miterlimit:10;}
	.st260{fill:none;stroke:#191919;stroke-width:1.0392;stroke-miterlimit:10;}
	.st261{fill:#191919;stroke:#191919;stroke-width:0.5001;stroke-miterlimit:10;}
	.st262{fill:none;stroke:#FFFFFF;stroke-width:0.4944;stroke-miterlimit:10;}
	.st263{fill:#FFFFFF;stroke:#686868;stroke-width:0.4092;stroke-miterlimit:10;}
	.st264{fill:none;stroke:#FFFFFF;stroke-width:0.5767;stroke-miterlimit:10;}
	.st265{fill:#FFFFFF;stroke:#191919;stroke-width:1.0712;stroke-miterlimit:10;}
	.st266{fill:#FFFFFF;stroke:#000000;stroke-miterlimit:10;}
	.st267{stroke:#000000;stroke-width:0.843;}
	.st268{clip-path:url(#SVGID_343_);}
	.st269{fill:none;stroke:#FFFFFF;stroke-width:0.487;stroke-miterlimit:10;}
	.st270{fill:#08F9D6;stroke:#070707;stroke-width:1.5048;stroke-miterlimit:10;}
	.st271{fill:#FFFFFF;stroke:#000000;stroke-width:1.336;stroke-miterlimit:10;}
	.st272{fill:none;stroke:#FFFFFF;stroke-width:0.3186;stroke-miterlimit:10;}
	.st273{clip-path:url(#SVGID_345_);}
	.st274{clip-path:url(#SVGID_347_);}
	.st275{clip-path:url(#SVGID_349_);}
	.st276{fill:#FFFFFF;stroke:#000000;stroke-width:0.7497;stroke-miterlimit:10;}
	.st277{fill:#FFFFFF;stroke:#000000;stroke-width:0.7805;stroke-miterlimit:10;}
	.st278{fill:#FFFFFF;stroke:#000000;stroke-width:0.7629;stroke-miterlimit:10;}
	.st279{fill:#08F9D6;stroke:#070707;stroke-width:1.1759;stroke-miterlimit:10;}
	.st280{fill:#FFFFFF;stroke:#000000;stroke-width:1.1024;stroke-miterlimit:10;}
	.st281{fill:#FFFFFF;stroke:#000000;stroke-width:1.8;stroke-miterlimit:10;}
	.st282{fill:#FFA476;}
	.st283{fill:none;stroke:#000000;stroke-width:1.5068;stroke-miterlimit:10;}
	.st284{fill:#FFFFFF;stroke:#000000;stroke-width:1.7556;stroke-miterlimit:10;}
	.st285{fill:#FFFFFF;stroke:#000000;stroke-width:1.9269;stroke-miterlimit:10;}
	.st286{fill:#364EFF;}
	.st287{fill:none;stroke:#000000;stroke-width:1.3967;stroke-miterlimit:10;}
	.st288{fill:#FF245E;}
	.st289{fill:#08F9D6;stroke:#070707;stroke-width:1.7755;stroke-miterlimit:10;}
	.st290{fill:#FFFFFF;stroke:#000000;stroke-width:1.6646;stroke-miterlimit:10;}
	.st291{fill:#FFFFFF;stroke:#000000;stroke-width:2.664;stroke-miterlimit:10;}
	.st292{fill:#FFFFFF;stroke:#000000;stroke-width:1.37;stroke-miterlimit:10;}
	.st293{fill:#FFFFFF;stroke:#000000;stroke-width:0.4598;stroke-miterlimit:10;}
	.st294{fill:#FFFFFF;stroke:#000000;stroke-width:1.1496;stroke-miterlimit:10;}
	.st295{fill:none;stroke:#FFFFFF;stroke-width:0.6758;stroke-miterlimit:10;}
	.st296{fill:#FFFFFF;stroke:#000000;stroke-width:2.5956;stroke-miterlimit:10;}
	.st297{fill:#A6A6A6;}
	.st298{fill:#FFA476;stroke:#070707;stroke-width:1.8248;stroke-miterlimit:10;}
	.st299{fill:#FFFFFF;stroke:#000000;stroke-width:1.8248;stroke-miterlimit:10;}
	.st300{fill:#A13DF9;stroke:#070707;stroke-width:1.8451;stroke-miterlimit:10;}
	.st301{fill:#FFFFFF;stroke:#000000;stroke-width:2.2261;stroke-miterlimit:10;}
	.st302{fill:#FFFFFF;stroke:#000000;stroke-width:1.7209;stroke-miterlimit:10;}
	.st303{stroke:#000000;stroke-width:0.2658;stroke-miterlimit:10;}
	.st304{stroke:#000000;stroke-width:0.3067;stroke-miterlimit:10;}
	.st305{stroke:#000000;stroke-width:0.2634;stroke-miterlimit:10;}
	.st306{fill:#08F9D6;stroke:#070707;stroke-width:0.813;stroke-miterlimit:10;}
	.st307{fill:#FFFFFF;stroke:#000000;stroke-width:0.486;stroke-miterlimit:10;}
	.st308{fill:#08F9D6;stroke:#070707;stroke-width:0.8004;stroke-miterlimit:10;}
	.st309{stroke:#000000;stroke-width:0.5429;stroke-miterlimit:10;}
	.st310{stroke:#000000;stroke-width:0.5385;stroke-miterlimit:10;}
	.st311{stroke:#000000;stroke-width:0.614;stroke-miterlimit:10;}
	.st312{fill:none;stroke:#191919;stroke-width:1.1534;stroke-miterlimit:10;}
	.st313{stroke:#000000;stroke-miterlimit:10;}
	.st314{fill:none;stroke:#000000;stroke-width:1.2604;stroke-miterlimit:10;}
	.st315{fill:none;stroke:#000000;stroke-width:1.4249;stroke-miterlimit:10;}
	.st316{fill:none;stroke:#191919;stroke-width:1.6462;stroke-miterlimit:10;}
	.st317{opacity:0.92;fill:#2E00EF;}
	.st318{clip-path:url(#SVGID_351_);}
	.st319{stroke:#000000;stroke-width:0.2009;stroke-miterlimit:10;}
	.st320{fill:#FFFFFF;stroke:#686868;stroke-width:0.2882;stroke-miterlimit:10;}
	.st321{stroke:#000000;stroke-width:0.1056;stroke-miterlimit:10;}
	.st322{clip-path:url(#SVGID_353_);}
	.st323{fill:none;stroke:#686868;stroke-width:0.4092;stroke-miterlimit:10;}
	.st324{clip-path:url(#SVGID_355_);}
	.st325{clip-path:url(#SVGID_357_);}
	.st326{fill:#08F9D6;stroke:#191919;stroke-width:0.6035;stroke-miterlimit:10;}
	.st327{fill:#08F9D6;stroke:#070707;stroke-width:1.0383;stroke-miterlimit:10;}
	.st328{fill:#FFFFFF;stroke:#000000;stroke-width:0.9734;stroke-miterlimit:10;}
	.st329{opacity:0.9;}
	.st330{fill:#08F9D6;stroke:#070707;stroke-width:0.9789;stroke-miterlimit:10;}
	.st331{fill:#FFFFFF;stroke:#000000;stroke-width:0.9177;stroke-miterlimit:10;}
	.st332{fill:#08F9D6;stroke:#000000;stroke-width:1.1719;stroke-miterlimit:10;}
	.st333{clip-path:url(#SVGID_359_);}
	.st334{clip-path:url(#SVGID_361_);}
	.st335{fill:none;stroke:#191919;stroke-miterlimit:10;}
	.st336{stroke:#000000;stroke-width:0.7435;stroke-miterlimit:10;}
	.st337{fill:none;stroke:#000000;stroke-width:0.937;stroke-miterlimit:10;}
	.st338{fill:none;stroke:#000000;stroke-width:1.0594;stroke-miterlimit:10;}
	.st339{stroke:#000000;stroke-width:0.15;stroke-miterlimit:10;}
	.st340{stroke:#000000;stroke-width:0.1;stroke-miterlimit:10;}
	.st341{stroke:#000000;stroke-width:0.1641;stroke-miterlimit:10;}
	.st342{fill:none;stroke:#191919;stroke-width:1.2925;stroke-miterlimit:10;}
	.st343{clip-path:url(#SVGID_363_);}
	.st344{clip-path:url(#SVGID_365_);}
	.st345{fill:none;stroke:#191919;stroke-width:1.2817;stroke-miterlimit:10;}
	.st346{fill:none;stroke:#191919;stroke-width:1.1365;stroke-miterlimit:10;}
	.st347{fill:#FFFFFF;stroke:#191919;stroke-width:2.1594;stroke-miterlimit:10;}
	.st348{fill:#08F9D6;stroke:#000000;stroke-width:1.1908;stroke-miterlimit:10;}
	.st349{fill:#FFFFFF;stroke:#070707;stroke-width:0.9789;stroke-miterlimit:10;}
	.st350{fill:#08F9D6;stroke:#070707;stroke-width:0.9855;stroke-miterlimit:10;}
	.st351{fill:#FFFFFF;stroke:#000000;stroke-width:0.8944;stroke-miterlimit:10;}
	.st352{fill:#08F9D6;stroke:#070707;stroke-width:0.9859;stroke-miterlimit:10;}
	.st353{fill:#FFFFFF;stroke:#000000;stroke-width:0.9243;stroke-miterlimit:10;}
	.st354{stroke:#000000;stroke-width:0.25;stroke-miterlimit:10;}
	.st355{stroke:#000000;stroke-width:0.1933;stroke-miterlimit:10;}
	.st356{stroke:#000000;stroke-width:0.4986;stroke-miterlimit:10;}
	.st357{stroke:#A6A6A6;stroke-width:0.15;stroke-miterlimit:10;}
	.st358{stroke:#000000;stroke-width:0.193;stroke-miterlimit:10;}
	.st359{stroke:#000000;stroke-width:0.199;stroke-miterlimit:10;}
	.st360{fill:#FFFFFF;stroke:#191919;stroke-width:1.6145;stroke-miterlimit:10;}
	.st361{fill:#08F9D6;stroke:#070707;stroke-width:1.4576;stroke-miterlimit:10;}
	.st362{fill:#FFFFFF;stroke:#000000;stroke-width:1.3665;stroke-miterlimit:10;}
	.st363{fill:#08F9D6;stroke:#070707;stroke-width:1.3742;stroke-miterlimit:10;}
	.st364{fill:#FFFFFF;stroke:#000000;stroke-width:1.2884;stroke-miterlimit:10;}
	.st365{fill:none;stroke:#000000;stroke-width:1.4039;stroke-miterlimit:10;}
	.st366{fill:#08F9D6;stroke:#000000;stroke-width:1.6717;stroke-miterlimit:10;}
	.st367{fill:#FFFFFF;stroke:#070707;stroke-width:1.3742;stroke-miterlimit:10;}
	.st368{fill:#FFFFFF;stroke:#000000;stroke-width:1.4039;stroke-miterlimit:10;}
	.st369{fill:#08F9D6;stroke:#070707;stroke-width:1.3841;stroke-miterlimit:10;}
	.st370{fill:#FFFFFF;stroke:#000000;stroke-width:1.2976;stroke-miterlimit:10;}
	.st371{fill:#08F9D6;stroke:#070707;stroke-width:1.3835;stroke-miterlimit:10;}
	.st372{fill:#FFFFFF;stroke:#000000;stroke-width:1.2556;stroke-miterlimit:10;}
	.st373{fill:#FFFFFF;stroke:#191919;stroke-width:0.8217;stroke-miterlimit:10;}
	.st374{fill:none;stroke:#191919;stroke-width:0.7444;stroke-miterlimit:10;}
	.st375{clip-path:url(#SVGID_369_);}
	.st376{fill:none;stroke:#FFFFFF;stroke-width:0.4424;stroke-miterlimit:10;}
	.st377{clip-path:url(#SVGID_371_);}
	.st378{fill:none;stroke:#FFFFFF;stroke-width:0.2222;stroke-miterlimit:10;}
	.st379{fill:#FFFFFF;stroke:#191919;stroke-width:0.8204;stroke-miterlimit:10;}
	.st380{stroke:#FFFFFF;stroke-width:0.2155;stroke-miterlimit:10;}
	.st381{stroke:#000000;stroke-width:0.1416;stroke-miterlimit:10;}
	.st382{stroke:#000000;stroke-width:0.1822;stroke-miterlimit:10;}
	.st383{stroke:#000000;stroke-width:0.1879;stroke-miterlimit:10;}
	.st384{fill:#A13DF9;stroke:#070707;stroke-width:0.9855;stroke-miterlimit:10;}
	.st385{fill:#FFA476;stroke:#070707;stroke-width:0.9855;stroke-miterlimit:10;}
	.st386{stroke:#FFFFFF;stroke-width:0.2275;stroke-miterlimit:10;}
	.st387{stroke:#000000;stroke-width:0.1495;stroke-miterlimit:10;}
	.st388{stroke:#000000;stroke-width:0.1923;stroke-miterlimit:10;}
	.st389{stroke:#000000;stroke-width:0.1983;stroke-miterlimit:10;}
	.st390{fill:#364EFF;stroke:#070707;stroke-width:0.9855;stroke-miterlimit:10;}
	.st391{fill:none;stroke:#191919;stroke-width:1.1639;stroke-miterlimit:10;}
	.st392{stroke:#000000;stroke-width:0.1177;stroke-miterlimit:10;}
	.st393{stroke:#000000;stroke-width:7.849640e-02;stroke-miterlimit:10;}
	.st394{stroke:#000000;stroke-width:0.1275;stroke-miterlimit:10;}
	.st395{stroke:#000000;stroke-width:8.498526e-02;stroke-miterlimit:10;}
	.st396{stroke:#000000;stroke-width:8.898332e-02;stroke-miterlimit:10;}
	.st397{clip-path:url(#SVGID_375_);}
	.st398{clip-path:url(#SVGID_377_);}
	.st399{fill:#FFFFFF;stroke:#FFFFFF;stroke-width:7.424556e-02;stroke-miterlimit:10;}
	.st400{fill:#FFFFFF;stroke:#FFFFFF;stroke-width:8.124047e-02;stroke-miterlimit:10;}
	.st401{fill:none;stroke:#FFFFFF;stroke-width:0.6398;stroke-miterlimit:10;}
	.st402{fill:#FFFFFF;stroke:#000000;stroke-width:0.1237;stroke-miterlimit:10;}
	.st403{fill:#FFFFFF;stroke:#FFFFFF;stroke-width:9.552929e-02;stroke-miterlimit:10;}
	.st404{fill:#FFFFFF;stroke:#FFFFFF;stroke-width:9.849911e-02;stroke-miterlimit:10;}
	.st405{fill:none;stroke:#FFFFFF;stroke-width:0.6801;stroke-miterlimit:10;}
	.st406{fill:none;stroke:#FFFFFF;stroke-width:0.724;stroke-miterlimit:10;}
	.st407{stroke:#000000;stroke-width:0.1642;stroke-miterlimit:10;}
	.st408{stroke:#000000;stroke-width:0.1562;stroke-miterlimit:10;}
	.st409{stroke:#000000;stroke-width:0.1042;stroke-miterlimit:10;}
	.st410{fill:none;stroke:#020202;stroke-miterlimit:10;}
	.st411{fill:none;stroke:#000000;stroke-width:0.9474;stroke-miterlimit:10;}
	.st412{fill:none;stroke:#000000;stroke-width:0.8857;stroke-miterlimit:10;}
	.st413{fill:none;stroke:#000000;stroke-width:0.9514;stroke-miterlimit:10;}
	.st414{fill:none;stroke:#000000;stroke-width:0.9917;stroke-miterlimit:10;}
	.st415{fill:none;stroke:#000000;stroke-width:0.9396;stroke-miterlimit:10;}
	.st416{fill:none;stroke:#020202;stroke-width:1.2837;stroke-miterlimit:10;}
	.st417{fill:none;stroke:#000000;stroke-width:0.9982;stroke-miterlimit:10;}
	.st418{fill:none;stroke:#000000;stroke-width:0.9941;stroke-miterlimit:10;}
	.st419{fill:#FFFFFF;stroke:#000000;stroke-width:0.25;stroke-miterlimit:10;}
	.st420{fill:#070707;}
	.st421{fill:#08F9D6;stroke:#070707;stroke-width:2.5951;stroke-miterlimit:10;}
	.st422{fill:#FFFFFF;stroke:#000000;stroke-width:2.3551;stroke-miterlimit:10;}
	.st423{stroke:#FFFFFF;stroke-width:0.6175;stroke-miterlimit:10;}
	.st424{stroke:#FFFFFF;stroke-width:0.6105;stroke-miterlimit:10;}
	.st425{stroke:#FFFFFF;stroke-width:0.6189;stroke-miterlimit:10;}
	.st426{fill:#08F9D6;stroke:#070707;stroke-width:3.3186;stroke-miterlimit:10;}
	.st427{fill:#FFFFFF;stroke:#000000;stroke-width:3.5163;stroke-miterlimit:10;}
	.st428{stroke:#FFFFFF;stroke-width:0.3532;stroke-miterlimit:10;}
	.st429{stroke:#FFFFFF;stroke-width:0.3493;stroke-miterlimit:10;}
	.st430{stroke:#FFFFFF;stroke-width:0.354;stroke-miterlimit:10;}
	.st431{fill:#08F9D6;stroke:#070707;stroke-width:1.8984;stroke-miterlimit:10;}
	.st432{fill:#FFFFFF;stroke:#000000;stroke-width:2.0115;stroke-miterlimit:10;}
	.st433{fill:#FFFFFF;stroke:#000000;stroke-width:1.5068;stroke-miterlimit:10;}
	.st434{fill:#08F9D6;stroke:#070707;stroke-width:2.4301;stroke-miterlimit:10;}
	.st435{fill:#FFFFFF;stroke:#000000;stroke-width:2.5748;stroke-miterlimit:10;}
	.st436{fill:#FFFFFF;stroke:#000000;stroke-width:0.6337;stroke-miterlimit:10;}
	.st437{fill:#A13DF9;stroke:#070707;stroke-width:2.4301;stroke-miterlimit:10;}
	.st438{fill:#364EFF;stroke:#070707;stroke-width:2.4301;stroke-miterlimit:10;}
	.st439{fill:#FFFFFF;stroke:#000000;stroke-width:2.3307;stroke-miterlimit:10;}
	.st440{fill:#FFFFFF;stroke:#000000;stroke-width:2.071;stroke-miterlimit:10;}
	.st441{fill:#FFA476;stroke:#070707;stroke-width:2.4301;stroke-miterlimit:10;}
	.st442{fill:#FFFFFF;stroke:#000000;stroke-width:2.8208;stroke-miterlimit:10;}
	.st443{fill:#FFA476;stroke:#070707;stroke-width:1.9481;stroke-miterlimit:10;}
	.st444{fill:#FFFFFF;stroke:#000000;stroke-width:2.2614;stroke-miterlimit:10;}
	.st445{fill:#A13DF9;stroke:#070707;stroke-width:1.9481;stroke-miterlimit:10;}
	.st446{fill:#FFFFFF;stroke:#000000;stroke-width:0.5402;stroke-miterlimit:10;}
	.st447{fill:#364EFF;stroke:#070707;stroke-width:1.8984;stroke-miterlimit:10;}
	.st448{fill:none;stroke:#FFFFFF;stroke-width:0.7069;stroke-miterlimit:10;}
	.st449{fill:none;stroke:#070707;stroke-width:1.8984;stroke-miterlimit:10;}
	.st450{fill:#FFFFFF;stroke:#FFFFFF;stroke-width:0.6915;stroke-miterlimit:10;}
	.st451{stroke:#000000;stroke-width:0.5168;stroke-miterlimit:10;}
	.st452{fill:none;stroke:#A6A6A6;stroke-width:1.868;stroke-miterlimit:10;}
	.st453{fill:none;stroke:#000000;stroke-width:1.698;stroke-miterlimit:10;}
	.st454{fill:#FFFFFF;stroke:#191919;stroke-width:2.4414;stroke-miterlimit:10;}
	.st455{fill:none;stroke:#191919;stroke-width:1.1335;stroke-miterlimit:10;}
	.st456{opacity:0.9;fill:#FF245E;}
	.st457{opacity:0.9;fill:#364EFF;}
	.st458{opacity:0.9;fill:#A13DF9;}
	.st459{fill:#FFD800;}
	.st460{fill:none;stroke:#000000;stroke-width:1.1782;stroke-miterlimit:10;}
	.st461{stroke:#000000;stroke-width:0.325;stroke-miterlimit:10;}
	.st462{stroke:#000000;stroke-width:0.2255;stroke-miterlimit:10;}
	.st463{fill:none;stroke:#000000;stroke-linecap:round;stroke-linejoin:round;stroke-miterlimit:10;}
	.st464{stroke:#000000;stroke-width:0.206;stroke-miterlimit:10;}
	.st465{stroke:#000000;stroke-width:0.1967;stroke-miterlimit:10;}
	.st466{stroke:#000000;stroke-width:0.326;stroke-miterlimit:10;}
	.st467{stroke:#000000;stroke-width:0.3;stroke-linecap:round;stroke-linejoin:round;stroke-miterlimit:10;}
	.st468{stroke:#000000;stroke-width:0.107;stroke-miterlimit:10;}
	.st469{fill:none;stroke:#000000;stroke-width:1.0431;stroke-linecap:round;stroke-linejoin:round;stroke-miterlimit:10;}
	.st470{fill:none;stroke:#000000;stroke-width:0.88;stroke-miterlimit:10;}
	.st471{clip-path:url(#SVGID_379_);}
	.st472{fill:none;stroke:#000000;stroke-width:1.02;stroke-miterlimit:10;}
	.st473{fill:#FFFFFF;stroke:#000000;stroke-width:1.02;stroke-miterlimit:10;}
	.st474{stroke:#000000;stroke-width:0.2528;stroke-linecap:round;stroke-linejoin:round;stroke-miterlimit:10;}
	.st475{fill:none;stroke:#000000;stroke-width:1.3;stroke-miterlimit:10;}
</style>
<g id="Outline_3_">
	<g>
		<g>
			<path d="M70.4,24c0-0.1,0-0.2,0-0.4c0-2.1-1.7-3.8-3.8-3.8c-1,0-2,0.4-2.7,1.1c-0.4,0-0.7-0.1-1.1-0.1h-0.5c-0.1,0-0.2,0-0.2,0.1
				L41.2,31.3c-0.2,0.1-0.3,0.3-0.3,0.5l0,0v6c0,0.3,0.2,0.5,0.5,0.5H45c0.5,0,0.8,0.4,0.8,0.8v1.1c0,1.1,0.9,1.9,1.9,1.9
				s1.9-0.9,1.9-1.9v-1.1c0-0.5,0.4-0.8,0.8-0.8h22.1v4.9h-1.9c-1.1,0-1.9,0.9-1.9,1.9v0.5c0,0.5-0.4,0.8-0.8,0.8
				c-0.5,0-0.8-0.4-0.8-0.8v-0.5c0-1.1-0.9-1.9-1.9-1.9c-1.1,0-1.9,0.9-1.9,1.9v3.3c0,0.5-0.4,0.8-0.8,0.8c-0.5,0-0.8-0.4-0.8-0.8
				v-3.3c0-1.1-0.9-1.9-1.9-1.9H42v-5.5h-1.1v10.5c0,1.2,1,2.2,2.2,2.2h19.1v-1.1H43.1c-0.6,0-1.1-0.5-1.1-1.1v-3.8h17.7
				c0.5,0,0.8,0.4,0.8,0.8v3.3c0,1.1,0.9,1.9,1.9,1.9c1.1,0,1.9-0.9,1.9-1.9v-3.3c0-0.5,0.4-0.8,0.8-0.8s0.8,0.4,0.8,0.8v0.5
				c0,1.1,0.9,1.9,1.9,1.9c1.1,0,1.9-0.9,1.9-1.9v-0.5c0-0.5,0.4-0.8,0.8-0.8h1.9v3.8c0,0.6-0.5,1.1-1.1,1.1h-9.7v1.1h9.7
				c1.2,0,2.2-1,2.2-2.2V31.8C73.6,28.9,72.5,26,70.4,24z M66.5,20.9c1.5,0,2.7,1.2,2.7,2.7s-1.2,2.7-2.7,2.7s-2.7-1.2-2.7-2.7
				C63.8,22.1,65,20.9,66.5,20.9z M62.3,22h0.4c0.1,0,0.2,0,0.4,0c-0.9,1.9-0.1,4.2,1.8,5.1c1.9,0.9,4.2,0.1,5.1-1.8c0,0,0,0,0,0
				c1.5,1.7,2.4,3.8,2.5,6H43.7L62.3,22z M50.4,37.3c-1.1,0-1.9,0.9-1.9,1.9v1.1c0,0.5-0.4,0.8-0.8,0.8s-0.8-0.4-0.8-0.8v-1.1
				c0-1.1-0.9-1.9-1.9-1.9h-3v-4.9h30.6v4.9H50.4z M59.2,25.8l1.1,0l0,2.3l-1.1,0L59.2,25.8z M55.7,27.3l1.6,1.6l-0.8,0.8l-1.6-1.6
				L55.7,27.3z M70.5,28.8l-2,1.2L67.9,29l2-1.2L70.5,28.8z M62.5,28l2,0.8l-0.3,0.9l-2-0.8L62.5,28z M51.2,28.7h2v1.1h-2V28.7z"/>
			<path d="M71.5,50.5H43.1c-1.3,0-2.3-1-2.3-2.3V31.8c0-0.2,0.1-0.5,0.4-0.6l20.8-10.4c0.1,0,0.2-0.1,0.3-0.1h0.5
				c0.3,0,0.7,0,1.1,0.1c0.7-0.7,1.7-1.1,2.8-1.1c0,0,0,0,0,0c1,0,2,0.4,2.8,1.1s1.1,1.7,1.1,2.8c0,0.1,0,0.2,0,0.3
				c2.1,2.1,3.3,4.9,3.3,7.9v16.4C73.7,49.4,72.7,50.5,71.5,50.5z M63.3,50.3h8.1c1.1,0,2.1-0.9,2.1-2.1V31.8c0-2.9-1.2-5.7-3.3-7.7
				l0,0l0,0c0-0.1,0-0.2,0-0.4c0-1-0.4-1.9-1.1-2.6s-1.6-1.1-2.6-1.1c0,0,0,0,0,0c-1,0-2,0.4-2.7,1.1l0,0l0,0
				c-0.4,0-0.7-0.1-1.1-0.1h-0.5c-0.1,0-0.1,0-0.2,0L41.2,31.4c-0.1,0.1-0.2,0.2-0.2,0.4v5.8h1.1v0.6H45c0.5,0,0.9,0.4,0.9,0.9v1.1
				c0,1,0.8,1.8,1.8,1.8s1.8-0.8,1.8-1.8v-1.1c0-0.5,0.4-0.9,0.9-0.9h22.2v5.1h-2c-1,0-1.8,0.8-1.8,1.8v0.5c0,0.5-0.4,0.9-0.9,0.9
				S67,46.2,67,45.7v-0.5c0-1-0.8-1.8-1.8-1.8s-1.8,0.8-1.8,1.8v3.3c0,0.3-0.1,0.6-0.3,0.7h1.1c0.1-0.2,0.1-0.5,0.1-0.7v-3.3
				c0-0.5,0.4-0.9,0.9-0.9s0.9,0.4,0.9,0.9v0.5c0,1,0.8,1.8,1.8,1.8s1.8-0.8,1.8-1.8v-0.5c0-0.5,0.4-0.9,0.9-0.9h2v3.9
				c0,0.7-0.5,1.2-1.2,1.2h-7.2C64,49.8,63.7,50.1,63.3,50.3z M62.3,50.3c0.1,0,0.1,0,0.2,0c0.7,0,1.2-0.4,1.6-0.9h-1.8V50.3z
				 M41,38.3v9.9c0,1.1,0.9,2.1,2.1,2.1h18.5c-0.4-0.2-0.7-0.5-0.9-0.9H43.1c-0.7,0-1.2-0.5-1.2-1.2v-3.9h17.8
				c0.5,0,0.9,0.4,0.9,0.9v3.3c0,0.3,0.1,0.5,0.1,0.7h1.1c-0.2-0.2-0.3-0.4-0.3-0.7v-3.3c0-1-0.8-1.8-1.8-1.8H41.9v-4.9h-0.4
				C41.3,38.5,41.1,38.4,41,38.3z M61.8,50.2c0.1,0,0.1,0,0.2,0.1v-0.8h-0.2V50.2z M60.9,49.4c0.2,0.3,0.4,0.5,0.7,0.7v-0.7H60.9z
				 M64.3,49.2h7.1c0.5,0,1-0.4,1-1v-3.7h-1.8c-0.4,0-0.7,0.3-0.7,0.7v0.5c0,1.1-0.9,2-2,2s-2-0.9-2-2v-0.5c0-0.4-0.3-0.7-0.7-0.7
				s-0.7,0.3-0.7,0.7v3.3C64.5,48.7,64.4,49,64.3,49.2z M62.5,49.2c0.4,0,0.7-0.3,0.7-0.7v-3.3c0-1.1,0.9-2,2-2s2,0.9,2,2v0.5
				c0,0.4,0.3,0.7,0.7,0.7s0.7-0.3,0.7-0.7v-0.5c0-1.1,0.9-2,2-2h1.8v-4.7h-22c-0.4,0-0.7,0.3-0.7,0.7v1.1c0,1.1-0.9,2-2,2
				s-2-0.9-2-2v-1.1c0-0.4-0.3-0.7-0.7-0.7h-2.9v4.7h17.6c1.1,0,2,0.9,2,2v3.3C61.7,48.9,62.1,49.2,62.5,49.2z M42.1,44.5v3.7
				c0,0.5,0.4,1,1,1h17.5c-0.1-0.2-0.1-0.5-0.1-0.7v-3.3c0-0.4-0.3-0.7-0.7-0.7H42.1z M41,37.8c0,0.2,0.2,0.4,0.4,0.4h0.4v-0.4H41z
				 M47.7,41.2c-0.5,0-0.9-0.4-0.9-0.9v-1.1c0-1-0.8-1.8-1.8-1.8h-3.1v-5.1h30.8v5.1H50.4c-1,0-1.8,0.8-1.8,1.8v1.1
				C48.6,40.8,48.2,41.2,47.7,41.2z M42.1,37.2H45c1.1,0,2,0.9,2,2v1.1c0,0.4,0.3,0.7,0.7,0.7s0.7-0.3,0.7-0.7v-1.1c0-1.1,0.9-2,2-2
				h22v-4.7H42.1V37.2z M72.6,31.4H43.3l19-9.5h0.4c0.1,0,0.2,0,0.4,0l0.2,0L63.2,22c-0.9,1.9-0.1,4.1,1.8,5
				c0.9,0.4,1.9,0.5,2.8,0.1s1.7-1,2.1-1.9L70,25l0.1,0.1c1.5,1.7,2.4,3.8,2.5,6.1L72.6,31.4z M44.2,31.2h28.3
				c-0.1-2.1-1-4.2-2.4-5.8c-0.5,0.9-1.2,1.6-2.2,1.9c-1,0.4-2,0.3-3-0.1c-1.9-0.9-2.8-3.2-1.9-5.1c-0.1,0-0.1,0-0.2,0h-0.4
				L44.2,31.2z M68.4,30.1L67.8,29l2.2-1.3l0.7,1.1l-0.1,0.1L68.4,30.1z M68,29.1l0.5,0.8l1.8-1.1L69.9,28L68,29.1z M53.3,29.9h-2.2
				v-1.3h2.2V29.9z M51.3,29.7h1.8v-0.9h-1.8V29.7z M56.6,29.9L56.6,29.9l-1.8-1.8l0.9-0.9l0.1,0.1l1.7,1.7L56.6,29.9z M55.1,28.1
				l1.5,1.5l0.6-0.6l-1.5-1.5L55.1,28.1z M64.3,29.7L62,28.9l0.4-1.1l2.2,0.8L64.3,29.7z M62.3,28.8l1.9,0.7l0.3-0.7l-1.9-0.7
				L62.3,28.8z M60.3,28.2l-1.3,0l0-2.5l1.3,0L60.3,28.2z M59.3,28l0.9,0l0-2.1l-0.9,0L59.3,28z M66.5,26.4c-1.6,0-2.8-1.3-2.8-2.8
				c0-1.6,1.3-2.8,2.8-2.8l0,0c1.6,0,2.8,1.3,2.8,2.8S68.1,26.4,66.5,26.4z M66.5,21c-1.4,0-2.6,1.2-2.6,2.6c0,1.5,1.2,2.6,2.6,2.6
				s2.6-1.2,2.6-2.6S68,21,66.5,21L66.5,21z"/>
		</g>
		<g>
			<path d="M71.5,50.6H43.1c-1.4,0-2.5-1.1-2.5-2.5l0-16.4c0-0.3,0.2-0.6,0.4-0.7l20.8-10.4c0.1-0.1,0.2-0.1,0.4-0.1h0.5
				c0.3,0,0.7,0,1,0c0.8-0.7,1.8-1.1,2.8-1.1c0,0,0,0,0,0c1.1,0,2.1,0.4,2.9,1.2c0.8,0.8,1.2,1.8,1.2,2.9c0,0.1,0,0.2,0,0.3
				c2.1,2.1,3.3,5,3.3,7.9v16.4C73.9,49.5,72.8,50.6,71.5,50.6z M63.9,50.1h7.6c1.1,0,1.9-0.9,1.9-1.9V31.8c0-2.9-1.2-5.6-3.2-7.6
				l-0.1-0.1l0-0.1c0-0.1,0-0.2,0-0.3c0-0.9-0.4-1.8-1-2.5c-0.7-0.7-1.6-1-2.5-1c0,0,0,0,0,0c-0.9,0-1.9,0.4-2.5,1.1l-0.1,0.1
				l-0.1,0c-0.4,0-0.7-0.1-1.1-0.1h-0.5c0,0-0.1,0-0.1,0L41.3,31.6c-0.1,0-0.2,0.1-0.2,0.2v5.7h0.6v-5.4h31.1v5.4H50.4
				c-0.9,0-1.6,0.7-1.6,1.6v1.1c0,0.6-0.5,1.1-1.1,1.1s-1.1-0.5-1.1-1.1v-1.1c0-0.9-0.7-1.6-1.6-1.6h-2.7v0.6H45
				c0.6,0,1.1,0.5,1.1,1.1v1.1c0,0.9,0.7,1.6,1.6,1.6s1.6-0.7,1.6-1.6v-1.1c0-0.6,0.5-1.1,1.1-1.1h22.4v5.4h-2.2
				c-0.9,0-1.6,0.7-1.6,1.6v0.5c0,0.6-0.5,1.1-1.1,1.1s-1.1-0.5-1.1-1.1v-0.5c0-0.9-0.7-1.6-1.6-1.6c-0.9,0-1.6,0.7-1.6,1.6v3.3
				c0,0.2-0.1,0.4-0.2,0.6H64c0.1-0.2,0.1-0.4,0.1-0.6v-3.3c0-0.6,0.5-1.1,1.1-1.1s1.1,0.5,1.1,1.1v0.5c0,0.9,0.7,1.6,1.6,1.6
				s1.6-0.7,1.6-1.6v-0.5c0-0.6,0.5-1.1,1.1-1.1h2.2v4.1c0,0.7-0.6,1.4-1.4,1.4h-7.1C64.2,49.8,64.1,49.9,63.9,50.1z M62.4,50.1
				c0.5,0,1-0.2,1.3-0.6h-1.3V50.1z M41.1,38.6v9.6c0,1.1,0.9,1.9,1.9,1.9h18c-0.2-0.2-0.3-0.3-0.5-0.6H43.1c-0.7,0-1.4-0.6-1.4-1.4
				v-4.1h18c0.6,0,1.1,0.5,1.1,1.1v3.3c0,0.2,0,0.4,0.1,0.6h0.6c-0.1-0.2-0.2-0.4-0.2-0.6v-3.3c0-0.9-0.7-1.6-1.6-1.6h-18v-4.9h-0.3
				C41.3,38.6,41.2,38.6,41.1,38.6z M61.2,49.5c0.1,0.1,0.2,0.2,0.2,0.2v-0.2H61.2z M64.6,49h6.9c0.5,0,0.8-0.4,0.8-0.8v-3.6h-1.6
				c-0.3,0-0.6,0.2-0.6,0.6v0.5c0,1.2-1,2.2-2.2,2.2s-2.2-1-2.2-2.2v-0.5c0-0.3-0.2-0.6-0.6-0.6s-0.6,0.2-0.6,0.6v3.3
				C64.6,48.7,64.6,48.8,64.6,49z M62.5,49c0.3,0,0.6-0.2,0.6-0.6v-3.3c0-1.2,1-2.2,2.2-2.2c1.2,0,2.2,1,2.2,2.2v0.5
				c0,0.3,0.2,0.6,0.6,0.6s0.6-0.2,0.6-0.6v-0.5c0-1.2,1-2.2,2.2-2.2h1.6v-4.4H50.4c-0.3,0-0.6,0.2-0.6,0.6v1.1c0,1.2-1,2.2-2.2,2.2
				s-2.2-1-2.2-2.2v-1.1c0-0.3-0.2-0.6-0.6-0.6h-2.7V43h17.5c1.2,0,2.2,1,2.2,2.2v3.3C61.9,48.8,62.1,49,62.5,49z M42.2,44.6v3.6
				c0,0.5,0.4,0.8,0.8,0.8h17.3c0-0.2-0.1-0.4-0.1-0.6v-3.3c0-0.3-0.2-0.6-0.6-0.6H42.2z M42.2,37H45c1.2,0,2.2,1,2.2,2.2v1.1
				c0,0.3,0.2,0.6,0.6,0.6s0.6-0.2,0.6-0.6v-1.1c0-1.2,1-2.2,2.2-2.2h21.9v-4.4h-30V37z M41.2,38c0.1,0.1,0.1,0.1,0.2,0.1h0.3V38
				H41.2z M72.8,31.5H42.6l19.7-9.8h0.4c0.1,0,0.2,0,0.4,0l0.4,0l-0.2,0.4c-0.4,0.9-0.5,1.8-0.1,2.7c0.3,0.9,1,1.6,1.8,2
				c1.8,0.8,3.9,0.1,4.7-1.7l0.2-0.4l0.3,0.3c1.5,1.7,2.5,3.9,2.6,6.2L72.8,31.5z M44.9,31h27.4c-0.2-1.9-0.9-3.8-2.2-5.3
				c-1.1,1.8-3.4,2.5-5.3,1.6c-1-0.5-1.7-1.3-2.1-2.3c-0.3-0.9-0.3-1.9,0-2.8h-0.3L44.9,31z M68.4,30.4L67.5,29l2.4-1.5l0.8,1.4
				L68.4,30.4z M68.3,29.1l0.3,0.5l1.5-0.9l-0.3-0.5L68.3,29.1z M56.6,30.1l-2-2l1.1-1.1l2,2L56.6,30.1z M55.3,28.1l1.3,1.3L57,29
				l-1.3-1.3L55.3,28.1z M53.4,30.1h-2.5v-1.6h2.5V30.1z M51.4,29.6h1.5V29h-1.5V29.6z M64.4,30L61.8,29l0.5-1.4l2.5,0.9L64.4,30z
				 M62.5,28.7l1.5,0.6l0.1-0.4l-1.5-0.6L62.5,28.7z M60.5,28.4l-1.6,0l0-2.8l1.6,0L60.5,28.4z M59.4,27.8l0.6,0l0-1.8l-0.6,0
				L59.4,27.8z M66.5,26.6c-1.7,0-3-1.3-3-3c0-1.7,1.3-3,3-3l0,0c1.7,0,3,1.3,3,3S68.2,26.6,66.5,26.6z M66.5,21.2
				c-1.4,0-2.5,1.1-2.5,2.5c0,1.4,1.1,2.5,2.5,2.5S69,25,69,23.6C69,22.3,67.9,21.2,66.5,21.2L66.5,21.2z"/>
			<path d="M71.5,50.7H43.1c-1.4,0-2.6-1.1-2.6-2.6l0-16.4c0-0.3,0.2-0.7,0.5-0.8l20.8-10.4c0.1-0.1,0.3-0.1,0.4-0.1h0.5
				c0.3,0,0.6,0,1,0c0.8-0.7,1.8-1.1,2.9-1.1c1.1,0,2.2,0.4,3,1.2c0.8,0.8,1.2,1.8,1.2,3c0,0.1,0,0.2,0,0.2c2.1,2.1,3.3,5,3.3,8
				v16.4C74,49.6,72.9,50.7,71.5,50.7z M62.2,20.7c-0.1,0-0.2,0-0.3,0.1L41.1,31.2c-0.2,0.1-0.4,0.4-0.4,0.6l0,16.4
				c0,1.3,1.1,2.4,2.4,2.4h28.4c1.3,0,2.3-1.1,2.4-2.4V31.8c0-2.9-1.2-5.8-3.3-7.8l0,0l0,0c0-0.1,0-0.2,0-0.3c0-1.1-0.4-2.1-1.2-2.8
				s-1.8-1.2-2.8-1.2c-1,0-2,0.4-2.8,1.1l0,0l0,0c-0.3,0-0.7,0-1,0H62.2z M62.3,50.2v-0.8h1.6l-0.1,0.2c-0.3,0.4-0.8,0.6-1.3,0.6
				L62.3,50.2z M62.5,49.6V50c0.3,0,0.7-0.2,0.9-0.4H62.5z M71.5,50.2h-7.9l0.2-0.2c0.2-0.2,0.3-0.3,0.4-0.5l0,0h7.2
				c0.7,0,1.3-0.6,1.3-1.3v-4h-2.1c-0.5,0-1,0.4-1,1v0.5c0,1-0.8,1.7-1.7,1.7s-1.7-0.8-1.7-1.7v-0.5c0-0.5-0.4-1-1-1s-1,0.4-1,1v3.3
				c0,0.2,0,0.4-0.1,0.6l0,0.1h-0.9l0.1-0.2c0.1-0.2,0.1-0.3,0.1-0.5v-3.3c0-1,0.8-1.7,1.7-1.7s1.7,0.8,1.7,1.7v0.5c0,0.5,0.4,1,1,1
				s1-0.4,1-1v-0.5c0-1,0.8-1.7,1.7-1.7h2.1v-5.2H50.4c-0.5,0-1,0.4-1,1v1.1c0,1-0.8,1.7-1.7,1.7S46,41.2,46,40.3v-1.1
				c0-0.5-0.4-1-1-1h-2.8v-0.8H45c1,0,1.7,0.8,1.7,1.7v1.1c0,0.5,0.4,1,1,1c0.5,0,1-0.4,1-1v-1.1c0-1,0.8-1.7,1.7-1.7h22.3v-5.2
				H41.8v5.4H41v-5.8c0-0.1,0.1-0.3,0.2-0.3L62,21.1c0,0,0.1,0,0.2,0h0.5c0.4,0,0.7,0,1.1,0.1l0.1,0l0.1-0.1
				c0.7-0.7,1.6-1.1,2.6-1.1c1,0,1.9,0.4,2.6,1.1s1.1,1.6,1.1,2.6c0,0.1,0,0.2,0,0.4l0,0.1l0.1,0.1c2.1,2,3.2,4.8,3.2,7.7v16.4
				C73.5,49.3,72.6,50.2,71.5,50.2z M64.1,50h7.3c1,0,1.8-0.8,1.8-1.8V31.8c0-2.8-1.2-5.6-3.2-7.6L70,24.1l0-0.2c0-0.1,0-0.2,0-0.3
				c0-0.9-0.4-1.8-1-2.4c-0.7-0.7-1.5-1-2.4-1c-0.9,0-1.8,0.4-2.5,1L64,21.3l-0.2,0c-0.4,0-0.7-0.1-1.1-0.1h-0.5c0,0-0.1,0-0.1,0
				L41.3,31.6c-0.1,0-0.1,0.1-0.1,0.2v5.6h0.4V32h31.3v5.6H50.4c-0.8,0-1.5,0.7-1.5,1.5v1.1c0,0.7-0.5,1.2-1.2,1.2
				c-0.7,0-1.2-0.5-1.2-1.2v-1.1c0-0.9-0.7-1.5-1.5-1.5h-2.6V38H45c0.7,0,1.2,0.5,1.2,1.2v1.1c0,0.9,0.7,1.5,1.5,1.5
				s1.5-0.7,1.5-1.5v-1.1c0-0.7,0.5-1.2,1.2-1.2h22.5v5.6h-2.3c-0.9,0-1.5,0.7-1.5,1.5v0.5c0,0.7-0.5,1.2-1.2,1.2s-1.2-0.5-1.2-1.2
				v-0.5c0-0.9-0.7-1.5-1.5-1.5s-1.5,0.7-1.5,1.5v3.3c0,0.2,0,0.3-0.1,0.5h0.4c0-0.1,0.1-0.3,0.1-0.5v-3.3c0-0.7,0.5-1.2,1.2-1.2
				s1.2,0.5,1.2,1.2v0.5c0,0.9,0.7,1.5,1.5,1.5s1.5-0.7,1.5-1.5v-0.5c0-0.7,0.5-1.2,1.2-1.2h2.3v4.2c0,0.8-0.7,1.5-1.5,1.5h-7.1
				C64.3,49.8,64.2,49.9,64.1,50z M61.3,50.2H43.1c-1.1,0-2-0.9-2-2v-9.8l0.1,0c0.1,0,0.2,0,0.2,0h0.4v4.9h17.9c1,0,1.7,0.8,1.7,1.7
				v3.3c0,0.2,0,0.3,0.1,0.5l0.1,0.2h-0.9l0-0.1c-0.1-0.2-0.1-0.4-0.1-0.6v-3.3c0-0.5-0.4-1-1-1H41.8v4c0,0.7,0.6,1.3,1.3,1.3h17.6
				l0,0c0.1,0.2,0.3,0.4,0.4,0.5L61.3,50.2z M41.2,38.7v9.5c0,1,0.8,1.8,1.8,1.8h17.7c-0.1-0.1-0.2-0.2-0.3-0.4H43.1
				c-0.8,0-1.5-0.7-1.5-1.5V44h18.1c0.7,0,1.2,0.5,1.2,1.2v3.3c0,0.2,0,0.3,0.1,0.5h0.4c-0.1-0.1-0.1-0.3-0.1-0.5v-3.3
				c0-0.9-0.7-1.5-1.5-1.5H41.6v-4.9h-0.2C41.4,38.7,41.3,38.7,41.2,38.7z M61.6,50l-0.2-0.1c-0.1-0.1-0.2-0.2-0.3-0.2L61,49.4h0.6
				V50z M71.5,49.1h-7l0-0.1c0-0.2,0.1-0.4,0.1-0.5v-3.3c0-0.4,0.3-0.7,0.7-0.7c0.4,0,0.7,0.3,0.7,0.7v0.5c0,1.1,0.9,2.1,2.1,2.1
				s2.1-0.9,2.1-2.1v-0.5c0-0.4,0.3-0.7,0.7-0.7h1.7v3.7C72.4,48.7,72,49.1,71.5,49.1z M64.7,48.9h6.8c0.4,0,0.7-0.3,0.7-0.7v-3.5
				h-1.5c-0.2,0-0.5,0.2-0.5,0.5v0.5c0,1.3-1,2.3-2.3,2.3s-2.3-1-2.3-2.3v-0.5c0-0.2-0.2-0.5-0.5-0.5c-0.2,0-0.5,0.2-0.5,0.5v3.3
				C64.7,48.6,64.7,48.8,64.7,48.9z M62.5,49.1c-0.4,0-0.7-0.3-0.7-0.7v-3.3c0-1.1-0.9-2.1-2.1-2.1H42.1v-4.6H45
				c0.4,0,0.7,0.3,0.7,0.7v1.1c0,1.1,0.9,2.1,2.1,2.1c1.1,0,2.1-0.9,2.1-2.1v-1.1c0-0.4,0.3-0.7,0.7-0.7h22v4.6h-1.7
				c-1.1,0-2.1,0.9-2.1,2.1v0.5c0,0.4-0.3,0.7-0.7,0.7s-0.7-0.3-0.7-0.7v-0.5c0-1.1-0.9-2.1-2.1-2.1s-2.1,0.9-2.1,2.1v3.3
				C63.1,48.8,62.8,49.1,62.5,49.1z M42.3,42.9h17.4c1.3,0,2.3,1,2.3,2.3v3.3c0,0.2,0.2,0.5,0.5,0.5c0.2,0,0.5-0.2,0.5-0.5v-3.3
				c0-1.3,1-2.3,2.3-2.3c1.3,0,2.3,1,2.3,2.3v0.5c0,0.2,0.2,0.5,0.5,0.5s0.5-0.2,0.5-0.5v-0.5c0-1.3,1-2.3,2.3-2.3h1.5v-4.2H50.4
				c-0.2,0-0.5,0.2-0.5,0.5v1.1c0,1.3-1,2.3-2.3,2.3c-1.3,0-2.3-1-2.3-2.3v-1.1c0-0.2-0.2-0.5-0.5-0.5h-2.6V42.9z M60.5,49.1H43.1
				c-0.5,0-0.9-0.4-0.9-0.9v-3.7h17.6c0.4,0,0.7,0.3,0.7,0.7v3.3c0,0.2,0,0.4,0.1,0.5L60.5,49.1z M42.3,44.7v3.5
				c0,0.4,0.3,0.7,0.7,0.7h17.2c0-0.1,0-0.3,0-0.5v-3.3c0-0.2-0.2-0.5-0.5-0.5H42.3z M47.7,40.9c-0.4,0-0.7-0.3-0.7-0.7v-1.1
				c0-1.1-0.9-2.1-2.1-2.1h-2.8v-4.6h30.2v4.6h-22c-1.1,0-2.1,0.9-2.1,2.1v1.1C48.4,40.6,48.1,40.9,47.7,40.9z M42.3,36.9H45
				c1.3,0,2.3,1,2.3,2.3v1.1c0,0.2,0.2,0.5,0.5,0.5c0.2,0,0.5-0.2,0.5-0.5v-1.1c0-1.3,1-2.3,2.3-2.3h21.8v-4.2H42.3V36.9z
				 M41.8,38.2h-0.4c-0.1,0-0.2,0-0.3-0.1L41,37.9h0.8V38.2z M72.9,31.6H42.2l20.1-10h0.4c0.1,0,0.3,0,0.4,0l0.6,0l-0.2,0.5
				C63,23,63,23.9,63.3,24.8c0.3,0.9,0.9,1.6,1.8,2c0.8,0.4,1.8,0.4,2.6,0.1c0.9-0.3,1.6-0.9,2-1.8l0.2-0.5l0.4,0.3
				c1.6,1.7,2.5,4,2.6,6.3L72.9,31.6z M43,31.4h29.7l0-0.2c-0.1-2.3-1-4.5-2.6-6.1L70,24.9l-0.1,0.2c-0.4,0.9-1.2,1.5-2.1,1.9
				c-0.9,0.3-1.9,0.3-2.8-0.1c-0.9-0.4-1.5-1.2-1.9-2.1c-0.3-0.9-0.3-1.9,0.1-2.8l0.1-0.2l-0.3,0c-0.1,0-0.2,0-0.4,0h-0.4L43,31.4z
				 M72.4,31.1H44.4l17.9-8.9h0.5l0,0.1c-0.3,0.9-0.3,1.8,0,2.7c0.4,1,1.1,1.8,2.1,2.3c1.9,0.9,4.1,0.2,5.1-1.6l0.1-0.1l0.1,0.1
				c1.3,1.5,2,3.4,2.2,5.4L72.4,31.1z M45.3,30.9h26.9c-0.2-1.8-0.9-3.6-2.1-5c-1.1,1.8-3.4,2.5-5.3,1.5c-1-0.5-1.8-1.3-2.2-2.4
				c-0.3-0.9-0.3-1.8,0-2.7h-0.2L45.3,30.9z M68.3,30.5l-0.9-1.6l2.6-1.6l0.9,1.6L70.9,29L68.3,30.5z M67.7,29l0.7,1.2l2.3-1.4
				L70,27.6L67.7,29z M56.6,30.3L56.6,30.3l-2.2-2.2l1.3-1.3l0.1,0.1l2.1,2.1L56.6,30.3z M54.7,28.1l1.9,1.9l1-1l-1.9-1.9L54.7,28.1
				z M53.5,30.2h-2.7v-1.8h2.7V30.2z M51,30h2.3v-1.4H51V30z M64.4,30.1l-2.7-1l0.6-1.6l2.7,1L64.4,30.1z M62,28.9l2.4,0.9l0.4-1.2
				l-2.4-0.9L62,28.9z M68.5,29.8l-0.4-0.6l1.7-1l0.4,0.7l-0.1,0.1L68.5,29.8z M68.4,29.2l0.2,0.3l1.4-0.8l-0.2-0.3L68.4,29.2z
				 M53,29.7h-1.7v-0.8H53V29.7z M51.5,29.5h1.3v-0.4h-1.3V29.5z M56.6,29.5l-1.4-1.4l0.5-0.5l1.4,1.4L56.6,29.5z M55.5,28.1
				l1.1,1.1l0.3-0.3l-1.1-1.1L55.5,28.1z M64.1,29.4l-1.7-0.6l0.2-0.6l1.7,0.6L64.1,29.4z M62.6,28.6l1.4,0.5l0.1-0.2l-1.4-0.5
				L62.6,28.6z M60.6,28.5l-1.8,0l0-3l1.8,0L60.6,28.5z M59,28.3l1.4,0l0-2.6l-1.4,0L59,28.3z M60.1,27.9l-0.8,0l0-2l0.8,0
				L60.1,27.9z M59.5,27.7l0.4,0l0-1.6l-0.4,0L59.5,27.7z M66.5,26.7c-1.7,0-3.1-1.4-3.1-3.1c0-1.7,1.4-3.1,3.1-3.1
				c1.7,0,3.1,1.4,3.1,3.1S68.3,26.7,66.5,26.7z M66.5,20.7c-1.6,0-2.9,1.3-2.9,2.9c0,1.6,1.3,2.9,2.9,2.9s2.9-1.3,2.9-2.9
				S68.1,20.7,66.5,20.7z M66.5,26.2c-1.4,0-2.6-1.1-2.6-2.6c0-1.4,1.2-2.6,2.6-2.6l0,0c1.4,0,2.6,1.1,2.6,2.6
				C69.1,25,68,26.2,66.5,26.2z M66.5,21.3c-1.3,0-2.4,1.1-2.4,2.4c0,1.3,1.1,2.4,2.4,2.4s2.4-1.1,2.4-2.4
				C68.9,22.3,67.9,21.3,66.5,21.3L66.5,21.3z"/>
		</g>
	</g>
</g>
<g>
	<g>
		<path d="M36.2,30.4H14.8c-0.5,0-0.9-0.4-0.9-0.9v-2.6c0-0.5,0.4-0.9,0.9-0.9h21.4c0.5,0,0.9,0.4,0.9,0.9v2.6
			C37,30,36.7,30.4,36.2,30.4z M15.7,28.7h19.7v-0.9H15.7V28.7z"/>
		<path d="M36.2,30.5H14.8c-0.5,0-1-0.4-1-1v-2.6c0-0.5,0.4-1,1-1h21.4c0.5,0,1,0.4,1,1v2.6C37.1,30,36.7,30.5,36.2,30.5z
			 M14.8,26.2c-0.4,0-0.8,0.3-0.8,0.8v2.6c0,0.4,0.3,0.8,0.8,0.8h21.4c0.4,0,0.8-0.3,0.8-0.8v-2.6c0-0.4-0.3-0.8-0.8-0.8H14.8z
			 M35.4,28.8H15.6v-1.1h19.9V28.8z M15.8,28.6h19.5v-0.7H15.8V28.6z"/>
	</g>
</g>
<g>
	<g>
		<path d="M33.4,46.3H17.4c-0.5,0-0.9-0.4-0.9-0.9c0-0.5,0.4-0.9,0.9-0.9h16.1c0.5,0,0.9,0.4,0.9,0.9C34.3,45.9,33.9,46.3,33.4,46.3
			z"/>
		<path d="M33.4,46.4H17.4c-0.5,0-1-0.4-1-1s0.4-1,1-1h16.1c0.5,0,1,0.4,1,1S34,46.4,33.4,46.4z M17.4,44.7c-0.4,0-0.8,0.3-0.8,0.8
			s0.3,0.8,0.8,0.8h16.1c0.4,0,0.8-0.3,0.8-0.8s-0.3-0.8-0.8-0.8H17.4z"/>
	</g>
</g>
<g>
	<g>
		<path d="M33.8,34.5H17.5c-0.5,0-0.9-0.4-0.9-0.9c0-0.5,0.4-0.9,0.9-0.9h16.3c0.5,0,0.9,0.4,0.9,0.9C34.6,34.1,34.3,34.5,33.8,34.5
			z"/>
		<path d="M33.8,34.6H17.5c-0.5,0-1-0.4-1-1s0.4-1,1-1h16.3c0.5,0,1,0.4,1,1S34.3,34.6,33.8,34.6z M17.5,32.9
			c-0.4,0-0.8,0.3-0.8,0.8s0.3,0.8,0.8,0.8h16.3c0.4,0,0.8-0.3,0.8-0.8s-0.3-0.8-0.8-0.8H17.5z"/>
	</g>
</g>
<g>
	<g>
		<path d="M30.5,24.9c-1.9,0-3.9-1-5.4-2.5c-1.9-1.9-1.9-3.9-1.8-4.9c-1.3-1.1-4.7-4.4-8.4-7.9c-1.2-1.2-2.2-2.1-2.5-2.4
			c-1.3-1.2-0.7-2.9-0.2-3.7c0-0.1,0.1-0.1,0.1-0.1c0,0,0.1-0.1,0.1-0.1c0.7-0.5,2.4-1.1,3.6,0.3c0.3,0.3,1.1,1.2,2.2,2.3
			c3.6,3.8,6.9,7.4,8.1,8.7c1-0.1,3-0.1,4.9,1.8c2.1,2.1,3.4,5.6,1.8,7.7c0,0-0.1,0.1-0.1,0.1C32.2,24.7,31.4,24.9,30.5,24.9z
			 M13.6,4.6c-0.2,0.3-0.4,0.9,0,1.3c0.3,0.3,1.3,1.2,2.5,2.4c2.8,2.7,8,7.7,8.6,8.1c0.3,0.2,0.4,0.6,0.3,1c0,0.1-0.6,1.9,1.2,3.7
			c1.5,1.5,4.1,2.6,5.4,1.7c0.9-1.3-0.2-3.8-1.7-5.4c-1.8-1.8-3.7-1.2-3.7-1.2c-0.4,0.1-0.7,0-1-0.3C24.9,15.4,19.6,9.7,17,7
			c-1.1-1.1-1.9-2-2.2-2.3C14.4,4.2,13.8,4.5,13.6,4.6z"/>
		<path d="M30.5,25c-1.8,0-3.9-1-5.4-2.5c-1.9-1.9-1.9-3.8-1.8-4.9c-1.4-1.2-5-4.7-8.3-7.9c-1.2-1.2-2.2-2.1-2.5-2.4
			c-1.4-1.3-0.8-3-0.2-3.8c0-0.1,0.1-0.1,0.1-0.2c0,0,0.1-0.1,0.1-0.1c0.7-0.5,2.4-1.1,3.7,0.3c0.3,0.3,1,1.1,2.2,2.3
			c3.6,3.8,6.9,7.3,8,8.6c1.1-0.1,3.1-0.1,4.9,1.8c2.2,2.2,3.4,5.7,1.8,7.8c0,0-0.1,0.1-0.1,0.1l0,0C32.3,24.7,31.5,25,30.5,25z
			 M14.2,2.8c-0.7,0-1.3,0.3-1.7,0.5c0,0-0.1,0.1-0.1,0.1c0,0-0.1,0.1-0.1,0.1c-0.5,0.7-1.1,2.3,0.2,3.5c0.3,0.3,1.3,1.2,2.5,2.4
			c3.4,3.2,7.1,6.8,8.4,7.9l0,0l0,0.1c-0.1,1-0.1,2.9,1.7,4.8c1.5,1.5,3.5,2.5,5.3,2.5c0.9,0,1.7-0.3,2.4-0.7l0,0
			c0,0,0.1-0.1,0.1-0.1c1.5-2,0.3-5.4-1.8-7.6c-1.8-1.8-3.8-1.9-4.8-1.7l-0.1,0l0,0c-1.1-1.3-4.5-4.8-8.1-8.7
			c-1.1-1.2-1.9-2-2.2-2.3C15.5,3,14.8,2.8,14.2,2.8z M30.5,23.3c-1.4,0-3.1-0.9-4.3-2.1c-1.8-1.8-1.3-3.7-1.3-3.8
			c0.1-0.3,0-0.7-0.3-0.8c-0.6-0.4-5.8-5.5-8.6-8.2c-1.2-1.1-2.2-2.1-2.5-2.4c-0.5-0.5-0.2-1.2-0.1-1.4l0,0l0,0
			c0.2-0.1,0.9-0.4,1.4,0.1c0.2,0.3,0.9,0.9,1.7,1.8l0.6,0.6c2.7,2.9,7.7,8.2,8.1,8.8c0.2,0.3,0.5,0.4,0.9,0.3
			c0.2-0.1,2.1-0.5,3.9,1.2c1.6,1.6,2.7,4.1,1.7,5.5l0,0C31.4,23.2,31,23.3,30.5,23.3z M13.6,4.7c-0.2,0.3-0.4,0.8,0,1.2
			C14,6.2,15,7.1,16.2,8.3c2.6,2.5,8,7.7,8.6,8.1c0.3,0.2,0.5,0.7,0.4,1.1c0,0.1-0.5,1.9,1.2,3.6c1.5,1.5,4,2.5,5.3,1.7
			c0.8-1.3-0.2-3.7-1.7-5.2c-1.7-1.7-3.5-1.3-3.6-1.2c-0.4,0.1-0.8,0-1.1-0.4c-0.4-0.6-5.6-6.1-8.1-8.8l-0.6-0.6
			C15.6,5.7,15,5,14.8,4.8C14.4,4.3,13.9,4.6,13.6,4.7z"/>
	</g>
</g>
<g>
	<g>
		<path d="M29.2,50.6h-7.4c-3,0-5.5-2.5-5.5-5.5V29.8c0-0.5,0.4-0.9,0.9-0.9s0.9,0.4,0.9,0.9v15.3c0,2.1,1.7,3.8,3.8,3.8h7.4
			c2.1,0,3.8-1.7,3.8-3.8V29.8c0-0.5,0.4-0.9,0.9-0.9c0.5,0,0.9,0.4,0.9,0.9v15.3C34.7,48.1,32.2,50.6,29.2,50.6z"/>
		<path d="M29.2,50.7h-7.4c-3.1,0-5.6-2.5-5.6-5.6V29.8c0-0.5,0.4-1,1-1s1,0.4,1,1v15.3c0,2,1.7,3.7,3.7,3.7h7.4
			c2,0,3.7-1.7,3.7-3.7V29.8c0-0.5,0.4-1,1-1s1,0.4,1,1v15.3C34.8,48.2,32.3,50.7,29.2,50.7z M17.2,29c-0.4,0-0.8,0.3-0.8,0.8v15.3
			c0,3,2.4,5.4,5.4,5.4h7.4c3,0,5.4-2.4,5.4-5.4V29.8c0-0.4-0.3-0.8-0.8-0.8s-0.8,0.3-0.8,0.8v15.3c0,2.1-1.7,3.9-3.9,3.9h-7.4
			c-2.1,0-3.9-1.7-3.9-3.9V29.8C17.9,29.4,17.6,29,17.2,29z"/>
	</g>
</g>
</svg>
