<svg id="Calque_1" data-name="Calque 1" xmlns="http://www.w3.org/2000/svg" viewBox="0 0 283.46 283.46"><title>icons</title><path d="M218.92,45.88H76.25A10.11,10.11,0,0,0,66.15,56V243.7a10.11,10.11,0,0,0,10.1,10.09H218.92A10.11,10.11,0,0,0,229,243.7V56A10.11,10.11,0,0,0,218.92,45.88ZM87.25,72H207.92V104.6H87.25Zm27.87,155.14H86.8V198.8h28.32Zm0-39.66H86.8V159.13h28.32Zm0-40.08H86.8V119.06h28.32Zm46.61,79.74H133.41V198.8h28.32Zm0-39.66H133.41V159.13h28.32Zm0-40.08H133.41V119.06h28.32Zm46.62,79.74H180V160h28.32Zm0-79.74H180V119.06h28.32Z" fill="none" stroke="#fff" stroke-miterlimit="10" stroke-width="6"/></svg>