<svg id="Calque_1" data-name="Calque 1" xmlns="http://www.w3.org/2000/svg" viewBox="0 0 283.46 283.46"><title>icons</title><path id="Tracé_242" data-name="Tracé 242" d="M184.17,56.16c-19.64,16.29-51.89,16.56-51.89,16.56s-.41-26.12,19.23-42.41S203.4,13.76,203.4,13.76,203.81,39.88,184.17,56.16Z" fill="none" stroke="#fff" stroke-miterlimit="10" stroke-width="6"/><path d="M130.86,99.12C79.43,79.86,41,118.07,41,166.71s40.24,88.06,89.9,88.06,89.89-39.42,89.89-88.06S179.12,81.89,130.86,99.12Zm-5.49,29.49a9.1,9.1,0,0,1,12,0,8.39,8.39,0,0,1,0,11.65,9.07,9.07,0,0,1-12,0,8.34,8.34,0,0,1,0-11.65Zm24.69,88.47h-40.2V204.67h15V165.05h-9.1V152.63h21.49v.82a1.19,1.19,0,0,1,.17.48v50.74h12.66Z" fill="none" stroke="#fff" stroke-miterlimit="10" stroke-width="6"/></svg>