<svg id="Calque_1" data-name="Calque 1" xmlns="http://www.w3.org/2000/svg" viewBox="0 0 406.93 112.41"><defs><style>.cls-1{fill:#08f9d6;stroke:#070707;stroke-width:2.99px;}.cls-1,.cls-2{stroke-miterlimit:10;}.cls-2{fill:#fff;stroke:#000;stroke-width:2.72px;}</style></defs><title>logo OMG</title><path d="M20.27,58.57a30.75,30.75,0,0,1,8.44-21.29,29.07,29.07,0,0,1,9.18-6.46,27.63,27.63,0,0,1,22.39,0,28.85,28.85,0,0,1,9.18,6.46,31,31,0,0,1,0,42.59,29,29,0,0,1-9.18,6.45,27.73,27.73,0,0,1-22.39,0,29.2,29.2,0,0,1-9.18-6.45,30.8,30.8,0,0,1-8.44-21.3Zm17.29,0a12.24,12.24,0,0,0,.9,4.69,12.42,12.42,0,0,0,2.47,3.83,11.72,11.72,0,0,0,3.67,2.58,11.06,11.06,0,0,0,9,0,11.72,11.72,0,0,0,3.67-2.58,12.42,12.42,0,0,0,2.47-3.83,12.67,12.67,0,0,0,0-9.38,12.42,12.42,0,0,0-2.47-3.83,11.72,11.72,0,0,0-3.67-2.58,11.06,11.06,0,0,0-9,0,11.72,11.72,0,0,0-3.67,2.58,12.42,12.42,0,0,0-2.47,3.83A12.24,12.24,0,0,0,37.56,58.57Z"/><circle cx="49.52" cy="57.28" r="15.33"/><polygon points="133.93 29.83 133.93 29.8 112.24 29.8 112.24 49.36 108.57 49.36 108.57 29.8 87.45 29.8 87.45 29.83 87.37 29.83 87.37 87.22 105.56 87.22 105.56 87.15 108.57 87.15 108.57 65.97 112.24 65.97 112.24 87.15 115.73 87.15 115.73 87.22 134 87.22 134 29.83 133.93 29.83"/><polygon points="283.73 29.83 260.31 29.83 258.04 34.29 255.84 29.83 232.11 29.83 248.12 60.54 248.12 87.45 267.83 87.45 267.83 60.34 283.73 29.83"/><polygon points="196.55 51.86 167.73 29.83 167.73 87.22 185.27 87.22 185.27 87.12 191.93 87.12 196.73 81.39 201.38 87.12 207.75 87.12 207.75 87.22 225.28 87.22 225.28 29.83 196.55 51.86"/><path class="cls-1" d="M386.82,79.76a7.76,7.76,0,0,1-.67,3.19,7.29,7.29,0,0,1-1.85,2.55,9.31,9.31,0,0,1-2.78,1.7,8.85,8.85,0,0,1-3.36.64,9.26,9.26,0,0,1-3.31-.59,8.2,8.2,0,0,1-2.7-1.7A9.06,9.06,0,0,1,370.3,83a7.06,7.06,0,0,1-.71-3.14,7.62,7.62,0,0,1,.66-3.11,8.31,8.31,0,0,1,1.82-2.59,8.18,8.18,0,0,1,2.73-1.74,9.14,9.14,0,0,1,6.72,0,9.31,9.31,0,0,1,2.78,1.7,7.47,7.47,0,0,1,1.85,2.55A7.59,7.59,0,0,1,386.82,79.76Zm-15-12.92L369.5,26.78h17.23L384.4,66.84Z"/><path class="cls-1" d="M343.6,55.34l16-22a26.09,26.09,0,0,0-9.37-5.58,37.35,37.35,0,0,0-12.53-2.13,34.52,34.52,0,0,0-12.15,2,29,29,0,0,0-9.85,5.92,27.73,27.73,0,0,0-6.62,9.4,31,31,0,0,0-2.89,12.26,30.4,30.4,0,0,0,2,12.2,30.71,30.71,0,0,0,6.36,10.15,29.61,29.61,0,0,0,9.39,6.36A50.28,50.28,0,0,0,338.12,87l4.8-5.22,1.73,5.68c4.7.5,15-.14,15-.14l.22-31.88Z"/><circle class="cls-2" cx="337.07" cy="39.37" r="5.75"/><circle cx="339.08" cy="40.84" r="3.26"/></svg>