<?xml version="1.0" encoding="utf-8"?>
<!-- Generator: Adobe Illustrator 23.1.1, SVG Export Plug-In . SVG Version: 6.00 Build 0)  -->
<svg version="1.1" id="Calque_1" xmlns="http://www.w3.org/2000/svg" xmlns:xlink="http://www.w3.org/1999/xlink" x="0px" y="0px"
	 viewBox="0 0 406.9 112.4" style="enable-background:new 0 0 406.9 112.4;" xml:space="preserve">
<style type="text/css">
	.st0{fill:#364EFF;stroke:#070707;stroke-width:2.99;stroke-miterlimit:10;}
	.st1{fill:#FFFFFF;stroke:#000000;stroke-width:2.72;stroke-miterlimit:10;}
</style>
<title>logo OMG</title>
<path d="M20.3,58.6c0-7.9,3-15.5,8.4-21.3c2.6-2.7,5.7-4.9,9.2-6.5c7.1-3.2,15.3-3.2,22.4,0c3.5,1.5,6.6,3.7,9.2,6.5
	c11.3,11.9,11.3,30.6,0,42.6c-2.6,2.7-5.7,4.9-9.2,6.4c-7.1,3.1-15.3,3.1-22.4,0c-3.4-1.5-6.6-3.7-9.2-6.4
	C23.3,74.1,20.2,66.5,20.3,58.6z M37.6,58.6c0,1.6,0.3,3.2,0.9,4.7c0.6,1.4,1.4,2.7,2.5,3.8c1,1.1,2.3,2,3.7,2.6
	c2.9,1.3,6.1,1.3,9,0c1.4-0.6,2.6-1.5,3.7-2.6c1.1-1.1,1.9-2.4,2.5-3.8c1.2-3,1.2-6.4,0-9.4c-0.6-1.4-1.4-2.7-2.5-3.8
	c-1-1.1-2.3-2-3.7-2.6c-2.9-1.3-6.1-1.3-9,0C43.2,48.1,42,49,40.9,50c-1.1,1.1-1.9,2.4-2.5,3.8C37.9,55.4,37.5,57,37.6,58.6z"/>
<circle cx="49.5" cy="57.3" r="15.3"/>
<polygon points="133.9,29.8 133.9,29.8 112.2,29.8 112.2,49.4 108.6,49.4 108.6,29.8 87.4,29.8 87.4,29.8 87.4,29.8 87.4,87.2 
	105.6,87.2 105.6,87.2 108.6,87.2 108.6,66 112.2,66 112.2,87.2 115.7,87.2 115.7,87.2 134,87.2 134,29.8 "/>
<polygon points="283.7,29.8 260.3,29.8 258,34.3 255.8,29.8 232.1,29.8 248.1,60.5 248.1,87.4 267.8,87.4 267.8,60.3 "/>
<polygon points="196.6,51.9 167.7,29.8 167.7,87.2 185.3,87.2 185.3,87.1 191.9,87.1 196.7,81.4 201.4,87.1 207.8,87.1 207.8,87.2 
	225.3,87.2 225.3,29.8 "/>
<path class="st0" d="M386.8,79.8c0,1.1-0.2,2.2-0.7,3.2c-0.4,1-1.1,1.8-1.9,2.6c-0.8,0.7-1.8,1.3-2.8,1.7c-1.1,0.4-2.2,0.6-3.4,0.6
	c-1.1,0-2.3-0.2-3.3-0.6c-1-0.4-1.9-1-2.7-1.7c-0.8-0.7-1.4-1.6-1.9-2.6c-0.5-1-0.7-2.1-0.7-3.1c0-1.1,0.2-2.1,0.7-3.1
	c0.4-1,1.1-1.9,1.8-2.6c0.8-0.8,1.7-1.3,2.7-1.7c2.2-0.9,4.6-0.9,6.7,0c1,0.4,2,1,2.8,1.7c0.8,0.7,1.4,1.6,1.9,2.6
	C386.6,77.6,386.8,78.7,386.8,79.8z M371.8,66.8l-2.3-40.1h17.2l-2.3,40.1L371.8,66.8z"/>
<path class="st0" d="M343.6,55.3l16-22c-2.7-2.5-5.9-4.4-9.4-5.6c-4-1.4-8.3-2.1-12.5-2.1c-4.1-0.1-8.3,0.6-12.1,2
	c-3.6,1.3-7,3.3-9.9,5.9c-2.8,2.6-5.1,5.8-6.6,9.4c-1.8,3.8-2.8,8-2.9,12.3c-0.2,4.2,0.5,8.3,2,12.2c1.4,3.8,3.6,7.2,6.4,10.2
	c2.7,2.7,5.9,4.9,9.4,6.4c4.6,1.7,9.3,2.7,14.2,3.1l4.8-5.2l1.7,5.7c4.7,0.5,15-0.1,15-0.1l0.2-31.9L343.6,55.3z"/>
<circle class="st1" cx="337.1" cy="39.4" r="5.8"/>
<circle cx="339.1" cy="40.8" r="3.3"/>
</svg>
