<svg id="Calque_1" data-name="Calque 1" xmlns="http://www.w3.org/2000/svg" viewBox="0 0 353.84 283.46"><title>icons</title><path d="M175.61,47.7V244.36H318.14V47.7Zm23.56,28.93h95.41v7.22H199.17Zm0,33.85h95.41v7.21H199.17Zm0,33.84h95.41v7.21H199.17Zm0,33.84h95.41v7.22H199.17Zm0,33.85h95.41v7.21H199.17Z" fill="none" stroke="#fff" stroke-miterlimit="10" stroke-width="6"/><path d="M33,47.7V244.36H175.56V47.7ZM56.59,178.16H152v7.22H56.59Zm0,33.85H152v7.21H56.59Zm47.17-133.5A33.48,33.48,0,1,1,70.28,112,33.48,33.48,0,0,1,103.76,78.51Z" fill="none" stroke="#fff" stroke-miterlimit="10" stroke-width="6"/></svg>