<svg  viewBox="0 0 342.11 283.46"><title>icons</title><path d="M298.47,50.63c0-2.24.31-4.56,3.91-4.76s8.47,4.21,10.05,13h-.06L325,135h0l.7,8.06v0a11.77,11.77,0,0,1-2.94,8.82l-7,8-17.71.21.23-93.23Z" fill="none" stroke="#fff" stroke-miterlimit="10" stroke-width="6"/><path d="M312.85,262.56c-7.62.66-14.31-5.36-14.94-13.43a5.57,5.57,0,0,0,0-.84l.17-75.37,17.53-.23,9.87,73.63C326.29,254.56,320.78,261.63,312.85,262.56Z" fill="none" stroke="#fff" stroke-miterlimit="10" stroke-width="6"/><polygon points="49.03 47.32 45.13 47.32 41.73 87.74 52.14 87.74 49.03 47.32" fill="none" stroke="#fff" stroke-miterlimit="10" stroke-width="6"/><polygon points="66.28 47.32 62.38 47.32 58.98 87.74 69.39 87.74 66.28 47.32" fill="none" stroke="#fff" stroke-miterlimit="10" stroke-width="6"/><polygon points="32.53 47.32 28.64 47.32 25.23 87.74 35.65 87.74 32.53 47.32" fill="none" stroke="#fff" stroke-miterlimit="10" stroke-width="6"/><path d="M69.65,100.79a13.32,13.32,0,0,1-3.92,9.47l-8.16,8.18a4.39,4.39,0,0,0-1.31,3.29l3.89,123a14.74,14.74,0,1,1-29.47.41,4.13,4.13,0,0,0,0-.85l7.71-122.42a4.37,4.37,0,0,0-1.3-3.43L29,110.26A13.31,13.31,0,0,1,25,100.79h0v-1H69.65v1Z" fill="none" stroke="#fff" stroke-miterlimit="10" stroke-width="6"/><path d="M175.07,58.14a96.8,96.8,0,1,0,98.25,95.32A96.8,96.8,0,0,0,175.07,58.14ZM177.43,214a59.1,59.1,0,1,1,58.2-60A59.1,59.1,0,0,1,177.43,214Z" fill="none" stroke="#fff" stroke-miterlimit="10" stroke-width="6"/><path d="M175.07,58.14a96.8,96.8,0,1,0,98.25,95.32A96.8,96.8,0,0,0,175.07,58.14ZM177.43,214a59.1,59.1,0,1,1,58.2-60A59.1,59.1,0,0,1,177.43,214Z" fill="none" stroke="#fff" stroke-miterlimit="10" stroke-width="6"/></svg>